<svg id="Layer_1" data-name="Layer 1" xmlns="http://www.w3.org/2000/svg" viewBox="0 0 137.33 137.33"><defs><style>.cls-1,.cls-5{fill:none}.cls-1,.cls-12,.cls-13,.cls-2,.cls-5,.cls-6,.cls-7,.cls-8{stroke:#2e1714;stroke-miterlimit:10}.cls-2{fill:#98b2ac}.cls-2,.cls-5,.cls-6,.cls-7,.cls-8{stroke-width:.75px}.cls-3{fill:#c46e4a}.cls-4{fill:#9f5840}.cls-6,.cls-9{fill:#fff}.cls-7{fill:#ee8f49}.cls-12,.cls-13,.cls-8{fill:#f9f8cd}.cls-10{fill:#c2d4cf}.cls-11{fill:#2e1714}.cls-12{stroke-width:.25px}.cls-13{stroke-width:.5px}</style></defs><title>Artboard 3 copy 3</title><path class="cls-1" d="M14.56 95.94h-3.72m115.65 0h-3.72"/><circle class="cls-2" cx="69.12" cy="68.53" r="50.06"/><path class="cls-3" d="M26.81 95.55a50 50 0 0 0 84.61 0z"/><path class="cls-4" d="M66.61 95.94h.25l29.6 4.21a2.82 2.82 0 0 1 1.64 4.74L88 115.5s14.89-5.76 23.25-19.56z"/><circle class="cls-5" cx="69.12" cy="68.7" r="50.06"/><path class="cls-6" d="M28 46.79h82.58v49.15H28z"/><path class="cls-7" d="M61.32 59.06h15.71v33.78H61.32z"/><path class="cls-2" d="M35.76 59.01h18.47v18.47H35.76z"/><path class="cls-5" d="M58.7 93.12h20.94v2.61H58.7z"/><path class="cls-1" d="M15.28 95.94h106.61"/><path class="cls-8" d="M28 46.79h82.58v2.42H28z"/><path class="cls-7" d="M112.34 47.06H25.83a.5.5 0 0 1-.27-.91L66.51 19a2.79 2.79 0 0 1 1.54-.47h.72a3.2 3.2 0 0 1 1.73.47l42.1 27.14a.5.5 0 0 1-.26.92z"/><path class="cls-9" d="M65.44 77.76a.07.07 0 0 1-.07-.07v-1.32h-.75v1.32a.07.07 0 0 1-.07.07h-.6a.07.07 0 0 1-.07-.07v-3.37a.07.07 0 0 1 .07-.07h.6a.07.07 0 0 1 .07.07v1.31h.75v-1.31a.07.07 0 0 1 .07-.07H66a.07.07 0 0 1 .07.07v3.37a.07.07 0 0 1-.07.07zm3.06-.06a.16.16 0 0 1-.12.06h-1.31a.16.16 0 0 1-.13-.06l-.28-.28a.17.17 0 0 1-.06-.13v-2.58a.2.2 0 0 1 .06-.13l.28-.28a.17.17 0 0 1 .13-.06h1.3a.13.13 0 0 1 .13.06l.29.28a.18.18 0 0 1 .05.13v2.57a.2.2 0 0 1-.05.13zm-.42-.75v-1.83L68 75h-.49l-.09.08v1.79l.07.07H68zm3.4.81a.07.07 0 0 1-.08-.07v-1.28l-.4 1.28a.1.1 0 0 1-.09.07h-.4a.1.1 0 0 1-.1-.07L70 76.41v1.28a.07.07 0 0 1-.07.07h-.6a.07.07 0 0 1-.07-.07l.14-3.37a.06.06 0 0 1 .06-.07h.64a.08.08 0 0 1 .08.07l.45 1.95.06.42v-.42l.53-1.95a.07.07 0 0 1 .08-.07h.7s.06 0 .06.07l.13 3.37a.07.07 0 0 1-.07.07zm1.17 0a.07.07 0 0 1-.07-.07v-3.37a.07.07 0 0 1 .07-.07h1.83a.07.07 0 0 1 .07.07v.6a.07.07 0 0 1-.07.07h-1.16v.64h.89a.07.07 0 0 1 .07.07v.6a.07.07 0 0 1-.07.07h-.89V77h1.16a.07.07 0 0 1 .07.07v.6a.07.07 0 0 1-.07.07z"/><path class="cls-10" d="M35.76 72.64l9.98-13.63h3.24l-13.22 17.6v-3.97zm1.82 4.83l12.8-18.41.61-.05-12.27 18.46h-1.14z"/><path class="cls-4" d="M35.76 59.01h4.98v18.47h-4.98zm13.48 0h4.98v18.47h-4.98z"/><path class="cls-3" d="M39.27 59.06h.67l.36 18.41h-1.58l.55-18.41zm-1.69-.05h-1.03l.52 18.46h.51V59.01zm13.31.08h-.66l-.37 18.41h1.59l-.56-18.41zm1.69-.05h1.03L53.1 77.5h-.52V59.04z"/><path class="cls-5" d="M35.76 59.01h18.47v18.47H35.76z"/><path class="cls-10" d="M99.04 59.11l.61-.06"/><path class="cls-5" d="M63.61 79.44h10.88v11.87H63.61z"/><path class="cls-2" d="M63.74 61.66h10.75v10.51H63.74z"/><path class="cls-10" d="M63.61 69.53l5.88-8.03h1.91l-7.79 10.37v-2.34zm1.07 2.85l7.54-10.85.36-.03-7.23 10.88h-.67z"/><path class="cls-5" d="M63.74 61.66h10.75v10.51H63.74z"/><path class="cls-2" d="M84.86 58.93h18.47V77.4H84.86z"/><path class="cls-10" d="M85.04 72.83l9.98-13.63h3.23L85.04 76.8v-3.97zm1.82 4.84l12.79-18.41.62-.06-12.28 18.47h-1.13z"/><path class="cls-4" d="M91.47 77.36l-6.43.08V58.97l7.85 1.65-1.42 16.74zm12.03-.01h-4.98V61.63l4.98 1.42v14.3z"/><path class="cls-3" d="M88.53 60.2l.7.2.35 17.04h-1.59l.54-17.24zm-1.67-.82l-1.04-.26.52 18.14h.52V59.38zm13.53 3.08l-.87-.27-.38 15.27h1.59l-.34-15zm1.47.09l.99.35-.49 14.56h-.52l.02-14.91z"/><path class="cls-11" d="M103.5 63.21l-18.71-4.32 1.41-.07 17.13 3.66.17.73z"/><path class="cls-5" d="M84.86 58.93h18.47V77.4H84.86z"/><path class="cls-11" d="M110.58 56.51l-.94-1.2-2.81-1.76-1.25-1.34-.17-.05-.53-.15-.72-.18 1.14.61.64.34.26.69.72.38.53.17 1.91 1.34 1.22 1.15zm-3.97-1.82l.55 1.05 1.89 1.74.77 1.2.12.06.38.19.53.24-.78-.62-.45-.36-.1-.56-.49-.39-.38-.21-1.27-1.29-.77-1.05zM31.54 94.64l.9-1.72-.9-.2-1.13 1.92-2.74-1.11 1.32-3.15 1.11-.91 3.25 2.44-1.81-2.9h2.22l3.19 1.17-2.69-2.23-2.84-.21-1.37.84-1.98 1.19-1.72 3.76v-2.9l1.83-2.89 1.32-.71 1.72-2.73-1.93 1.53-2.14-3.06.92 3.45-1.73 2.5-.03-.16-.18-4.06-.49 1.08-.59-1.28-.2 4.58L23 86.22l.92-3.45-2.14 3.06-1.92-1.53 1.72 2.73 1.32.71 1.93 3.05v2.54l-1.73-3.76-1.97-1.19-1.38-.84-2.84.2-2.68 2.24 3.19-1.17h2.22l-1.81 2.89 3.24-2.43 1.12.91 1.32 3.15-2.74 1.11-1.13-1.93-.9.21.9 1.72-3.44-2.33-.5 1.01 2.94 1.93 1.52.81 2.84-.91 1.83-.31-.92 1.22-2.84 1.32h-1.82l1.82.91 2.84-1.31.92-.58v.47l1.08-.34.44.14v-.06l.91.57 2.84 1.32 1.83-.92H30.1l-2.84-1.32-.91-1.21 1.83.3 2.84.91 1.52-.81 2.94-1.92-.5-1.02-3.44 2.33z"/><path class="cls-12" d="M32.26 83.37a1.56 1.56 0 0 1-1.42 1.57 1.34 1.34 0 0 1 1.42-1.57z"/><path class="cls-12" d="M29.78 83.23A1.56 1.56 0 0 1 31 84.94a1.34 1.34 0 0 1-1.22-1.71zm-11.05-.61a2 2 0 0 1 1.58 2.17 1.69 1.69 0 0 1-1.58-2.17zm7.54 5.59a2 2 0 0 1-.69 2.59 1.69 1.69 0 0 1 .69-2.59zm-9.65 3.72a1.39 1.39 0 0 1 1.75-.69 1.19 1.19 0 0 1-1.75.69zm16.24-.79a2 2 0 0 1 1.58 2.17 1.69 1.69 0 0 1-1.58-2.17zM15.8 86.25a1.5 1.5 0 0 1 1.2 1.64 1.28 1.28 0 0 1-1.2-1.64zm19.48.35A1.5 1.5 0 0 1 34 88.21a1.28 1.28 0 0 1 1.28-1.61zm-13.6 0a1.5 1.5 0 0 1 .48 2 1.28 1.28 0 0 1-.48-2z"/><path class="cls-11" d="M43.16 95.66l.62-1.18-.62-.14-.77 1.32-1.88-.76.9-2.16.77-.62 2.22 1.67-1.24-1.98h1.52l2.19.8-1.84-1.53-1.95-.14-.94.57-1.35.82-1.18 2.57v-1.99l1.25-1.97.9-.49 1.18-1.88-1.32 1.05-1.46-2.09.63 2.36-1.19 1.72-.02-.11-.13-2.79-.33.75-.4-.89-.14 3.14-1.27-1.82.63-2.36-1.46 2.09-1.32-1.05 1.18 1.88.9.49 1.32 2.08v1.74l-1.18-2.57-1.35-.82-.94-.57-1.95.14-1.84 1.53 2.19-.8h1.52l-1.24 1.98 2.22-1.67.77.63.9 2.15-1.88.77-.77-1.33-.62.14.62 1.19-2.35-1.6-.35.69 2.01 1.32 1.05.56 1.94-.63 1.25-.21-.62.84-1.95.9h-1.25l1.25.63 1.95-.91.62-.39v.32l.75-.23.3.1v-.05l.62.39 1.95.91 1.25-.63h-1.25l-1.95-.9-.62-.84 1.25.21 1.94.63 1.05-.56 2.01-1.32-.34-.7-2.36 1.6z"/><path class="cls-12" d="M43.65 87.94a1.07 1.07 0 0 1-1 1.08.92.92 0 0 1 1-1.08z"/><path class="cls-12" d="M42 87.84a1.07 1.07 0 0 1 .81 1.16.92.92 0 0 1-.81-1.16zm-7.62-.41a1.36 1.36 0 0 1 1.09 1.48 1.16 1.16 0 0 1-1.09-1.48zm5.17 3.82a1.36 1.36 0 0 1-.47 1.75 1.16 1.16 0 0 1 .47-1.75zm-6.61 2.55a1 1 0 0 1 1.2-.47.81.81 0 0 1-1.2.47zm11.13-.54a1.36 1.36 0 0 1 1.09 1.48 1.16 1.16 0 0 1-1.09-1.48zm-11.69-3.35A1 1 0 0 1 33.2 91a.88.88 0 0 1-.82-1.09zm13.35.24a1 1 0 0 1-.85 1.1.88.88 0 0 1 .85-1.1zm-9.32 0a1 1 0 0 1 .33 1.35.88.88 0 0 1-.33-1.35z"/><path class="cls-11" d="M107.33 94.58l-.89-1.72.89-.2 1.14 1.92 2.73-1.11-1.31-3.15-1.12-.91-3.25 2.43 1.81-2.89h-2.21l-3.2 1.17 2.69-2.23 2.84-.21 1.38.84 1.97 1.19 1.72 3.76v-2.9l-1.82-2.89-1.32-.71-1.73-2.74 1.93 1.54 2.14-3.06-.92 3.45 1.73 2.5.03-.16.19-4.06.49 1.08.59-1.29.2 4.59 1.84-2.66-.92-3.45 2.14 3.06 1.93-1.54-1.73 2.74-1.32.71-1.92 3.05v2.54l1.72-3.76 1.97-1.2 1.38-.83 2.84.2 2.69 2.24-3.2-1.17h-2.21l1.81 2.89-3.25-2.43-1.12.91-1.32 3.15 2.74 1.11 1.14-1.93.89.21-.89 1.72 3.43-2.33.51 1.01-2.95 1.93-1.52.81-2.84-.91-1.82-.31.91 1.22 2.84 1.32h1.83l-1.83.91-2.84-1.32-.91-.57v.47l-1.09-.34-.44.14v-.07l-.91.58-2.84 1.32-1.83-.92h1.83l2.84-1.32.91-1.21-1.82.3-2.84.91-1.53-.81-2.94-1.92.51-1.02 3.43 2.33z"/><path class="cls-12" d="M106.62 83.31a1.56 1.56 0 0 0 1.38 1.57 1.34 1.34 0 0 0-1.38-1.57z"/><path class="cls-12" d="M109.1 83.17a1.56 1.56 0 0 0-1.25 1.71 1.34 1.34 0 0 0 1.25-1.71zm11.05-.61a2 2 0 0 0-1.58 2.17 1.69 1.69 0 0 0 1.58-2.17zm-7.54 5.59a2 2 0 0 0 .69 2.59 1.69 1.69 0 0 0-.69-2.59zm9.65 3.72a1.39 1.39 0 0 0-1.75-.69 1.19 1.19 0 0 0 1.75.69zM106 91.08a2 2 0 0 0-1.58 2.17 1.69 1.69 0 0 0 1.58-2.17zm17.07-4.89a1.5 1.5 0 0 0-1.2 1.64 1.28 1.28 0 0 0 1.2-1.64zm-19.48.35a1.5 1.5 0 0 0 1.24 1.61 1.28 1.28 0 0 0-1.24-1.61zm13.6 0a1.5 1.5 0 0 0-.48 2 1.28 1.28 0 0 0 .48-2z"/><path class="cls-11" d="M95.71 95.6l-.61-1.18.61-.14.78 1.32 1.87-.76-.9-2.16-.76-.62-2.23 1.67 1.24-1.98h-1.52l-2.19.8 1.84-1.53 1.95-.14.94.57 1.36.82 1.18 2.57v-1.99l-1.25-1.97-.91-.49-1.18-1.88 1.32 1.05 1.47-2.09-.63 2.36 1.18 1.71.03-.1.12-2.79.34.75.4-.89.14 3.14 1.26-1.82-.63-2.36 1.47 2.09 1.32-1.05-1.19 1.88-.9.49-1.32 2.08v1.74l1.18-2.57 1.35-.82.95-.57 1.94.14 1.84 1.53-2.18-.8h-1.52l1.24 1.98-2.23-1.67-.76.63-.91 2.15 1.88.77.78-1.33.61.14-.61 1.19 2.35-1.6.35.69-2.02 1.32-1.04.56-1.95-.63-1.25-.21.63.84 1.94.9h1.25l-1.25.63-1.94-.91-.63-.39v.32l-.74-.23-.3.1v-.05l-.63.39-1.94.91-1.26-.63h1.26l1.94-.9.63-.84-1.25.21-1.95.63-1.04-.56-2.02-1.32.35-.7 2.35 1.6z"/><path class="cls-12" d="M95.22 87.88a1.07 1.07 0 0 0 1 1.08.92.92 0 0 0-1-1.08z"/><path class="cls-12" d="M96.92 87.78a1.07 1.07 0 0 0-.86 1.22.92.92 0 0 0 .86-1.22zm7.57-.41a1.36 1.36 0 0 0-1.09 1.48 1.16 1.16 0 0 0 1.09-1.48zm-5.16 3.82A1.36 1.36 0 0 0 99.8 93a1.16 1.16 0 0 0-.47-1.81zm6.61 2.55a1 1 0 0 0-1.2-.47.81.81 0 0 0 1.2.47zM94.8 93.2a1.36 1.36 0 0 0-1.09 1.48 1.16 1.16 0 0 0 1.09-1.48zm11.69-3.35a1 1 0 0 0-.82 1.12.88.88 0 0 0 .82-1.12zm-13.34.24a1 1 0 0 0 .85 1.1.88.88 0 0 0-.85-1.1zm9.32 0a1 1 0 0 0-.33 1.35.88.88 0 0 0 .33-1.35z"/><path class="cls-13" d="M88.23 79.52h-4.84a1.25 1.25 0 0 1 2.42-.58 1.25 1.25 0 1 1 2.41.62zm7.41 0h-2.42a1.25 1.25 0 1 1 2.42 0zm7.36 0h-2.42a1.25 1.25 0 1 1 2.42 0z"/><path class="cls-13" d="M105.49 79.52l-22.33.04v.65h22.33v-.69z"/><path class="cls-6" d="M83.29 80.29h22.11v5.94H83.29z"/><path class="cls-11" d="M105.49 79.52h-2.08l1.04-.74-.85-1.45-.74-.81 1.07.59.92 1.5.81-.22.95-1.17-.55 1.32-.66.55.09.43zm-9.28 0l.92-.91-.92-.95 1.32.93-.22.43.41.5.44-.74.81-.76-.48-.36.88.36-.48.76-.37.31v.43h.85v-.74l.4-.43v1.18l.8-.01h-4.36zm-7.5 0l.81-1.17-1.25-2.05 1.58 1.91-.3.81.52-.24.88-.76-.62-.36 1.14.36-.92.76-.3.74h.96l.11-.93.4.93 1.69-2.78-.77 1.69-.18.35.33.74h-4.08z"/><path class="cls-12" d="M94.45 75.66a1.56 1.56 0 0 0-1.25 1.71 1.34 1.34 0 0 0 1.25-1.71zm10.55-.22a1.56 1.56 0 0 0-1.25 1.71 1.34 1.34 0 0 0 1.25-1.71zm-6.95.43a1.56 1.56 0 0 0 .58 2 1.34 1.34 0 0 0-.58-2zm-7.51.03A1.56 1.56 0 0 0 91 78a1.34 1.34 0 0 0-.46-2.1z"/><path class="cls-13" d="M50.71 79.52h4.82a1.25 1.25 0 0 0-2.42-.58 1.25 1.25 0 1 0-2.41.62zm-7.42 0h2.42a1.25 1.25 0 1 0-2.42 0zm-7.35 0h2.42a1.25 1.25 0 1 0-2.42 0z"/><path class="cls-13" d="M33.45 79.52l22.32.04v.65H33.45v-.69z"/><path class="cls-6" transform="rotate(-180 44.59 83.26)" d="M33.53 80.29h22.11v5.94H33.53z"/><path class="cls-11" d="M33.45 79.52h2.07l-1.04-.74.86-1.45.73-.81-1.06.59-.92 1.5-.81-.22-.96-1.17.55 1.32.66.55-.08.43zm9.28 0l-.92-.91.92-.95-1.33.93.22.43-.4.5-.44-.74-.81-.76.48-.36-.89.36.48.76.37.31v.43h-.85v-.74l-.4-.43v1.18l-.8-.01h4.37zm7.5 0l-.81-1.17 1.24-2.05-1.57 1.91.29.81-.51-.24-.89-.76.63-.36-1.14.36.92.76.29.74h-.95l-.11-.93-.41.93-1.69-2.78.77 1.69.19.35-.33.74h4.08z"/><path class="cls-12" d="M44.48 75.66a1.56 1.56 0 0 1 1.25 1.71 1.34 1.34 0 0 1-1.25-1.71zm-10.58-.22a1.56 1.56 0 0 1 1.25 1.71 1.34 1.34 0 0 1-1.25-1.71zm6.98.43a1.56 1.56 0 0 1-.58 2 1.34 1.34 0 0 1 .58-2zm7.51.03a1.56 1.56 0 0 1-.5 2.06 1.34 1.34 0 0 1 .5-2.06z"/><path class="cls-11" d="M59.07 78.45l1 .83-.6 1.21c.16.42.33.9.53 1.37a2.08 2.08 0 0 1 .16 1.19 5 5 0 0 0 .14 2.36 6.88 6.88 0 0 1 .25 2.59q-.24 3.41-.43 6.82a2.34 2.34 0 0 0 .28 1L60.16 97l.71 1a.73.73 0 0 1-.83.63 2 2 0 0 1-2-1.08 3.91 3.91 0 0 0-.49-.65 1.76 1.76 0 0 1 .39-1 .92.92 0 0 0 .19-.85 11.63 11.63 0 0 1-.23-2.75c-.05-.88 0-1.76 0-2.65a4.6 4.6 0 0 0-.35-1.56c-.23-.62-.38-1.27-.55-1.91a1.84 1.84 0 0 0-.45-1 1.94 1.94 0 0 0-.27.35c-.35.78-.68 1.58-1 2.36a.59.59 0 0 0-.07.25 8.58 8.58 0 0 1-.77 2.77 22.38 22.38 0 0 1-1.06 2.62c-.07.18-.17.35-.23.53-.25.7-.5 1.4-.72 2L51 97a.88.88 0 0 1-.29.13 5.14 5.14 0 0 1-2.3-.17 1.21 1.21 0 0 1 .61-.85c.48-.32 1-.57 1.22-1.19 0-.12.22-.2.25-.22.16-.49.31-.89.43-1.3s.22-.87.33-1.31a9.91 9.91 0 0 1 .38-1.49 9.7 9.7 0 0 0 .6-3c0-.28.07-.55.11-.83a7.55 7.55 0 0 0-.3-3.8 2.09 2.09 0 0 1-.06-.31c.18-.22.38-.47.59-.71a1.19 1.19 0 0 0 .35-.91c-.31-.14-.67-.27-.69-.78l.16-.4c-.05-.28-.1-.56-.15-.83a1.2 1.2 0 0 1 .27-1.08 1 1 0 0 0 .24-.89c-.09-.66-.13-1.32-.2-2a4 4 0 0 0-.1-.43c-.48.65-.35 1.54-1.14 1.89 0 1.09-.86 1.59-1.59 2.15l-.11.55c.19.63.78 1 1 1.69-.58-.15-.89-.57-1.4-.74l-.12 1.43h-.16l-.42-1.35c-.39.31-.59.59-.43 1a3.63 3.63 0 0 1 .1.59.68.68 0 0 1-.73-.65 1.85 1.85 0 0 1 .18-1.37c.09-.15.16-.3.24-.47l-.19-.61a15 15 0 0 1 1.59-3.1c.12-.15.21-.32.33-.48a2.92 2.92 0 0 1 .56-.6c.08-.36.15-.71.25-1.06a2.22 2.22 0 0 1 1.13-1.49c.06 0 .14 0 .16-.1a2.8 2.8 0 0 1 2-1.2c.33-.09.67-.15 1-.22l.42-.63-.23-.69c.09-.23.2-.49.28-.76a5.41 5.41 0 0 0 .23-.93.92.92 0 0 1 .38-.71c.46-.32.9-.7 1.53-.51l.57-.29a3.36 3.36 0 0 1 .72.45 1.8 1.8 0 0 1 .57 1.93 1.77 1.77 0 0 0-.08.51 2.25 2.25 0 0 1-.59 1.89c.24.24.24.24 1.28.49l.23.42.16.1a3.46 3.46 0 0 1 .66.48 4.63 4.63 0 0 0 1.13.95 13.18 13.18 0 0 1 1.12.86A3.22 3.22 0 0 0 65 72.72l.61.1.62-.61a1.13 1.13 0 0 1 0 .74l.92.08.21.68-.66.29.43.59c-.33.25-.46-.17-.75-.21l-.53.41c-.23.18-.45.38-.7.55-.48.32-1 .61-1.45.95a2.06 2.06 0 0 1-2.4-.12c-.44-.37-.87-.77-1.34-1.18a3 3 0 0 0-.56 1.63 4.48 4.48 0 0 1-.13 1c-.04.21-.12.49-.2.83zM44 61.77l.11-.07h.05l-.2.14c.05.05.1 0 .14 0l.12-.14a.54.54 0 0 0 .05-.1l-.08.05v-.1h.08l.5-.38a.1.1 0 0 0 0-.13c0-.13-.08-.26-.11-.39l.18.46c.05-.05.12-.09.14-.15s0-.13 0-.19l.12.19.67-.47-.92.68v.07l.17-.1c0 .08-.16.07-.15.17h-.06v-.16L44 62h.09c-.2.14-.2.14-.21.22a2.61 2.61 0 0 0 .32-.22c.08-.06.15-.14.23-.21v.06h.1l-.2.12.11-.06v.08h.08l.85-.51a1.06 1.06 0 0 1 .36-.18.56.56 0 0 0 .42-.35.65.65 0 0 1 .11-.16v.07l-.38.76a.18.18 0 0 1-.13.11l-.83.2h-.07l1.05-.24a1.6 1.6 0 0 1-.48.17 4.57 4.57 0 0 0-.56.12l-.06.07h.15c-.06.08-.2 0-.21.16s-.22.07-.34.09l.12.14.46-.11v.31s-.07 0-.07.06v.07a.33.33 0 0 0 .29 0l.57-.22v.09l.54-.14v.1a5.44 5.44 0 0 0-1.42.33l.05-.08c-.09 0-.11 0-.17.09v-.11h-.6l.41.11-.06.06a.63.63 0 0 0 0 .09v-.13h-.1l-.08.17c-.07 0-.14-.05-.22 0 .23.11.4.3.65.33a.42.42 0 0 1-.27-.06l-.35-.22h-.06l.45.29h.98-.11l.77.38h.05v.09l-.81-.37-.26-.13h-.58c-.05 0-.07 0-.08.07a.11.11 0 0 1 0 .06l-.2.19.21-.21-.21.22.1.16-.16.09.59.86-.07-.08a10.62 10.62 0 0 1-.76-.98s-.06-.07-.11 0-.06 0-.1 0l.22.52c0-.09-.11-.12-.26-.08h.07s.07 0 .09-.05-.06-.13-.09-.15v.1a.45.45 0 0 0-.09-.1.22.22 0 0 0-.13 0h.06-.06v.2l-.06-.26v.42V64c0-.07 0 0-.05 0s-.06 0-.06.07v.4l.1.91a.12.12 0 0 1 0 .07l-.15-.4v-.07c0-.01-.06-.07-.06-.13 0-.22 0-.45.06-.67V64v.08V64l-.09.18v-.11l.09-.33a.62.62 0 0 0 0-.11l-.14.28.15-.36-.12.2A.25.25 0 0 0 43 64c-.1 0-.11 0-.14.07a.74.74 0 0 1-.07.16v-.41c0-.01-.09 0-.15 0a.81.81 0 0 0-.14.28c0 .09-.07.19-.12.28l.11-.34-.34.43c.08-.19.25-.33.33-.52l-.51.74v-.07c.15-.23.31-.46.47-.68a.91.91 0 0 0 .15-.38.4.4 0 0 1 0-.11v-.08h.07v-.16l-.23.17v-.05h-.08l.23-.16h-.13l-.13.15a.46.46 0 0 0 0 .1l.08-.05v.11h-.08l-.5.37c-.07 0-.06.09 0 .16s.08.29.12.43l-.26-.45c-.16.06 0 .17 0 .27l-.12-.18-.71.5 1-.71v-.07l-.16.1c0-.08.15-.06.14-.16h.06v.16l.78-.83h-.1c.1-.07.2-.09.23-.2a1.12 1.12 0 0 0-.26.16.66.66 0 0 1-.3.19l.19-.12-.11.06v-.06h-.07l-.89.54a.66.66 0 0 1-.26.13c-.1 0-.2.07-.31.1l.66-.33v-.06h.06l.33-.2.72-.4h.05v-.1l-.77.55-.07-.06-.63.13a.15.15 0 0 0-.07.06l-.61.78a.4.4 0 0 1-.08.08v-.07l.52-.79a.19.19 0 0 1 .1-.07l.86-.21a.11.11 0 0 0 .06 0c-.35.1-.72.12-1.06.24a1.66 1.66 0 0 1 .45-.16 6 6 0 0 0 .6-.12s.06 0 .08-.08l-.18.06c.07-.08.2-.05.22-.16a1.56 1.56 0 0 0 .34-.09l-.37-.13h-.06l-.25.07h-.16v-.3h-.23.15c.1 0 .1 0 .11-.1a.35.35 0 0 0-.33 0c-.16.08-.33.13-.5.19h-.08v-.08l-.69.13a.19.19 0 0 1 .16-.11 4.82 4.82 0 0 0 1.32-.28h.08l-.07.09h.11c.02 0 0-.06.08-.08v.06h.61v-.06l-.39-.11L42 62v.1h.1l.08-.17h.2a2.28 2.28 0 0 0-.61-.32 1.19 1.19 0 0 1 .21.07l.37.23h.06l-.43-.28h-.9a.13.13 0 0 1-.08 0h.1l-1-.44v-.07l1.16.49h.65c.09 0 .12-.06.08-.11a1.37 1.37 0 0 0 .24-.22l-.12.11c.1-.11.1-.11 0-.24h.08a.19.19 0 0 0 .07-.06h-.16.05l-.57-.83.1.12a10.3 10.3 0 0 1 .8 1.1s.05.07.11 0a.31.31 0 0 1 .1 0l-.22-.52s0 .12.12.09 0 .05 0 .07 0 .12.1.14l-.06-.26c0 .14.14.12.24.11V61v.17-.42.42c0 .06 0 0 .05 0s.06-.05.06-.08v-1.34a.29.29 0 0 1 0-.1l.06.55v-.07.87a.64.64 0 0 0 0 .12v-.07.08l.36-.13-.12.42a.91.91 0 0 0 0 .13l.15-.3-.16.38v-.06a1.67 1.67 0 0 1 .14-.2.19.19 0 0 0 .06-.2.39.39 0 0 1 0-.07c.08 0 .1 0 .13-.06a2.09 2.09 0 0 1 .09-.22c0 .12 0 .25-.06.37s0 .09 0 .09h.14a1 1 0 0 0 .18-.37 1.32 1.32 0 0 1 .08-.17L44 61l.33-.41c-.08.19-.24.33-.33.51l.51-.74a.46.46 0 0 1 0 .07c-.15.22-.3.45-.46.66a.92.92 0 0 0-.15.4v.12-.08c-.05.1.07.1.08.16h-.1v.17zm-1.28 1.14c-.06.07 0 .07 0 .11l.12-.17h-.07l.13-.09-.23.14zm.28-.71a.28.28 0 0 0 0-.09v-.19c0-.08-.06-.06-.11 0l.19.3-.18-.22.16.2zm.68-.62l.07-.21h-.12v.31c.07 0 .19-.19.19-.32l-.06.09zm-.41 2c0-.08 0-.19.1-.25-.12 0-.14.06-.11.18v.15s0 .06.08 0v-.3a.29.29 0 0 0 0 .06 1 1 0 0 0-.03.11zm1.07-.07c-.09-.07-.14 0-.27.11l.17.23.24-.2-.15-.14.14.09-.17-.13zm.53-1.71v.07l.63-.13h.05l.28-.45-.63.32v.06h-.06l-.32.19h-.05l-.72.41h-.06v.1zm-.42.87l.39.08v-.1a.86.86 0 0 1-.43-.09h.44v-.26a1.05 1.05 0 0 0-.44.15c-.11-.06-.18.07-.27.05s0 .08 0 .11v.12h.66l-.54-.12zm-2.43 0h-.41v.22a1 1 0 0 0 .45-.16h.25v-.23h-.65l.52.12-.53-.13v.11a1 1 0 0 1 .41-.02zm-.1-1l.16.14a.08.08 0 0 0 .11 0l.14-.12-.18-.25zm2.14 1.93h-.16l-.05.1a.45.45 0 0 0 .39-.16l-.07-.06-.17-.31h-.09a.09.09 0 0 0 0 .08zm-1.66-1.91h.12a.07.07 0 0 0 .05-.1.44.44 0 0 0-.38.17l.27.18h.09c.03 0 0-.06 0-.09zm.07-.34a.46.46 0 0 0-.32-.3s0 .18.19.4l.09-.08zM44 63.78a.46.46 0 0 0 .29.29l-.21-.34-.1.08zm-.88-.78l-.25.39h.05l.14-.23v.11l-.09.13h.13zm.35-1.22c-.06.09-.11.38-.06.42l.25-.38c-.09.05-.1.17-.17.24v-.11l.09-.13zm-.65 1.68c-.08 0-.19.21-.19.32l.06-.09.06-.1-.07.19c.12 0 .13 0 .13-.1s.01-.17.01-.24zm.1-1.64l-.07-.15c0-.09-.06-.1-.17-.07l.15.28zm.42 1.11c-.1.11 0 .23 0 .35s.1 0 .11-.06-.06-.22-.12-.31zm-.18-.67v-.31c0-.07 0-.06-.06 0a.16.16 0 0 0-.07.09.4.4 0 0 0 .13.19zm.42 1.1l.05.11c0 .1.06.1.17.08l-.15-.28zm-1.49-.62c.06.14.09.15.2.09s.06 0 0-.08a.1.1 0 0 0-.08 0zm2.3-.28a.51.51 0 0 0-.11-.11h-.1s-.06 0 0 .08a.09.09 0 0 0 .07 0zm-2.31-.25l.24.07v-.11a.45.45 0 0 0-.17-.08s-.04.04-.06.09zm2.07.71v.11a.37.37 0 0 0 .16.08s0-.08.07-.13zm-1.3 1v-.15c0-.05 0-.11.07-.17h-.13zm.78-2.56l-.12.36h.13zm-1 .27a.69.69 0 0 0-.11-.16s-.08 0-.12.06.02.07.19.03zm1.55 2.11c-.08-.14-.08-.15-.23-.1a.71.71 0 0 0 .11.16s.03-.1.08-.13zm-1.07-2.2v.31c.07 0 .1-.12.08-.23s-.05-.16-.12-.14zm.47.89a.33.33 0 0 0 .25-.14h-.06l.08-.06-.09-.08c0 .07-.11.1-.08.2zm.29 0l-.16.06v.13c.13-.13.15-.16.11-.28zm-1 .27c-.16 0-.18.06-.14.18l.15-.05v-.12zm-.3.55c.08.07.15 0 .21-.08l-.14-.17zM44 62c-.08-.07-.15 0-.21.08l.08.07zm-.07.9c-.08.09-.08.09 0 .14H44V63a.77.77 0 0 0-.09-.13zm-1.34-.61c.08-.09.08-.11 0-.14h-.06a.07.07 0 0 0 0 .06zm.87.69l.1.25c0 .07.06.06.11 0zm.63-.52a.16.16 0 0 0-.08.26v-.2.13zm-1.62.21v-.13.19c0 .06.12-.09.06-.25zm-.72.52l.37-.24a.64.64 0 0 0-.38.21zm3-1.2l-.37.24a.49.49 0 0 0 .35-.23zm-1.93-.67h.09v-.1h-.13v.1h.08zm.91 2.68v-.09h-.13c-.01.09-.01.09.13.09zm-1.17-2.58l.06.1.12-.1zm1.18 2.35h.19l-.06-.09zm-.79-2c.11-.06 0-.11 0-.17h-.07zm-.42.63c0-.11-.07-.1-.11-.14v.07zm1.58.39l-.11-.04h-.05l.09.05zm-.17.58l-.09-.08v.14zm-.27.31s-.1 0-.07.09.07 0 .12 0zm-.12-.34c-.11.05 0 .11 0 .16h.08zm-1-1.6l.08.11c.08 0 0-.08 0-.14zm1.27.89v.11h.08zm-1.24-.21l.13.07v-.11c0-.02-.05 0-.08 0zm.33-1.1h-.11v.1c.09-.01.13-.03.1-.09zm0 .29h.08c0-.09 0-.09-.13 0zm.66 1.94c0 .09 0 .09.13.05v-.09zm-.57-.7l-.1.15.14-.1zm.56-.56l.07-.14-.15.1zm.18.31l.05.12c-.01-.09-.02-.1-.09-.12zm-.92-.06l-.06-.14c-.05.1-.05.11.03.14zm.29-.69c.13 0 .16-.09.09-.21a.3.3 0 0 1-.12.21zm1 .52l-.1-.07v.13zm-.45.72l-.16-.2zm-1-.24v-.11h-.09zm1.18.84l.12-.07h-.26zm-1-1.48l-.05.1h.13zm1.12-.39l-.1.18zm.06 1h-.1l.06.1zm-1.17.49l.1-.19zm0-1.53l.08.18zm.94 2.22l-.06-.13c.02.02 0 .13.06.13zm0-.65l-.08-.18zm-1.09-2.17l.07.15c-.02-.13-.03-.17-.1-.16zm.12.35v-.07l-.12.07zm-.66.21l-.16-.16z"/><path class="cls-11" d="M45.16 64v.2c-.13-.06-.18-.2-.27-.3l.21.17.05-.15.89.82c-.34-.18-.55-.51-.88-.74zm-2.46-.13h.06l-.06.52zm.39.13l-.12.3.06-.17H43l.13-.24L43 64l.06-.07zm.91.37l.19.4-.18-.41zm-1 .05l.15-.24-.14.23zm-1.47-1.59l-.23.06c.07-.05.16 0 .23-.06zm-.13-1.77l-.05.15-.89-.82c.32.2.53.53.85.75v-.2c.15.07.19.24.31.34zm2.39.2h-.06l.06-.51zm-.27-.35v.14h.06l-.13.25.1-.17-.06.08.11-.28zm-1.2-.65l.19.42-.2-.42zm1.18.45l-.16.25.15-.26zm1.69 1.56h-.2l.2-.05zM43.53 49.1l-.61 1.39-.23 3.31-.59 1.73.04.18.11.53.18.73v-2.03l.49-.55v-.81l-.1-.55.27-2.32.44-1.61z"/></svg>