<svg id="Layer_1" data-name="Layer 1" xmlns="http://www.w3.org/2000/svg" viewBox="0 0 137.33 137.33"><defs><style>.cls-1,.cls-5{fill:none}.cls-1,.cls-10,.cls-2,.cls-5,.cls-6,.cls-7,.cls-8{stroke:#2e1714;stroke-miterlimit:10}.cls-2{fill:#98b2ac}.cls-2,.cls-5,.cls-6,.cls-7,.cls-8{stroke-width:.75px}.cls-3{fill:#c46e4a}.cls-4{fill:#9f5840}.cls-6,.cls-9{fill:#fff}.cls-7{fill:#ee8f49}.cls-10,.cls-8{fill:#f9f8cd}.cls-10{stroke-width:.5px}.cls-11{fill:#c2d4cf}</style></defs><title>Artboard 3 copy</title><path class="cls-1" d="M14.56 95.38h-3.72m115.65 0h-3.72"/><circle class="cls-2" cx="69.29" cy="68.13" r="50.06"/><path class="cls-3" d="M26.81 95a50 50 0 0 0 84.61 0z"/><path class="cls-4" d="M66.61 95.38h.25l29.6 4.21a2.82 2.82 0 0 1 1.64 4.74L88 114.93s14.89-5.76 23.25-19.56z"/><circle class="cls-5" cx="69.12" cy="68.13" r="50.06"/><path class="cls-6" d="M28 46.23h82.58v49.15H28z"/><path class="cls-7" d="M61.32 58.5h15.71v33.78H61.32z"/><path class="cls-2" d="M35.76 58.44h18.47v18.47H35.76zm48.49 0h18.47v18.47H84.25z"/><path class="cls-6" d="M58.7 92.56h20.94v2.61H58.7z"/><circle class="cls-8" cx="23.12" cy="87.53" r="7.84"/><path class="cls-1" d="M15.28 95.38h106.61"/><path class="cls-8" d="M28 46.23h82.58v2.42H28z"/><path class="cls-7" d="M112.34 46.49H25.83a.5.5 0 0 1-.27-.91l41-27.18a2.79 2.79 0 0 1 1.54-.47h.72a3.2 3.2 0 0 1 1.73.51l42.1 27.14a.5.5 0 0 1-.31.91z"/><path class="cls-9" d="M65.44 77.19a.07.07 0 0 1-.07-.07V75.8h-.75v1.32a.07.07 0 0 1-.07.07h-.6a.07.07 0 0 1-.07-.07v-3.37a.07.07 0 0 1 .07-.07h.6a.07.07 0 0 1 .07.07v1.31h.75v-1.31a.07.07 0 0 1 .07-.07H66a.07.07 0 0 1 .07.07v3.37a.07.07 0 0 1-.07.07zm3.06-.05a.16.16 0 0 1-.12.06h-1.31a.16.16 0 0 1-.13-.06l-.28-.28a.17.17 0 0 1-.06-.13v-2.58a.2.2 0 0 1 .06-.13l.28-.28a.17.17 0 0 1 .13-.06h1.3a.13.13 0 0 1 .13.06l.29.28a.18.18 0 0 1 .05.13v2.57a.2.2 0 0 1-.05.13zm-.42-.75v-1.83l-.08-.12h-.49l-.09.08v1.79l.07.07H68zm3.39.8a.07.07 0 0 1-.08-.07v-1.28L71 77.12a.1.1 0 0 1-.09.07h-.4a.1.1 0 0 1-.1-.07L70 75.84v1.28a.07.07 0 0 1-.07.07h-.6a.07.07 0 0 1-.07-.07l.14-3.37a.06.06 0 0 1 .06-.07h.64a.08.08 0 0 1 .08.07l.45 1.95.06.42v-.42l.53-1.95a.07.07 0 0 1 .08-.07h.7s.06 0 .06.07l.13 3.37a.07.07 0 0 1-.07.07zm1.18 0a.07.07 0 0 1-.07-.07v-3.37a.07.07 0 0 1 .07-.07h1.83a.07.07 0 0 1 .07.07v.6a.07.07 0 0 1-.07.07h-1.16v.64h.89a.07.07 0 0 1 .07.07v.6a.07.07 0 0 1-.07.07h-.89v.65h1.16a.07.07 0 0 1 .07.07v.6a.07.07 0 0 1-.07.07z"/><path class="cls-10" d="M38.67 79.62h-4.83a1.25 1.25 0 0 1 2.42-.62 1.25 1.25 0 1 1 2.41.62z"/><path class="cls-10" d="M43.6 79.62h-4.85a1.25 1.25 0 0 1 2.43-.55 1.25 1.25 0 1 1 2.42.59z"/><path class="cls-10" d="M46.09 79.62h-2.42a1.25 1.25 0 1 1 2.42 0z"/><path class="cls-10" d="M50.95 79.62h-4.79a1.25 1.25 0 0 1 2.4-.66 1.25 1.25 0 0 1 2.39.71z"/><path class="cls-10" d="M53.44 79.62H51a1.25 1.25 0 1 1 2.42 0z"/><path class="cls-10" d="M55.94 79.66h-2.43a1.25 1.25 0 1 1 2.42 0z"/><path class="cls-10" d="M55.94 79.62l-22.33.04v.65h22.33v-.69z"/><path class="cls-6" d="M33.74 80.39h22.11v5.94H33.74z"/><path class="cls-10" d="M88.05 79.62h-4.83a1.25 1.25 0 0 1 2.42-.62 1.25 1.25 0 1 1 2.41.62z"/><path class="cls-10" d="M93 79.62h-4.87a1.25 1.25 0 0 1 2.43-.55 1.25 1.25 0 1 1 2.42.59z"/><path class="cls-10" d="M95.47 79.62H93a1.25 1.25 0 1 1 2.42 0z"/><path class="cls-10" d="M100.33 79.62h-4.79a1.25 1.25 0 0 1 2.4-.66 1.25 1.25 0 0 1 2.39.71z"/><path class="cls-10" d="M102.82 79.62h-2.42a1.25 1.25 0 1 1 2.42 0z"/><path class="cls-10" d="M105.32 79.66h-2.42a1.25 1.25 0 1 1 2.42 0z"/><path class="cls-10" d="M105.32 79.62l-22.33.04v.65h22.33v-.69z"/><path class="cls-6" d="M83.12 80.39h22.11v5.94H83.12z"/><circle class="cls-8" cx="36.85" cy="89.98" r="5.4"/><circle class="cls-8" cx="113.39" cy="87.53" r="7.84"/><circle class="cls-8" cx="99.67" cy="89.98" r="5.4"/><path class="cls-11" d="M35.76 72.08l9.98-13.64h3.24L35.76 76.05v-3.97zm1.82 4.83l12.8-18.41.61-.06-12.27 18.47h-1.14z"/><path class="cls-4" d="M35.76 58.44h4.98v18.47h-4.98zm13.48 0h4.98v18.47h-4.98z"/><path class="cls-3" d="M39.27 58.5h.67l.36 18.41h-1.58l.55-18.41zm-1.69-.06h-1.03l.52 18.47h.51V58.44zm13.31.09h-.66l-.37 18.41h1.59l-.56-18.41zm1.69-.06h1.03l-.51 18.47h-.52V58.47z"/><path class="cls-5" d="M35.76 58.44h18.47v18.47H35.76z"/><path class="cls-11" d="M84.43 72.12l9.98-13.63h3.23l-13.21 17.6v-3.97zm1.82 4.83l12.79-18.41.61-.05-12.27 18.46h-1.13z"/><path class="cls-4" d="M84.43 58.49h4.98v18.47h-4.98zm13.48 0h4.98v18.47h-4.98z"/><path class="cls-3" d="M87.94 58.54h.66l.37 18.41h-1.59l.56-18.41zm-1.69-.05h-1.03l.51 18.46h.52V58.49zm13.31.08h-.67l-.36 18.41h1.58l-.55-18.41zm1.69-.06h1.03l-.52 18.47h-.51V58.51z"/><path class="cls-5" d="M84.25 58.49h18.47v18.47H84.25zM63.61 78.88h10.88v11.87H63.61z"/><path class="cls-2" d="M63.56 61.16h10.75v10.51H63.56z"/><path class="cls-11" d="M63.43 69.04l5.88-8.03h1.91l-7.79 10.37v-2.34zm1.08 2.85l7.53-10.85.36-.03-7.23 10.88h-.66z"/><path class="cls-5" d="M63.57 61.16h10.75v10.51H63.57z"/></svg>