<svg id="Layer_1" data-name="Layer 1" xmlns="http://www.w3.org/2000/svg" viewBox="0 0 137.33 137.33"><defs><style>.cls-1{fill:#6a675f}.cls-1,.cls-2,.cls-3,.cls-6{stroke:#2e1714;stroke-miterlimit:10;stroke-width:.75px}.cls-2,.cls-7{fill:#fff}.cls-3,.cls-5{fill:#98b2ac}.cls-4{fill:#f9f8cd}.cls-6{fill:#ee8f49}</style></defs><title>Artboard 3 copy 9</title><circle class="cls-1" cx="68.67" cy="68.67" r="50.06"/><circle class="cls-2" cx="41.74" cy="39.08" r="2.55"/><circle class="cls-2" cx="58.4" cy="45.26" r=".59"/><circle class="cls-2" cx="28.75" cy="48.54" r=".83"/><circle class="cls-2" cx="40.12" cy="55.3" r="2.01"/><circle class="cls-2" cx="32.08" cy="68.54" r=".64"/><circle class="cls-2" cx="53.26" cy="66.77" r="1.42"/><circle class="cls-2" cx="80.02" cy="24.13" r=".74"/><circle class="cls-2" cx="81.78" cy="45.7" r="1.03"/><circle class="cls-2" cx="92.32" cy="38.2" r="1.67"/><circle class="cls-2" cx="99.11" cy="48.96" r=".42"/><circle class="cls-2" cx="89.58" cy="56.43" r="2.74"/><circle class="cls-2" cx="104.13" cy="57.85" r=".54"/><circle class="cls-2" cx="107.2" cy="44.74" r=".96"/><circle class="cls-2" cx="68.4" cy="58.93" r="1.08"/><circle class="cls-2" cx="45.51" cy="28.79" r=".74"/><circle class="cls-2" cx="24.34" cy="63.73" r=".74"/><circle class="cls-2" cx="29.93" cy="84.32" r="2.01"/><circle class="cls-2" cx="44.39" cy="79.17" r=".98"/><circle class="cls-2" cx="63.84" cy="80.3" r="1.13"/><circle class="cls-2" cx="81.15" cy="76.92" r="1.27"/><circle class="cls-2" cx="71.83" cy="67.56" r=".78"/><circle class="cls-2" cx="98.79" cy="73.29" r=".78"/><circle class="cls-2" cx="111.04" cy="69.42" r="1.08"/><circle class="cls-2" cx="63.28" cy="35.33" r=".56"/><circle class="cls-2" cx="70.26" cy="44.57" r=".78"/><circle class="cls-2" cx="54.78" cy="56.38" r="1.08"/><circle class="cls-2" cx="42.03" cy="93.58" r="1.37"/><circle class="cls-2" cx="55.12" cy="85.49" r=".44"/><circle class="cls-2" cx="57.03" cy="95.64" r="1.18"/><circle class="cls-2" cx="51.59" cy="104.61" r=".83"/><circle class="cls-2" cx="65.75" cy="109.17" r=".78"/><circle class="cls-2" cx="68.4" cy="98.78" r="1.08"/><circle class="cls-2" cx="73.5" cy="85.99" r="1.67"/><circle class="cls-2" cx="79.04" cy="94.02" r=".44"/><circle class="cls-2" cx="80.34" cy="106.74" r="1.3"/><circle class="cls-2" cx="93.94" cy="98.43" r="1.62"/><circle class="cls-2" cx="90.6" cy="85.35" r="1.03"/><circle class="cls-2" cx="102.61" cy="86.33" r=".98"/><circle class="cls-2" cx="88.74" cy="66.18" r=".83"/><circle class="cls-2" cx="40.65" cy="65.88" r=".53"/><circle class="cls-2" cx="76.98" cy="52.36" r=".64"/><circle class="cls-2" cx="46.25" cy="46.43" r=".74"/><circle class="cls-2" cx="26.2" cy="76.28" r=".64"/><circle class="cls-2" cx="52.77" cy="36.83" r=".93"/><circle class="cls-2" cx="82.69" cy="34.99" r=".91"/><circle class="cls-2" cx="110.38" cy="79.74" r=".42"/><circle class="cls-2" cx="104.6" cy="96.6" r=".42"/><circle class="cls-2" cx="72.54" cy="115.22" r=".47"/><circle class="cls-2" cx="37.28" cy="101.57" r=".39"/><circle class="cls-3" cx="69.28" cy="82.31" r="28.52"/><g id="YTUdYY.tif"><path class="cls-4" d="M54.47 77.42l1 .69L55 77c.15-.18.39-.34.46-.56.18-.53.57-1 .11-1.67a1.71 1.71 0 0 1 0-1.62c.68-.79.51-1.79 1-2.61.18-.33.33-.68.53-1.09l-.7.14.36-.68h-.25a21.29 21.29 0 0 0-.29-2.17c0-.15-.48-.29-.74-.3-.79-.05-.76-.42-.42-.94.19-.28.39-.54.63-.86 1 .84 1.74-.1 2.57-.52a1.65 1.65 0 0 1 1-.24c.18 0 .29.54.34.85.12.82.19 1.65.28 2.47 1.2.21 1.59.76 2 2a1.67 1.67 0 0 0 1.3 1c1-.14 1.32.88 2.26.84l.68-.53c.31.74.81 1.39-.35 1.85a3.4 3.4 0 0 0-1.15 1c-.49.55-1 1.14-.41 2a.86.86 0 0 1 0 .53l2.43 1.55.85 2.4.53-.08c.12-.6.23-1.2.34-1.8v-.19c1-.9.35-2.08.51-3.12a2.41 2.41 0 0 1 .24-.55 1.72 1.72 0 0 1 .54.28c.46.53.89 1.09 1.36 1.68l.78-.57 2.58 2.59a2.31 2.31 0 0 1-1.83 1 2.57 2.57 0 0 0-1.49.87 14.12 14.12 0 0 0-1.31 1.8l.18.19 1.92-1.31.44.47c-.79.93-1.38 1.69-2 2.39a5.77 5.77 0 0 1-1.13.82c-.51.33-1 .63-1.57.94.16.19.59.48.66.85s-.44.56-.7.86l.25.23c-.6.75-1.82 1-1.68 2.26-1.27-.42-2.39-1.37-3.85-.83a1 1 0 0 1-.57-.06c-1.35-.35-2.07.16-2.56 1.46a3.61 3.61 0 0 0 0 3.29 2.37 2.37 0 0 0 2.6 1.13c.23-.08.37-.39.58-.58s.45-.36.85-.67c-.21.64-.3 1-.45 1.35a12.35 12.35 0 0 1-.62 1.08 7.07 7.07 0 0 0 1.47.45c1.44.14 1.57.31 1 1.69-.06 0-.13 0-.16-.07-.54-.66-1-1.36-2-1.55-.56-.1-1-.71-1.53-1.08-.28-.2-.57-.51-.88-.53-1.65-.12-2.5-1.4-3.57-2.35a.74.74 0 0 1-.28-.48c.15-1.82-1.08-3.22-1.47-4.87a7.21 7.21 0 0 0-.22-.92c-.2-.53-.47-1-.68-1.57a6.69 6.69 0 0 1-.82-2.2c-.04-1.66-.16-3.45 1.52-4.72zM67 81.9l.37.23-.19-.79-1.18-.05c-.31-1.48-.89-1.62-2.22-.5H65l-.35 2.6h.33a3.53 3.53 0 0 1 .21-.93 3.88 3.88 0 0 1 .66-.74l.47.67.23.33zm13.52 19.86c.62-.31 1.25-.6 1.84-.94s.8-.27.93.38a5 5 0 0 1 3.87-1c-1.16 1.65-2.16 3.28-3.37 4.8-.43.53-1.24.75-1.86 1.14a24.3 24.3 0 0 1-3.76 2.41c-2.13.86-4.4 1.38-6.61 2l-.31-.3c.18-.58.37-1.16.52-1.75s.19-1-.53-1.31c-2.63-1-2.63-1-4.51-3.22l.67-.94-.59-.41a12.11 12.11 0 0 1 1.05-.74c.92-.51.36-1.53.8-2.23s.73-1.3 1.62-1.3l.46 1.13c.31-.37.51-.63.74-.86s.39-.4.57-.39c.73.07 1.45.23 2.17.34s1.78-.06 2.32.37c.95.74 1.82.43 2.77.35 1.21-.11 1.53.35 1.11 1.46a5.93 5.93 0 0 0-.18.76zm9.68-38.17h-.52l.42 1-.22.1L88.44 62l-.88.5c.75 1 1.57 1.92 2.29 3a3.92 3.92 0 0 1 .38 1.37c.12.54-.18.8-.67.79-1 0-.73.59-.63 1.17A21 21 0 0 0 89.3 71c.29 1 .7 2 1.09 3a2.68 2.68 0 0 1 .18 1.26c-.09.55-.44.63-.89.21-1-.89-1.08-1.2-.47-2.29a1.06 1.06 0 0 0-.51-1.6c-1.34-.58-1.34-1.78-1.7-2.79s-.53-2.34-.82-3.51a2.56 2.56 0 0 0-.58-1.09c-.7-.77-1.42-1.51-2.19-2.21a3.73 3.73 0 0 0-1.06-.44l.41 1.6a9.32 9.32 0 0 0-1.3-.88 2.67 2.67 0 0 0-.94-.05c.13.32.16.77.39.93 1.1.72 2.25 1.35 3.36 2l-1.37.69c.11.06 0 0-.15-.1-.9-.87-1.82-1.73-2.67-2.65a6 6 0 0 1-.7-1.33c.56-.19.9-.28 1.22-.42s.53-.24.53-.37a.91.91 0 0 0-.31-.69c-.66-.45-1.36-.85-2.07-1.23s-1.65-.85-2.48-1.28c-.08 0-.17-.13-.18-.21-.05-1.19-.81-1.08-1.63-.93-1.69.32-3.39.62-5.24 1l.33-.91-3 .28c-.19 0-.41.13-.55.06-1.15-.58-1.83.48-2.71.78-.63.21-1.12.8-1.75 1-1 .39-1.81.79-2 2-.06.32-.59.54-1 .86l-.62-.69-.84.14c-.35-.8-.15-.93.66-1.23.46-.17.74-.86 1.09-1.33.21-.28.33-.66.59-.86a5.8 5.8 0 0 0 2.17-2.49c.05-.14.37-.2.58-.26a27.25 27.25 0 0 1 16.53.79 45.72 45.72 0 0 1 5 2.33 9.57 9.57 0 0 1 1.67 1.51c.31.27.61.66 1 .74 1.88.39 2.63 2.07 3.83 3.25zm1.94 8.59l.76.61c1.21-1 1.33-1.68.78-3a7.36 7.36 0 0 1-.18-1.86c.29.46.45.69.58.94a26.93 26.93 0 0 1 3.3 11.93 9.41 9.41 0 0 1-.58 2.85c-.39 1.35-.88 2.66-1.31 4-.25.77-.61.92-1.35.49s-1.27-.84-1.23-1.76a2 2 0 0 0-.24-.95c-.91-1.54-.77-3.2-.61-4.88a3 3 0 0 0-.15-1.41 4.72 4.72 0 0 1-.15-3.47 17.74 17.74 0 0 0 .38-3.49z"/><path class="cls-4" d="M74.81 66.71l1.82 1.44c-.63.92.11 2.23-1 2.55l.73 2.3c-.54-.18-.93-.19-1.15-.39A16.85 16.85 0 0 1 73.73 71c-.1-.12-.09-.34-.13-.52-.1-.47 0-1.09-.32-1.39-.89-1-1.91-1.78-3-2.81l1.13-1.94 1.74.32v-.21c.6.44 1.21.86 1.79 1.32s.06.8-.13.94zm-6.52 2.91c1.22-.48 1.58 0 2.31 2.83-.78-.1-.78-.1-.62-.86a2.13 2.13 0 0 0-1.69-1.97z"/><path class="cls-5" d="M67 81.9l-.53.86-.23-.33-.47-.67a3.88 3.88 0 0 0-.66.74 3.53 3.53 0 0 0-.21.93h-.33l.35-2.6h-1.15c1.33-1.12 1.91-1 2.22.5l1.24.05.19.79z"/></g><path class="cls-6" d="M69.27 51.81c-.54-.92-1.08-1.8-1.6-2.71-1.73-3.1-3.5-6.1-5.17-9.19a18.26 18.26 0 0 1-2-5.61 8.92 8.92 0 1 1 17.55-3.19 10.92 10.92 0 0 1-.56 5.39 38.33 38.33 0 0 1-3.33 7c-1.56 2.72-3.16 5.41-4.76 8.12zm0-22.57a3.17 3.17 0 1 0 3.15 3.17 3.16 3.16 0 0 0-3.11-3.17z" id="_55v1l6.tif" data-name="55v1l6.tif"/><circle class="cls-2" cx="54.19" cy="25.36" r=".49"/><path class="cls-7" d="M70.4 92.14a.07.07 0 0 1-.08-.07v-3.39s0-.06.08-.06h.6s.07 0 .07.06v2.72h1.35a.08.08 0 0 1 .08.07v.6a.07.07 0 0 1-.08.07zm4.31-.06a.16.16 0 0 1-.12.06h-1.31a.16.16 0 0 1-.13-.06l-.28-.28a.17.17 0 0 1-.06-.13V89.1a.2.2 0 0 1 .06-.13l.28-.28a.17.17 0 0 1 .13-.06h1.3a.13.13 0 0 1 .13.06L75 89a.18.18 0 0 1 .05.13v2.57a.2.2 0 0 1-.05.13zm-.42-.75V89.5l-.08-.08h-.49l-.09.08v1.79l.07.07h.58zm3.13.75a.18.18 0 0 1-.14.06H76a.18.18 0 0 1-.13-.06l-.28-.28a.16.16 0 0 1-.05-.13V89.1a.18.18 0 0 1 .05-.13l.28-.28a.15.15 0 0 1 .13-.06h1.3a.17.17 0 0 1 .13.06l.28.28a.16.16 0 0 1 .06.13v.54a.08.08 0 0 1-.07.07h-.6a.07.07 0 0 1-.07-.07v-.14l-.09-.09h-.49l-.08.09v1.77l.07.07h.58l.07-.07v-.15a.07.07 0 0 1 .07-.07h.6a.08.08 0 0 1 .07.07v.57l-.06.09zm2.58.06a.1.1 0 0 1-.09-.07l-.12-.41h-1l-.12.41a.1.1 0 0 1-.09.07H78c-.07 0-.09 0-.08-.07l1-3.37s0-.07.07-.07h.6s.06 0 .07.08l1 3.36s0 .07-.08.07zM79.33 90L79 91h.61zm1.92 2.14a.07.07 0 0 1-.07-.06v-2.71h-.64a.07.07 0 0 1-.08-.07v-.6a.08.08 0 0 1 .08-.08h2a.08.08 0 0 1 .08.08v.59a.07.07 0 0 1-.08.07h-.64v2.71a.07.07 0 0 1-.07.06zm1.75 0a.07.07 0 0 1-.07-.07V88.7a.07.07 0 0 1 .07-.07h.6a.07.07 0 0 1 .07.07v3.37a.07.07 0 0 1-.07.07zm3.11-.06a.16.16 0 0 1-.12.06h-1.31a.16.16 0 0 1-.13-.06l-.28-.28a.17.17 0 0 1-.06-.13V89.1a.2.2 0 0 1 .06-.13l.28-.28a.17.17 0 0 1 .13-.06H86a.13.13 0 0 1 .13.06l.29.28a.18.18 0 0 1 .05.13v2.57a.2.2 0 0 1-.05.13zm-.42-.75V89.5l-.08-.08h-.49l-.09.08v1.79l.07.07h.58zm2.7.81a.11.11 0 0 1-.09-.07l-.61-1.68v1.68a.08.08 0 0 1-.07.07H87a.07.07 0 0 1-.07-.07V88.7a.07.07 0 0 1 .07-.07h.73s.06 0 .08.07l.66 1.93v.06-2a.07.07 0 0 1 .07-.07h.6a.07.07 0 0 1 .07.07v3.37a.07.07 0 0 1-.07.07z"/></svg>