<svg id="Layer_1" data-name="Layer 1" xmlns="http://www.w3.org/2000/svg" viewBox="0 0 137.33 137.33"><defs><style>.cls-1{fill:#f9f8cd}.cls-14,.cls-2{fill:#c46e4a}.cls-3{fill:#9f5840}.cls-4,.cls-5{fill:none}.cls-13,.cls-14,.cls-4,.cls-5,.cls-6,.cls-7,.cls-8{stroke:#2e1714}.cls-10,.cls-13,.cls-14,.cls-4,.cls-5,.cls-6,.cls-7,.cls-8,.cls-9{stroke-miterlimit:10}.cls-13,.cls-5,.cls-6,.cls-7,.cls-8{stroke-width:.75px}.cls-6{fill:#3a3835}.cls-12,.cls-7{fill:#6a675f}.cls-15,.cls-8{fill:#fff}.cls-13,.cls-9{fill:#ee8f49}.cls-9{stroke:#000}.cls-10{fill:#98b2ac;stroke:#231f20}.cls-11{fill:#c2d4cf}</style></defs><title>Artboard 3 copy 8</title><circle class="cls-1" cx="65.79" cy="68.53" r="50.06"/><path class="cls-2" d="M23.48 95.55a50 50 0 0 0 84.61 0z"/><path class="cls-3" d="M104.03 100.65H27.39l-3.91-5.1h84.62l-4.07 5.1z"/><path class="cls-4" d="M123.59 95.77h-3.72"/><circle class="cls-5" cx="65.62" cy="68.53" r="50.06"/><path class="cls-4" d="M12.38 95.77h106.6"/><rect class="cls-6" x="14.57" y="91.75" width="101.75" height="4.02" rx="2.01" ry="2.01"/><rect x="60.52" y="93.1" width="9.85" height="1.32" rx=".66" ry=".66"/><path class="cls-7" d="M24.63 33.4H107a4.38 4.38 0 0 1 4.38 4.38v54H20.24v-54a4.38 4.38 0 0 1 4.39-4.38z"/><path class="cls-8" d="M29 37.26h73.73a4.38 4.38 0 0 1 4.38 4.38v50.11H24.63V41.64A4.38 4.38 0 0 1 29 37.26z"/><circle class="cls-9" cx="94.56" cy="58.45" r="17.99"/><circle class="cls-10" cx="94.56" cy="58.45" r="14.98"/><path class="cls-11" d="M89.64 48.1a11.79 11.79 0 1 1 12.22 20.16c-5.57 3.38 3.78-8.46.4-14s-18.18-2.79-12.62-6.16z"/><path class="cls-11" d="M100 57.54a5.82 5.82 0 1 1-10.6-4.79c1.32-2.93 1.36 3.34 4.29 4.66s7.65-2.8 6.31.13z"/><path class="cls-12" d="M30.04 40.46h41.32v3.01H30.04zm0 5h41.32v3.01H30.04zm0 4.98h41.32v3.01H30.04zm0 5h41.32v3.01H30.04zm0 5.08h41.32v3.01H30.04zm0 5h45.07v3.01H30.04zm0 4.99h48.31v2.92H30.04zm0 5h56.1v3.01h-56.1zm0 4.99h72.27v3.48H30.04zm0 5h72.27v3.01H30.04z"/><rect class="cls-13" x="112.9" y="68.68" width="4.56" height="27.14" rx="2.28" ry="2.28" transform="rotate(-41.55 115.192 82.251)"/><rect class="cls-14" x="119.87" y="88.01" width="5.09" height="5.09" rx="2.54" ry="2.54"/><path class="cls-15" d="M31.85 100a.11.11 0 0 1-.09-.07l-.49-1.23H31v1.23a.07.07 0 0 1 0 .07h-.6a.08.08 0 0 1-.07-.07v-3.36a.07.07 0 0 1 .07-.07H32a.19.19 0 0 1 .13.05l.29.29a.15.15 0 0 1 .05.14v1.27a.15.15 0 0 1-.05.13l-.3.3.51 1.27s0 .07-.05.07zm-.17-2.13v-.51l-.08-.08a.08.08 0 0 0-.07 0H31V98h.53zM33 100a.07.07 0 0 1-.07-.07v-3.36a.07.07 0 0 1 .07-.07h1.83a.07.07 0 0 1 .07.07v.6a.07.07 0 0 1-.07.07h-1.17v.64h.89a.07.07 0 0 1 .07.07v.6a.07.07 0 0 1-.07.07h-.89v.65h1.16a.07.07 0 0 1 .07.07v.6a.07.07 0 0 1-.07.07zm4.13 0a.21.21 0 0 1-.13 0h-1.3a.16.16 0 0 1-.13-.06l-.28-.28a.22.22 0 0 1-.06-.14V99a.07.07 0 0 1 .08-.07h.59a.07.07 0 0 1 .1.07v.23h.63l.09-.08v-.38a.06.06 0 0 0 0-.05l-.08-.07h-.9a.16.16 0 0 1-.13-.06l-.28-.28a.18.18 0 0 1-.06-.13V97a.18.18 0 0 1 .06-.13l.28-.28a.15.15 0 0 1 .13-.06H37a.16.16 0 0 1 .13.06l.28.28a.19.19 0 0 1 .06.14v.52a.07.07 0 0 1-.08.07h-.59a.07.07 0 0 1-.07-.07v-.25h-.62l-.08.08v.4l.07.07h.9a.14.14 0 0 1 .13.06l.28.28a.15.15 0 0 1 .06.13v1.19a.18.18 0 0 1-.06.13zm2.7 0a.16.16 0 0 1-.12.06H38.4a.16.16 0 0 1-.13-.06l-.27-.33a.17.17 0 0 1-.06-.13V97a.2.2 0 0 1 .06-.13l.28-.28a.17.17 0 0 1 .13-.06h1.3a.13.13 0 0 1 .13.06l.29.28a.18.18 0 0 1 .05.13v2.57a.2.2 0 0 1-.05.13zm-.42-.75v-1.87l-.08-.08h-.49l-.09.08v1.79l.07.07h.58zm3.14.75a.16.16 0 0 1-.13.06h-1.3A.17.17 0 0 1 41 100l-.28-.29a.16.16 0 0 1-.06-.13v-3a.07.07 0 0 1 .07-.07h.6a.07.07 0 0 1 .07.07v2.59l.07.07h.58l.07-.07v-2.6a.07.07 0 0 1 .07-.07h.59a.07.07 0 0 1 .07.07v3a.19.19 0 0 1-.05.13zm2.39 0a.11.11 0 0 1-.09-.07l-.49-1.23h-.23v1.23a.07.07 0 0 1-.07.07h-.6a.08.08 0 0 1-.07-.07v-3.36a.07.07 0 0 1 .07-.07h1.6a.19.19 0 0 1 .13.05l.29.29a.15.15 0 0 1 .05.14v1.27a.15.15 0 0 1-.05.13l-.3.3.51 1.27s0 .07-.05.07zm-.17-2.13v-.51l-.08-.08a.08.08 0 0 0-.07 0h-.5V98h.53zm3.11 2.13a.18.18 0 0 1-.14.06h-1.3a.18.18 0 0 1-.13-.06l-.31-.33a.16.16 0 0 1-.05-.13V97a.18.18 0 0 1 .05-.13l.28-.28a.15.15 0 0 1 .13-.06h1.3a.17.17 0 0 1 .13.06l.28.28a.16.16 0 0 1 .06.13v.54a.08.08 0 0 1-.07.07h-.6a.07.07 0 0 1-.07-.07v-.13l-.09-.09h-.49l-.08.09v1.77l.07.07h.58l.07-.07V99a.07.07 0 0 1 .07-.07h.6a.08.08 0 0 1 .07.07v.57l-.06.09zm.85 0a.07.07 0 0 1-.07-.07v-3.36a.07.07 0 0 1 .07-.07h1.83a.07.07 0 0 1 .07.07v.6a.07.07 0 0 1-.07.07H49.4v.64h.89a.07.07 0 0 1 .07.07v.6a.07.07 0 0 1-.07.07h-.89v.65h1.16a.07.07 0 0 1 .07.07v.6a.07.07 0 0 1-.07.07zm4.14 0a.21.21 0 0 1-.13.06h-1.3a.16.16 0 0 1-.13-.06l-.31-.33a.22.22 0 0 1-.06-.14V99a.07.07 0 0 1 .06 0h.59a.07.07 0 0 1 .07.07v.23h.63l.09-.08v-.38a.06.06 0 0 0 0-.05l-.08-.07h-.9a.16.16 0 0 1-.13-.06l-.27-.37a.18.18 0 0 1-.06-.13V97a.18.18 0 0 1 .06-.13l.28-.28a.15.15 0 0 1 .13-.06h1.3a.16.16 0 0 1 .13.06l.28.28a.19.19 0 0 1 .06.14v.52a.07.07 0 0 1-.08.07h-.59a.07.07 0 0 1-.07-.07v-.25h-.62l-.08.08v.4l.07.07h.94a.14.14 0 0 1 .13.06l.28.28a.15.15 0 0 1 .06.13v1.19a.18.18 0 0 1-.06.13z"/></svg>