<svg id="Layer_1" data-name="Layer 1" xmlns="http://www.w3.org/2000/svg" viewBox="0 0 137.33 137.33"><defs><style>.cls-1{fill:#f9f8cd}.cls-16,.cls-2{fill:#c46e4a}.cls-3{fill:#9f5840}.cls-4,.cls-5{fill:none}.cls-13,.cls-16,.cls-4,.cls-5,.cls-6,.cls-7,.cls-8{stroke:#2e1714}.cls-10,.cls-13,.cls-16,.cls-4,.cls-5,.cls-6,.cls-7,.cls-8,.cls-9{stroke-miterlimit:10}.cls-13,.cls-4,.cls-6,.cls-7,.cls-8{stroke-width:.75px}.cls-6{fill:#3a3835}.cls-12,.cls-7{fill:#6a675f}.cls-14,.cls-8{fill:#fff}.cls-13,.cls-9{fill:#ee8f49}.cls-9{stroke:#000}.cls-10{fill:#98b2ac;stroke:#231f20}.cls-11{fill:#c2d4cf}.cls-15{fill:#2e1714}</style></defs><title>Artboard 3 copy 7</title><circle class="cls-1" cx="65.72" cy="78.11" r="50.06"/><path class="cls-2" d="M23.41 105.13a50 50 0 0 0 84.61 0z"/><path class="cls-3" d="M103.96 110.23H27.32l-3.91-5.1h84.62l-4.07 5.1z"/><circle class="cls-4" cx="65.55" cy="78.11" r="50.06"/><path class="cls-5" d="M12.31 105.35h106.6"/><rect class="cls-6" x="14.5" y="101.33" width="101.75" height="4.02" rx="2.01" ry="2.01"/><rect x="60.45" y="102.68" width="9.85" height="1.32" rx=".66" ry=".66"/><path class="cls-7" d="M24.55 43h82.33a4.38 4.38 0 0 1 4.38 4.38v54H20.17v-54A4.38 4.38 0 0 1 24.55 43z"/><path class="cls-8" d="M28.94 46.84h73.73a4.38 4.38 0 0 1 4.38 4.38v50.11H24.56V51.22a4.38 4.38 0 0 1 4.38-4.38z"/><circle class="cls-9" cx="94.49" cy="68.03" r="17.99"/><circle class="cls-10" cx="94.49" cy="68.03" r="14.98"/><path class="cls-11" d="M89.57 57.68a11.79 11.79 0 1 1 12.23 20.16c-5.57 3.38 3.78-8.46.4-14S84 61.05 89.57 57.68z"/><path class="cls-11" d="M99.95 67.12a5.82 5.82 0 0 1-10.62-4.79c1.32-2.93 1.36 3.34 4.29 4.66s7.65-2.8 6.33.13z"/><path class="cls-12" d="M29.97 50.04h41.32v3.01H29.97zm0 4.99h41.32v3.01H29.97zm0 4.99h41.32v3.01H29.97zm0 5h41.32v3.01H29.97zm0 5.08h41.32v3.01H29.97zm0 5h45.07v3.01H29.97zm0 4.99h48.31v2.92H29.97zm0 4.99h56.1v3.01h-56.1zm0 5h72.27v3.48H29.97zm0 5h72.27v3.01H29.97z"/><rect class="cls-13" x="112.83" y="78.26" width="4.56" height="27.14" rx="2.28" ry="2.28" transform="rotate(-41.55 115.117 91.827)"/><path class="cls-14" d="M31.78 109.59a.11.11 0 0 1-.09-.07l-.49-1.23H31v1.23a.07.07 0 0 1-.07.07h-.6a.08.08 0 0 1-.07-.07v-3.37a.07.07 0 0 1 .07-.07h1.6a.19.19 0 0 1 .13.05l.29.29a.15.15 0 0 1 .05.14v1.27a.15.15 0 0 1-.05.13l-.3.3.51 1.27s0 .07-.05.07zm-.17-2.13v-.51l-.08-.08a.08.08 0 0 0-.07 0H31v.74h.53zm1.31 2.13a.07.07 0 0 1-.07-.07v-3.37a.07.07 0 0 1 .07-.07h1.83a.07.07 0 0 1 .07.07v.6a.07.07 0 0 1-.07.07h-1.16v.64h.89a.07.07 0 0 1 .07.07v.6a.07.07 0 0 1-.07.07h-.89v.65h1.16a.07.07 0 0 1 .07.07v.6a.07.07 0 0 1-.07.07zm4.14-.05a.21.21 0 0 1-.13.06h-1.3a.16.16 0 0 1-.13-.06l-.28-.28a.22.22 0 0 1-.06-.14v-.49a.07.07 0 0 1 .08-.07h.59a.07.07 0 0 1 .07.07v.23h.63l.09-.08v-.38a.06.06 0 0 0 0-.05l-.08-.07h-.9a.16.16 0 0 1-.13-.06l-.28-.28a.18.18 0 0 1-.06-.13v-1.19a.18.18 0 0 1 .06-.13l.28-.28a.15.15 0 0 1 .13-.06h1.3a.16.16 0 0 1 .13.06l.28.28a.19.19 0 0 1 .06.14v.52a.07.07 0 0 1-.08.07h-.59a.07.07 0 0 1-.07-.07v-.25H36l-.08.08v.4l.07.07h.94a.14.14 0 0 1 .13.06l.28.28a.15.15 0 0 1 .06.13v1.19a.18.18 0 0 1-.06.13zm2.7 0a.16.16 0 0 1-.12.06h-1.31a.16.16 0 0 1-.13-.06l-.28-.28a.17.17 0 0 1-.06-.13v-2.57a.2.2 0 0 1 .06-.13l.28-.28a.17.17 0 0 1 .13-.06h1.3a.13.13 0 0 1 .13.06l.29.28a.18.18 0 0 1 .05.13v2.57a.2.2 0 0 1-.05.13zm-.42-.75V107l-.08-.08h-.49l-.09.08v1.79l.07.07h.58zm3.14.75a.16.16 0 0 1-.13.06h-1.3a.17.17 0 0 1-.13-.05l-.28-.29a.16.16 0 0 1-.06-.13v-3a.07.07 0 0 1 .07-.07h.6a.07.07 0 0 1 .07.07v2.59l.07.07H42l.07-.07v-2.59a.07.07 0 0 1 .07-.07h.59a.07.07 0 0 1 .07.07v3a.19.19 0 0 1-.05.13zm2.39.05a.11.11 0 0 1-.09-.07l-.49-1.23h-.23v1.23a.07.07 0 0 1-.07.07h-.6a.08.08 0 0 1-.07-.07v-3.37a.07.07 0 0 1 .07-.07H45a.19.19 0 0 1 .13.05l.29.29a.15.15 0 0 1 .05.14v1.27a.15.15 0 0 1-.05.13l-.3.3.51 1.27s0 .07-.05.07zm-.17-2.13v-.51l-.08-.08a.08.08 0 0 0-.07 0h-.5v.74h.53zm3.11 2.08a.18.18 0 0 1-.14.06h-1.3a.18.18 0 0 1-.13-.06l-.28-.28a.16.16 0 0 1-.05-.13v-2.57a.18.18 0 0 1 .05-.13l.28-.28a.15.15 0 0 1 .13-.06h1.3a.17.17 0 0 1 .13.06l.28.28a.16.16 0 0 1 .06.13v.54a.08.08 0 0 1-.07.07h-.6a.07.07 0 0 1-.07-.07v-.1l-.09-.09h-.49l-.08.09v1.77l.07.07h.58l.07-.07v-.15a.07.07 0 0 1 .07-.07h.6a.08.08 0 0 1 .07.07v.57l-.06.09zm.85.05a.07.07 0 0 1-.07-.07v-3.37a.07.07 0 0 1 .07-.07h1.83a.07.07 0 0 1 .07.07v.6a.07.07 0 0 1-.07.07h-1.17v.64h.89a.07.07 0 0 1 .07.07v.6a.07.07 0 0 1-.07.07h-.89v.65h1.16a.07.07 0 0 1 .07.07v.6a.07.07 0 0 1-.07.07zm4.14-.05a.21.21 0 0 1-.13.06h-1.3a.16.16 0 0 1-.13-.06l-.28-.28a.22.22 0 0 1-.06-.14v-.49a.07.07 0 0 1 .08-.07h.59a.07.07 0 0 1 .07.07v.23h.63l.09-.08v-.38a.06.06 0 0 0 0-.05l-.08-.07h-.9a.16.16 0 0 1-.13-.06l-.28-.28a.18.18 0 0 1-.06-.13v-1.19a.18.18 0 0 1 .06-.13l.28-.28a.15.15 0 0 1 .13-.06h1.3a.16.16 0 0 1 .13.06l.28.28a.19.19 0 0 1 .06.14v.52a.07.07 0 0 1-.08.07h-.59a.07.07 0 0 1-.07-.07v-.25h-.62l-.08.08v.4l.07.07h.94a.14.14 0 0 1 .13.06l.28.28a.15.15 0 0 1 .06.13v1.19a.18.18 0 0 1-.06.13z"/><path class="cls-15" d="M57 103.32c-1.36-3.23-1.36-6.9-1-10.65.9-10.73 2-21.45 2.48-32.21.2-6.46-.48-12.92-4.26-18.77-1.38-2.14-1.57-5.26-1.65-8A25.53 25.53 0 0 0 50 22.87a12.11 12.11 0 0 1-1.13-6.1 4.22 4.22 0 0 1 2.88-2.86c1.73-.22 1.84 1.63 1.81 3.05-.05 2.56.71 4.6 4.17 6-.36-2.82-.64-5.06-.94-7.3-.45-3.43-.11-3.82 3.28-4.31a4.3 4.3 0 0 0 2-1.12c2.37-2.1 4.48-1.74 5.41 1.25a70.49 70.49 0 0 1 1.54 7.63c2.56-1.5 3.44-3.12 2.45-5.26-.72-1.55-1.28-2.77.64-3.73a3.59 3.59 0 0 1 4.89 1.4c1.06 1.89 1.72 3.91.74 6.1a31.13 31.13 0 0 1-1.87 3.92c.88.51 1.72 1.08 2.64 1.51 2.94 1.38 3.11 3.73 2.82 6.62-.48 4.71-2 8.72-5.85 11.72a6.34 6.34 0 0 0-2.25 6.06c1.37 13.82.78 27.85 4.75 41.38a33.8 33.8 0 0 1 1.12 7.42c.2 3.26-.57 3.89-3.75 4.34-5.88.82-11.8 1.75-18.35 2.73z"/><rect class="cls-6" x="14.64" y="101.25" width="101.75" height="4.02" rx="2.01" ry="2.01"/><path class="cls-7" d="M24.7 42.9H107a4.38 4.38 0 0 1 4.38 4.38v54H20.31v-54a4.38 4.38 0 0 1 4.39-4.38z"/><path class="cls-8" d="M29.08 46.75h73.73a4.38 4.38 0 0 1 4.38 4.38v50.11H24.7v-50.1a4.38 4.38 0 0 1 4.38-4.39z"/><circle class="cls-9" cx="94.63" cy="67.94" r="17.99"/><circle class="cls-10" cx="94.63" cy="67.94" r="14.98"/><path class="cls-11" d="M89.72 57.59a11.79 11.79 0 1 1 12.22 20.16c-5.57 3.38 3.78-8.46.4-14S84.15 61 89.72 57.59z"/><path class="cls-11" d="M100.09 67a5.82 5.82 0 1 1-10.62-4.79c1.32-2.93 1.36 3.34 4.29 4.66s7.65-2.77 6.33.13z"/><path class="cls-12" d="M30.11 49.95h41.32v3.01H30.11zm0 5h41.32v3.01H30.11zm0 4.98h41.32v3.01H30.11zm0 5h41.32v3.01H30.11zm0 5.09h41.32v3.01H30.11zm0 5h45.07v3.01H30.11zm0 4.98h48.31v2.92H30.11zm0 5h56.1v3.01h-56.1zm0 5h72.27v3.48H30.11zm0 5h72.27v3.01H30.11z"/><rect class="cls-13" x="112.97" y="78.17" width="4.56" height="27.14" rx="2.28" ry="2.28" transform="rotate(-41.55 115.255 91.743)"/><rect class="cls-16" x="119.94" y="97.51" width="5.09" height="5.09" rx="2.54" ry="2.54"/><path class="cls-15" d="M56.95 87.21l1.44 3.1-.19.08-1.37-3.13zM44.28 55.42l1.49 3.28-.14.07-1.51-3.26zm9.14 3.51l-1.26 2-.16-.13 1.17-2z"/><path class="cls-15" d="M57.22 67.12l.88-.55-.05.36.37-.06v.07L56.89 68c.42.4.75.34 1.08-.09s.67-.69 1-1.06a4.21 4.21 0 0 0 .39-.8l-.2-.05-.65.41.05-.81a4.49 4.49 0 0 0 .64-.34c1.3-1 2.57-2 3.89-2.93a.76.76 0 0 0 .29-1c-.31-1-.58-2-.87-3l.18-.06 1.41 3.56c.42-.42 1-.72 1.07-1.14s-.21-1-.28-1.5l.92 1.44L71 57l.1.14-7.1 5.19.26.56 1.32-.78c-.32.59-1.21.51-1.18 1.32l-.48.12-.34-1.2-6 6.41.12.15.69-.24c-1.55 1.06-1.55 1.06-1.63 1.7a20.13 20.13 0 0 0 2.07-1.25c.62-.48 1.14-1.1 1.75-1.61l-.3.43.77-.38.08.11-1.52.9.06.11.88-.45-.21.65a6.52 6.52 0 0 0 .65-.29c2.19-1.31 4.39-2.62 6.58-4a8.16 8.16 0 0 1 2.78-1.35 4.29 4.29 0 0 0 3.23-2.68 5.06 5.06 0 0 1 .86-1.23c-.08.18-.14.36-.23.53-1 2-2 3.92-2.92 5.9a1.35 1.35 0 0 1-1 .83c-2.14.49-4.27 1-6.4 1.55l-.51.15v.19l8.14-1.89a12.33 12.33 0 0 1-3.74 1.29 35.34 35.34 0 0 0-4.36.9c-.21 0-.37.3-.5.56l1.13-.34c-.47.6-1.51.35-1.6 1.23-1-.08-1.73.51-2.63.7l.94 1 3.56-.84-.14 2.41.93.11v.08a4.21 4.21 0 0 1-.58 0c-.36 0-.5.09-.57.44s.1.44.38.57a2.53 2.53 0 0 0 2.24 0c1.42-.6 2.87-1.12 4.37-1.71l-.18.66L75 72.59v.8a42 42 0 0 0-11 2.52l.39-.6c-.69-.37-.86.29-1.29.69l.31-.86H58.8l.23.35h-.36v.12l3.2.88a3.19 3.19 0 0 0-.47.44 4.86 4.86 0 0 0-.36.68h-.07l.38-1-.81-.24-.6 1.3c-.56 0-1-.4-1.71 0 1.77.85 3.07 2.29 5 2.55a3.28 3.28 0 0 1-2.07-.49c-.88-.61-1.81-1.13-2.73-1.69-.14-.09-.31-.15-.46-.22a.32.32 0 0 0 .14.29c1.15.74 2.3 1.5 3.47 2.22a1.41 1.41 0 0 0 .66.13l4.35.17 2.52.13v.14h-.85a.84.84 0 0 0 .37.34l5.94 3a3.12 3.12 0 0 0 .42.14V85c-2.1-1-4.2-1.91-6.3-2.88-.69-.32-1.36-.7-2-1a1.32 1.32 0 0 0-.53-.15c-1.32 0-2.64 0-4-.06-.39 0-.55.13-.59.51a.82.82 0 0 1-.25.45c-.51.51-1 1-1.56 1.49l.17.19 1.6-1.59.08.11-1.61 1.6.78 1.24-1.24.66 4.56 6.67-.11.08-.51-.64a82.09 82.09 0 0 1-6.32-8.72c-.22-.36-.43-.55-.86-.24-.15.11-.44 0-.81 0l1.72 4c-.09-.7-.87-.94-2-.59a3.23 3.23 0 0 0 .59-.13c.25-.11.58-.2.71-.4s-.45-1-.73-1.13l.37.75-.13.08a3.5 3.5 0 0 0-.66-.79 1.66 1.66 0 0 0-1-.17l.5.26-.67-.05v1.53l-.42-1.86v3.28h-.18c-.1-.56-.19-1.11-.3-1.67s-.18-1-.32-1.54c0-.12-.35-.28-.4-.24s-.45.37-.44.55c.06 1 .18 2.05.29 3.08l.74 7.07a.93.93 0 0 1-.11.57c-.39-1-.77-2.05-1.17-3.07-.08-.2-.19-.47-.35-.55-.47-.21-.48-.55-.44-1 .16-1.73.3-3.46.43-5.2 0-.47.18-1-.29-1.38l-.21.59-.07-.67-.67 1.39h-.1c.08-.29.15-.58.23-.86.24-.84.49-1.69.71-2.54a4.83 4.83 0 0 0 .07-.86h-.16l-1.08 2.18h-.09L51 80.48l-.14-.06-.94 1.52a.81.81 0 0 1-.13.19 1.91 1.91 0 0 0-.57 2.41c-.74-.19-.83-.14-1.07.55a5.71 5.71 0 0 1-.57 1.26c.12-.78.21-1.57.36-2.35.07-.36.16-.74-.23-.88s-.69-.33-1.16.12a6.29 6.29 0 0 0-1.1 2.2c-.33.72-.57 1.48-1 2.19l.87-2.6-2.65 3.3c.64-1.47 1.92-2.54 2.56-4l-.15-.1-4 5.71-.08-.1a4 4 0 0 1 .27-.57c1.2-1.75 2.36-3.52 3.62-5.23a7.07 7.07 0 0 0 1.11-2.9 3.07 3.07 0 0 1 .24-.84l.15.42c.18-.29.18-.29-.38-1l.58.15-.06-1.22L44.71 80l.07-.39-.61.1 1.77-1.21c-.41-.36-.72-.37-1 0s-.72.74-1 1.15a3.53 3.53 0 0 0-.35.76l.16.12.64-.4v.82a3.39 3.39 0 0 0-.59.29c-1.28 1-2.54 2-3.85 2.89-.53.37-.5.7-.32 1.24.35 1.09.6 2.2.89 3.31h-.14l-2-3.49c-1.21.49-.23 1.31-.33 2.07L37 85.91l-5.52 3.86-.09-.13 7.45-5.47-.26-.57-1.22.75c.29-.59 1.17-.5 1.06-1.27l.5-.12.34 1.2 6-6.38-.11-.14-.75.22c.73-.5 1.58-.71 1.82-1.54l-.12-.17a8.69 8.69 0 0 0-2 1.27 5.09 5.09 0 0 1-2.33 1.44l1.48-.9-.06-.1-.87.43.22-.49c-.08 0-.14-.09-.18-.07a3 3 0 0 0-.52.22c-2.29 1.38-4.57 2.77-6.87 4.14a5.11 5.11 0 0 1-2 1c-.8.11-1.56.58-2.39.77l5.12-2.58-.12-.5h.09c.15.07.36.24.44.19.85-.49 1.69-1 2.53-1.52a1.58 1.58 0 0 0 .31-.1l5.58-3.12a4.69 4.69 0 0 0 .42-.3l-.34-.75-6 4.23v.06L38.1 79c-1.56.32-3.22.65-4.88 1a1.16 1.16 0 0 0-.56.44q-2.37 3-4.73 6a3.08 3.08 0 0 1-.63.65l.35-.56c1.32-2 2.64-4.07 4-6.09a1.46 1.46 0 0 1 .78-.55c2.2-.56 4.41-1.09 6.61-1.63a.84.84 0 0 0 .46-.27c-2.7.77-5.53.91-8.19 1.85a12.84 12.84 0 0 1 3.45-1.27 46.44 46.44 0 0 0 4.65-.94c.25-.06.45-.35.63-.62l-1.39.49c.52-.62 1.58-.4 1.72-1.24.95 0 1.72-.55 2.62-.72a12.47 12.47 0 0 0-.82-1c-.08-.08-.32-.06-.46 0-.65.16-1.29.36-1.94.51-.39.09-.79.11-1.27.18l.14-2.23-1.78-.22h1.19c.76 0 .76 0 .82-.79a2.68 2.68 0 0 0-2.52-.23c-1.24.58-2.55 1-3.84 1.5l-.63.22.15-.61-5.33 1A1.47 1.47 0 0 1 28 73a37.23 37.23 0 0 0 10.21-2.2l.64-.2-.52.67c.4-.07.7 0 .88-.17s.33-.45.58-.64l-.16.35-.21.46 4.68.18-.28-.45h.3v-.14l-3-.84.53-.87h.06l-.21.85.79.23.6-1.31 1.53.24.07-.24c-1.58-.79-2.84-2.14-4.68-2.46l.06-.18a9.2 9.2 0 0 1 1.61.53c1 .54 1.93 1.17 2.89 1.75l.46.25.08-.13a3.74 3.74 0 0 0-.31-.25c-1.1-.72-2.2-1.43-3.32-2.13a1.27 1.27 0 0 0-.6-.13l-6.3-.26a1 1 0 0 1-.6-.18h.76v-.15l-8-3.37v-.57c3 1.27 6 2.55 9 3.81a3 3 0 0 0 1.05.2c1.32 0 2.64 0 4 .11.66 0 .9-.46.65-.83A10.56 10.56 0 0 0 43 63.17l-.1-.12-.9.83h-.07a.92.92 0 0 1 .09-.16c.74-.87.74-.87.14-1.85 0-.06-.07-.13-.12-.24l.61-.32a1.49 1.49 0 0 0 .56-.43h-.61l.41-.29-4.4-6.42.09-.07.75.94a79.61 79.61 0 0 1 6.18 8.53c.22.35.42.55.86.3a2.38 2.38 0 0 1 .8-.1l-1.71-4c.36.25.33.94.93.72-.06.17-.24.42-.18.54.19.36.17.9.75 1.08l-.43-.82.15-.19c.3 1.11 1.1.92 1.88.82v-1h.1l.3 1.35h.06V59h.18c.1.58.2 1.17.31 1.75s.17 1 .31 1.48c0 .12.36.29.4.25.19-.17.46-.39.47-.6 0-.88 0-1.76-.07-2.63l-.3-7.56a2.24 2.24 0 0 1 .07-.75l.49 4.2h.09l.19-.55h.08v6.8a4.91 4.91 0 0 0 .19.92h.15l.2-.54.08.6.68-1.4h.1c-.31 1.09-.63 2.17-.92 3.26a7.06 7.06 0 0 0-.12 1h.18L53 63h.09l-1.23 3 .15.09c.09-.16.18-.32.28-.47a12.92 12.92 0 0 1 1-1.56 1.46 1.46 0 0 0 .43-1.54 3 3 0 0 1-.07-.56c.62.22.76.15 1-.45a16.15 16.15 0 0 1 .67-1.69c-.15 1-.33 1.9-.45 2.86 0 .23.09.66.23.71.33.1.66.38 1.09 0 .85-.79 1-1.9 1.41-2.86a10.17 10.17 0 0 1 .64-1.34l-.76 2.31 2.57-3.2c-.65 1.43-1.84 2.51-2.51 3.92l.17.11 3.95-5.69.15.08a3.56 3.56 0 0 1-.26.56C60.4 59 59.25 60.7 58 62.38a7.11 7.11 0 0 0-1.19 3.05c0 .25-.08.51-.15.93l-.24-.63c-.42.78.55.78.64 1.23l-.81-.38.07 1.3zm-9.86 8.79c-.44.55.2.55.39.84l.92-1.33-.54.05 1-.71-.1-.17-1.78 1.09s.08.15.11.23zm2.49-5.51a2.16 2.16 0 0 0 0-.7c-.16-.48-.4-.94-.58-1.42s-.45-.49-.86-.21l1.45 2.35-1.11-1.19-.13.11 1.23 1.55.14-.09zm5.27-4.77l.57-1.63c-.8-.11-.92-.09-1 .28v1.75l.29-.24-.33.65c.52.1 1.5-1.48 1.49-2.51-.2.28-.33.47-.45.66s-.37.71-.57 1.04zm-3.17 15.08c.21-.66-.07-1.5.76-1.92-1 .26-1.07.44-.85 1.36 0 .18.06.37.1.56s.16.4.22.61.29.46.6.31v-2.29l-.16-.08a2.25 2.25 0 0 0-.38.49 8.06 8.06 0 0 0-.29.96zm8.25-.53c-.67-.5-1.09-.11-2.06.86l1.31 1.79 1.86-1.58-1.13-1.09 1.06.7.11-.16-1.31-1-.07.07zM64.32 67l.3.54 4.88-1a.66.66 0 0 0 .4-.18c.74-1.14 1.45-2.29 2.18-3.44l-.08-.11-4.86 2.44.15.48c-.19-.09-.41-.28-.49-.23-.83.47-1.63 1-2.45 1.49a2.15 2.15 0 0 0-.42.13l-5.59 3.13c-.15.08-.28.19-.45.3l.36.76zm-3.24 6.75v.07l-.37.13 3 .6.19-.76c-1.15-.15-2.3 0-3.29-.67l3.4.35.21-2a8.13 8.13 0 0 0-3.42 1.18c-.86-.46-1.38.57-2.06.39 0 .35 0 .6-.08.86s-.1.58-.17.94l5.07.21v-.21l-4.14-.92v-.24zm-18.79-.38h-1.21c-.64 0-1.28-.14-1.92-.18-.13 0-.36.13-.37.23-.09.55-.13 1.11-.19 1.72a8 8 0 0 0 3.49-1.24c.25.29 1.37 0 2-.38l.27-1.77-5-.19v.2l4 .9-.07.32-4.09-1-.21.82c1.09.09 2.26-.12 3.3.54zm-.74-8c.4.35.82.69 1.21 1.06a.59.59 0 0 0 .86.06c.37-.29.71-.61 1.08-.94l-1.42-1.94zM58.1 80.2l-1.27-.34-.41.78a3.47 3.47 0 0 0 3-1.26c-.21-.17-.38-.33-.57-.46-.5-.35-1-.68-1.51-1-.27-.2-.53-.21-.67.07a.72.72 0 0 0 .07.63c.4.48.84.96 1.36 1.58zM44.87 66.47l.06-.11c.32.09.66.29.94.23a.52.52 0 0 0 .41-.76 3.37 3.37 0 0 0-2.9 1.35c.69.48 1.38.94 2.06 1.42.25.18.45.25.69 0s.13-.47-.06-.69c-.41-.48-.8-.91-1.2-1.44zm.54-2.63a3.57 3.57 0 0 0-2.49-2.33c-.37.36.11 1.42 1.45 3.08l.7-.6-.07-.09h-.26v-.13zm12 18.82a3.58 3.58 0 0 0 2.26 2.27.46.46 0 0 0 .38-.09.35.35 0 0 0 .05-.33c-.53-.87-1.07-1.73-1.63-2.63l-.74.64.32.11v.09zm-7-6.27l-.29-.09-2 3h.39c.39-.59.76-1.2 1.12-1.78l-.12.82-.7 1 1 .24zM53.16 67c-.48.69-.85 2.92-.48 3.24l1.9-2.94-.17-.13c-.73.39-.78 1.31-1.29 1.88l.13-.81.68-1zm-5 13c-.58.05-1.5 1.61-1.45 2.48a5.07 5.07 0 0 0 .47-.72l.46-.78h.09l-.56 1.45c.91.17 1 .11 1-.74-.03-.57-.04-1.14-.04-1.69zm.75-12.64c-.2-.42-.39-.79-.56-1.17-.32-.71-.48-.78-1.32-.53l1.12 2.18zm3.22 8.55c-.75.86-.25 1.78-.29 2.69.35-.1.77-.21.85-.44.31-.83-.16-1.52-.59-2.28zm-1.36-5.21c.17-.33.37-.54.38-.76v-1.59c0-.36-.24-.47-.48-.31a1.25 1.25 0 0 0-.53.7 3.07 3.07 0 0 0 .6 1.93zM54 79.15c.05.14.08.23.12.32l.4.82c.38.77.43.79 1.34.59L54.7 78.7zm-11.52-4.79c.49 1.05.71 1.14 1.58.67l.16-.06c.28-.12.47-.34.3-.62a.78.78 0 0 0-.58-.36 10.67 10.67 0 0 0-1.46.37zm17.81-2.19l.1-.18a3.93 3.93 0 0 0-.87-.83c-.16-.08-.51.2-.78.32l-.16.06c-.3.12-.43.37-.27.63a.72.72 0 0 0 .55.32 11.73 11.73 0 0 0 1.42-.32zm-17.82-1.92l1.84.5c0-.35.11-.75 0-.85a3.49 3.49 0 0 0-1.31-.62c-.08-.02-.33.59-.53.97zm16 5.47c0 .37-.07.77.07.89a2.84 2.84 0 0 0 1.22.62c.11 0 .35-.6.56-1zm-10.08 7.5c.15-.18.25-.26.27-.35.1-.39.14-.79.25-1.17s.33-.87.51-1.35l-1-.34zm6-19.8h-.06l-.94 2.75 1 .3zm-8.06 2.05a5.34 5.34 0 0 0-.87-1.24c-.12-.09-.62.3-.95.46.54 1.1.54 1.1 1.84.78zm12 16.34c-.6-1.12-.64-1.13-1.81-.76a5.46 5.46 0 0 0 .82 1.23c.09.09.66-.28.98-.47zm-8.25-17v2.37c.55-.19.8-1 .64-1.77-.09-.32-.13-.74-.66-.57zm3.61 6.87a2.51 2.51 0 0 0 1.91-1l-.49.18.65-.44-.66-.62c-.18.56-.87.8-.63 1.51zm2.23-.23l-1.23.45.06 1c1.25-.28 1.4-.44 1.15-1.42zM48 73.59c-1.27.28-1.43.48-1.1 1.42l1.17-.42v-.92c.04-.02 0-.05-.07-.08zm-2.35 4.25c.62.53 1.15.32 1.63-.61l-.6-.57zm11.44-9.18c-.64-.53-1.18-.32-1.63.62l.6.56zm-.55 6.93c-.62.68-.61.73.2 1.11 0 0 .06.11.1.12h.67c0-.21 0-.49-.07-.61a6 6 0 0 0-.85-.62zm-10.31-4.68c.63-.67.59-.86-.14-1.09-.06 0-.09-.11-.15-.13a1 1 0 0 0-.44-.09c-.12 0-.3.14-.31.24a.54.54 0 0 0 .14.43c.27.22.58.41.9.64zM53 76.22l-.19.08c.25.64.53 1.28.76 1.93s.48.45.89.18zm4.87-4a1.26 1.26 0 0 0-.64 2l.26-1.51.24 1h.23zm-12.5 1.64l-.22-1h-.17c0 .49-.28 1 .18 1.46.76-.29.89-.71.49-1.95zm-5.56 4l.12.17 2.88-1.84a5 5 0 0 0-3.02 1.63zm23.09-9.35L60 70.36a3.82 3.82 0 0 0 2.9-1.85zM48 63.33h.73v-.81l-.54-.09h-.5l.08.77.61-.08zm7.17 20.76v-.71h-.62l.3-.13a.57.57 0 0 0-.35-.07h-.31c-.19.82-.19.82.95.91zm-9.05-19.9l.5.76.9-.75v-.18zm9.15 18.16c.54.26.95 0 1.45-.11l-.47-.69zm-6.15-15.19c.89-.43.08-.82.08-1.28l-.57.23zM45.9 72c.19-.85-.53-.75-.83-1.1l-.33.53zm12.2 3a5.91 5.91 0 0 0-.82-.4c-.11 0-.28.08-.42.13.06.12.09.27.19.34a7 7 0 0 0 .71.41zm-1.35 4.47l.05-.23-.72-.59-.24 1.08zm-2.12 2.41c-.32.15-.74.28-.55.71.07.17.52.18.92.29zm-.91-2.61c-.87.42-.09.81-.13 1.27l.61-.19zM46 67l.62.87c.65-.24.25-.66.27-1.08zm9.81 6.86c-.25.5-.16.83.37.88.16 0 .35-.18.65-.35zm-9.59-1.63l1 .53c-.09-.39-.08-.67-.22-.83s-.39-.16-.61-.24zm2.53-8.54h-.86l.32.79c.43-.14.79-.28.5-.8zm-.16 2.25l.65-.35c-.26-.67-.34-.69-1-.36zm5.07 15c.22.69.22.69 1 .41l-.33-.73zm-4.4-5.49l-.51 1.06.1.06 1.1-.77zm4.36-4.34l.5-1.11H54l-1.13.77zm1.36 2.41l-.19.09.42.91c.34-.76.29-.87-.26-1.03zM47.87 73l.19-.09-.48-1.09c-.3.9-.26 1.02.29 1.18zm2.24-5.32c1-.25 1.22-.73.68-1.63a2.33 2.33 0 0 1-.68 1.66zm7.42 4l-.8-.55-.09 1zM54 77.3l.18-.11L53 75.6l-.18.13zm-8-1.88l.18-.15-.16-.85-.72.38zm9.09 6.49l.92-.54h-1.08zM47 70.47l-.4.74 1 .17zm8.65-3.05l-.14-.07-.76 1.42.25.12zm.47 7.87l-.8-.16-.09.12.49.76zm-9.05 3.81l.13.06.8-1.43-.24-.11zm.31-11.79l-.18.08.59 1.42.21-.09zm8.24 16.85l.19-.1-.49-1c-.04.44-.14.94.34 1.1zm-.28-5l.19-.08-.53-1.41-.21.09zM47 62.43l.53 1.14c.09-.9-.04-1.17-.53-1.14zm.93 2.69l-.23-.52-.94.52zm-5.11 1.65l.1-.13-1.24-1-.14.18z"/><path class="cls-15" d="M66.23 84.38l-.08 1.55c-1-.43-1.39-1.54-2.1-2.35l1.62 1.29.41-1.14L73 90l-.13.15c-2.51-1.53-4.14-4.07-6.64-5.77zM37.15 61.64l-.4 1.15-6.88-6.32.14-.15c2.45 1.56 4.08 4.08 6.58 5.8l.09-1.54c1.14.51 1.49 1.84 2.43 2.6z"/></svg>