<svg id="Layer_1" data-name="Layer 1" xmlns="http://www.w3.org/2000/svg" viewBox="0 0 137.33 137.33"><defs><style>.cls-1{fill:#ee8f49}.cls-11,.cls-2{fill:#c46e4a}.cls-3{fill:#9f5840}.cls-4,.cls-9{fill:none}.cls-11,.cls-4,.cls-5,.cls-6,.cls-8,.cls-9{stroke:#2e1714}.cls-11,.cls-4,.cls-5,.cls-6,.cls-7,.cls-8,.cls-9{stroke-miterlimit:10}.cls-11,.cls-4,.cls-5,.cls-6,.cls-8{stroke-width:.75px}.cls-12,.cls-5{fill:#fff}.cls-6,.cls-7{fill:#98b2ac}.cls-7{stroke:#231f20}.cls-8{fill:#f9f8cd}.cls-10{fill:#c2d4cf}.cls-13{fill:#2e1714}</style></defs><title>Artboard 3</title><circle class="cls-1" cx="68.7" cy="68.53" r="50.06"/><path class="cls-2" d="M26.39 95.55a50 50 0 0 0 84.61 0z"/><path class="cls-3" d="M71.06 95.55h-.25L41.2 99.79a2.82 2.82 0 0 0-1.64 4.74l10.09 10.57s-14.89-5.76-23.25-19.56z"/><circle class="cls-4" cx="68.7" cy="68.7" r="50.06"/><path class="cls-5" d="M27.58 46.79h82.58v49.15H27.58z"/><path class="cls-6" d="M38.55 59.34h15.71v33.78H38.55z"/><path class="cls-7" d="M65.34 59.34h33.64v18.47H65.34z"/><path class="cls-5" d="M27.98 38.52h82.58v2.42H27.98z"/><path class="cls-8" d="M45.83 47.49h-8.94v-.17.17h-9a4.63 4.63 0 0 0 9 2.15 4.63 4.63 0 1 0 9-2.32z"/><path class="cls-8" d="M64.13 47.49h-9v-.17.17h-9a4.63 4.63 0 0 0 9 2 4.63 4.63 0 1 0 9-2.2z"/><path class="cls-8" d="M73.4 47.49h-9a4.64 4.64 0 1 0 9-.17z"/><path class="cls-8" d="M91.47 47.49h-8.76v-.17.17h-9A4.63 4.63 0 0 0 82.59 50a4.63 4.63 0 0 0 8.88-2.64z"/><path class="cls-8" d="M100.74 47.49h-9a4.64 4.64 0 1 0 9-.17z"/><path class="cls-8" d="M110 47.32v.17h-9a4.64 4.64 0 1 0 9-.17z"/><path class="cls-5" d="M63.9 77.81h36.27v2.02H63.9zM35.93 93.12h20.94v2.61H35.93z"/><path class="cls-9" d="M14.86 95.94h106.61"/><path class="cls-8" d="M27.58 46.79h82.58v2.42H27.58z"/><path class="cls-5" d="M24.36 40.61h89.83v6.45H24.36z"/><path class="cls-10" d="M67.8 77.81l12.79-18.47h4.34L71.4 77.81h-3.6zm6.25 0l12.86-18.47h1.62L75.88 77.81h-1.83z"/><path class="cls-4" d="M65.34 59.34h33.64v18.47H65.34z"/><path class="cls-10" d="M38.55 84.25l15.71-20.39v3.76L38.55 87.29v-3.04zm0 5.1l15.71-19.51v3.14L38.55 91.31v-1.96z"/><path class="cls-4" d="M38.55 59.34h15.71v33.78H38.55z"/><path class="cls-9" d="M14.14 95.94h-3.72m115.65 0h-3.71"/><circle class="cls-11" cx="68.92" cy="31.16" r="12.53"/><path class="cls-12" d="M64.26 33a.3.3 0 0 1-.18.08h-1.83a.23.23 0 0 1-.18-.08l-.39-.4a.3.3 0 0 1-.08-.2v-.68a.1.1 0 0 1 .11-.1h.83a.1.1 0 0 1 .1.1V32h.89l.12-.11v-.54a.08.08 0 0 0 0-.07l-.11-.1h-1.29a.23.23 0 0 1-.18-.08l-.39-.4a.25.25 0 0 1-.08-.18V28.8a.25.25 0 0 1 .08-.18l.39-.4a.21.21 0 0 1 .18-.08h1.83a.23.23 0 0 1 .18.08l.39.4a.27.27 0 0 1 .08.19v.73a.1.1 0 0 1-.11.1h-.82a.1.1 0 0 1-.1-.1v-.35h-.87l-.11.11a.07.07 0 0 0 0 .06v.56l.1.1h1.32a.2.2 0 0 1 .18.08l.39.39a.21.21 0 0 1 .08.18v1.67a.25.25 0 0 1-.08.18zm3.36.07a.1.1 0 0 1-.1-.1v-1.85h-1.06V33a.1.1 0 0 1-.1.1h-.84a.1.1 0 0 1-.1-.1v-4.76a.1.1 0 0 1 .1-.1h.84a.1.1 0 0 1 .1.1v1.84h1.06v-1.84a.1.1 0 0 1 .1-.1h.84a.1.1 0 0 1 .1.1V33a.1.1 0 0 1-.1.1zm4.3-.07a.22.22 0 0 1-.16.08h-1.84a.23.23 0 0 1-.18-.08l-.39-.4a.24.24 0 0 1-.08-.18V28.8a.28.28 0 0 1 .08-.18l.39-.4a.24.24 0 0 1 .18-.08h1.82a.19.19 0 0 1 .18.08l.4.4a.25.25 0 0 1 .07.18v3.61a.27.27 0 0 1-.07.18zm-.59-1.06v-2.57a.07.07 0 0 0 0-.06l-.11-.11h-.68l-.12.11a.07.07 0 0 0 0 .06v2.51l.1.1h.82zm1.87 1.13a.1.1 0 0 1-.1-.1v-4.73a.1.1 0 0 1 .1-.1h2.25a.23.23 0 0 1 .18.07l.4.4a.23.23 0 0 1 .08.18v1.8a.22.22 0 0 1-.08.19l-.4.4a.23.23 0 0 1-.17.07h-1.32V33a.11.11 0 0 1-.11.1zm1.84-3v-.68l-.12-.12h-.79v1h.73a.07.07 0 0 0 .06 0z"/><path class="cls-13" d="M122.07 70.43a.55.55 0 0 0-.39 0l-.9.33 2.46-1.09a.55.55 0 0 0-.19-.64l-1.53-1.12.94 1.71a44.9 44.9 0 0 0 0-4.78l-3.23 6.33a.55.55 0 0 1-.3.27l-2.8 1a.55.55 0 0 1-.73-.51v-7.76a.55.55 0 0 1 .24-.45l3-2a.55.55 0 0 0 .2-.25l1.61-4.06-1.62 2.59a.55.55 0 0 1-.13.14l-2.41 1.82a.55.55 0 0 1-.88-.44v-4.71a.55.55 0 0 0 0-.17l-1.64-4.92.82 5.48a.55.55 0 0 1 0 .22l-.79 2.93a.55.55 0 0 0 0 .14v5.75a.55.55 0 0 1-.83.47L107 63.12a.55.55 0 0 0-.44-.06l-7 2L96.14 63l3.33 3.33 6.76-2.16 7.27 4.93a.55.55 0 0 1 .24.45v2.62a.55.55 0 0 1-.28.48l-4.13 2.28a.55.55 0 0 1-.33.07l.47-.63-.12 1.7a.55.55 0 0 0 .41 0l3.18-1.69a.55.55 0 0 1 .8.48V96.1h1.67V74.43a.55.55 0 0 1 .3-.49l5.29-2.13a.55.55 0 0 1 .35-.05l10.43 2.51z"/><rect class="cls-8" x="94.6" y="58.87" width="12.84" height="7.86" rx="2.78" ry="2.78"/><rect class="cls-8" x="110.98" y="49.66" width="13.47" height="13.65" rx="2.72" ry="2.72"/><rect class="cls-8" x="108.86" y="65.15" width="23.75" height="13.65" rx="2.72" ry="2.72"/><path class="cls-13" d="M15.26 70.15a.55.55 0 0 1 .39 0l.9.33-2.46-1.09a.55.55 0 0 1 .19-.64l1.53-1.12-.94 1.71a44.9 44.9 0 0 1 0-4.78l3.23 6.33a.55.55 0 0 0 .3.27l2.8 1a.55.55 0 0 0 .73-.51v-7.76a.55.55 0 0 0-.24-.45l-3-2a.55.55 0 0 1-.2-.25l-1.61-4.06 1.62 2.56a.55.55 0 0 0 .13.14L21 61.66a.55.55 0 0 0 .88-.44v-4.69a.55.55 0 0 1 0-.17l1.64-4.92-.82 5.48a.55.55 0 0 0 0 .22l.79 2.93a.55.55 0 0 1 0 .14V66a.55.55 0 0 0 .83.47l5.89-3.58a.55.55 0 0 1 .44-.06l7 2 3.43-2.11-3.33 3.33-6.65-2.16-7.27 4.93a.55.55 0 0 0-.24.45v2.63a.55.55 0 0 0 .28.48L28 74.66a.55.55 0 0 0 .33.06l-.47-.63.12 1.7a.55.55 0 0 1-.41 0l-3.18-1.69a.55.55 0 0 0-.8.48v21.24h-1.67V74.15a.55.55 0 0 0-.3-.49l-5.25-2.13a.55.55 0 0 0-.35-.05L5.59 74z"/><rect class="cls-8" x="29.9" y="59.18" width="12.84" height="7.86" rx="2.78" ry="2.78" transform="rotate(-180 36.32 63.105)"/><rect class="cls-8" x="12.88" y="49.38" width="13.47" height="13.65" rx="2.72" ry="2.72" transform="rotate(-180 19.615 56.2)"/><rect class="cls-8" x="4.73" y="64.87" width="23.75" height="13.65" rx="2.72" ry="2.72" transform="rotate(-180 16.605 71.695)"/></svg>