<svg id="Layer_1" data-name="Layer 1" xmlns="http://www.w3.org/2000/svg" viewBox="0 0 137.33 137.33"><defs><style>.cls-1{fill:#ee8f49;stroke:#000}.cls-1,.cls-11,.cls-14,.cls-4,.cls-5,.cls-6,.cls-7,.cls-8,.cls-9{stroke-miterlimit:10}.cls-1,.cls-11,.cls-4,.cls-5,.cls-6,.cls-7,.cls-8{stroke-width:.75px}.cls-11,.cls-2{fill:#c46e4a}.cls-3{fill:#9f5840}.cls-4,.cls-9{fill:none}.cls-11,.cls-14,.cls-4,.cls-5,.cls-7,.cls-8,.cls-9{stroke:#2e1714}.cls-12,.cls-5{fill:#fff}.cls-6,.cls-7{fill:#98b2ac}.cls-6{stroke:#231f20}.cls-14,.cls-8{fill:#f9f8cd}.cls-10{fill:#c2d4cf}.cls-13{fill:#2e1714}.cls-14{stroke-width:.25px}</style></defs><title>Artboard 3 copy 2</title><circle class="cls-1" cx="68.16" cy="68.53" r="50.06"/><path class="cls-2" d="M25.86 95.55a50 50 0 0 0 84.61 0z"/><path class="cls-3" d="M70.52 95.55h-.25l-29.6 4.21a2.82 2.82 0 0 0-1.67 4.78l10.09 10.57s-14.89-5.76-23.25-19.56z"/><circle class="cls-4" cx="68.16" cy="68.7" r="50.06"/><path class="cls-5" d="M27.04 46.79h82.58v49.15H27.04z"/><path class="cls-6" d="M38.02 59.34h15.71v33.78H38.02z"/><path class="cls-7" d="M64.81 59.34h33.64v18.47H64.81z"/><path class="cls-5" d="M27.45 38.52h82.58v2.42H27.45z"/><path class="cls-8" d="M45.3 47.49h-8.94v-.17.17h-9a4.63 4.63 0 0 0 9 2.15 4.63 4.63 0 1 0 9-2.32z"/><path class="cls-8" d="M63.6 47.49h-9v-.17.17h-9a4.63 4.63 0 0 0 9 2 4.63 4.63 0 1 0 9-2.2z"/><path class="cls-8" d="M72.87 47.49h-9a4.64 4.64 0 1 0 9-.17zm36.6-.17v.17h-9a4.64 4.64 0 1 0 9-.17z"/><path class="cls-4" transform="rotate(3.08 81.433 79.887)" d="M63.36 78.82h36.27v2.02H63.36z"/><path class="cls-9" d="M35.4 93.12h20.94v2.61H35.4zm-21.07 2.82h106.6"/><path class="cls-8" d="M27.04 46.79h82.58v2.42H27.04z"/><path class="cls-5" d="M23.82 40.61h89.83v6.45H23.82z"/><path class="cls-10" d="M67.26 77.81l12.79-18.47h4.34L70.86 77.81h-3.6zm6.25 0l12.87-18.47h1.61L75.35 77.81h-1.84z"/><path class="cls-9" d="M98.44 77.71l-33.63.1V59.34l33.63-.09v18.46z"/><path class="cls-10" d="M38.02 84.25l15.71-20.39v3.76L38.02 87.29v-3.04zm0 5.1l15.71-19.51v3.14L38.02 91.31v-1.96z"/><path class="cls-9" d="M38.02 59.34h15.71v33.78H38.02zM13.6 95.94H9.89m115.65 0h-3.72"/><circle class="cls-11" cx="68.38" cy="32.92" r="12.53" transform="rotate(-19.35 68.388 32.936)"/><path class="cls-12" d="M64.62 36.2a.29.29 0 0 1-.15.13l-1.73.61a.23.23 0 0 1-.2 0l-.5-.24a.31.31 0 0 1-.14-.16l-.23-.65a.1.1 0 0 1 .07-.13l.79-.28a.1.1 0 0 1 .13.06l.11.3.84-.29.08-.15a.07.07 0 0 0 0-.05l-.18-.51a.08.08 0 0 0-.06-.05l-.13-.06-1.2.42a.23.23 0 0 1-.2 0l-.5-.24a.25.25 0 0 1-.13-.15l-.55-1.57a.26.26 0 0 1 0-.2l.24-.5a.21.21 0 0 1 .15-.13l1.73-.61a.23.23 0 0 1 .2 0l.5.24a.28.28 0 0 1 .14.15l.24.69a.1.1 0 0 1-.07.13l-.79.28a.1.1 0 0 1-.13-.06l-.12-.33-.83.29-.07.14a.08.08 0 0 0 0 .06l.19.53.13.06 1.25-.44a.19.19 0 0 1 .2 0l.5.24a.22.22 0 0 1 .13.15l.55 1.58a.26.26 0 0 1 0 .2zm3.19-1.04a.1.1 0 0 1-.13-.06l-.61-1.74-1 .35.61 1.74a.1.1 0 0 1-.06.13l-.79.28a.1.1 0 0 1-.13-.06l-1.57-4.46a.1.1 0 0 1 .06-.13l.79-.28a.1.1 0 0 1 .13.06l.61 1.74 1-.35-.61-1.74a.1.1 0 0 1 .06-.13l.79-.28a.1.1 0 0 1 .13.06l1.57 4.46a.1.1 0 0 1-.06.13zm4.04-1.5a.22.22 0 0 1-.13.13L70 34.4a.23.23 0 0 1-.2 0l-.5-.24a.24.24 0 0 1-.13-.15l-1.2-3.41a.28.28 0 0 1 0-.2l.24-.5a.24.24 0 0 1 .15-.13l1.72-.6a.18.18 0 0 1 .2 0l.51.24a.24.24 0 0 1 .13.15L72.1 33a.28.28 0 0 1 0 .2zm-.9-.8a.06.06 0 0 0 0-.05l-.83-2.37-.14-.07a.06.06 0 0 0-.05 0l-.65.23-.08.15a.07.07 0 0 0 0 .06l.83 2.37.13.06.77-.27zm2.13.45a.1.1 0 0 1-.13-.06l-1.57-4.46a.1.1 0 0 1 .06-.13l2.12-.74a.24.24 0 0 1 .2 0l.51.25a.23.23 0 0 1 .13.15L75 30a.22.22 0 0 1 0 .21l-.24.51a.24.24 0 0 1-.14.12l-1.24.44.57 1.61a.11.11 0 0 1-.07.13zm.75-3.42l-.22-.64-.15-.07h-.06l-.69.24.35 1 .69-.24z"/><path class="cls-13" d="M90.41 66.44l.33-.21v.13h.14l-.59.41c.16.15.28.13.41 0s.25-.26.36-.4a1.58 1.58 0 0 0 .15-.3h-.06l-.24.15v-.3a1.68 1.68 0 0 0 .24-.13c.49-.37 1-.74 1.46-1.1a.28.28 0 0 0 .11-.38c-.12-.37-.22-.75-.33-1.12h.07l.54 1.25c.16-.16.36-.27.4-.43s-.08-.36-.1-.56l.35.54 1.95-1.36v.05l-2.67 2 .1.21.5-.29c-.12.22-.46.19-.44.49h-.18l-.13-.45-2.26 2.41v.06l.26-.09c-.58.4-.58.4-.61.64a7.56 7.56 0 0 0 .78-.47c.23-.18.43-.41.66-.6l-.11.16.29-.14-.57.34.33-.17-.08.24.24-.11 2.47-1.48a3.07 3.07 0 0 1 1-.51 1.61 1.61 0 0 0 1.21-1 1.9 1.9 0 0 1 .32-.46l-.09.2c-.37.74-.74 1.47-1.1 2.21a.51.51 0 0 1-.39.31c-.8.18-1.6.39-2.4.58l-.19.06v.07l3.06-.71a4.63 4.63 0 0 1-1.41.48 13.27 13.27 0 0 0-1.64.34c-.08 0-.14.11-.19.21l.44-.14c-.18.23-.57.13-.6.46-.36 0-.65.19-1 .26l.35.39 1.53-.18-.05.91h.35-.22c-.13 0-.19 0-.22.17s0 .16.14.21a1 1 0 0 0 .84 0c.53-.23 1.08-.42 1.64-.64l-.07.25 1.58-.42v.3a15.78 15.78 0 0 0-4.12.95l.15-.22c-.26-.14-.32.11-.49.26l.12-.32H91l.09.13H91l1.2.33a1.2 1.2 0 0 0-.18.17 1.83 1.83 0 0 0-.13.25L92 70l-.3-.09-.23.49c-.21 0-.39-.15-.64 0 .66.32 1.15.86 1.87 1a1.23 1.23 0 0 1-.78-.18c-.33-.23-.68-.42-1-.63l-.17-.08a.12.12 0 0 0 .05.11l1.3.83a.53.53 0 0 0 .25 0l1.63.06h.95v.05h-.32a.31.31 0 0 0 .14.13l2.23 1.11.16.05v.26l-2.36-1.08c-.26-.12-.51-.26-.77-.39a.5.5 0 0 0-.2-.06h-1.49c-.15 0-.21 0-.22.19a.31.31 0 0 1-.09.17l-.59.56.06.07L92 72l-.6.63.29.46-.47.25L93 75.87l-.19-.24a30.82 30.82 0 0 1-2.37-3.27c-.08-.13-.16-.21-.32-.09s-.17 0-.3 0l.65 1.51c0-.26-.33-.35-.74-.22a1.21 1.21 0 0 0 .2-.05c.1 0 .22-.08.27-.15S90 73 89.87 73l.14.28a1.31 1.31 0 0 0-.25-.3.62.62 0 0 0-.39-.07l.19.1h-.25v.58l-.16-.7v1.21H89c0-.21-.07-.42-.11-.63s-.07-.39-.12-.58-.13-.11-.15-.09-.17.14-.17.21c0 .39.07.77.11 1.16l.28 2.65a.35.35 0 0 1 0 .21c-.15-.38-.29-.77-.44-1.15 0-.08-.07-.18-.13-.21s-.18-.21-.16-.37c.06-.65.11-1.3.16-2 0-.17.07-.36-.11-.52l-.08.22v-.25l-.25.52.09-.32c.09-.32.18-.63.27-1a1.81 1.81 0 0 0 0-.32h-.06l-.4.82.45-1.05h-.05l-.35.57a.3.3 0 0 1-.05.07.72.72 0 0 0-.21.91c-.28-.07-.31-.05-.4.2a2.14 2.14 0 0 1-.21.47c0-.29.08-.59.14-.88 0-.14.06-.28-.09-.33s-.26-.13-.43 0a2.36 2.36 0 0 0-.41.83c-.12.27-.22.56-.36.82l.33-1-1 1.24c.24-.55.72-1 1-1.5h-.06L84.37 75h-.06a1.5 1.5 0 0 1 .1-.21c.45-.66.89-1.32 1.36-2a2.65 2.65 0 0 0 .42-1.09 1.15 1.15 0 0 1 .09-.31l.06.16c.07-.11.07-.11-.14-.38l.22.06v-.46l-.67.5v-.15h-.23l.66-.46c-.15-.13-.27-.14-.39 0s-.27.28-.39.43a1.33 1.33 0 0 0-.13.29h.06l.24-.15v.31a1.27 1.27 0 0 0-.22.11c-.48.36-1 .74-1.44 1.09-.2.14-.19.26-.12.47.13.41.23.83.34 1.24h-.05l-.76-1.31c-.46.18-.09.49-.12.78l-.34-.53L80.75 75l2.8-2.06-.1-.21-.46.28c.11-.22.44-.19.4-.48h.19l.13.45 2.25-2.4v-.05l-.28.08c.28-.19.59-.27.68-.58v-.06a3.26 3.26 0 0 0-.76.48 1.91 1.91 0 0 1-.88.54l.56-.34-.33.16.08-.18h-.07a1.11 1.11 0 0 0-.19.08L82 72.07a1.92 1.92 0 0 1-.75.37c-.3 0-.58.22-.9.29l1.92-1v-.19c.06 0 .14.09.17.07.32-.18.63-.38.95-.57h.12l2.1-1.17.16-.11-.13-.28-2.24 1.59-.2-.17-1.83.38a.44.44 0 0 0-.21.17l-1.78 2.27a1.16 1.16 0 0 1-.24.25l.13-.21c.5-.76 1-1.53 1.5-2.29a.55.55 0 0 1 .29-.21l2.48-.61a.31.31 0 0 0 .17-.1c-1 .29-2.08.34-3.07.69a4.82 4.82 0 0 1 1.36-.48 17.44 17.44 0 0 0 1.75-.35c.1 0 .17-.13.24-.23l-.52.18c.19-.23.59-.15.64-.47a4.53 4.53 0 0 0 1-.27 4.68 4.68 0 0 0-.31-.37h-.17l-.73.19c-.14 0-.3 0-.48.07l.05-.87-.67-.08h.45c.28 0 .28 0 .31-.3a1 1 0 0 0-.95-.09c-.47.22-1 .38-1.44.56l-.24.08.06-.23L79 69a.55.55 0 0 1 .47-.31 14 14 0 0 0 3.83-.82l.24-.07-.2.25c.15 0 .26 0 .33-.07s.12-.17.22-.24l-.06.13-.08.17 1.76.07-.09-.17h.11v-.05l-1.14-.32.2-.33-.08.29.3.09.23-.49.58.09v-.09a6.62 6.62 0 0 0-1.76-.92v-.07a3.46 3.46 0 0 1 .61.2c.37.2.72.44 1.08.66l.17.1-.12-.1-1.25-.8a.48.48 0 0 0-.22-.05L81.84 66a.38.38 0 0 1-.23-.07h.28v-.06l-3-1.27v-.22l3.36 1.43a1.14 1.14 0 0 0 .39.08h1.48c.25 0 .34-.17.24-.31a4 4 0 0 0 .68-.64l-.34.31v-.06c.28-.33.28-.33.05-.69v-.09l.23-.12a.56.56 0 0 0 .21-.16h-.23l.15-.11-1.65-2.41.28.35a29.89 29.89 0 0 1 2.32 3.2c.08.13.16.21.32.11a.89.89 0 0 1 .3 0l-.68-1.6c.13.09.13.35.35.27 0 .06-.09.16-.07.2s.06.34.28.4l-.16-.31.06-.07c.11.42.41.34.71.31v-.36l.11.51v-1.24h.07c0 .22.07.44.11.66s.06.37.12.56.14.11.15.1.17-.15.18-.22v-1q-.06-1.42-.11-2.84a.84.84 0 0 1 0-.28l.18 1.59.07-.2v2.55a1.84 1.84 0 0 0 .07.34h.06l.08-.2v.23l.25-.52c-.12.41-.24.81-.35 1.22a2.65 2.65 0 0 0 0 .38h.07l.44-.88L88.4 66h.06l.11-.18a4.85 4.85 0 0 1 .39-.59.55.55 0 0 0 .16-.58 1.14 1.14 0 0 1 0-.21c.23.08.29.06.37-.17a6.07 6.07 0 0 1 .25-.64c-.06.36-.12.71-.17 1.07 0 .09 0 .25.09.26s.25.14.41 0a3 3 0 0 0 .49-.96 3.82 3.82 0 0 1 .24-.5l-.28.87 1-1.2c-.24.54-.69.94-.94 1.47h.06l1.48-2.14h.06a1.34 1.34 0 0 1-.1.21c-.44.65-.87 1.3-1.33 1.93a2.67 2.67 0 0 0-.45 1.15l-.06.35-.09-.24c-.16.29.21.29.24.46l-.3-.14v.49zm-3.7 3.3c-.16.21.07.21.14.32l.35-.5H87l.39-.27v-.06l-.67.41s-.02.08-.01.1zm.94-2.07a.81.81 0 0 0 0-.26c-.06-.18-.15-.35-.22-.53s-.17-.18-.32-.08l.54.88-.41-.45h-.05l.46.58h.05zm2-1.79l.22-.6c-.3 0-.35 0-.36.11s0 .43 0 .66l.11-.09-.12.24c.2 0 .56-.55.56-.94l-.17.25zm-1.19 5.66c.08-.25 0-.57.28-.72-.36.1-.4.16-.32.51v.21c0 .07.06.15.08.23s.11.17.23.12V71h-.06a.84.84 0 0 0-.14.18 3 3 0 0 0-.1.37zm3.1-.2c-.25-.19-.41 0-.77.32l.49.67.7-.59-.42-.41.4.26v-.06l-.49-.36zm1.55-5l.11.2 1.78-.32a.25.25 0 0 0 .15-.07l.85-1.29-1.82.91.06.18c-.07 0-.15-.1-.19-.09-.31.18-.61.37-.92.56a.81.81 0 0 0-.16 0l-2.1 1.18-.17.11.14.29zm-1.22 2.53h-.14l1.12.23.07-.28a2.5 2.5 0 0 1-1.24-.25l1.28.13.08-.76a3.05 3.05 0 0 0-1.28.44c-.32-.17-.52.21-.77.15v.32c0 .09 0 .22-.06.35l1.9.08v-.08l-1.61-.2v-.09zm-7.06-.14h-.45l-.72-.07s-.13 0-.14.08c0 .21 0 .42-.07.64a3 3 0 0 0 1.28-.38c.09.11.51 0 .73-.14l.1-.66-1.89-.07v.08l1.51.34v.12l-1.54-.38-.08.31a2.79 2.79 0 0 1 1.25.18zm-.28-3c.15.13.31.26.46.4a.22.22 0 0 0 .32 0c.14-.11.27-.23.4-.35l-.53-.73zm6.21 5.59l-.48-.13-.15.29a1.3 1.3 0 0 0 1.11-.48l-.24-.12-.57-.39c-.1-.07-.2-.08-.25 0a.27.27 0 0 0 0 .24c.2.21.37.39.56.63zm-5-5.15c.12 0 .25.11.35.09a.2.2 0 0 0 .19-.26 1.26 1.26 0 0 0-1.09.51L86 67c.09.07.17.09.26 0s0-.18 0-.26zm.2-1a1.34 1.34 0 0 0-.94-.87c-.14.13 0 .53.54 1.16l.26-.23h-.1v-.05zm4.51 7.07a1.34 1.34 0 0 0 .85.85.17.17 0 0 0 .14 0 .13.13 0 0 0 0-.13l-.61-1-.28.24h.12zm-2.63-2.35h-.11L87 71h.15l.42-.67v.31l-.26.37.36.09zm1-3.54c-.18.26-.32 1.1-.18 1.22l.72-1.11h-.07c-.27.15-.29.49-.48.7l.05-.31.26-.39zM87 71.27c-.22 0-.56.6-.55.93a1.9 1.9 0 0 0 .18-.27l.17-.29-.21.55c.34.06.37 0 .38-.28s.03-.42.03-.64zm.28-4.74l-.21-.44c-.12-.27-.18-.29-.5-.2l.42.82zm1.21 3.21c-.28.32-.09.67-.11 1 .13 0 .29-.08.32-.16.11-.3-.05-.58-.21-.85zm-.51-2c.06-.12.14-.2.14-.29v-.6c0-.2-.09-.18-.18-.12a.47.47 0 0 0-.2.26 1.15 1.15 0 0 0 .26.79zM89.19 71v.12l.15.31c.14.29.16.3.5.22l-.42-.82zm-4.31-1.8c.18.4.27.43.59.25h.06c.11 0 .18-.13.11-.23a.29.29 0 0 0-.22-.14 4 4 0 0 0-.54.08zm6.69-.82v-.07a1.48 1.48 0 0 0-.33-.31c-.06 0-.19.08-.29.12h-.06c-.11 0-.16.14-.1.24a.27.27 0 0 0 .21.12 4.41 4.41 0 0 0 .56-.14zm-6.69-.72l.69.19v-.32a1.31 1.31 0 0 0-.48-.24s-.09.19-.22.33zm6 2.05v.33a1.07 1.07 0 0 0 .46.23s.13-.22.21-.37zm-3.78 2.78c.05-.07.09-.1.1-.13s.05-.3.1-.44.12-.33.19-.51l-.39-.13zm2.25-7.44l-.35 1 .38.11zm-3 .77a2 2 0 0 0-.33-.46s-.23.11-.36.17c.18.42.18.42.67.3zM90.82 72c-.23-.42-.24-.43-.68-.28a2.05 2.05 0 0 0 .31.46s.24-.18.37-.18zm-3.1-6.37v.89c.21-.07.3-.36.24-.67-.02-.17-.04-.32-.24-.26zm1.35 2.58a.94.94 0 0 0 .72-.39l-.18.07.24-.16-.25-.23c-.07.21-.33.3-.24.57zm.84-.09l-.46.17v.38c.55-.16.55-.22.46-.59zm-2.95.8c-.48.11-.54.18-.41.53l.44-.16v-.35c0-.11.01-.05.01-.06zm-.88 1.6c.23.2.43.12.61-.23l-.22-.29zm4.3-3.52c-.24-.2-.44-.12-.61.23l.22.21zm-.21 2.6c-.23.25-.23.27.08.42h.25v-.23a2.24 2.24 0 0 0-.33-.16zm-3.89-1.76c.24-.25.22-.32-.05-.41h-.06a.39.39 0 0 0-.17 0s-.11.05-.12.09a.2.2 0 0 0 .05.16c.07.03.24.1.35.19zm2.53 2h-.07c.1.24.2.48.28.73s.18.17.33.07zm1.83-1.52a.47.47 0 0 0-.24.75l.1-.57.09.39h.09zM86 69l-.08-.38h-.06c0 .19-.11.38.07.55.28-.11.33-.27.18-.73zm-2.09 1.51v.06l1.09-.73a1.87 1.87 0 0 0-1.13.62zM92.55 67l-1.09.69a1.43 1.43 0 0 0 1.09-.69zm-5.61-2h.27v-.3h-.39v.29h.23zm2.69 7.79v-.27h-.23.11a.21.21 0 0 0-.13 0h-.11c-.05.28-.05.28.36.3zm-3.4-7.47l.19.29.34-.28v-.07zm3.44 6.82c.2.1.36 0 .55 0l-.22-.27zm-2.3-5.7c.33-.16 0-.31 0-.48l-.21.09zm-1.21 1.83c.07-.32-.2-.28-.31-.41l-.12.2zm4.58 1.14a2.22 2.22 0 0 0-.31-.15h-.16c-.06 0 0 .1.07.13a2.63 2.63 0 0 0 .27.15zm-.51 1.68V71l-.23-.2-.09.41zm-.8.9c-.12.06-.28.1-.21.27s.2.07.35.11zm-.34-1c-.33.16 0 .3 0 .48l.23-.07zm-2.91-4.64l.23.33c.24-.09.09-.25.1-.41zM89.87 69c-.09.19-.06.31.14.33s.13-.07.24-.13zm-3.6-.61l.39.2c0-.15 0-.25-.08-.31s-.15-.06-.23-.09zm1-3.21h-.37l.12.3c.17-.08.29-.13.2-.33zm-.06.85l.24-.13c-.1-.25-.13-.26-.37-.14zm1.9 5.62c.08.26.08.26.36.15l-.12-.28zm-1.65-2.06l-.19.4.41-.29zM89 67.93l.2-.4-.42.29zm.51.9h-.07l.16.34c.18-.23.17-.27-.04-.33zm-2.66-.17h.07l-.18-.41c-.06.3-.05.34.16.41zm.84-2c.38-.09.46-.28.26-.61a.87.87 0 0 1-.21.62zm2.79 1.5l-.3-.21v.36zm-1.32 2.1h.07l-.46-.59-.07.05zm-3-.7l.07-.06-.06-.32-.27.14zM89.63 72l.34-.2h-.43zm-3-4.3l-.15.28.37.07zm3.25-1.15h-.05l-.28.53h.09zm.18 3l-.3-.06.18.28zm-3.4 1.43h.05l.28-.54h-.09zm.12-4.43h-.07l.22.53L87 67zm3.09 6.33h.07l-.18-.38c-.08.09-.11.27.07.34zM89.72 71h.07l-.22-.53h-.08zm-3.16-6.28l.2.43c.05-.38 0-.48-.2-.47zm.35 1l-.09-.2-.35.2zm-1.91.59l-.47-.37-.05.07z"/><path class="cls-13" d="M93.79 72.92v.58c-.38-.16-.52-.58-.79-.88l.61.48.15-.43 2.59 2.38-.05.06c-.95-.59-1.56-1.54-2.51-2.19zm-7.15-.39h.18L86.66 74zm1.15.28l-.36.87.17-.51h-.16l.38-.71h.06l-.29.52.17-.21zM90.31 74l.54 1.16h-.07L90.27 74zm-2.83.13l.42-.68h.07l-.41.68zm-4.21-4.6l-.67.18v-.06c.2-.15.46-.06.67-.17zm-.39-5.14l-.15.43-2.58-2.37.05-.06c.92.59 1.53 1.53 2.47 2.18v-.58c.43.19.56.69.91 1zm6.93.61h-.18l.17-1.48zM89 63.93l-.14.42h.17l-.39.72h-.06l.28-.51-.18.23.33-.81zm1.41 2.51l-.33.29v-.49l.3.14zm-4.86-4.39l.56 1.23h-.05l-.57-1.22zM89 63.37l-.47.74h-.06l.44-.75zm4.89 4.52l-.59.1.57-.15zm-.81-1.49c.31-.19.61-.38.92-.56 0 0 .11.05.19.09l-.06-.18 1.87-.92-.82 1.29a.25.25 0 0 1-.15.07l-1.83.37-.11-.2zm-1.22 2.52h-.61V69l1.56.34v.08l-1.9-.08c0-.14 0-.25.06-.35s0-.19 0-.32c.26.07.45-.32.77-.15a3.05 3.05 0 0 1 1.26-.46l-.08.76-1.28-.13a2.5 2.5 0 0 0 1.24.25l-.07.28-1.08-.22h.14zm-7.05-.14a2.79 2.79 0 0 0-1.27-.22l.08-.31 1.54.38v-.12l-1.51-.34v-.07l1.89.07-.1.66c-.22.16-.64.25-.73.14a3 3 0 0 1-1.31.46c0-.23 0-.44.07-.64 0 0 .09-.09.14-.08l.72.07c.17.01.32 0 .48 0zm6.71 2.56l.42.41-.7.59-.49-.67c.36-.36.52-.51.77-.32zm-6.99-5.58l.65-.66.53.73c-.14.12-.27.24-.4.35a.22.22 0 0 1-.32 0c-.15-.18-.31-.29-.46-.42zm6.21 5.6c-.2-.23-.36-.41-.5-.61a.27.27 0 0 1 0-.24c.05-.1.15-.1.25 0l.57.39.21.17a1.3 1.3 0 0 1-1.13.47l.15-.29zm-4.97-5.16l.45.54c.07.08.12.16 0 .26s-.17.07-.26 0l-.77-.53A1.26 1.26 0 0 1 86.3 66a.2.2 0 0 1-.15.29c-.11 0-.23-.05-.35-.09zm.23-.99h-.26v.05h.1l-.26.23c-.5-.62-.68-1-.54-1.16a1.34 1.34 0 0 1 .96.88zm4.49 7.07h.23-.12l.28-.24.61 1a.13.13 0 0 1 0 .13.17.17 0 0 1-.14 0 1.34 1.34 0 0 1-.86-.89z"/><path class="cls-13" d="M93.08 66.39L90.8 68l-.14-.29.17-.11 2.1-1.18a.79.79 0 0 1 .16 0zm-9.65 4.69l2.24-1.59.13.28-.16.11-2.1 1.12h-.12zm4.43-1.15l-.23 1.2-.36-.13.26-.37v-.31l-.42.67h-.15l.74-1.13zm1.03-3.54l.29.07-.26.39-.05.31c.19-.21.21-.56.48-.7h.07l-.72 1.11c-.13-.09.01-.92.19-1.18zM87 71.27v.65c0 .22 0 .34-.38.28l.21-.55-.17.29a1.9 1.9 0 0 1-.18.27c-.05-.34.3-.92.52-.94zm.28-4.75l-.28.18-.42-.82c.31-.09.38-.07.5.2zm1.21 3.21c.16.28.32.54.21.85 0 .09-.19.13-.32.16.02-.34-.17-.68.11-1.01zM88 67.78a1.15 1.15 0 0 1-.24-.74.47.47 0 0 1 .2-.26c.09-.06.18 0 .18.12v.6c0 .2-.14.16-.14.28zM89.19 71l.28-.17.42.82c-.34.07-.36.07-.5-.22l-.15-.31zm-4.31-1.84a4 4 0 0 1 .55-.14.29.29 0 0 1 .22.14c.06.1 0 .19-.11.23h-.06c-.34.2-.42.17-.6-.23zm6.68-.82a4.41 4.41 0 0 1-.54.12.27.27 0 0 1-.21-.12c-.06-.1 0-.19.1-.24h.06c.1 0 .23-.15.29-.12a1.48 1.48 0 0 1 .33.31zm-6.69-.72c.08-.14.17-.37.2-.37a1.31 1.31 0 0 1 .48.24v.32zm6.02 2.06l.7.2c-.08.14-.17.37-.21.37a1.07 1.07 0 0 1-.46-.23c-.06-.02-.02-.2-.03-.34zm-3.79 2.81v-1.2l.39.13c-.07.18-.14.34-.19.51s-.06.29-.1.44-.04.05-.1.12zm2.26-7.43v1.14l-.36-.12.35-1zm-3.03.77c-.48.12-.48.12-.68-.29.12-.06.31-.21.36-.17a2 2 0 0 1 .32.46zM90.82 72c-.13.07-.33.21-.37.18a2.05 2.05 0 0 1-.31-.46c.44-.19.46-.18.68.28zm-2.39-.45a3.2 3.2 0 0 1 .11-.36.84.84 0 0 1 .14-.18h.06v.86c-.12.06-.19 0-.23-.12s-.06-.15-.08-.23zm-.71-5.96c.2-.06.21.1.24.23.06.31 0 .59-.24.67zm1.36 2.58l.28-.17c-.09-.27.17-.36.24-.57l.25.23-.24.16.18-.07a.94.94 0 0 1-.71.42zm.83-.09c.1.37 0 .43-.44.54v-.38zm-2.91.8v.35l-.44.16c-.13-.34-.07-.39.44-.51zm-.92 1.59l.38-.44.23.22c-.17.34-.38.42-.61.22zm4.3-3.47l-.39.44-.22-.21c.17-.33.37-.41.61-.23zm-.21 2.63a2.24 2.24 0 0 1 .34.25v.23h-.25c-.31-.21-.32-.23-.09-.48zm-3.89-1.76c-.12-.08-.24-.16-.34-.24a.2.2 0 0 1-.05-.16s.07-.08.12-.09a.39.39 0 0 1 .17 0h.06c.27.17.28.23.04.49zM89.59 66l-.11.09v-.66c0-.22.06-.15.36-.11l-.22.6zm-.77 3.86l.54.82c-.15.1-.26.13-.33-.07s-.19-.48-.28-.73zm-1.17-2.18l-.54-.88c.16-.11.26-.1.32.08s.16.35.22.53a.81.81 0 0 1 0 .26zm3 .66v.56h-.09l-.09-.39-.1.57a.47.47 0 0 1 .28-.74zM86 69l.1-.54c.15.46.1.62-.18.73-.17-.17-.07-.36-.07-.55h.06zm-2.13 1.46a1.87 1.87 0 0 1 1.13-.62l-1.08.69zM92.55 67a1.43 1.43 0 0 1-1.09.69z"/><path class="cls-13" d="M89.59 66v-.07l.23-.38.17-.25c0 .39-.36 1-.56.94zM87 69.58h.2l-.35.5c-.07-.11-.31-.11-.14-.32zM86.94 65l.14-.09h-.23v-.29h.35V65zm2.69 7.82c-.41 0-.41 0-.38-.34h.11a.21.21 0 0 1 .13 0h-.11.23zm-3.4-7.48l.51-.06v.07l-.34.28zm3.44 6.82l.37-.3.17.26c-.21.05-.34.14-.54.04zm-2.3-5.7l-.18-.39.21-.07c0 .15.3.3-.03.46zm-1.21 1.83l-.43-.22.12-.2c.15.13.38.13.31.42zm4.58 1.14l-.13.18a2.63 2.63 0 0 1-.27-.15s0-.08-.07-.13.11-.06.16 0a2.22 2.22 0 0 1 .31.1zm-.51 1.68l-.34.1.11-.41.27.22zm-.79.89l.14.38c-.15 0-.32 0-.35-.11s.09-.2.21-.27zm-.35-1l.18.41-.23.07c.02-.14-.27-.29.05-.48zm-2.9-4.61l.33-.08c0 .16.14.31-.1.41zM89.87 69l.38.2c-.11.06-.18.14-.24.13s-.23-.17-.14-.33zm-3.6-.64l.08-.2c.08 0 .19 0 .23.09s0 .17.08.31zm.95-3.21c.09.19 0 .25-.2.3l-.12-.3zm-.06.85l-.16-.27c.24-.12.27-.11.37.14zm1.9 5.62l.24-.12.12.28c-.27.1-.27.1-.36-.16zM87 69.58l-.29.16v-.08l.67-.41v.06zm.41-.02l.26.13-.41.29zM89 67.93l-.26-.13.42-.29zm.56.91c.21.06.23.1.09.38l-.16-.34zm-2.66-.18c-.21-.07-.22-.11-.11-.44l.18.41zm.84-1.99a.87.87 0 0 0 .26-.61c.2.33.13.51-.26.61zm.69 4.88v-.21c-.08-.35 0-.41.32-.51-.31.16-.21.47-.29.72zm2.1-3.38l-.33.16v-.36zm-2.89-.49l.06.15h-.05l-.46-.58h.05l.41.45zm1.57 2.59l-.46-.59.07-.05.46.59zm-2.99-.71l-.22-.23.27-.14.06.32zM89.63 72l-.08-.2H90zm-3.04-4.3l.22.34-.37-.04zm3.25-1.14l-.24.55h-.09l.28-.53zm.16 2.95l-.15.27-.18-.28zm-3.38 1.44l.24-.56h.09l-.28.54zm.11-4.43L87 67h-.08l-.22-.53zm3.1 6.32c-.18-.08-.14-.25-.11-.42l.18.38zM89.72 71l-.23-.53h.08l.22.53zm1.81.35l-.09-.15.49.36v.06l-.4-.26zm-4.97-6.67c.2 0 .25.09.2.43zm.35 1.02h-.44l.35-.2zm-1.91.61l-.49-.31.05-.07.47.37zm-10.18 41.13l-.52-.27a.87.87 0 0 0-1 .13 4.87 4.87 0 0 1-1.66.69c-.25.06-.57-.18-1-.32l-1 .87a8.93 8.93 0 0 1-.74-4.54c.2-1.78.4-3.56.5-5.35a15.45 15.45 0 0 0-.15-2.8 1.59 1.59 0 0 0-.54-.91 8.32 8.32 0 0 1-1.88-3.28 1.08 1.08 0 0 1 .21-1.3.53.53 0 0 0 .06-.76c-.25-.4-.5-.79-.74-1.19s-.32-.69.05-1a.75.75 0 0 1 1 .11c.28.25.53.52.79.79l.18-.1c-.16-.59-.31-1.18-.47-1.77-.06-.2-.14-.39-.22-.58-.13-.35-.17-.69.25-.85s.77-.13 1 .26c.28.58.49 1.2.72 1.8.1.25.18.51.27.79a1.49 1.49 0 0 0 .8-1.69.76.76 0 0 1 .35-.94.71.71 0 0 1 1 .16 1.16 1.16 0 0 1 .36 1.21c-.08.27-.15.55-.26.81a3.55 3.55 0 0 0 .06 2.59c.08.22.33.39.51.57a1.32 1.32 0 0 1 .44 1.48 9 9 0 0 0-.19 5.09c.19 1.12.22 2.27.3 3.41a17.79 17.79 0 0 0 1.62 6.62s-.07.1-.1.27zM61.76 28.6l-.15.43L59 26.66l.05-.06c.92.59 1.53 1.53 2.47 2.18v-.58c.43.19.56.69.91 1zm-.12-1.17v.58c-.38-.16-.52-.58-.79-.88l.61.48.15-.43 2.59 2.38-.05.06c-.96-.62-1.57-1.55-2.51-2.19zm59.27 43.02a.55.55 0 0 0-.39 0l-.9.33 2.46-6.38a.55.55 0 0 0-.19-.64l-1.53-1.12.94 1.71a.55.55 0 0 1 0 .51l-3.23 6.33a.55.55 0 0 1-.3.27l-2.8 1a.55.55 0 0 1-.73-.51V64.2a.55.55 0 0 1 .24-.45l3-2a.55.55 0 0 0 .2-.25l1.61-4.06-1.62 2.56a.55.55 0 0 1-.13.14L115.13 62a.55.55 0 0 1-.88-.44v-4.72a.55.55 0 0 0 0-.17l-1.64-4.92.82 5.48a.55.55 0 0 1 0 .22l-.79 2.93a.55.55 0 0 0 0 .14v5.75a.55.55 0 0 1-.83.47l-5.89-3.58a.55.55 0 0 0-.44-.06l-7 2L95 63l3.33 3.33 6.76-2.16 7.27 4.93a.55.55 0 0 1 .24.45v2.62a.55.55 0 0 1-.28.48L108.17 75a.55.55 0 0 1-.33.06l-5.41-.63 5.77 1.7a.55.55 0 0 0 .41 0l3.18-1.69a.55.55 0 0 1 .8.48v21.21h1.67V74.45a.55.55 0 0 1 .3-.49l5.25-2.13a.55.55 0 0 1 .35-.05l10.43 2.51z"/><path class="cls-14" d="M112.45 48.79a3.16 3.16 0 0 0 .47 4.25s2.16-2.04-.47-4.25z"/><path class="cls-14" d="M113.87 49.07a3.16 3.16 0 0 0-.91 4.18s2.71-1.25.91-4.18zm-2.87 7.3a2.19 2.19 0 0 0 2.06 2.14 1.88 1.88 0 0 0-2.06-2.14zm9.49-.71a2.07 2.07 0 0 0-1.56 2.34 1.77 1.77 0 0 0 1.56-2.34zm4.16 6.05A2.61 2.61 0 0 0 122 64a2.23 2.23 0 0 0 2.65-2.29z"/><path class="cls-14" d="M125.14 62.81a2.61 2.61 0 0 0-3.26 1.36 2.23 2.23 0 0 0 3.26-1.36zM118.68 61a2.07 2.07 0 0 0 2.08 1.89 1.77 1.77 0 0 0-2.08-1.89zm14.07 11.58a2.19 2.19 0 0 0-2.42 1.72 1.88 1.88 0 0 0 2.42-1.72zm-5.98 2.03a1.57 1.57 0 0 0-1-1.87 1.35 1.35 0 0 0 1 1.87zm-8.83-3.18a1.57 1.57 0 0 0-1-1.87 1.35 1.35 0 0 0 1 1.87zM93.59 61.42a2.19 2.19 0 0 0 2.06 2.14 1.88 1.88 0 0 0-2.06-2.14zM109.57 78a1.57 1.57 0 0 0-1-1.87 1.35 1.35 0 0 0 1 1.87z"/><path class="cls-13" d="M74.13 36.69l-.62 1.39-.23 3.31-.59 1.73.04.18.11.54.18.72v-2.03l.49-.55v-.81l-.1-.55.28-2.32.44-1.61zm30.86 51.56l-.61 1.4-.23 3.31-.59 1.73.03.17.11.54.19.73V94.1l.49-.55v-.81l-.11-.55.28-2.32.44-1.62zM28.26 58.42V59c-.38-.16-.52-.58-.79-.88l.61.48.15-.43 2.59 2.38-.05.06c-.95-.61-1.56-1.55-2.51-2.19z"/><path class="cls-13" d="M16.42 70a.55.55 0 0 1 .39 0l.9.33-2.46-6.38a.55.55 0 0 1 .19-.64L17 62.18l-1 1.71a.55.55 0 0 0 0 .51l3.23 6.33a.55.55 0 0 0 .3.27l2.8 1a.55.55 0 0 0 .73-.51v-7.74a.55.55 0 0 0-.24-.45l-3-2a.55.55 0 0 1-.2-.25L18 57l1.62 2.56a.55.55 0 0 0 .13.14l2.41 1.82a.55.55 0 0 0 .88-.44v-4.69a.55.55 0 0 1 0-.17l1.64-4.92-.82 5.48a.55.55 0 0 0 0 .22l.79 2.93a.55.55 0 0 1 0 .14v5.75a.55.55 0 0 0 .83.47l5.89-3.58a.55.55 0 0 1 .44-.06l7 2 3.43-2.11L39 65.91l-6.76-2.16L25 68.68a.55.55 0 0 0-.24.45v2.62a.55.55 0 0 0 .28.48l4.13 2.28a.55.55 0 0 0 .33.06l5.41-.63-5.77 1.7a.55.55 0 0 1-.41 0l-3.18-1.69a.55.55 0 0 0-.8.48v21.25h-1.67V74a.55.55 0 0 0-.3-.49l-5.25-2.13a.55.55 0 0 0-.35-.05L6.75 73.85z"/><path class="cls-14" d="M24.88 48.35a3.16 3.16 0 0 1-.47 4.25s-2.16-2.08.47-4.25z"/><path class="cls-14" d="M23.46 48.62a3.16 3.16 0 0 1 .91 4.18s-2.71-1.28-.91-4.18zm2.83 7.3a2.19 2.19 0 0 1-2.06 2.14 1.88 1.88 0 0 1 2.06-2.14zm-9.45-.71a2.07 2.07 0 0 1 1.56 2.33 1.77 1.77 0 0 1-1.56-2.33zm-4.16 6.05a2.61 2.61 0 0 1 2.66 2.33 2.23 2.23 0 0 1-2.66-2.33z"/><path class="cls-14" d="M12.19 62.36a2.61 2.61 0 0 1 3.26 1.36 2.23 2.23 0 0 1-3.26-1.36zm6.46-1.8a2.07 2.07 0 0 1-2.08 1.89 1.77 1.77 0 0 1 2.08-1.89zM4.58 72.13A2.19 2.19 0 0 1 7 73.85a1.88 1.88 0 0 1-2.42-1.72zm5.98 2.03a1.57 1.57 0 0 1 1-1.87 1.35 1.35 0 0 1-1 1.87zM19.39 71a1.57 1.57 0 0 1 1-1.87 1.35 1.35 0 0 1-1 1.87zm24.36-10a2.19 2.19 0 0 1-2.06 2.14A1.88 1.88 0 0 1 43.75 61zM27.77 77.54a1.57 1.57 0 0 1 1-1.87 1.35 1.35 0 0 1-1 1.87z"/><path class="cls-13" d="M70.16 108.55l-1.25 1.25-4.1 2.46 5.83-4.58.95.32 1.07-.36v.91l.85 1.25.4 3.2.22-3.38-.88-1.07.58-.87 2 .87 1.02 1.42 2.42-.43h-2.28l-.44-1.32-1.39-.54-1.65-1.08-.26.71m17.16-40.87l.33-.21v.13h.14l-.59.41c.16.15.28.13.41 0s.25-.26.36-.4a1.58 1.58 0 0 0 .15-.3h-.06l-.24.15v-.3a1.68 1.68 0 0 0 .24-.13c.49-.37 1-.74 1.46-1.1a.28.28 0 0 0 .11-.38c-.12-.37-.22-.75-.33-1.12h.07l.54 1.25c.16-.16.36-.27.4-.43s-.08-.36-.1-.56l.35.54 1.95-1.36v.05l-2.67 2 .1.21.5-.29c-.12.22-.46.19-.44.49h-.18l-.13-.45-2.26 2.41v.06l.26-.09c-.58.4-.58.4-.61.64a7.56 7.56 0 0 0 .78-.47c.23-.18.43-.41.66-.6l-.11.16.29-.14-.57.34.33-.17-.08.24.24-.11 2.47-1.48a3.07 3.07 0 0 1 1-.51 1.61 1.61 0 0 0 1.21-1 1.9 1.9 0 0 1 .32-.46l-.09.2c-.37.74-.74 1.47-1.1 2.21a.51.51 0 0 1-.39.31c-.8.18-1.6.39-2.4.58l-.19.06v.07l3.06-.71a4.63 4.63 0 0 1-1.41.48 13.27 13.27 0 0 0-1.64.34c-.08 0-.14.11-.19.21l.44-.14c-.18.23-.57.13-.6.46-.36 0-.65.19-1 .26l.35.39 1.53-.18-.05.91h.35-.22c-.13 0-.19 0-.22.17s0 .16.14.21a1 1 0 0 0 .84 0c.53-.23 1.08-.42 1.64-.64l-.07.25 1.58-.42v.3a15.78 15.78 0 0 0-4.12.95l.15-.22c-.26-.14-.32.11-.49.26l.12-.32H91l.09.13H91l1.2.33a1.2 1.2 0 0 0-.18.17 1.83 1.83 0 0 0-.13.25L92 70l-.3-.09-.23.49c-.21 0-.39-.15-.64 0 .66.32 1.15.86 1.87 1a1.23 1.23 0 0 1-.78-.18c-.33-.23-.68-.42-1-.63l-.17-.08a.12.12 0 0 0 .05.11l1.3.83a.53.53 0 0 0 .25 0l1.63.06h.95v.05h-.32a.31.31 0 0 0 .14.13l2.23 1.11.16.05v.26l-2.36-1.08c-.26-.12-.51-.26-.77-.39a.5.5 0 0 0-.2-.06h-1.49c-.15 0-.21 0-.22.19a.31.31 0 0 1-.09.17l-.59.56.06.07L92 72l-.6.63.29.46-.47.25L93 75.87l-.19-.24a30.82 30.82 0 0 1-2.37-3.27c-.08-.13-.16-.21-.32-.09s-.17 0-.3 0l.65 1.51c0-.26-.33-.35-.74-.22a1.21 1.21 0 0 0 .2-.05c.1 0 .22-.08.27-.15S90 73 89.87 73l.14.28a1.31 1.31 0 0 0-.25-.3.62.62 0 0 0-.39-.07l.19.1h-.25v.58l-.16-.7v1.21H89c0-.21-.07-.42-.11-.63s-.07-.39-.12-.58-.13-.11-.15-.09-.17.14-.17.21c0 .39.07.77.11 1.16l.28 2.65a.35.35 0 0 1 0 .21c-.15-.38-.29-.77-.44-1.15 0-.08-.07-.18-.13-.21s-.18-.21-.16-.37c.06-.65.11-1.3.16-2 0-.17.07-.36-.11-.52l-.08.22v-.25l-.25.52.09-.32c.09-.32.18-.63.27-1a1.81 1.81 0 0 0 0-.32h-.06l-.4.82.45-1.05h-.05l-.35.57a.3.3 0 0 1-.05.07.72.72 0 0 0-.21.91c-.28-.07-.31-.05-.4.2a2.14 2.14 0 0 1-.21.47c0-.29.08-.59.14-.88 0-.14.06-.28-.09-.33s-.26-.13-.43 0a2.36 2.36 0 0 0-.41.83c-.12.27-.22.56-.36.82l.33-1-1 1.24c.24-.55.72-1 1-1.5h-.06L84.37 75h-.06a1.5 1.5 0 0 1 .1-.21c.45-.66.89-1.32 1.36-2a2.65 2.65 0 0 0 .42-1.09 1.15 1.15 0 0 1 .09-.31l.06.16c.07-.11.07-.11-.14-.38l.22.06v-.46l-.67.5v-.15h-.23l.66-.46c-.15-.13-.27-.14-.39 0s-.27.28-.39.43a1.33 1.33 0 0 0-.13.29h.06l.24-.15v.31a1.27 1.27 0 0 0-.22.11c-.48.36-1 .74-1.44 1.09-.2.14-.19.26-.12.47.13.41.23.83.34 1.24h-.05l-.76-1.31c-.46.18-.09.49-.12.78l-.34-.53L80.75 75l2.8-2.06-.1-.21-.46.28c.11-.22.44-.19.4-.48h.19l.13.45 2.25-2.4v-.05l-.28.08c.28-.19.59-.27.68-.58v-.06a3.26 3.26 0 0 0-.76.48 1.91 1.91 0 0 1-.88.54l.56-.34-.33.16.08-.18h-.07a1.11 1.11 0 0 0-.19.08L82 72.07a1.92 1.92 0 0 1-.75.37c-.3 0-.58.22-.9.29l1.92-1v-.19c.06 0 .14.09.17.07.32-.18.63-.38.95-.57h.12l2.1-1.17.16-.11-.13-.28-2.24 1.59-.2-.17-1.83.38a.44.44 0 0 0-.21.17l-1.78 2.27a1.16 1.16 0 0 1-.24.25l.13-.21c.5-.76 1-1.53 1.5-2.29a.55.55 0 0 1 .29-.21l2.48-.61a.31.31 0 0 0 .17-.1c-1 .29-2.08.34-3.07.69a4.82 4.82 0 0 1 1.36-.48 17.44 17.44 0 0 0 1.75-.35c.1 0 .17-.13.24-.23l-.52.18c.19-.23.59-.15.64-.47a4.53 4.53 0 0 0 1-.27 4.68 4.68 0 0 0-.31-.37h-.17l-.73.19c-.14 0-.3 0-.48.07l.05-.87-.67-.08h.45c.28 0 .28 0 .31-.3a1 1 0 0 0-.95-.09c-.47.22-1 .38-1.44.56l-.24.08.06-.23L79 69a.55.55 0 0 1 .47-.31 14 14 0 0 0 3.83-.82l.24-.07-.2.25c.15 0 .26 0 .33-.07s.12-.17.22-.24l-.06.13-.08.17 1.76.07-.09-.17h.11v-.05l-1.14-.32.2-.33-.08.29.3.09.23-.49.58.09v-.09a6.62 6.62 0 0 0-1.76-.92v-.07a3.46 3.46 0 0 1 .61.2c.37.2.72.44 1.08.66l.17.1-.12-.1-1.25-.8a.48.48 0 0 0-.22-.05L81.84 66a.38.38 0 0 1-.23-.07h.28v-.06l-3-1.27v-.22l3.36 1.43a1.14 1.14 0 0 0 .39.08h1.48c.25 0 .34-.17.24-.31a4 4 0 0 0 .68-.64l-.34.31v-.06c.28-.33.28-.33.05-.69v-.09l.23-.12a.56.56 0 0 0 .21-.16h-.23l.15-.11-1.65-2.41.28.35a29.89 29.89 0 0 1 2.32 3.2c.08.13.16.21.32.11a.89.89 0 0 1 .3 0l-.68-1.6c.13.09.13.35.35.27 0 .06-.09.16-.07.2s.06.34.28.4l-.16-.31.06-.07c.11.42.41.34.71.31v-.36l.11.51v-1.24h.07c0 .22.07.44.11.66s.06.37.12.56.14.11.15.1.17-.15.18-.22v-1q-.06-1.42-.11-2.84a.84.84 0 0 1 0-.28l.18 1.59.07-.2v2.55a1.84 1.84 0 0 0 .07.34h.06l.08-.2v.23l.25-.52c-.12.41-.24.81-.35 1.22a2.65 2.65 0 0 0 0 .38h.07l.44-.88L88.4 66h.06l.11-.18a4.85 4.85 0 0 1 .39-.59.55.55 0 0 0 .16-.58 1.14 1.14 0 0 1 0-.21c.23.08.29.06.37-.17a6.07 6.07 0 0 1 .25-.64c-.06.36-.12.71-.17 1.07 0 .09 0 .25.09.26s.25.14.41 0a3 3 0 0 0 .49-.96 3.82 3.82 0 0 1 .24-.5l-.28.87 1-1.2c-.24.54-.69.94-.94 1.47h.06l1.48-2.14h.06a1.34 1.34 0 0 1-.1.21c-.44.65-.87 1.3-1.33 1.93a2.67 2.67 0 0 0-.45 1.15l-.06.35-.09-.24c-.16.29.21.29.24.46l-.3-.14v.49zm-3.7 3.3c-.16.21.07.21.14.32l.35-.5H87l.39-.27v-.06l-.67.41s-.02.08-.01.1zm.94-2.07a.81.81 0 0 0 0-.26c-.06-.18-.15-.35-.22-.53s-.17-.18-.32-.08l.54.88-.41-.45h-.05l.46.58h.05zm2-1.79l.22-.6c-.3 0-.35 0-.36.11s0 .43 0 .66l.11-.09-.12.24c.2 0 .56-.55.56-.94l-.17.25zm-1.19 5.66c.08-.25 0-.57.28-.72-.36.1-.4.16-.32.51v.21c0 .07.06.15.08.23s.11.17.23.12V71h-.06a.84.84 0 0 0-.14.18 3 3 0 0 0-.1.37zm3.1-.2c-.25-.19-.41 0-.77.32l.49.67.7-.59-.42-.41.4.26v-.06l-.49-.36zm1.55-5l.11.2 1.78-.32a.25.25 0 0 0 .15-.07l.85-1.29-1.82.91.06.18c-.07 0-.15-.1-.19-.09-.31.18-.61.37-.92.56a.81.81 0 0 0-.16 0l-2.1 1.18-.17.11.14.29zm-1.22 2.53h-.14l1.12.23.07-.28a2.5 2.5 0 0 1-1.24-.25l1.28.13.08-.76a3.05 3.05 0 0 0-1.28.44c-.32-.17-.52.21-.77.15v.32c0 .09 0 .22-.06.35l1.9.08v-.08l-1.61-.2v-.09zm-7.06-.14h-.45l-.72-.07s-.13 0-.14.08c0 .21 0 .42-.07.64a3 3 0 0 0 1.28-.38c.09.11.51 0 .73-.14l.1-.66-1.89-.07v.08l1.51.34v.12l-1.54-.38-.08.31a2.79 2.79 0 0 1 1.25.18zm-.28-3c.15.13.31.26.46.4a.22.22 0 0 0 .32 0c.14-.11.27-.23.4-.35l-.53-.73zm6.21 5.59l-.48-.13-.15.29a1.3 1.3 0 0 0 1.11-.48l-.24-.12-.57-.39c-.1-.07-.2-.08-.25 0a.27.27 0 0 0 0 .24c.2.21.37.39.56.63zm-5-5.15c.12 0 .25.11.35.09a.2.2 0 0 0 .19-.26 1.26 1.26 0 0 0-1.09.51L86 67c.09.07.17.09.26 0s0-.18 0-.26zm.2-1a1.34 1.34 0 0 0-.94-.87c-.14.13 0 .53.54 1.16l.26-.23h-.1v-.05zm4.51 7.07a1.34 1.34 0 0 0 .85.85.17.17 0 0 0 .14 0 .13.13 0 0 0 0-.13l-.61-1-.28.24h.12zm-2.63-2.35h-.11L87 71h.15l.42-.67v.31l-.26.37.36.09zm1-3.54c-.18.26-.32 1.1-.18 1.22l.72-1.11h-.07c-.27.15-.29.49-.48.7l.05-.31.26-.39zM87 71.27c-.22 0-.56.6-.55.93a1.9 1.9 0 0 0 .18-.27l.17-.29-.21.55c.34.06.37 0 .38-.28s.03-.42.03-.64zm.28-4.74l-.21-.44c-.12-.27-.18-.29-.5-.2l.42.82zm1.21 3.21c-.28.32-.09.67-.11 1 .13 0 .29-.08.32-.16.11-.3-.05-.58-.21-.85zm-.51-2c.06-.12.14-.2.14-.29v-.6c0-.2-.09-.18-.18-.12a.47.47 0 0 0-.2.26 1.15 1.15 0 0 0 .26.79zM89.19 71v.12l.15.31c.14.29.16.3.5.22l-.42-.82zm-4.31-1.8c.18.4.27.43.59.25h.06c.11 0 .18-.13.11-.23a.29.29 0 0 0-.22-.14 4 4 0 0 0-.54.08zm6.69-.82v-.07a1.48 1.48 0 0 0-.33-.31c-.06 0-.19.08-.29.12h-.06c-.11 0-.16.14-.1.24a.27.27 0 0 0 .21.12 4.41 4.41 0 0 0 .56-.14zm-6.69-.72l.69.19v-.32a1.31 1.31 0 0 0-.48-.24s-.09.19-.22.33zm6 2.05v.33a1.07 1.07 0 0 0 .46.23s.13-.22.21-.37zm-3.78 2.78c.05-.07.09-.1.1-.13s.05-.3.1-.44.12-.33.19-.51l-.39-.13zm2.25-7.44l-.35 1 .38.11zm-3 .77a2 2 0 0 0-.33-.46s-.23.11-.36.17c.18.42.18.42.67.3zM90.82 72c-.23-.42-.24-.43-.68-.28a2.05 2.05 0 0 0 .31.46s.24-.18.37-.18zm-3.1-6.37v.89c.21-.07.3-.36.24-.67-.02-.17-.04-.32-.24-.26zm1.35 2.58a.94.94 0 0 0 .72-.39l-.18.07.24-.16-.25-.23c-.07.21-.33.3-.24.57zm.84-.09l-.46.17v.38c.55-.16.55-.22.46-.59zm-2.95.8c-.48.11-.54.18-.41.53l.44-.16v-.35c0-.11.01-.05.01-.06zm-.88 1.6c.23.2.43.12.61-.23l-.22-.29zm4.3-3.52c-.24-.2-.44-.12-.61.23l.22.21zm-.21 2.6c-.23.25-.23.27.08.42h.25v-.23a2.24 2.24 0 0 0-.33-.16zm-3.89-1.76c.24-.25.22-.32-.05-.41h-.06a.39.39 0 0 0-.17 0s-.11.05-.12.09a.2.2 0 0 0 .05.16c.07.03.24.1.35.19zm2.53 2h-.07c.1.24.2.48.28.73s.18.17.33.07zm1.83-1.52a.47.47 0 0 0-.24.75l.1-.57.09.39h.09zM86 69l-.08-.38h-.06c0 .19-.11.38.07.55.28-.11.33-.27.18-.73zm-2.09 1.51v.06l1.09-.73a1.87 1.87 0 0 0-1.13.62zM92.55 67l-1.09.69a1.43 1.43 0 0 0 1.09-.69zm-5.61-2h.27v-.3h-.39v.29h.23zm2.69 7.79v-.27h-.23.11a.21.21 0 0 0-.13 0h-.11c-.05.28-.05.28.36.3zm-3.4-7.47l.19.29.34-.28v-.07zm3.44 6.82c.2.1.36 0 .55 0l-.22-.27zm-2.3-5.7c.33-.16 0-.31 0-.48l-.21.09zm-1.21 1.83c.07-.32-.2-.28-.31-.41l-.12.2zm4.58 1.14a2.22 2.22 0 0 0-.31-.15h-.16c-.06 0 0 .1.07.13a2.63 2.63 0 0 0 .27.15zm-.51 1.68V71l-.23-.2-.09.41zm-.8.9c-.12.06-.28.1-.21.27s.2.07.35.11zm-.34-1c-.33.16 0 .3 0 .48l.23-.07zm-2.91-4.64l.23.33c.24-.09.09-.25.1-.41zM89.87 69c-.09.19-.06.31.14.33s.13-.07.24-.13zm-3.6-.61l.39.2c0-.15 0-.25-.08-.31s-.15-.06-.23-.09zm1-3.21h-.37l.12.3c.17-.08.29-.13.2-.33zm-.06.85l.24-.13c-.1-.25-.13-.26-.37-.14zm1.9 5.62c.08.26.08.26.36.15l-.12-.28zm-1.65-2.06l-.19.4.41-.29zM89 67.93l.2-.4-.42.29zm.51.9h-.07l.16.34c.18-.23.17-.27-.04-.33zm-2.66-.17h.07l-.18-.41c-.06.3-.05.34.16.41zm.84-2c.38-.09.46-.28.26-.61a.87.87 0 0 1-.21.62zm2.79 1.5l-.3-.21v.36zm-1.32 2.1h.07l-.46-.59-.07.05zm-3-.7l.07-.06-.06-.32-.27.14zM89.63 72l.34-.2h-.43zm-3-4.3l-.15.28.37.07zm3.25-1.15h-.05l-.28.53h.09zm.18 3l-.3-.06.18.28zm-3.4 1.43h.05l.28-.54h-.09zm.12-4.43h-.07l.22.53L87 67zm3.09 6.33h.07l-.18-.38c-.08.09-.11.27.07.34zM89.72 71h.07l-.22-.53h-.08zm-3.16-6.28l.2.43c.05-.38 0-.48-.2-.47zm.35 1l-.09-.2-.35.2zm-1.91.59l-.47-.37-.05.07z"/><path class="cls-13" d="M93.79 72.92v.58c-.38-.16-.52-.58-.79-.88l.61.48.15-.43 2.59 2.38-.05.06c-.95-.59-1.56-1.54-2.51-2.19zm-10.91-8.53l-.15.43-2.58-2.37.05-.06c.92.59 1.53 1.53 2.47 2.18v-.58c.43.19.56.69.91 1z"/></svg>