<svg id="Layer_1" data-name="Layer 1" xmlns="http://www.w3.org/2000/svg" viewBox="0 0 137.33 137.33"><defs><style>.cls-1{fill:#faf8cd}.cls-1,.cls-2,.cls-5,.cls-6,.cls-7{stroke:#2e1714;stroke-miterlimit:10}.cls-1,.cls-2,.cls-6,.cls-7{stroke-width:.75px}.cls-2{fill:#ee8f48}.cls-3{fill:#c46e4a}.cls-4{fill:#9f5840}.cls-5,.cls-6{fill:none}.cls-7{fill:#fff}</style></defs><title>Artboard 3 copy 5</title><circle class="cls-1" cx="68.67" cy="68.79" r="50.06"/><path class="cls-2" d="M53.14 59.23l5.58 55.06 15.68-.68L63.74 81.5 55.2 58.33l-2.06.46v.44z"/><path class="cls-1" d="M45.15 91.52l5.68-32.46.05-.36 2.26.09v.44l2.06 21.5 3.42 33.38-15.95-9.25 2.48-13.34m11.92-34.15l33.44 47.49-16.11 8.75-19.2-55.28 1.87-.96z"/><path class="cls-2" d="M58.73 55.86l50.89 41.07-19.11 7.93-33.44-47.49 1.66-1.51zm-9.8 2.23L29.8 97.15l12.87 7.71 2.48-13.34 5.68-32.46.05-.36-1.95-.61zm11.61-6.07l57.52 10.19.12 1.02.17 2.18.09 1.92v2.71l-.13 2.05-.14 1.53-.2 1.69-.42 2.55-.27 1.15-12.35-4.32-45.04-20.64.65-2.03z"/><path class="cls-1" d="M47.19 56.83L21.98 86.48l.93 2.22.93 1.99 1 1.89 1.27 2.15 3 4.45 3.31-5.61 16.51-35.48-1.74-1.26z"/><path class="cls-2" d="M45.5 55.22L18.93 74.1l.25 1.9.42 2.37.48 2.12.47 1.75.6 1.94.83 2.3 25.21-29.65-1.69-1.61z"/><path class="cls-1" d="M44.52 53.33l-25.59 9.38-.17 1.72-.12 2.23-.03 2.31v1.48l.11 1.4.21 2.25L45.5 55.22l-.98-1.89z"/><path class="cls-2" d="M44.03 51.37l-23.11 1.96-.42 1.42-.39 1.46-.44 1.88-.28 1.44-.18 1.1-.28 2.08 25.59-9.38-.49-1.96z"/><path class="cls-1" d="M44.16 49.05l-20.07-3.42-.54 1.1-.63 1.34-.34.79-.5 1.2-.35.92-.33.92-.48 1.43 23.11-1.96.13-2.32z"/><path class="cls-2" d="M44.72 47.19l-16.7-7.97-1.16 1.67-.82 1.29-.62 1.02-.55.97-.78 1.46 20.07 3.42.56-1.86z"/><path class="cls-1" d="M45.88 45.27L32.54 33.81l-1.15 1.24-1.22 1.41-1.26 1.57-.89 1.19 16.7 7.97 1.16-1.92z"/><path class="cls-2" d="M47.59 43.68L37.46 29.33l-1.71 1.42-1.34 1.21-1.12 1.09-.75.76 13.34 11.46 1.71-1.59z"/><path class="cls-1" d="M49.49 42.68l-6.25-17.33-2.09 1.31-1.93 1.33-1.76 1.34 10.13 14.35 1.9-1z"/><path class="cls-2" d="M51.53 42.18l-1.65-20.1-3.14 1.4-2.02 1.04-1.48.83 6.25 17.33 2.04-.5z"/><path class="cls-1" d="M53.88 42.18l4-22.56-2.82.7-2.7.84-2.48.92 1.65 20.1h2.35z"/><path class="cls-2" d="M56 42.29l10.82-23a.53.53 0 0 0-.52-.76l-2.84.19L61 19l-2.74.5a.53.53 0 0 0-.43.43L54 41.69a.53.53 0 0 0 .39.61l1.06.27a.53.53 0 0 0 .55-.28z"/><path class="cls-1" d="M60.18 47.66l42.56-15.6-2.4-2.13-3.59-2.7-2.24-1.46-2.13-1.22-1.85-.96-30.84 21.73-.49.44.98 1.9z"/><path class="cls-2" d="M60.68 49.67l52.09-4.4-3.38-5.55-1.62-2.17-2.59-3.03-2.44-2.46-42.56 15.6.5 2.01z"/><path class="cls-1" d="M61.67 52.22l56.39 9.99-1.1-5.94-1.38-4.57-1.32-3.33-1.49-3.1-52.09 4.4-.14 2.35 1.13.2z"/><circle class="cls-1" cx="52.36" cy="50.5" r="8.32"/><path class="cls-1" d="M58 43.78l19.87-23.65a.49.49 0 0 0-.3-.79l-3.37-.53-3.45-.31h-3.2a.49.49 0 0 0-.44.28L56 42.33a.49.49 0 0 0 .14.59l1.2.93a.49.49 0 0 0 .66-.07z"/><path class="cls-2" d="M59.69 45.32l30-20.81a.76.76 0 0 0-.13-1.31l-3.18-1.4h-.05L84.1 21l-3.1-.95-2.07-.47a.76.76 0 0 0-.75.25l-20 23.81a.76.76 0 0 0 0 1l.53.58a.76.76 0 0 0 .98.1z"/><path class="cls-3" d="M26.41 95.17a50 50 0 0 0 84.61 0z"/><path class="cls-4" d="M106.95 100.28H30.32l-3.91-5.11h84.61l-4.07 5.11z"/><path class="cls-5" d="M14.58 95.4h-3.72m4.44 0h106.6m4.57 0h-3.71"/><circle class="cls-6" cx="68.67" cy="68.79" r="50.06"/><path class="cls-7" d="M51.33 48.34a.39.39 0 0 1-.4-.35V32.43h-3.67a.42.42 0 0 1-.43-.4v-3.41a.44.44 0 0 1 .43-.43h11.55a.44.44 0 0 1 .43.43V32a.42.42 0 0 1-.43.4h-3.67V48a.38.38 0 0 1-.4.35zm20-.34a.9.9 0 0 1-.66.32h-7.54a.93.93 0 0 1-.75-.32l-1.62-1.6a1 1 0 0 1-.32-.75V30.87a1.16 1.16 0 0 1 .32-.75l1.62-1.62a1 1 0 0 1 .75-.32h7.45a.76.76 0 0 1 .75.32L73 30.12a1 1 0 0 1 .29.75v14.78a1.13 1.13 0 0 1-.29.75zm-2.4-4.33a.24.24 0 0 0 .09-.2V33.21a.29.29 0 0 0-.09-.23l-.46-.46a.24.24 0 0 0-.2-.09h-2.8c-.09 0-.12 0-.2.09l-.49.46a.29.29 0 0 0-.09.23v10.28a.38.38 0 0 0 .09.2l.4.4h3.35zM76 48.34a.41.41 0 0 1-.4-.4V28.59a.4.4 0 0 1 .4-.4h9.18a1 1 0 0 1 .75.29l1.62 1.65a.93.93 0 0 1 .32.75v7.36a.92.92 0 0 1-.32.78l-1.62 1.65a1 1 0 0 1-.69.29h-5.4v7a.44.44 0 0 1-.43.4zm7.54-12.19a.25.25 0 0 0 .09-.17v-2.77a.21.21 0 0 0-.09-.2l-.49-.49a.33.33 0 0 0-.23-.09h-3v4.27h3a.29.29 0 0 0 .23-.09zM50.65 91.92a.8.8 0 0 1-.82-.82V59.57h-3.29c-.41 0-.76-.41-.47-1.12l2.76-6.75c.24-.53.47-.76.82-.76h7.93a.94.94 0 0 1 .88.82v39.33a.85.85 0 0 1-.88.82zm33.24-.59a1.82 1.82 0 0 1-1.53.59H67a1.93 1.93 0 0 1-1.35-.59L62.34 88a2.09 2.09 0 0 1-.65-1.64v-30a2.09 2.09 0 0 1 .65-1.53l3.29-3.29a2.4 2.4 0 0 1 1.53-.65h15.2a1.84 1.84 0 0 1 1.53.65l3.29 3.29a2.24 2.24 0 0 1 .65 1.53v30.15a2 2 0 0 1-.65 1.49zM79 82.46a.58.58 0 0 0 .18-.47V61.15a.49.49 0 0 0-.18-.41l-1-1a.78.78 0 0 0-.41-.18h-5.68a.44.44 0 0 0-.41.18l-.94 1c-.18.24-.23.24-.23.53v20.61a.84.84 0 0 0 .23.59l.76.82h6.88z"/></svg>