<svg id="Layer_1" data-name="Layer 1" xmlns="http://www.w3.org/2000/svg" viewBox="0 0 137.33 137.33"><defs><style>.cls-1{fill:#3a3835}.cls-1,.cls-4,.cls-5,.cls-6,.cls-7{stroke:#2e1714;stroke-miterlimit:10}.cls-1,.cls-5,.cls-6,.cls-7{stroke-width:.75px}.cls-2{fill:#c46e4a}.cls-3{fill:#9f5840}.cls-4,.cls-5{fill:none}.cls-6{fill:#6a675f}.cls-7{fill:#fff}.cls-8{fill:#2e1714}</style></defs><title>Artboard 3 copy 4</title><circle class="cls-1" cx="68.67" cy="71.46" r="50.06"/><path class="cls-2" d="M26.57 98.36a50 50 0 0 0 84.61 0z"/><path class="cls-3" d="M107.11 103.46H30.48l-3.91-5.1h84.61l-4.07 5.1z"/><path class="cls-4" d="M14.74 97.99h-3.72m4.44 0h106.61m4.24 0h-3.72"/><circle class="cls-5" cx="68.88" cy="71.46" r="50.06"/><path class="cls-6" d="M103.48 97.63v-53c0-15.92-11.9-28.95-26.44-28.95H61.2c-14.54 0-26.44 13-26.44 28.95v53z"/><path class="cls-7" d="M53.62 48.71a.39.39 0 0 1-.4-.35V32.8h-3.67a.42.42 0 0 1-.43-.4V29a.44.44 0 0 1 .43-.43H61.1a.44.44 0 0 1 .43.43v3.4a.42.42 0 0 1-.43.4h-3.67v15.56a.38.38 0 0 1-.4.35zm20-.32a.9.9 0 0 1-.66.32h-7.54a.93.93 0 0 1-.75-.32L63 46.78a1 1 0 0 1-.32-.75V31.24a1.16 1.16 0 0 1 .32-.75l1.62-1.62a1 1 0 0 1 .75-.32h7.45a.76.76 0 0 1 .75.32l1.65 1.62a1 1 0 0 1 .29.75V46a1.13 1.13 0 0 1-.29.75zm-2.4-4.33a.24.24 0 0 0 .09-.2V33.58a.29.29 0 0 0-.09-.23l-.46-.46a.24.24 0 0 0-.2-.09h-2.8c-.09 0-.12 0-.2.09l-.49.46a.29.29 0 0 0-.09.23v10.28a.38.38 0 0 0 .09.2l.4.4h3.35zm7.08 4.65a.41.41 0 0 1-.4-.4V29a.4.4 0 0 1 .4-.4h9.18a1 1 0 0 1 .75.29l1.62 1.65a.93.93 0 0 1 .32.75v7.31a.92.92 0 0 1-.32.78L88.23 41a1 1 0 0 1-.69.29h-5.4v7a.44.44 0 0 1-.43.4zm7.54-12.19a.25.25 0 0 0 .09-.17v-2.77a.21.21 0 0 0-.09-.2l-.49-.49a.33.33 0 0 0-.23-.09h-3v4.27h3a.29.29 0 0 0 .23-.09zM59.8 94.57a.8.8 0 0 1-1.14-.21l-17.83-26-2.71 1.86c-.34.23-.86.09-1-.65l-1.54-7.13c-.1-.57 0-.9.25-1.1l6.54-4.48a.94.94 0 0 1 1.19.18l22.21 32.44a.85.85 0 0 1-.26 1.18zm28.73-3.46a1.82 1.82 0 0 1-1.53.59H71.62a1.93 1.93 0 0 1-1.35-.59L67 87.82a2.09 2.09 0 0 1-.65-1.64v-30a2.09 2.09 0 0 1 .65-1.52l3.29-3.29a2.4 2.4 0 0 1 1.53-.65H87a1.84 1.84 0 0 1 1.53.65l3.29 3.29a2.24 2.24 0 0 1 .65 1.53V86.3a2 2 0 0 1-.65 1.47zm-4.87-8.86a.58.58 0 0 0 .18-.47V60.94a.49.49 0 0 0-.18-.41l-1-1a.78.78 0 0 0-.41-.18h-5.7a.44.44 0 0 0-.41.18l-.94 1c-.18.24-.23.24-.23.53v20.6a.84.84 0 0 0 .23.59l.76.82h6.87z"/><path class="cls-8" d="M46.9 97.63a8.81 8.81 0 0 1-1.33-1.87c-.65-1.72.69-2.29 2-2.74-.61-1.51-1.18-2.88.42-3.95l-.74-1.67 2.23-.77C47 85.17 47 85 47.68 82.76a3.94 3.94 0 0 1-2-2.66c-.2-1-1.66-1.67-2.64-2.57a5.15 5.15 0 0 1 .66-.3c3-.81 3-.81 2.68-3.82-.11-1-.15-1.72 1-2.34.91-.49 1.48-1.62 2.37-2.67-2.43-.25-2.75-1.5-2.18-3.4.1-.34-.85-1-1.29-1.46a9.59 9.59 0 0 1-.73-2.44c0-1.27-.61-2.63.4-3.82.3-.35.38-.88.68-1.24a4.84 4.84 0 0 1 1.07-.73l-1.21-1.5 1.25-.9c.37-1.58-.32-2.52-2-2.9l1.33-2.85-2.36-3.45.33-.19 2.66 3.59-1 2a10.79 10.79 0 0 1 1.53 2.51 7.65 7.65 0 0 1-.23 2.49h-.45l1 1.14c-.84 1.23-2 2.26-2.15 3.41-.06.6-1.5 2.55.94 2.67L47 62.84c.06.08.12.23.19.24a1.47 1.47 0 0 1 1.27 2.11c-.61 1.72.31 2 1.62 2.23.26 0 .52.1 1.14.23-1 1.43-1.62 3-2.77 3.92a2.86 2.86 0 0 0-.84 3.37c.45 1.73-.23 2.63-1.92 3.24 1.69.89 1.17 3.73 3.85 3.41l-.9 2.9 2.9.9L50 88.68l-.44-.16.67 1.53-1.48.78a7.83 7.83 0 0 1 .25 2.63c-.19.7-1 1.25-1.39 1.74l1.22 2.43z" id="_5EQZpW" data-name="5EQZpW"/></svg>