<svg id="Layer_1" data-name="Layer 1" xmlns="http://www.w3.org/2000/svg" viewBox="0 0 137.33 137.33"><defs><style>.cls-1,.cls-5{fill:none;}.cls-1,.cls-10,.cls-2,.cls-5,.cls-6,.cls-7,.cls-8{stroke:#2e1714;stroke-miterlimit:10;}.cls-2{fill:#98b2ac;}.cls-2,.cls-5,.cls-6,.cls-7,.cls-8{stroke-width:0.75px;}.cls-3{fill:#c46e4a;}.cls-4{fill:#9f5840;}.cls-6,.cls-9{fill:#fff;}.cls-7{fill:#ee8f49;}.cls-10,.cls-8{fill:#f9f8cd;}.cls-10{stroke-width:0.5px;}.cls-11{fill:#c2d4cf;}</style></defs><title>Artboard 3 copy</title><line class="cls-1" x1="14.56" y1="95.38" x2="10.84" y2="95.38"/><line class="cls-1" x1="126.49" y1="95.38" x2="122.77" y2="95.38"/><circle class="cls-2" cx="69.29" cy="68.13" r="50.06"/><path class="cls-3" d="M26.81,95a50,50,0,0,0,84.61,0Z"/><path class="cls-4" d="M66.61,95.38l.25,0,29.6,4.21a2.82,2.82,0,0,1,1.64,4.74L88,114.93s14.89-5.76,23.25-19.56Z"/><circle class="cls-5" cx="69.12" cy="68.13" r="50.06"/><rect class="cls-6" x="28" y="46.23" width="82.58" height="49.15"/><rect class="cls-7" x="61.32" y="58.5" width="15.71" height="33.78"/><rect class="cls-2" x="35.76" y="58.44" width="18.47" height="18.47"/><rect class="cls-2" x="84.25" y="58.44" width="18.47" height="18.47"/><rect class="cls-6" x="58.7" y="92.56" width="20.94" height="2.61"/><circle class="cls-8" cx="23.12" cy="87.53" r="7.84"/><line class="cls-1" x1="15.28" y1="95.38" x2="121.89" y2="95.38"/><rect class="cls-8" x="28" y="46.23" width="82.58" height="2.42"/><path class="cls-7" d="M112.34,46.49H25.83a.5.5,0,0,1-.27-.91l41-27.18a2.79,2.79,0,0,1,1.54-.47h.72a3.2,3.2,0,0,1,1.73.51l42.1,27.14A.5.5,0,0,1,112.34,46.49Z"/><path class="cls-9" d="M65.44,77.19a.07.07,0,0,1-.07-.07V75.8h-.75v1.32a.07.07,0,0,1-.07.07h-.6a.07.07,0,0,1-.07-.07V73.75a.07.07,0,0,1,.07-.07h.6a.07.07,0,0,1,.07.07v1.31h.75V73.75a.07.07,0,0,1,.07-.07H66a.07.07,0,0,1,.07.07v3.37a.07.07,0,0,1-.07.07Z"/><path class="cls-9" d="M68.5,77.14a.16.16,0,0,1-.12.06H67.07a.16.16,0,0,1-.13-.06l-.28-.28a.17.17,0,0,1-.06-.13V74.15a.2.2,0,0,1,.06-.13l.28-.28a.17.17,0,0,1,.13-.06h1.3a.13.13,0,0,1,.13.06l.29.28a.18.18,0,0,1,.05.13v2.57a.2.2,0,0,1-.05.13Zm-.42-.75a0,0,0,0,0,0,0V74.56a.05.05,0,0,0,0,0L68,74.44l0,0h-.49l0,0-.09.08a.05.05,0,0,0,0,0v1.79a.07.07,0,0,0,0,0l.07.07H68Z"/><path class="cls-9" d="M71.47,77.19a.07.07,0,0,1-.08-.07l0-1.28L71,77.12a.1.1,0,0,1-.09.07h-.4a.1.1,0,0,1-.1-.07L70,75.84l0,1.28a.07.07,0,0,1-.07.07h-.6a.07.07,0,0,1-.07-.07l.14-3.37a.06.06,0,0,1,.06-.07h.64a.08.08,0,0,1,.08.07l.45,1.95.06.42,0-.42.53-1.95a.07.07,0,0,1,.08-.07H72s.06,0,.06.07l.13,3.37a.07.07,0,0,1-.07.07Z"/><path class="cls-9" d="M72.65,77.19a.07.07,0,0,1-.07-.07V73.75a.07.07,0,0,1,.07-.07h1.83a.07.07,0,0,1,.07.07v.6a.07.07,0,0,1-.07.07H73.32v.64h.89a.07.07,0,0,1,.07.07v.6a.07.07,0,0,1-.07.07h-.89v.65h1.16a.07.07,0,0,1,.07.07v.6a.07.07,0,0,1-.07.07Z"/><path class="cls-10" d="M38.67,79.62h-2.4v0H33.84A1.25,1.25,0,0,1,36.26,79a1.25,1.25,0,1,1,2.41.62Z"/><path class="cls-10" d="M43.6,79.62H41.18v0H38.75a1.25,1.25,0,0,1,2.43-.55,1.25,1.25,0,1,1,2.42.59Z"/><path class="cls-10" d="M46.09,79.62H43.67a1.25,1.25,0,1,1,2.42,0Z"/><path class="cls-10" d="M50.95,79.62H48.59v0H46.16a1.25,1.25,0,0,1,2.4-.66,1.25,1.25,0,0,1,2.39.71Z"/><path class="cls-10" d="M53.44,79.62H51a1.25,1.25,0,1,1,2.42,0Z"/><path class="cls-10" d="M55.94,79.66v0H53.51a1.25,1.25,0,1,1,2.42,0Z"/><polygon class="cls-10" points="55.94 79.62 33.61 79.66 33.61 80.31 55.94 80.31 55.94 79.62"/><rect class="cls-6" x="33.74" y="80.39" width="22.11" height="5.94"/><path class="cls-10" d="M88.05,79.62h-2.4v0H83.22A1.25,1.25,0,0,1,85.64,79a1.25,1.25,0,1,1,2.41.62Z"/><path class="cls-10" d="M93,79.62H90.56v0H88.13a1.25,1.25,0,0,1,2.43-.55,1.25,1.25,0,1,1,2.42.59Z"/><path class="cls-10" d="M95.47,79.62H93a1.25,1.25,0,1,1,2.42,0Z"/><path class="cls-10" d="M100.33,79.62H98v0H95.54a1.25,1.25,0,0,1,2.4-.66,1.25,1.25,0,0,1,2.39.71Z"/><path class="cls-10" d="M102.82,79.62H100.4a1.25,1.25,0,1,1,2.42,0Z"/><path class="cls-10" d="M105.32,79.66v0h-2.42a1.25,1.25,0,1,1,2.42,0Z"/><polygon class="cls-10" points="105.32 79.62 82.99 79.66 82.99 80.31 105.32 80.31 105.32 79.62"/><rect class="cls-6" x="83.12" y="80.39" width="22.11" height="5.94"/><circle class="cls-8" cx="36.85" cy="89.98" r="5.4"/><circle class="cls-8" cx="113.39" cy="87.53" r="7.84"/><circle class="cls-8" cx="99.67" cy="89.98" r="5.4"/><polygon class="cls-11" points="35.76 72.08 45.74 58.44 48.98 58.44 35.76 76.05 35.76 72.08"/><polygon class="cls-11" points="37.58 76.91 50.38 58.5 50.99 58.44 38.72 76.91 37.58 76.91"/><rect class="cls-4" x="35.76" y="58.44" width="4.98" height="18.47"/><rect class="cls-4" x="49.24" y="58.44" width="4.98" height="18.47"/><polygon class="cls-3" points="39.27 58.5 39.94 58.5 40.3 76.91 38.72 76.91 39.27 58.5"/><polygon class="cls-3" points="37.58 58.44 36.55 58.44 37.07 76.91 37.58 76.91 37.58 58.44"/><polygon class="cls-3" points="50.89 58.53 50.23 58.53 49.86 76.94 51.45 76.94 50.89 58.53"/><polygon class="cls-3" points="52.58 58.47 53.61 58.47 53.1 76.94 52.58 76.94 52.58 58.47"/><rect class="cls-5" x="35.76" y="58.44" width="18.47" height="18.47"/><polygon class="cls-11" points="84.43 72.12 94.41 58.49 97.64 58.49 84.43 76.09 84.43 72.12"/><polygon class="cls-11" points="86.25 76.95 99.04 58.54 99.65 58.49 87.38 76.95 86.25 76.95"/><rect class="cls-4" x="84.43" y="58.49" width="4.98" height="18.47"/><rect class="cls-4" x="97.91" y="58.49" width="4.98" height="18.47"/><polygon class="cls-3" points="87.94 58.54 88.6 58.54 88.97 76.95 87.38 76.95 87.94 58.54"/><polygon class="cls-3" points="86.25 58.49 85.22 58.49 85.73 76.95 86.25 76.95 86.25 58.49"/><polygon class="cls-3" points="99.56 58.57 98.89 58.57 98.53 76.98 100.11 76.98 99.56 58.57"/><polygon class="cls-3" points="101.25 58.51 102.28 58.51 101.76 76.98 101.25 76.98 101.25 58.51"/><rect class="cls-5" x="84.25" y="58.49" width="18.47" height="18.47"/><rect class="cls-5" x="63.61" y="78.88" width="10.88" height="11.87"/><rect class="cls-2" x="63.56" y="61.16" width="10.75" height="10.51"/><polygon class="cls-11" points="63.43 69.04 69.31 61.01 71.22 61.01 63.43 71.38 63.43 69.04"/><polygon class="cls-11" points="64.51 71.89 72.04 61.04 72.4 61.01 65.17 71.89 64.51 71.89"/><rect class="cls-5" x="63.57" y="61.16" width="10.75" height="10.51"/></svg>