<svg id="Layer_1" data-name="Layer 1" xmlns="http://www.w3.org/2000/svg" viewBox="0 0 137.33 137.33"><defs><style>.cls-1,.cls-5{fill:none;}.cls-1,.cls-12,.cls-13,.cls-2,.cls-5,.cls-6,.cls-7,.cls-8{stroke:#2e1714;stroke-miterlimit:10;}.cls-2{fill:#98b2ac;}.cls-2,.cls-5,.cls-6,.cls-7,.cls-8{stroke-width:0.75px;}.cls-3{fill:#c46e4a;}.cls-4{fill:#9f5840;}.cls-6,.cls-9{fill:#fff;}.cls-7{fill:#ee8f49;}.cls-12,.cls-13,.cls-8{fill:#f9f8cd;}.cls-10{fill:#c2d4cf;}.cls-11{fill:#2e1714;}.cls-12{stroke-width:0.25px;}.cls-13{stroke-width:0.5px;}</style></defs><title>Artboard 3 copy 3</title><line class="cls-1" x1="14.56" y1="95.94" x2="10.84" y2="95.94"/><line class="cls-1" x1="126.49" y1="95.94" x2="122.77" y2="95.94"/><circle class="cls-2" cx="69.12" cy="68.53" r="50.06"/><path class="cls-3" d="M26.81,95.55a50,50,0,0,0,84.61,0Z"/><path class="cls-4" d="M66.61,95.94l.25,0,29.6,4.21a2.82,2.82,0,0,1,1.64,4.74L88,115.5s14.89-5.76,23.25-19.56Z"/><circle class="cls-5" cx="69.12" cy="68.7" r="50.06"/><rect class="cls-6" x="28" y="46.79" width="82.58" height="49.15"/><rect class="cls-7" x="61.32" y="59.06" width="15.71" height="33.78"/><rect class="cls-2" x="35.76" y="59.01" width="18.47" height="18.47"/><rect class="cls-5" x="58.7" y="93.12" width="20.94" height="2.61"/><line class="cls-1" x1="15.28" y1="95.94" x2="121.89" y2="95.94"/><rect class="cls-8" x="28" y="46.79" width="82.58" height="2.42"/><path class="cls-7" d="M112.34,47.06H25.83a.5.5,0,0,1-.27-.91L66.51,19a2.79,2.79,0,0,1,1.54-.47h.72A3.2,3.2,0,0,1,70.5,19l42.1,27.14A.5.5,0,0,1,112.34,47.06Z"/><path class="cls-9" d="M65.44,77.76a.07.07,0,0,1-.07-.07V76.37h-.75v1.32a.07.07,0,0,1-.07.07h-.6a.07.07,0,0,1-.07-.07V74.32a.07.07,0,0,1,.07-.07h.6a.07.07,0,0,1,.07.07v1.31h.75V74.32a.07.07,0,0,1,.07-.07H66a.07.07,0,0,1,.07.07v3.37a.07.07,0,0,1-.07.07Z"/><path class="cls-9" d="M68.5,77.7a.16.16,0,0,1-.12.06H67.07a.16.16,0,0,1-.13-.06l-.28-.28a.17.17,0,0,1-.06-.13V74.71a.2.2,0,0,1,.06-.13l.28-.28a.17.17,0,0,1,.13-.06h1.3a.13.13,0,0,1,.13.06l.29.28a.18.18,0,0,1,.05.13v2.57a.2.2,0,0,1-.05.13Zm-.42-.75a0,0,0,0,0,0,0V75.12a.05.05,0,0,0,0,0L68,75l0,0h-.49l0,0-.09.08a.05.05,0,0,0,0,0v1.79a.07.07,0,0,0,0,0l.07.07H68Z"/><path class="cls-9" d="M71.48,77.76a.07.07,0,0,1-.08-.07l0-1.28L71,77.69a.1.1,0,0,1-.09.07h-.4a.1.1,0,0,1-.1-.07L70,76.41l0,1.28a.07.07,0,0,1-.07.07h-.6a.07.07,0,0,1-.07-.07l.14-3.37a.06.06,0,0,1,.06-.07h.64a.08.08,0,0,1,.08.07l.45,1.95.06.42,0-.42.53-1.95a.07.07,0,0,1,.08-.07H72s.06,0,.06.07l.13,3.37a.07.07,0,0,1-.07.07Z"/><path class="cls-9" d="M72.65,77.76a.07.07,0,0,1-.07-.07V74.32a.07.07,0,0,1,.07-.07h1.83a.07.07,0,0,1,.07.07v.6a.07.07,0,0,1-.07.07H73.32v.64h.89a.07.07,0,0,1,.07.07v.6a.07.07,0,0,1-.07.07h-.89V77h1.16a.07.07,0,0,1,.07.07v.6a.07.07,0,0,1-.07.07Z"/><polygon class="cls-10" points="35.76 72.64 45.74 59.01 48.98 59.01 35.76 76.61 35.76 72.64"/><polygon class="cls-10" points="37.58 77.47 50.38 59.06 50.99 59.01 38.72 77.47 37.58 77.47"/><rect class="cls-4" x="35.76" y="59.01" width="4.98" height="18.47"/><rect class="cls-4" x="49.24" y="59.01" width="4.98" height="18.47"/><polygon class="cls-3" points="39.27 59.06 39.94 59.06 40.3 77.47 38.72 77.47 39.27 59.06"/><polygon class="cls-3" points="37.58 59.01 36.55 59.01 37.07 77.47 37.58 77.47 37.58 59.01"/><polygon class="cls-3" points="50.89 59.09 50.23 59.09 49.86 77.5 51.45 77.5 50.89 59.09"/><polygon class="cls-3" points="52.58 59.04 53.61 59.04 53.1 77.5 52.58 77.5 52.58 59.04"/><rect class="cls-5" x="35.76" y="59.01" width="18.47" height="18.47"/><line class="cls-10" x1="99.04" y1="59.11" x2="99.65" y2="59.05"/><rect class="cls-5" x="63.61" y="79.44" width="10.88" height="11.87"/><rect class="cls-2" x="63.74" y="61.66" width="10.75" height="10.51"/><polygon class="cls-10" points="63.61 69.53 69.49 61.5 71.4 61.5 63.61 71.87 63.61 69.53"/><polygon class="cls-10" points="64.68 72.38 72.22 61.53 72.58 61.5 65.35 72.38 64.68 72.38"/><rect class="cls-5" x="63.74" y="61.66" width="10.75" height="10.51"/><rect class="cls-2" x="84.86" y="58.93" width="18.47" height="18.47"/><polygon class="cls-10" points="85.04 72.83 95.02 59.2 98.25 59.2 85.04 76.8 85.04 72.83"/><polygon class="cls-10" points="86.86 77.67 99.65 59.26 100.27 59.2 87.99 77.67 86.86 77.67"/><polygon class="cls-4" points="91.47 77.36 85.04 77.44 85.04 58.97 92.89 60.62 91.47 77.36"/><polygon class="cls-4" points="103.5 77.35 98.52 77.35 98.52 61.63 103.5 63.05 103.5 77.35"/><polygon class="cls-3" points="88.53 60.2 89.23 60.4 89.58 77.44 87.99 77.44 88.53 60.2"/><polygon class="cls-3" points="86.86 59.38 85.82 59.12 86.34 77.26 86.86 77.26 86.86 59.38"/><polygon class="cls-3" points="100.39 62.46 99.52 62.19 99.14 77.46 100.73 77.46 100.39 62.46"/><polygon class="cls-3" points="101.86 62.55 102.85 62.9 102.36 77.46 101.84 77.46 101.86 62.55"/><polygon class="cls-11" points="103.5 63.21 84.79 58.89 86.2 58.82 103.33 62.48 103.5 63.21"/><rect class="cls-5" x="84.86" y="58.93" width="18.47" height="18.47"/><polygon class="cls-11" points="110.58 56.51 109.64 55.31 106.83 53.55 105.58 52.21 105.41 52.16 104.88 52.01 104.16 51.83 105.3 52.44 105.94 52.78 106.2 53.47 106.92 53.85 107.45 54.02 109.36 55.36 110.58 56.51"/><polygon class="cls-11" points="106.61 54.69 107.16 55.74 109.05 57.48 109.82 58.68 109.94 58.74 110.32 58.93 110.85 59.17 110.07 58.55 109.62 58.19 109.52 57.63 109.03 57.24 108.65 57.03 107.38 55.74 106.61 54.69"/><polygon class="cls-11" points="31.54 94.64 32.44 92.92 31.54 92.72 30.41 94.64 27.67 93.53 28.99 90.38 30.1 89.47 33.35 91.91 31.54 89.01 33.76 89.01 36.95 90.18 34.26 87.95 31.42 87.74 30.05 88.58 28.07 89.77 26.35 93.53 26.35 90.63 28.18 87.74 29.5 87.03 31.22 84.3 29.29 85.83 27.15 82.77 28.07 86.22 26.34 88.72 26.31 88.56 26.13 84.5 25.64 85.58 25.05 84.3 24.85 88.88 23 86.22 23.92 82.77 21.78 85.83 19.86 84.3 21.58 87.03 22.9 87.74 24.83 90.79 24.83 93.33 23.1 89.57 21.13 88.38 19.75 87.54 16.91 87.74 14.23 89.98 17.42 88.81 19.64 88.81 17.83 91.7 21.07 89.27 22.19 90.18 23.51 93.33 20.77 94.44 19.64 92.51 18.74 92.72 19.64 94.44 16.2 92.11 15.7 93.12 18.64 95.05 20.16 95.86 23 94.95 24.83 94.64 23.91 95.86 21.07 97.18 19.25 97.18 21.07 98.09 23.91 96.78 24.83 96.2 24.83 96.67 25.91 96.33 26.35 96.47 26.35 96.41 27.26 96.98 30.1 98.3 31.93 97.38 30.1 97.38 27.26 96.06 26.35 94.85 28.18 95.15 31.02 96.06 32.54 95.25 35.48 93.33 34.98 92.31 31.54 94.64"/><path class="cls-12" d="M32.26,83.37a1.56,1.56,0,0,1-1.42,1.57A1.34,1.34,0,0,1,32.26,83.37Z"/><path class="cls-12" d="M29.78,83.23A1.56,1.56,0,0,1,31,84.94,1.34,1.34,0,0,1,29.78,83.23Z"/><path class="cls-12" d="M18.73,82.62a2,2,0,0,1,1.58,2.17A1.69,1.69,0,0,1,18.73,82.62Z"/><path class="cls-12" d="M26.27,88.21a2,2,0,0,1-.69,2.59A1.69,1.69,0,0,1,26.27,88.21Z"/><path class="cls-12" d="M16.62,91.93a1.39,1.39,0,0,1,1.75-.69A1.19,1.19,0,0,1,16.62,91.93Z"/><path class="cls-12" d="M32.86,91.14a2,2,0,0,1,1.58,2.17A1.69,1.69,0,0,1,32.86,91.14Z"/><path class="cls-12" d="M15.8,86.25A1.5,1.5,0,0,1,17,87.89,1.28,1.28,0,0,1,15.8,86.25Z"/><path class="cls-12" d="M35.28,86.6A1.5,1.5,0,0,1,34,88.21,1.28,1.28,0,0,1,35.28,86.6Z"/><path class="cls-12" d="M21.68,86.6a1.5,1.5,0,0,1,.48,2A1.28,1.28,0,0,1,21.68,86.6Z"/><polygon class="cls-11" points="43.16 95.66 43.78 94.48 43.16 94.34 42.39 95.66 40.51 94.9 41.41 92.74 42.18 92.12 44.4 93.79 43.16 91.81 44.68 91.81 46.87 92.61 45.03 91.08 43.08 90.94 42.14 91.51 40.79 92.33 39.61 94.9 39.61 92.91 40.86 90.94 41.76 90.45 42.94 88.57 41.62 89.62 40.16 87.53 40.79 89.89 39.6 91.61 39.58 91.5 39.45 88.71 39.12 89.46 38.72 88.57 38.58 91.71 37.31 89.89 37.94 87.53 36.48 89.62 35.16 88.57 36.34 90.45 37.24 90.94 38.56 93.02 38.56 94.76 37.38 92.19 36.03 91.37 35.09 90.8 33.14 90.94 31.3 92.47 33.49 91.67 35.01 91.67 33.77 93.65 35.99 91.98 36.76 92.61 37.66 94.76 35.78 95.53 35.01 94.2 34.39 94.34 35.01 95.53 32.66 93.93 32.31 94.62 34.32 95.94 35.37 96.5 37.31 95.87 38.56 95.66 37.94 96.5 35.99 97.4 34.74 97.4 35.99 98.03 37.94 97.12 38.56 96.73 38.56 97.05 39.31 96.82 39.61 96.92 39.61 96.87 40.23 97.26 42.18 98.17 43.43 97.54 42.18 97.54 40.23 96.64 39.61 95.8 40.86 96.01 42.8 96.64 43.85 96.08 45.86 94.76 45.52 94.06 43.16 95.66"/><path class="cls-12" d="M43.65,87.94a1.07,1.07,0,0,1-1,1.08A.92.92,0,0,1,43.65,87.94Z"/><path class="cls-12" d="M42,87.84A1.07,1.07,0,0,1,42.81,89,.92.92,0,0,1,42,87.84Z"/><path class="cls-12" d="M34.38,87.43a1.36,1.36,0,0,1,1.09,1.48A1.16,1.16,0,0,1,34.38,87.43Z"/><path class="cls-12" d="M39.55,91.25A1.36,1.36,0,0,1,39.08,93,1.16,1.16,0,0,1,39.55,91.25Z"/><path class="cls-12" d="M32.94,93.8a1,1,0,0,1,1.2-.47A.81.81,0,0,1,32.94,93.8Z"/><path class="cls-12" d="M44.07,93.26a1.36,1.36,0,0,1,1.09,1.48A1.16,1.16,0,0,1,44.07,93.26Z"/><path class="cls-12" d="M32.38,89.91A1,1,0,0,1,33.2,91,.88.88,0,0,1,32.38,89.91Z"/><path class="cls-12" d="M45.73,90.15a1,1,0,0,1-.85,1.1A.88.88,0,0,1,45.73,90.15Z"/><path class="cls-12" d="M36.41,90.15a1,1,0,0,1,.33,1.35A.88.88,0,0,1,36.41,90.15Z"/><polygon class="cls-11" points="107.33 94.58 106.44 92.86 107.33 92.66 108.47 94.58 111.2 93.47 109.89 90.32 108.77 89.41 105.52 91.84 107.33 88.95 105.12 88.95 101.92 90.12 104.61 87.89 107.45 87.68 108.83 88.52 110.8 89.71 112.52 93.47 112.52 90.57 110.7 87.68 109.38 86.97 107.65 84.23 109.58 85.77 111.72 82.71 110.8 86.16 112.53 88.66 112.56 88.5 112.75 84.44 113.24 85.52 113.83 84.23 114.03 88.82 115.87 86.16 114.95 82.71 117.09 85.77 119.02 84.23 117.29 86.97 115.97 87.68 114.05 90.73 114.05 93.27 115.77 89.51 117.74 88.31 119.12 87.48 121.96 87.68 124.65 89.92 121.45 88.75 119.24 88.75 121.05 91.64 117.8 89.21 116.68 90.12 115.36 93.27 118.1 94.38 119.24 92.45 120.13 92.66 119.24 94.38 122.67 92.05 123.18 93.06 120.23 94.99 118.71 95.8 115.87 94.89 114.05 94.58 114.96 95.8 117.8 97.12 119.63 97.12 117.8 98.03 114.96 96.71 114.05 96.14 114.05 96.61 112.96 96.27 112.52 96.41 112.52 96.34 111.61 96.92 108.77 98.24 106.94 97.32 108.77 97.32 111.61 96 112.52 94.79 110.7 95.09 107.86 96 106.33 95.19 103.39 93.27 103.9 92.25 107.33 94.58"/><path class="cls-12" d="M106.62,83.31A1.56,1.56,0,0,0,108,84.88,1.34,1.34,0,0,0,106.62,83.31Z"/><path class="cls-12" d="M109.1,83.17a1.56,1.56,0,0,0-1.25,1.71A1.34,1.34,0,0,0,109.1,83.17Z"/><path class="cls-12" d="M120.15,82.56a2,2,0,0,0-1.58,2.17A1.69,1.69,0,0,0,120.15,82.56Z"/><path class="cls-12" d="M112.61,88.15a2,2,0,0,0,.69,2.59A1.69,1.69,0,0,0,112.61,88.15Z"/><path class="cls-12" d="M122.26,91.87a1.39,1.39,0,0,0-1.75-.69A1.19,1.19,0,0,0,122.26,91.87Z"/><path class="cls-12" d="M106,91.08a2,2,0,0,0-1.58,2.17A1.69,1.69,0,0,0,106,91.08Z"/><path class="cls-12" d="M123.07,86.19a1.5,1.5,0,0,0-1.2,1.64A1.28,1.28,0,0,0,123.07,86.19Z"/><path class="cls-12" d="M103.59,86.54a1.5,1.5,0,0,0,1.24,1.61A1.28,1.28,0,0,0,103.59,86.54Z"/><path class="cls-12" d="M117.19,86.54a1.5,1.5,0,0,0-.48,2A1.28,1.28,0,0,0,117.19,86.54Z"/><polygon class="cls-11" points="95.71 95.6 95.1 94.42 95.71 94.28 96.49 95.6 98.36 94.84 97.46 92.68 96.7 92.06 94.47 93.73 95.71 91.75 94.19 91.75 92 92.55 93.84 91.02 95.79 90.88 96.73 91.45 98.09 92.27 99.27 94.84 99.27 92.85 98.02 90.88 97.11 90.39 95.93 88.51 97.25 89.56 98.72 87.47 98.09 89.83 99.27 91.54 99.3 91.44 99.42 88.65 99.76 89.4 100.16 88.51 100.3 91.65 101.56 89.83 100.93 87.47 102.4 89.56 103.72 88.51 102.53 90.39 101.63 90.88 100.31 92.96 100.31 94.7 101.49 92.13 102.84 91.31 103.79 90.74 105.73 90.88 107.57 92.41 105.39 91.61 103.87 91.61 105.11 93.59 102.88 91.92 102.12 92.55 101.21 94.7 103.09 95.47 103.87 94.14 104.48 94.28 103.87 95.47 106.22 93.87 106.57 94.56 104.55 95.88 103.51 96.44 101.56 95.81 100.31 95.6 100.94 96.44 102.88 97.34 104.13 97.34 102.88 97.97 100.94 97.06 100.31 96.67 100.31 96.99 99.57 96.76 99.27 96.86 99.27 96.81 98.64 97.2 96.7 98.11 95.44 97.48 96.7 97.48 98.64 96.58 99.27 95.74 98.02 95.95 96.07 96.58 95.03 96.02 93.01 94.7 93.36 94 95.71 95.6"/><path class="cls-12" d="M95.22,87.88a1.07,1.07,0,0,0,1,1.08A.92.92,0,0,0,95.22,87.88Z"/><path class="cls-12" d="M96.92,87.78A1.07,1.07,0,0,0,96.06,89,.92.92,0,0,0,96.92,87.78Z"/><path class="cls-12" d="M104.49,87.37a1.36,1.36,0,0,0-1.09,1.48A1.16,1.16,0,0,0,104.49,87.37Z"/><path class="cls-12" d="M99.33,91.19A1.36,1.36,0,0,0,99.8,93,1.16,1.16,0,0,0,99.33,91.19Z"/><path class="cls-12" d="M105.94,93.74a1,1,0,0,0-1.2-.47A.81.81,0,0,0,105.94,93.74Z"/><path class="cls-12" d="M94.8,93.2a1.36,1.36,0,0,0-1.09,1.48A1.16,1.16,0,0,0,94.8,93.2Z"/><path class="cls-12" d="M106.49,89.85a1,1,0,0,0-.82,1.12A.88.88,0,0,0,106.49,89.85Z"/><path class="cls-12" d="M93.15,90.09a1,1,0,0,0,.85,1.1A.88.88,0,0,0,93.15,90.09Z"/><path class="cls-12" d="M102.47,90.09a1,1,0,0,0-.33,1.35A.88.88,0,0,0,102.47,90.09Z"/><path class="cls-13" d="M88.23,79.52h-2.4v0H83.39a1.25,1.25,0,0,1,2.42-.58,1.25,1.25,0,1,1,2.41.62Z"/><path class="cls-13" d="M95.64,79.52H93.22a1.25,1.25,0,1,1,2.42,0Z"/><path class="cls-13" d="M103,79.52h-2.42a1.25,1.25,0,1,1,2.42,0Z"/><polygon class="cls-13" points="105.49 79.52 83.16 79.56 83.16 80.21 105.49 80.21 105.49 79.52"/><rect class="cls-6" x="83.29" y="80.29" width="22.11" height="5.94"/><polygon class="cls-11" points="105.49 79.52 103.41 79.52 104.45 78.78 103.6 77.33 102.86 76.52 103.93 77.11 104.85 78.61 105.66 78.39 106.61 77.22 106.06 78.54 105.4 79.09 105.49 79.52"/><polygon class="cls-11" points="96.21 79.52 97.13 78.61 96.21 77.66 97.53 78.59 97.31 79.02 97.72 79.52 98.16 78.78 98.97 78.02 98.49 77.66 99.37 78.02 98.89 78.78 98.52 79.09 98.52 79.52 99.37 79.52 99.37 78.78 99.77 78.35 99.77 78.98 99.77 79.53 100.57 79.52 96.21 79.52"/><polygon class="cls-11" points="88.71 79.52 89.52 78.35 88.27 76.3 89.85 78.21 89.55 79.02 90.07 78.78 90.95 78.02 90.33 77.66 91.47 78.02 90.55 78.78 90.25 79.52 91.21 79.52 91.32 78.59 91.72 79.52 93.41 76.74 92.64 78.43 92.46 78.78 92.79 79.52 88.71 79.52"/><path class="cls-12" d="M94.45,75.66a1.56,1.56,0,0,0-1.25,1.71A1.34,1.34,0,0,0,94.45,75.66Z"/><path class="cls-12" d="M105,75.44a1.56,1.56,0,0,0-1.25,1.71A1.34,1.34,0,0,0,105,75.44Z"/><path class="cls-12" d="M98.05,75.87a1.56,1.56,0,0,0,.58,2A1.34,1.34,0,0,0,98.05,75.87Z"/><path class="cls-12" d="M90.54,75.9A1.56,1.56,0,0,0,91,78,1.34,1.34,0,0,0,90.54,75.9Z"/><path class="cls-13" d="M50.71,79.52h2.4v0h2.42a1.25,1.25,0,0,0-2.42-.58,1.25,1.25,0,1,0-2.41.62Z"/><path class="cls-13" d="M43.29,79.52h2.42a1.25,1.25,0,1,0-2.42,0Z"/><path class="cls-13" d="M35.94,79.52h2.42a1.25,1.25,0,1,0-2.42,0Z"/><polygon class="cls-13" points="33.45 79.52 55.77 79.56 55.77 80.21 33.45 80.21 33.45 79.52"/><rect class="cls-6" x="33.53" y="80.29" width="22.11" height="5.94" transform="translate(89.18 166.52) rotate(-180)"/><polygon class="cls-11" points="33.45 79.52 35.52 79.52 34.48 78.78 35.34 77.33 36.07 76.52 35.01 77.11 34.09 78.61 33.28 78.39 32.32 77.22 32.87 78.54 33.53 79.09 33.45 79.52"/><polygon class="cls-11" points="42.73 79.52 41.81 78.61 42.73 77.66 41.4 78.59 41.62 79.02 41.22 79.52 40.78 78.78 39.97 78.02 40.45 77.66 39.56 78.02 40.04 78.78 40.41 79.09 40.41 79.52 39.56 79.52 39.56 78.78 39.16 78.35 39.16 78.98 39.16 79.53 38.36 79.52 42.73 79.52"/><polygon class="cls-11" points="50.23 79.52 49.42 78.35 50.66 76.3 49.09 78.21 49.38 79.02 48.87 78.78 47.98 78.02 48.61 77.66 47.47 78.02 48.39 78.78 48.68 79.52 47.73 79.52 47.62 78.59 47.21 79.52 45.52 76.74 46.29 78.43 46.48 78.78 46.15 79.52 50.23 79.52"/><path class="cls-12" d="M44.48,75.66a1.56,1.56,0,0,1,1.25,1.71A1.34,1.34,0,0,1,44.48,75.66Z"/><path class="cls-12" d="M33.9,75.44a1.56,1.56,0,0,1,1.25,1.71A1.34,1.34,0,0,1,33.9,75.44Z"/><path class="cls-12" d="M40.88,75.87a1.56,1.56,0,0,1-.58,2A1.34,1.34,0,0,1,40.88,75.87Z"/><path class="cls-12" d="M48.39,75.9a1.56,1.56,0,0,1-.5,2.06A1.34,1.34,0,0,1,48.39,75.9Z"/><path class="cls-11" d="M59.07,78.45l1,.83-.6,1.21c.16.42.33.9.53,1.37a2.08,2.08,0,0,1,.16,1.19,5,5,0,0,0,.14,2.36A6.88,6.88,0,0,1,60.55,88q-.24,3.41-.43,6.82a2.34,2.34,0,0,0,.28,1L60.16,97l.71,1a.73.73,0,0,1-.83.63,2,2,0,0,1-2-1.08,3.91,3.91,0,0,0-.49-.65,1.76,1.76,0,0,1,.39-1,.92.92,0,0,0,.19-.85,11.63,11.63,0,0,1-.23-2.75c-.05-.88,0-1.76,0-2.65a4.6,4.6,0,0,0-.35-1.56c-.23-.62-.38-1.27-.55-1.91a1.84,1.84,0,0,0-.45-1,1.94,1.94,0,0,0-.27.35c-.35.78-.68,1.58-1,2.36a.59.59,0,0,0-.07.25,8.58,8.58,0,0,1-.77,2.77,22.38,22.38,0,0,1-1.06,2.62c-.07.18-.17.35-.23.53-.25.7-.5,1.4-.72,2L51,97a.88.88,0,0,1-.29.13,5.14,5.14,0,0,1-2.3-.17,1.21,1.21,0,0,1,.61-.85c.48-.32,1-.57,1.22-1.19,0-.12.22-.2.25-.22.16-.49.31-.89.43-1.3s.22-.87.33-1.31a9.91,9.91,0,0,1,.38-1.49,9.7,9.7,0,0,0,.6-3c0-.28.07-.55.11-.83a7.55,7.55,0,0,0-.3-3.8,2.09,2.09,0,0,1-.06-.31c.18-.22.38-.47.59-.71a1.19,1.19,0,0,0,.35-.91c-.31-.14-.67-.27-.69-.78l.16-.4c-.05-.28-.1-.56-.15-.83a1.2,1.2,0,0,1,.27-1.08,1,1,0,0,0,.24-.89c-.09-.66-.13-1.32-.2-2a4,4,0,0,0-.1-.43c-.48.65-.35,1.54-1.14,1.89,0,1.09-.86,1.59-1.59,2.15l-.11.55c.19.63.78,1,1,1.69-.58-.15-.89-.57-1.4-.74l-.12,1.43h-.16l-.42-1.35c-.39.31-.59.59-.43,1a3.63,3.63,0,0,1,.1.59.68.68,0,0,1-.73-.65,1.85,1.85,0,0,1,.18-1.37c.09-.15.16-.3.24-.47l-.19-.61a15,15,0,0,1,1.59-3.1c.12-.15.21-.32.33-.48a2.92,2.92,0,0,1,.56-.6c.08-.36.15-.71.25-1.06a2.22,2.22,0,0,1,1.13-1.49c.06,0,.14,0,.16-.1a2.8,2.8,0,0,1,2-1.2c.33-.09.67-.15,1-.22l.42-.63-.23-.69c.09-.23.2-.49.28-.76a5.41,5.41,0,0,0,.23-.93.92.92,0,0,1,.38-.71c.46-.32.9-.7,1.53-.51l.57-.29a3.36,3.36,0,0,1,.72.45,1.8,1.8,0,0,1,.57,1.93,1.77,1.77,0,0,0-.08.51,2.25,2.25,0,0,1-.59,1.89c.24.24.24.24,1.28.49l.23.42.16.1a3.46,3.46,0,0,1,.66.48,4.63,4.63,0,0,0,1.13.95,13.18,13.18,0,0,1,1.12.86A3.22,3.22,0,0,0,65,72.72l.61.1.62-.61a1.13,1.13,0,0,1,0,.74l.92.08.21.68L66.7,74l.43.59c-.33.25-.46-.17-.75-.21l-.53.41c-.23.18-.45.38-.7.55-.48.32-1,.61-1.45.95a2.06,2.06,0,0,1-2.4-.12c-.44-.37-.87-.77-1.34-1.18a3,3,0,0,0-.56,1.63,4.48,4.48,0,0,1-.13,1C59.23,77.83,59.15,78.11,59.07,78.45Z"/><path class="cls-11" d="M44,61.77l.11-.07v0h.05l-.2.14c.05.05.1,0,.14,0l.12-.14a.54.54,0,0,0,.05-.1h0l-.08.05v-.1l.08,0,.5-.38a.1.1,0,0,0,0-.13c0-.13-.08-.26-.11-.39h0l.18.46c.05-.05.12-.09.14-.15s0-.13,0-.19l.12.19.67-.47v0l-.92.68,0,.07.17-.1c0,.08-.16.07-.15.17h-.06l0-.16L44,62l0,0,.09,0c-.2.14-.2.14-.21.22A2.61,2.61,0,0,0,44.2,62c.08-.06.15-.14.23-.21l0,.06.1,0h0l-.2.12h0l.11-.06,0,.08.08,0,.85-.51a1.06,1.06,0,0,1,.36-.18.56.56,0,0,0,.42-.35.65.65,0,0,1,.11-.16l0,.07-.38.76a.18.18,0,0,1-.13.11l-.83.2-.07,0v0l1.05-.24a1.6,1.6,0,0,1-.48.17,4.57,4.57,0,0,0-.56.12s0,0-.06.07l.15,0c-.06.08-.2,0-.21.16s-.22.07-.34.09l.12.14.46-.11,0,.31h0s-.07,0-.07.06,0,.06,0,.07a.33.33,0,0,0,.29,0l.57-.22,0,.09.54-.14v.1a5.44,5.44,0,0,0-1.42.33l.05-.08c-.09,0-.11,0-.17.09l0-.11h-.6l0,0h0v0l.41.11-.06.06a.63.63,0,0,0,0,.09h0l0-.13-.1,0-.08.17c-.07,0-.14-.05-.22,0,.23.11.4.3.65.33a.42.42,0,0,1-.27-.06l-.35-.22-.06,0a0,0,0,0,0,0,0l.45.29.09,0,.56,0,.33,0v0h-.11a.11.11,0,0,0,0,0l.77.38.05,0v.09l-.81-.37-.26-.13-.07,0h-.51c-.05,0-.07,0-.08.07a.11.11,0,0,1,0,.06l-.2.19,0,0,.21-.21h0l-.21.22.1.16-.16.09.59.86h0l-.07-.08A10.62,10.62,0,0,1,44,63.82s-.06-.07-.11,0-.06,0-.1,0l.22.52c0-.09-.11-.12-.26-.08l.07,0s.07,0,.09-.05-.06-.13-.09-.15l0,.1h0a.45.45,0,0,0-.09-.1.22.22,0,0,0-.13,0l.06,0H43.6v.2L43.54,64h0v.42h0l0-.22c0-.07,0-.13,0-.2s0,0-.05,0-.06,0-.06.07,0,.27,0,.4l.1.91a.12.12,0,0,1,0,.07l-.15-.4s0-.06,0-.07-.06-.07-.06-.13c0-.22,0-.45.06-.67,0-.06,0-.12,0-.18l0,.08V64l-.09.18h0l0-.11.09-.33a.62.62,0,0,0,0-.11h0l-.14.28h0l.15-.36h0l-.12.2,0,0A.25.25,0,0,0,43,64c-.1,0-.11,0-.14.07a.74.74,0,0,1-.07.16c0-.1,0-.2,0-.3s0-.1,0-.11-.09,0-.15,0a.81.81,0,0,0-.14.28c0,.09-.07.19-.12.28l.11-.34-.34.43c.08-.19.25-.33.33-.52h0l-.51.74h0l0-.07c.15-.23.31-.46.47-.68a.91.91,0,0,0,.15-.38.4.4,0,0,1,0-.11l0,.05s0,0,0-.13l.07,0v-.16l-.23.17v-.05h-.08l.23-.16c-.05,0-.09,0-.13,0l-.13.15a.46.46,0,0,0,0,.1l0,0,.08-.05v.11l-.08,0-.5.37c-.07,0-.06.09,0,.16s.08.29.12.43h0l-.26-.45c-.16.06,0,.17,0,.27l-.12-.18-.71.5v0l1-.71,0-.07-.16.1c0-.08.15-.06.14-.16l.06,0,0,.16.78-.83v0l-.1,0c.1-.07.2-.09.23-.2l0,0a1.12,1.12,0,0,0-.26.16.66.66,0,0,1-.3.19l.19-.12h0l-.11.06,0-.06h0l-.07,0-.89.54a.66.66,0,0,1-.26.13c-.1,0-.2.07-.31.1l.66-.33,0-.06h0s0,0,.06,0l.33-.2h0l.72-.4.05,0,0-.1-.77.55h0l-.07-.06-.63.13a.15.15,0,0,0-.07.06l-.61.78a.4.4,0,0,1-.08.08l0-.07.52-.79a.19.19,0,0,1,.1-.07l.86-.21a.11.11,0,0,0,.06,0c-.35.1-.72.12-1.06.24a1.66,1.66,0,0,1,.45-.16,6,6,0,0,0,.6-.12s.06,0,.08-.08l-.18.06c.07-.08.2-.05.22-.16a1.56,1.56,0,0,0,.34-.09L42,62.74s0,0-.06,0l-.25.07-.16,0,0-.3-.23,0h.15c.1,0,.1,0,.11-.1a.35.35,0,0,0-.33,0c-.16.08-.33.13-.5.19l-.08,0,0-.08-.69.13a.19.19,0,0,1,.16-.11,4.82,4.82,0,0,0,1.32-.28l.08,0-.07.09c.05,0,.09,0,.11,0s0-.06.08-.08l0,0,0,.06.61,0,0-.06h0v0l-.39-.11L42,62h0l0,.1.1,0,.08-.17.2,0v0a2.28,2.28,0,0,0-.61-.32v0a1.19,1.19,0,0,1,.21.07l.37.23.06,0v0l0,0-.43-.28-.08,0-.82,0a.13.13,0,0,1-.08,0h.1v0l-1-.44v-.07l1.16.49.14,0h.51c.09,0,.12-.06.08-.11a1.37,1.37,0,0,0,.24-.22v0l-.12.11h0v0c.1-.11.1-.11,0-.24l0,0,.08,0a.19.19,0,0,0,.07-.06H42.1l.05,0-.57-.83h0l.1.12a10.3,10.3,0,0,1,.8,1.1s.05.07.11,0a.31.31,0,0,1,.1,0l-.22-.52s0,.12.12.09,0,.05,0,.07,0,.12.1.14L42.63,61l0,0c0,.14.14.12.24.11V61h0l0,.17h0v-.42h0l0,.23c0,.06,0,.13,0,.19s0,0,.05,0,.06-.05.06-.08,0-.23,0-.34l0-1a.29.29,0,0,1,0-.1l.06.55h0l0-.07h0c0,.13,0,.27,0,.4s0,.32,0,.47a.64.64,0,0,0,0,.12h0l0-.07v.08L43.4,61h0l-.12.42a.91.91,0,0,0,0,.13h0l.15-.3h0l-.16.38h0l0-.06a1.67,1.67,0,0,1,.14-.2.19.19,0,0,0,.06-.2.39.39,0,0,1,0-.07c.08,0,.1,0,.13-.06a2.09,2.09,0,0,1,.09-.22c0,.12,0,.25-.06.37s0,.09,0,.09.09,0,.14,0a1,1,0,0,0,.18-.37,1.32,1.32,0,0,1,.08-.17L44,61l.33-.41c-.08.19-.24.33-.33.51h0l.51-.74h0a.46.46,0,0,1,0,.07c-.15.22-.3.45-.46.66a.92.92,0,0,0-.15.4l0,.12,0-.08c-.05.1.07.1.08.16l-.1,0v.17Zm-1.28,1.14c-.06.07,0,.07,0,.11l.12-.17h-.07l.13-.09v0l-.23.14ZM43,62.2a.28.28,0,0,0,0-.09C43,62,43,62,43,61.92s-.06-.06-.11,0l.19.3L42.9,62h0l.16.2h0Zm.68-.62.07-.21c-.1,0-.12,0-.12,0s0,.15,0,.23l0,0,0,.08c.07,0,.19-.19.19-.32l-.06.09Zm-.41,2c0-.08,0-.19.1-.25-.12,0-.14.06-.11.18v.07l0,.08s0,.06.08,0v-.3h0a.29.29,0,0,0,0,.06A1,1,0,0,0,43.31,63.53Zm1.07-.07c-.09-.07-.14,0-.27.11l.17.23.24-.2-.15-.14.14.09v0l-.17-.13h0Zm.53-1.71,0,.07.63-.13.05,0,.28-.45h0l-.63.32,0,.06s-.05,0-.06,0l-.32.19-.05,0-.72.41-.06,0,0,.1Zm-.42.87h0l0,0,.39.08,0-.1a.86.86,0,0,1-.43-.09l.44,0,0-.26a1.05,1.05,0,0,0-.44.15c-.11-.06-.18.07-.27.05s0,.08,0,.11l0,.12.66,0v0l-.54-.12v0Zm-2.43,0h-.16l-.25,0s0,0,0,0,0,.14,0,.22a1,1,0,0,0,.45-.16s.18,0,.25,0l0-.23-.65,0v0l.52.12v0l-.53-.13,0,.11A1,1,0,0,1,42.06,62.58Zm-.1-1,.16.14a.08.08,0,0,0,.11,0l.14-.12-.18-.25Zm2.14,1.93-.16,0-.05.1a.45.45,0,0,0,.39-.16l-.07-.06L44,63.17s-.07,0-.09,0a.09.09,0,0,0,0,.08ZM42.4,61.69h0s.08,0,.12,0a.07.07,0,0,0,.05-.1.44.44,0,0,0-.38.17l.27.18s.06,0,.09,0,0-.06,0-.09Zm.07-.34a.46.46,0,0,0-.32-.3s0,.18.19.4l.09-.08h0v0ZM44,63.78a.46.46,0,0,0,.29.29h0a0,0,0,0,0,0,0l-.21-.34-.1.08h0ZM43.12,63h0l-.25.39h.05l.14-.23,0,.11-.09.13.13,0Zm.35-1.22c-.06.09-.11.38-.06.42l.25-.38,0,0c-.09.05-.1.17-.17.24l0-.11.09-.13Zm-.65,1.68c-.08,0-.19.21-.19.32l.06-.09.06-.1h0l-.07.19c.12,0,.13,0,.13-.1S42.82,63.51,42.82,63.44Zm.1-1.64-.07-.15c0-.09-.06-.1-.17-.07l.15.28Zm.42,1.11c-.1.11,0,.23,0,.35s.1,0,.11-.06S43.39,63,43.33,62.91Zm-.18-.67s0-.07,0-.1,0-.14,0-.21,0-.06-.06,0a.16.16,0,0,0-.07.09A.4.4,0,0,0,43.16,62.23Zm.42,1.1,0,0,.05.11c0,.1.06.1.17.08l-.15-.28Zm-1.49-.62c.06.14.09.15.2.09h0s.06,0,0-.08a.1.1,0,0,0-.08,0Zm2.3-.28v0a.51.51,0,0,0-.11-.11s-.07,0-.1,0h0s-.06,0,0,.08a.09.09,0,0,0,.07,0Zm-2.31-.25.24.07s0-.1,0-.11a.45.45,0,0,0-.17-.08S42.11,62.13,42.09,62.18Zm2.07.71s0,.1,0,.11a.37.37,0,0,0,.16.08s0-.08.07-.13Zm-1.3,1,0,0s0-.1,0-.15,0-.11.07-.17l-.13,0Zm.78-2.56h0l-.12.36.13,0Zm-1,.27a.69.69,0,0,0-.11-.16s-.08,0-.12.06S42.42,61.6,42.59,61.56Zm1.55,2.11c-.08-.14-.08-.15-.23-.1a.71.71,0,0,0,.11.16S44.09,63.7,44.14,63.67Zm-1.07-2.2v.31c.07,0,.1-.12.08-.23S43.14,61.46,43.07,61.48Zm.47.89a.33.33,0,0,0,.25-.14l-.06,0h0l.08-.06-.09-.08c0,.07-.11.1-.08.2Zm.29,0-.16.06v.13C43.84,62.49,43.86,62.46,43.82,62.34Zm-1,.27c-.16,0-.18.06-.14.18l.15-.05s0-.08,0-.12Zm-.3.55c.08.07.15,0,.21-.08L42.64,63ZM44,62c-.08-.07-.15,0-.21.08l.08.07Zm-.07.9c-.08.09-.08.09,0,.14v0H44S44,63,44,63A.77.77,0,0,0,43.91,62.87Zm-1.34-.61c.08-.09.08-.11,0-.14l0,0h-.06s0,0,0,0a.07.07,0,0,0,0,.06Zm.87.69h0l.1.25c0,.07.06.06.11,0Zm.63-.52a.16.16,0,0,0-.08.26l0-.2,0,.13h0Zm-1.62.21,0-.13h0c0,.06,0,.13,0,.19s.12-.09.06-.25Zm-.72.52,0,0,.37-.24A.64.64,0,0,0,41.74,63.16Zm3-1.2-.37.24A.49.49,0,0,0,44.73,62Zm-1.93-.67h.09v-.1h-.13v.1h.08ZM43.73,64v-.09h-.08l0,0H43.6C43.59,64,43.59,64,43.73,64Zm-1.17-2.58.06.1.12-.1v0Zm1.18,2.35c.07,0,.12,0,.19,0l-.06-.09Zm-.79-2c.11-.06,0-.11,0-.17l-.07,0Zm-.42.63c0-.11-.07-.1-.11-.14l0,.07Zm1.58.39L44,62.75l-.05,0s0,0,0,0l.09.05Zm-.17.58v0l-.09-.08,0,.14Zm-.27.31s-.1,0-.07.09.07,0,.12,0Zm-.12-.34c-.11.05,0,.11,0,.16l.08,0Zm-1-1.6.08.11c.08,0,0-.08,0-.14Zm1.27.89c0,.06,0,.11,0,.11s0,0,.08,0Zm-1.24-.21.13.07c0-.05,0-.09,0-.11s-.05,0-.08,0Zm.33-1.1h-.11l0,.1C42.89,61.41,42.93,61.39,42.9,61.33Zm0,.29.08,0c0-.09,0-.09-.13,0Zm.66,1.94c0,.09,0,.09.13.05l0-.09ZM43,62.85,42.9,63h0l.14-.1Zm.56-.56.07-.14h0l-.15.1Zm.18.31h0l.05.12C43.78,62.63,43.77,62.62,43.7,62.6Zm-.92-.06h0l-.06-.14C42.71,62.5,42.71,62.51,42.79,62.54Zm.29-.69c.13,0,.16-.09.09-.21A.3.3,0,0,1,43.08,61.85Zm1,.52-.1-.07v.13Zm-.45.72h0l-.16-.2,0,0Zm-1-.24,0,0,0-.11-.09,0Zm1.18.84.12-.07H43.7Zm-1-1.48-.05.1.13,0Zm1.12-.39h0l-.1.18,0,0Zm.06,1-.1,0v0l.06.1Zm-1.17.49h0l.1-.19h0Zm0-1.53h0l.08.18h0ZM43.79,64h0l-.06-.13C43.75,63.89,43.73,64,43.79,64Zm0-.65h0l-.08-.18h0Zm-1.09-2.17.07.15C42.75,61.2,42.74,61.16,42.67,61.17Zm.12.35,0-.07-.12.07Zm-.66.21v0L42,61.58l0,0Z"/><path class="cls-11" d="M45.16,64v.2c-.13-.06-.18-.2-.27-.3l.21.17.05-.15.89.82,0,0C45.7,64.56,45.49,64.23,45.16,64Z"/><path class="cls-11" d="M42.7,63.87h.06l-.06.52h0Z"/><path class="cls-11" d="M43.09,64l-.12.3h0l.06-.17H43l.13-.24h0L43,64h0l.06-.07Z"/><path class="cls-11" d="M44,64.37l.19.4h0l-.18-.41Z"/><path class="cls-11" d="M43,64.42l.15-.24h0l-.14.23Z"/><path class="cls-11" d="M41.53,62.83l-.23.06v0c.07-.05.16,0,.23-.06Z"/><path class="cls-11" d="M41.4,61.06l-.05.15-.89-.82,0,0c.32.2.53.53.85.75v-.2c.15.07.19.24.31.34Z"/><path class="cls-11" d="M43.79,61.26h-.06l.06-.51h0Z"/><path class="cls-11" d="M43.52,60.91l0,.14h.06l-.13.25h0l.1-.17h0l-.06.08h0l.11-.28Z"/><path class="cls-11" d="M42.32,60.26l.19.42h0l-.2-.42Z"/><path class="cls-11" d="M43.5,60.71l-.16.25h0l.15-.26Z"/><path class="cls-11" d="M45.19,62.27l-.2,0v0l.2-.05Z"/><path class="cls-11" d="M42.81,62h0"/><path class="cls-11" d="M42.71,61.81h0"/><polygon class="cls-11" points="43.53 49.1 42.92 50.49 42.69 53.8 42.1 55.53 42.14 55.71 42.25 56.24 42.43 56.97 42.43 55.68 42.43 54.94 42.92 54.39 42.92 53.58 42.82 53.03 43.09 50.71 43.53 49.1"/></svg>