<svg xmlns="http://www.w3.org/2000/svg" viewBox="0 0 568.05 171"><defs><style>.cls-1{fill:#2e1714;}.cls-2{fill:#ee8f48;}.cls-2,.cls-3,.cls-4,.cls-5,.cls-6,.cls-7{stroke:#2e1714;stroke-miterlimit:10;}.cls-3,.cls-4{fill:#faf8cd;}.cls-4,.cls-5{stroke-width:4px;}.cls-5{fill:#99b2ad;}.cls-6{fill:#c46e49;}.cls-7{fill:none;}</style></defs><title>Asset 2</title><g id="Layer_2" data-name="Layer 2"><g id="Layer_1-2" data-name="Layer 1"><path class="cls-1" d="M220.82,91.79l-.26.13.19.2-.46.07.07-.07V92l-.33.2v-.13l-.07.07-.2-.13-.2.07.2.26H219l.13.13h-.39v.07c0,.09,0,.15.13.2h-.52v-.07h.19l-.07-.13.07-.07c0-.17,0-.26-.13-.26q.26,0-.65.52a3.36,3.36,0,0,0,.39-.59,19,19,0,0,0-2.15.59l-.07-.2-.26.07-.33-.13-.59.2v-.13l-.39.2a.76.76,0,0,0-.33-.07h-.26l-.2.2c.17,0,0-.07-.59-.07a.44.44,0,0,0-.33.13c-.13-.13-.26-.11-.39.06s-.22.26-.26.26-.13-.07-.13-.2h-.26a7,7,0,0,1-1.37,0,.62.62,0,0,1-.33.13,1,1,0,0,1-.59-.26l-.52.13c0,.26.3.39.78.39a1,1,0,0,1,.26.19h.07l-.26-.07-.52.2c0,.09.07.18.2.26h.26l.2.07h-.46v.19a1,1,0,0,1-.33-.07,1.14,1.14,0,0,0-.26-.07c-.18,0-.22.18-.13.52l-.52-.19-.13.07.07.13a2.37,2.37,0,0,1-.65-.06,1.32,1.32,0,0,0-.72.26,1,1,0,0,1-.78-.07l-1.17.2a.81.81,0,0,1-.59.26,1.29,1.29,0,0,1-.39-.1,1.25,1.25,0,0,0-.39-.1,1,1,0,0,0-.59.26l.07-.07a1,1,0,0,0-.65.26,5,5,0,0,0-.55.07,4.43,4.43,0,0,1-.62.07l.07.13-.26-.19v.19a3.46,3.46,0,0,1-1.43.39l-1.44.19.2.13a.7.7,0,0,1,.39-.13.61.61,0,0,1,.26.07v.26l.07-.2.19.13a17.88,17.88,0,0,1-3.06.13,27.25,27.25,0,0,0-1.37,4.17q-.91,3.46-1.17,4.7c-.13.39-.27.8-.42,1.24a1.1,1.1,0,0,1-.81.78.71.71,0,0,1-.46-.72q0,.26.39-1.56l.07-.39h-.07q-.2,0-.59.88a3.76,3.76,0,0,0-.39,1.21l-.13.13a2.25,2.25,0,0,0-.39-.59h-.46l-.19-.65.33-1.17a50.13,50.13,0,0,0,1-8.81q.33-8,.33-8.74.32-3.46.72-10.31a4.05,4.05,0,0,1-.26-1.7,2,2,0,0,1,.52-2,5,5,0,0,1,.72-1.5.81.81,0,0,1,.59.59.45.45,0,0,0,.13.46l1-.42c.37-.15.58-.36.62-.62s.1-.61.16-1a.69.69,0,0,1,.75-.65c.26,0,.43.23.52.69s.24.68.46.68a2,2,0,0,1,.39-.13,7.05,7.05,0,0,1,2.67-1.11,14.51,14.51,0,0,0,3.2-1.24c0,.17,0,.26.13.26l.13-.13a1.3,1.3,0,0,1,.59-.07c.09,0,.2-.09.33-.26a9.45,9.45,0,0,0,1.43-.46,4.05,4.05,0,0,1,1.37-.33.73.73,0,0,1,.19-.13.66.66,0,0,0,.26.13.37.37,0,0,0,.26-.13l.13.13c.17-.26.65-.46,1.44-.58l.06.19.39-.26a10.5,10.5,0,0,0,2.15-.13l.78-.07.26.13a6.08,6.08,0,0,0,1.31-.07v.13l.33-.07-.26.13.13.06c.39,0,1,0,1.76-.06l.07-.07.26.33.2-.13.07.26-.13.07.46.39-.26.2v.72a2.31,2.31,0,0,0-.72.13v.26l.2-.13a.59.59,0,0,1,.1.29c0,.15.1.23.23.23l-.07.13s.07.17.07.39a4.27,4.27,0,0,0,.52,1.37.37.37,0,0,0-.13.26.3.3,0,0,0,0,.29.58.58,0,0,1,.1.29,15.91,15.91,0,0,1-2.41,3.85A17.51,17.51,0,0,1,212.41,80v.13c0,.13-.18.24-.42.33a.59.59,0,0,0-.42.39,3.82,3.82,0,0,1-1.89,1.56,2.77,2.77,0,0,0-.59.72l-.13-.07a8.92,8.92,0,0,1-1.89,1.17,8.6,8.6,0,0,1-1.11,1l-.13-.06c-.52.35-1,.67-1.53,1l-2.18,1.3a1.33,1.33,0,0,0,.78.13.66.66,0,0,0,.52.13q.59.2.39,0l.19.26.46-.2,1.17.26.39-.06-.07.19v.07a.51.51,0,0,1,.46-.2,2.41,2.41,0,0,1,.49.07,2.29,2.29,0,0,0,.49.07c.13.22.17.33.13.33l-.07-.07.26-.13-.07.2a7,7,0,0,1,1.11-.07l.19.26.39-.07.13.26.26-.2c0,.09.13.11.26.07l.13.2.33.13.26-.13.13.19.39-.13-.06.19a1.45,1.45,0,0,1,.65.13l.13-.2c0,.18.2.26.59.26a.8.8,0,0,1,.26.1,3.14,3.14,0,0,0,1,.1,1.18,1.18,0,0,0,1.3.33,2.83,2.83,0,0,1,.52.26l.07-.2v.13h.2v.07H216a.57.57,0,0,1,.33.16.61.61,0,0,0,.39.16q.13,0,.26-.2l-.07.2a2.13,2.13,0,0,0,1,0,.27.27,0,0,0,.26.13l-.13.07v.13l.13.07.26-.26-.06.13-.07.2c.61,0,1,.13,1,.39l.07-.06a.06.06,0,0,1-.07-.07.19.19,0,0,1,.07-.13l.26.26.59-.06.13.06c.17.18.15.31-.07.39Zm-8.22-19.57a8.61,8.61,0,0,1-2.54.59,10,10,0,0,1-2.74,1h-.06a.12.12,0,0,0-.13.13q-3.07.91-8.94,3.2a.9.9,0,0,0-.42.59A8.16,8.16,0,0,0,197.6,79q-.07.88-.13,1.3a6.89,6.89,0,0,1-.39,1.27q-.33.85-.46,1.31-.39,1.82.07,1.82l.52-.13q.19-.59,1-4.69.65-2.94,1.37-2.94a2.73,2.73,0,0,1,.33,1.7,23.24,23.24,0,0,1-.52,4.76,4.1,4.1,0,0,1,.85-.26A30.75,30.75,0,0,0,209,76.53q1.11-1.24,2.09-2.15a3.23,3.23,0,0,1,.78-1.11l1-1Zm6.13,20a1.06,1.06,0,0,0-.46-.13A1.89,1.89,0,0,0,218.74,92.18Zm.72-.07-.2-.2.07-.26-.13.39.07-.07Z"/><path class="cls-1" d="M245,68l-.26.39-.07.39a.93.93,0,0,0-.49.36.68.68,0,0,1-.55.29.26.26,0,0,0-.07.19s0,.13.13.26q-.2.13-.2.26a.37.37,0,0,0,.26.46l-.46.19-.06.2c0,.09-.09.2-.26.33l.13.07a6.28,6.28,0,0,1-1.44.52,18.31,18.31,0,0,1-3.72,1.31q-2.74.72-3.13,1.24a16.19,16.19,0,0,0-3.07,1l-1,.46q-1.24.46-3.72,1.24l.26-.13-.52.2-.07.13-.13.06.06-.13q-.85,0-1.3,2.35l-.2,1.24q2.74-.39,8.28-.85A23.71,23.71,0,0,0,237.2,80a4.83,4.83,0,0,1-.39.85l-.26.2.06.07A8.08,8.08,0,0,1,235,82.46a9.64,9.64,0,0,1-1.17,1.11l-.13.13.06.2-.52.26.33.26a5,5,0,0,0-1.37,1l.07.07q-2,1-5.15,2.41-3.26,2.41-4.56,2l-1.83,7,.72-.07q3.26-1.43,6.19-2.87,1.76-.92,3.46-1.83a18.06,18.06,0,0,1,3.13-1.44c-.09,0,.09.2.52.59a8.36,8.36,0,0,0,.26,3.13,2,2,0,0,1-.33,1.21c-.26.46-.52.88-.78,1.27l-.72.52.26-.07a6.49,6.49,0,0,1-1.31.91,1.08,1.08,0,0,1-.46.33q-1.89,1.11-5.74,3.13-2.28,1-6.85,3a2.3,2.3,0,0,1-1.31-.65,3.07,3.07,0,0,0-.49.39c-.24.22-.4.33-.49.33a4.13,4.13,0,0,1-.91-.39,1.48,1.48,0,0,0-.39,1.24q.07-.2,1.11-.33a4.88,4.88,0,0,0,1.31-.13q5.15-1.37,7.37-2a54.14,54.14,0,0,0,7.24-3l.52-.07-.07.13q0,.26-.65,1a4.59,4.59,0,0,0-1.11.91,15.48,15.48,0,0,1-2.74,1.56,5.18,5.18,0,0,0-1,.78q-8.35,3.26-10.31,3.26c-.91,0-1.46-.26-1.63-.78q-.39-.2-.13-1.17c0-.13-.11-.17-.33-.13l-.85-.59q.65-2.94,2-8.74.46-2.21,1.11-6.59t1.17-6.59c.13-.74.38-1.84.75-3.29s.62-2.55.75-3.29a18.49,18.49,0,0,0,.36-2.41q.16-1.63.29-2.41a1.58,1.58,0,0,1,.72-1,.59.59,0,0,1,.26-.07c.22,0,.38.18.49.52a1.82,1.82,0,0,0,.29.65c0,.52.15,1.28.33,2.28a19.24,19.24,0,0,1,.59-2.15c0-.26,0-.65-.07-1.17a3.72,3.72,0,0,1,.59-1.63.56.56,0,0,0,.26.07c.17,0,.33-.14.46-.42s.28-.43.46-.43a4.56,4.56,0,0,1,.59.52,40.06,40.06,0,0,0,5.28-.78q.19,0,5.48-.52.72-.06,3.13-.52a20.09,20.09,0,0,1,3.13-.33Q245.15,66.87,245,68ZM221.22,80.44q-1,4.18-2.8,12.59Q219.52,88.86,221.22,80.44Z"/><path class="cls-1" d="M262.57,64.46v.07h-.13s-.11.17-.19.52a.17.17,0,0,1-.2.19l.13.07-.39.26c-.18.09-.31.07-.39-.07l-.07.07.33.26-.46.07-.07.39c-.09.09-.09.2,0,.33a10.11,10.11,0,0,0-.85.59l.13.13a.58.58,0,0,0,.29-.1.57.57,0,0,1,.23-.1.79.79,0,0,1,.2.13l-.2.07.07.06c-.35.09-.46.24-.33.46l-.07.06h-.13A2.85,2.85,0,0,0,260,68l.13.13h.2a.9.9,0,0,1-.65.2l-1.11.78-.07.2a13.53,13.53,0,0,1-1.3.46l-.39.2q-1,.33-2.87,1.17a1.6,1.6,0,0,0,0,.65h.26a20.07,20.07,0,0,0-.91,2.67l.19-1a4.71,4.71,0,0,0-.72,1.76,15.91,15.91,0,0,1-.65,2q.2,1.17-2.8,7.5a3.29,3.29,0,0,1-.65.46l-.13-.59A30.61,30.61,0,0,1,246.92,89l.26.13-.39.33.13.13-.13.13.07.13a3.19,3.19,0,0,0-1.11,2.35h-.07l-.06.33a4.16,4.16,0,0,1-.72,1.83q-.72,2-1.76,6.13c-.17.09-.2.26-.07.52-.17.61-.48,1.48-.91,2.61a2.29,2.29,0,0,1-.39,1.24v.78l-.26.13a.59.59,0,0,1,.07.26,1.8,1.8,0,0,1-.29.49.74.74,0,0,0-.16.62l.07-.07c0-.09-.11-.19-.33-.33a1,1,0,0,1,.07-.59L241,106a23.06,23.06,0,0,1,.46-3.26,14,14,0,0,0,.23-1.66,14.14,14.14,0,0,1,.23-1.66q1-5,1.89-12.52.65-6.32,1.37-12.65l-.13-.13a10.9,10.9,0,0,1-4.7,1.37,1.52,1.52,0,0,1-1.31-.85c-.35-.56-.65-1.11-.91-1.63,0-1.26-.07-2-.07-2.15a2.61,2.61,0,0,1,.65-1.11,20.28,20.28,0,0,1,3.06-.72V68.9q1.18-.33,3.26-.78a9.1,9.1,0,0,1,2-.72q1.56-.39,2-.46a7.84,7.84,0,0,0,1.57-.52,3.94,3.94,0,0,1,1.76-.39c.43-.17,1.09-.41,2-.72h.65a.89.89,0,0,0,.65-.13V65a.27.27,0,0,0,.19.07,1.18,1.18,0,0,0,.55-.23,1.08,1.08,0,0,1,.69-.2,2,2,0,0,0,1-.29l.13.13.26-.2.13.13.46-.07.19-.2.26.33.13-.26v.13h-.07a.66.66,0,0,1-.13-.2.27.27,0,0,1,.2-.07.81.81,0,0,1,.46.2.58.58,0,0,1,.42-.13.44.44,0,0,0,.42-.26,1.87,1.87,0,0,1,.46-.07,2.1,2.1,0,0,1,.52.07v.19l.2-.26a1.52,1.52,0,0,0,.39.26c-.22,0-.33.18-.33.52l.26-.13Zm-15,9a.25.25,0,0,0-.26.19.86.86,0,0,0,.19.65V74A1,1,0,0,0,247.57,73.46Zm4.11-1.37h-.2c-.22,0-.33,0-.33.13a2.72,2.72,0,0,0,.07.52L251,73l.2.13-.72.26a16.47,16.47,0,0,1-.42,3.06,16.06,16.06,0,0,0-.43,2.94Q250.37,77,251.68,72.09Z"/><path class="cls-1" d="M278,93.88l-.26.33a1.35,1.35,0,0,1-.85.39,1.2,1.2,0,0,1-.68-.36,1.24,1.24,0,0,0-.75-.36,1.54,1.54,0,0,0-.65.2l-.13.46a1.39,1.39,0,0,1,.33.85,1.78,1.78,0,0,0,.26.85,2.5,2.5,0,0,1-.06.59l1,2.54-.33-.33a.19.19,0,0,0-.07.13,1.38,1.38,0,0,0,.13.72l-.39-.46a3.2,3.2,0,0,1,.26,1.5l.26.72h-.13l-.26-.33q.06.33.78,2.35l-.33.07a1.34,1.34,0,0,0,.2.62l.26.49a11.62,11.62,0,0,0-.26,1.5l-.07.07-.07.33h-.65l-.13-.2-.13.07a2,2,0,0,0-.59-.72,3.62,3.62,0,0,1-.85-1.21,3.25,3.25,0,0,0-.72-1.08l.13-.19a1.14,1.14,0,0,0-.39-.46c-.22-.17-.33-.33-.33-.46a2.59,2.59,0,0,1,.13-.33,1,1,0,0,0-.39-.33v-.26l-.26-.13h.2l.07-.13a.42.42,0,0,1-.39-.26l.13-.13a.49.49,0,0,1-.19.07c-.09,0-.13-.09-.13-.13l.13-.19a.12.12,0,0,0-.13-.13,2.18,2.18,0,0,0-.13-.65l-.13.07-.07-.2.13.13a2.38,2.38,0,0,0-.46-1.17,1.72,1.72,0,0,1-.33-1.3,1.17,1.17,0,0,1-.39-.82c0-.37-.09-.71-.13-1a1.28,1.28,0,0,0-.39-.07,1.41,1.41,0,0,0-.91.39,68.8,68.8,0,0,0-10.18,2.87,2.72,2.72,0,0,0-.72,1.11c-.17,0-.3.12-.39.36a.6.6,0,0,1-.39.43,1.37,1.37,0,0,0-.52.78c-.22,0-.41.15-.59.59l-.33.2a7.73,7.73,0,0,1,.85,2.67,1.35,1.35,0,0,1-.91.59,4.2,4.2,0,0,1-1.83.52c-.3,0-.5-.09-.59-.26a13,13,0,0,1,.26-3.91l.78-4a3,3,0,0,1-.72-1.89c0-.26.26-.5.65-.72a1.74,1.74,0,0,0,.72-.59,92.46,92.46,0,0,1,7.57-24,1.87,1.87,0,0,1,.46-.07c.91,0,1.26.5,1,1.5a1,1,0,0,1-.13.39q-.92,2-2.74,5.94a1.1,1.1,0,0,1,.07.33A.83.83,0,0,1,261,79a.35.35,0,0,0-.16.26.33.33,0,0,0,.07.33l-.19.06.06.13q-.59,1.63-1.3,3.52a1,1,0,0,1,.07.59c-.22,1-.35,1.52-.39,1.43q2.09-4,7.37-12.78l-.13-.13-1.17,1.7,1.63-2.48.26-.85a.81.81,0,0,0,.13.65l.13-.13A7.35,7.35,0,0,0,267.2,69l-.2.46a7.08,7.08,0,0,1-.13-.85l.39-.19.39-.2,3.26-.33c.48.13,1,.29,1.53.46s.84.48.88.91q.06,2.28,0,5.87-.13,4.89-.13,5.87a44.35,44.35,0,0,0,.46,6.85c.09.09.26.11.52.07h.59c.13,0,.17.17.13.39a1.43,1.43,0,0,1-.33.72,1.57,1.57,0,0,0-.72.91A3.81,3.81,0,0,0,274,91.4a2.91,2.91,0,0,1,.13,1.44,6.76,6.76,0,0,0,2.94-.72c.26,0,.52.24.78.72A6.11,6.11,0,0,1,278,93.88Zm-9.39-5.15q-.26-2.28-.85-6.85l-.07.33a11.3,11.3,0,0,0-1.76,2.54,24.24,24.24,0,0,1-1.63,2.8,6.5,6.5,0,0,1-1.11,1.83,4.8,4.8,0,0,0-1,2A32.27,32.27,0,0,0,268.57,88.73Zm1,5-.13-.19a.41.41,0,0,1-.23-.07.31.31,0,0,0-.16-.07.26.26,0,0,0-.19.07h.19l-2.22,1,2.55-.52Z"/><path class="cls-1" d="M289.57,76l-.13.13v.13a3.43,3.43,0,0,1-.39,1.31,30.74,30.74,0,0,0-1.37,4.76,6.52,6.52,0,0,0-.78,2,6.68,6.68,0,0,1-.72,1.89,25.91,25.91,0,0,0-1.5,4.83l-.13-.07q-.46,1.63-.72,2.94c-.09.22-.2.52-.33.91h-.06l-.2,1-.13.26v.2a1.65,1.65,0,0,0-.2.39A3.6,3.6,0,0,0,283,97l.07-.26-.19.26c.13,0,.17.11.13.33l-.13.07-1.24,5.35-.2.26-.39.52-.72-.2c-.26.09-.41.22-.46.39a1,1,0,0,0,.07.33v.39a1.3,1.3,0,0,1-.33.46,4,4,0,0,0-.95-.13q-.42,0-.72-.78a3.62,3.62,0,0,0-.42-.91,7.16,7.16,0,0,1,.13-1.3q.72-2.8,2-8.41l.85-4q.91-5,2.87-15.07a11.53,11.53,0,0,0,.23-1.56,13.55,13.55,0,0,1,.23-1.63q.26-1,.65-1l.33.07a4.58,4.58,0,0,1,.65,1.56,2.9,2.9,0,0,0,.85,1.56,3.73,3.73,0,0,0,.23-1.6,4.5,4.5,0,0,1,.1-1.4c0-.13.1-.21.29-.23a.69.69,0,0,0,.42-.16.57.57,0,0,1,.39.2l.26.26a1.78,1.78,0,0,0,.2,1,1,1,0,0,0,.72.62A6.19,6.19,0,0,1,289.57,76Zm-5,15.2a6.53,6.53,0,0,1-.33,1.56A14.3,14.3,0,0,1,284.62,91.21Z"/><path class="cls-1" d="M309.66,93.55a1.11,1.11,0,0,0-.2.91l-.13.07s0,.11,0,.19-.18.35-.52.65-.58.46-.72.46c0,.22,0,.55-.07,1l.07.13.19.13a2.87,2.87,0,0,0-.91,1c-.35.18-.63.33-.85.46a15,15,0,0,1-2,1.11,1,1,0,0,1-.69.42.82.82,0,0,0-.62.36,14.84,14.84,0,0,1-2.8,1.11q-2,.92-4.11,1.76a28.17,28.17,0,0,0-4,2.22l-.07.13-.19-.13a1.44,1.44,0,0,1-.91.26,3.24,3.24,0,0,1-1.47-.43c-.55-.28-.79-.62-.75-1q.65-7.5,4.11-23.74a43.25,43.25,0,0,0,.72-5.22q.32-3.52.65-5.15.26-1.3,1.37-1.3a1.92,1.92,0,0,1,1.14.62,4.15,4.15,0,0,0,1,.75c.13.35.26.46.39.33l-.19.26.39.2.07-.13.13-.2c-.09.65,0,1,.19,1.17q-.26.92-.65,2.8h-.07q-.59,2.09-1,4.24s0,.28-.2.72l.13.26-.07.2v-.26l-.2.33q-.26,1.76-.91,5.28a.41.41,0,0,0-.2.26.79.79,0,0,1,.13.19,22.72,22.72,0,0,0-1.11,4.7l-.13.07v.72a1.63,1.63,0,0,0-.33,1.17,8.69,8.69,0,0,0-.26,1c-.3,0-.47.11-.49.33s-.05.5-.1.85h.2l.2-.52.06.46s.74-.22,2.09-.65a39.78,39.78,0,0,1,11.54-2.35l-.26.19q.07.52-.85.52c-.13,0-.13.09,0,.26a.92.92,0,0,1-.62.39c-.33.09-.51.24-.55.46l-1.24.39-.26.13-.13.19.13.07q2-.39,2.15-.39l.13-.2.07.13a3,3,0,0,0,.72-.33.56.56,0,0,0,.26.07.58.58,0,0,0,.23-.1.57.57,0,0,1,.23-.1.26.26,0,0,1,.26.13,2.09,2.09,0,0,0,.85-.33s.28,0,.72-.07l.19.2-.19.26C309.53,93.75,309.66,93.73,309.66,93.55Zm-13,3.26a3.45,3.45,0,0,0-1.27.36,6.74,6.74,0,0,1-1.14.42,3.05,3.05,0,0,0-1.57.52,2.9,2.9,0,0,0,.07.52,17.49,17.49,0,0,1,2.74-1.43Q295.05,97.21,296.68,96.82Z"/><path class="cls-1" d="M350.51,93.88l-.26.33a1.35,1.35,0,0,1-.85.39,1.2,1.2,0,0,1-.68-.36,1.24,1.24,0,0,0-.75-.36,1.54,1.54,0,0,0-.65.2l-.13.46a1.39,1.39,0,0,1,.33.85,1.78,1.78,0,0,0,.26.85,2.5,2.5,0,0,1-.06.59l1,2.54-.33-.33a.19.19,0,0,0-.07.13,1.38,1.38,0,0,0,.13.72l-.39-.46a3.2,3.2,0,0,1,.26,1.5l.26.72h-.13l-.26-.33q.06.33.78,2.35l-.33.07a1.34,1.34,0,0,0,.2.62l.26.49a11.62,11.62,0,0,0-.26,1.5l-.07.07-.07.33H348l-.13-.2-.13.07a2,2,0,0,0-.59-.72,3.62,3.62,0,0,1-.85-1.21,3.25,3.25,0,0,0-.72-1.08l.13-.19a1.14,1.14,0,0,0-.39-.46c-.22-.17-.33-.33-.33-.46a2.59,2.59,0,0,1,.13-.33,1,1,0,0,0-.39-.33v-.26l-.26-.13h.2l.07-.13a.42.42,0,0,1-.39-.26l.13-.13a.49.49,0,0,1-.19.07c-.09,0-.13-.09-.13-.13l.13-.19a.12.12,0,0,0-.13-.13,2.18,2.18,0,0,0-.13-.65l-.13.07-.07-.2.13.13a2.38,2.38,0,0,0-.46-1.17,1.72,1.72,0,0,1-.33-1.3,1.17,1.17,0,0,1-.39-.82c0-.37-.09-.71-.13-1a1.28,1.28,0,0,0-.39-.07,1.41,1.41,0,0,0-.91.39,68.8,68.8,0,0,0-10.18,2.87,2.72,2.72,0,0,0-.72,1.11c-.17,0-.3.12-.39.36a.6.6,0,0,1-.39.43,1.37,1.37,0,0,0-.52.78c-.22,0-.41.15-.59.59l-.33.2a7.73,7.73,0,0,1,.85,2.67,1.35,1.35,0,0,1-.91.59,4.2,4.2,0,0,1-1.83.52c-.3,0-.5-.09-.59-.26a13,13,0,0,1,.26-3.91l.78-4a3,3,0,0,1-.72-1.89c0-.26.26-.5.65-.72a1.74,1.74,0,0,0,.72-.59,92.46,92.46,0,0,1,7.57-24,1.87,1.87,0,0,1,.46-.07c.91,0,1.26.5,1,1.5a1,1,0,0,1-.13.39q-.92,2-2.74,5.94a1.1,1.1,0,0,1,.07.33.83.83,0,0,1-.23.26.35.35,0,0,0-.16.26.33.33,0,0,0,.07.33l-.19.06.06.13q-.59,1.63-1.3,3.52a1,1,0,0,1,.07.59c-.22,1-.35,1.52-.39,1.43q2.09-4,7.37-12.78l-.13-.13-1.17,1.7,1.63-2.48.26-.85a.81.81,0,0,0,.13.65l.13-.13a7.35,7.35,0,0,0-.13-2.28l-.2.46a7.08,7.08,0,0,1-.13-.85l.39-.19.39-.2,3.26-.33c.48.13,1,.29,1.53.46s.84.48.88.91q.06,2.28,0,5.87-.13,4.89-.13,5.87a44.35,44.35,0,0,0,.46,6.85c.09.09.26.11.52.07h.59c.13,0,.17.17.13.39a1.43,1.43,0,0,1-.33.72,1.57,1.57,0,0,0-.72.91,3.81,3.81,0,0,0,.19,1.43,2.91,2.91,0,0,1,.13,1.44,6.76,6.76,0,0,0,2.94-.72c.26,0,.52.24.78.72A6.11,6.11,0,0,1,350.51,93.88Zm-9.39-5.15q-.26-2.28-.85-6.85l-.07.33a11.3,11.3,0,0,0-1.76,2.54,24.24,24.24,0,0,1-1.63,2.8,6.5,6.5,0,0,1-1.11,1.83,4.8,4.8,0,0,0-1,2A32.27,32.27,0,0,0,341.12,88.73Zm1,5-.13-.19a.41.41,0,0,1-.23-.07.31.31,0,0,0-.16-.07.26.26,0,0,0-.19.07h.19l-2.22,1,2.55-.52Z"/><path class="cls-1" d="M381.36,67.66c-.3.09-.46.2-.46.33a.62.62,0,0,0,.07.46l.13-.07-.19.13-.07-.13a4.68,4.68,0,0,1-1,.72l.13.2h-.33a2.55,2.55,0,0,0-.26.59c0,.17.13.37.52.59a9.07,9.07,0,0,0,.19,1.24,2.23,2.23,0,0,1,.07,1.17q-.2,1.17-2.48,4.3a12.14,12.14,0,0,0-1.76,1.63q-.2.33-3.85,4.24c-.13.22-.35.55-.65,1q-.26.33-2,2v.2q-.06.26-.46.36c-.26.07-.37.21-.33.42a2.2,2.2,0,0,0-.85.52A4.2,4.2,0,0,1,367,88a44.58,44.58,0,0,1-9,3.91h-.26c-.22,0-.35.15-.39.46l-2,8.35-.13-.13a5.79,5.79,0,0,1-1.5,1.56l-.39,1.83a26.19,26.19,0,0,1-1.17,4,1.18,1.18,0,0,1-.72.19H351l.07-.78a2,2,0,0,0-.65-.23.56.56,0,0,1-.46-.62,3.88,3.88,0,0,1,.07-.52,4.27,4.27,0,0,0,.07-.52c0-.3-.17-.44-.52-.39l.33-1.56A87.82,87.82,0,0,0,351.55,91q.59-8.87,1.24-12.52v-.13a2.09,2.09,0,0,1,.59-1,1,1,0,0,1,.59.91,18.73,18.73,0,0,1-.26,2.67,23.37,23.37,0,0,0-.39,2.74q-.59,5.41-1.63,16.18v.2a6.68,6.68,0,0,1-.07.78q.85-3.85,2-12.2,1.11-8,2.09-12.26A5.28,5.28,0,0,1,354.55,73a3.61,3.61,0,0,1,.1-.81.89.89,0,0,1,.49-.62,2.24,2.24,0,0,0,.85-.39,6.22,6.22,0,0,1,.06-.85.67.67,0,0,1,.52-.59,1.17,1.17,0,0,1,.78.72,2.68,2.68,0,0,0,1.31-.59,1.43,1.43,0,0,1,.59-1.37,2.29,2.29,0,0,1,.72.13,1.3,1.3,0,0,0,.39.72,31.07,31.07,0,0,0,3.65-1,.38.38,0,0,1,.26-.13.77.77,0,0,1,.33.1.77.77,0,0,0,.33.1l.33-.33h.26a.91.91,0,0,0,.52-.13l.07.13v-.13c.26-.22.48-.29.65-.23a1.67,1.67,0,0,0,1-.16.48.48,0,0,0,.2.07q.13,0,.29-.2c.11-.13.18-.19.23-.19l.26.13q1-.07,3.06-.33v.07a11.46,11.46,0,0,1,1.37-.26s.19.07.46.07a2.72,2.72,0,0,0,.52-.07,2.84,2.84,0,0,1,.46-.06.86.86,0,0,1,.42.13.78.78,0,0,0,.36.13c.13,0,.24-.09.33-.26v.06a1.73,1.73,0,0,1,.85-.26,1.07,1.07,0,0,1,.46.13l.07-.07.07.19.19-.19a6.24,6.24,0,0,1,1.83.19h.91l.13.33.13-.2A1.32,1.32,0,0,1,381.36,67.66ZM368.06,84.42l-.39.07q-1.18.78-2.45,1.56a6.88,6.88,0,0,1-2.64,1c-.22.35-.41.48-.59.39a2.91,2.91,0,0,1-1.08.39,2.93,2.93,0,0,0-1.08.39.28.28,0,0,0-.2-.07c-.09,0-.2.1-.33.29s-.24.29-.33.29h-.2l-.06-.13-.39.2c-.09.22-.19.55-.33,1a.58.58,0,0,0,0,.39,24.52,24.52,0,0,0,5.35-2A32.16,32.16,0,0,0,368.06,84.42Zm7.5-12.85v-.13a4.88,4.88,0,0,1-1.56.26l.13.19a28.88,28.88,0,0,1-3.52.65l-.13.2a5.69,5.69,0,0,1-1.44.07,21,21,0,0,0-2.94.72l.39.07a16,16,0,0,1-2.28.59.39.39,0,0,0-.26-.07,3.63,3.63,0,0,0-1.7.72,6.44,6.44,0,0,1-1.17.2q-.78,5.35-1.5,8.54,1.37-.72,4.63-2.74a24.82,24.82,0,0,0,4.11-3A22.33,22.33,0,0,0,375.56,71.57Z"/><path class="cls-1" d="M401.39,80.18v.2a3.67,3.67,0,0,1-.33,1.56,1.16,1.16,0,0,1-.19.78H401a13.24,13.24,0,0,0-.78,1.89c-.13.13-.13.22,0,.26V85a2.39,2.39,0,0,1-.33.55,1.86,1.86,0,0,0-.33.88,1.29,1.29,0,0,0-.46.39c0,.09,0,.17.19.26h-.13V87a3.87,3.87,0,0,1-.65,1,1.16,1.16,0,0,1-.33.52v.2a4.81,4.81,0,0,0-.91,1.24c-.13,0-.22.22-.26.52a7.11,7.11,0,0,0-1.57,2.8v-.2q-.65.92-2.15,2.67V96l-1.76,1.63v.13a19.06,19.06,0,0,0-2.15,1.56,9.22,9.22,0,0,1-1.27.65,20.29,20.29,0,0,0-2.58,1.5l-.07-.07a6.78,6.78,0,0,1-2.35.52,3.4,3.4,0,0,1-1.37.39v.07a5.83,5.83,0,0,1-2.48-.39.68.68,0,0,1-.39.13,1.82,1.82,0,0,1-.62-.13,3.19,3.19,0,0,1-.52-.23,1.85,1.85,0,0,0-.72-.13c-.37,0-.55-.18-.55-.49-.35-.17-.69-.37-1-.59a1.13,1.13,0,0,1-.59-.78q-1.63-1.3-1.63-5.35a36.21,36.21,0,0,1,1-7.63c.22-.52.5-1.33.85-2.41l.2-.39V83.9a3.57,3.57,0,0,1,.39-.52c.22-.26.26-.48.13-.65a25,25,0,0,1,2.48-3.52,1.39,1.39,0,0,1,1-1H379c.17,0,.34-.13.49-.39a1.15,1.15,0,0,1,.55-.52l.07.13.26-.13-.13-.2a.56.56,0,0,0,.26.07c.09,0,.11-.09.07-.26l.78-.46h-.2q.13-.2.65-.2a.42.42,0,0,0,.39-.26l.07.2a10.18,10.18,0,0,0,1.37-1.11l.46.06L384,74.9l.13.26a1,1,0,0,1,.26-.52,1,1,0,0,0,.39-.13l-.06.07.06.13q.46-.32.39-.46a3.24,3.24,0,0,1,1-.72l.26.07a.89.89,0,0,0,.65-.26v-.07l-.39.07c0-.13.22-.2.52-.2a.56.56,0,0,0,.39-.2l.13.2L388,73l-.07-.07.26-.06v.06h.13l.07-.19a2,2,0,0,1,.39.13l.26-.26.07.2.13-.07v-.13a5.32,5.32,0,0,0,1.17-.2.44.44,0,0,0,.33.13,1.24,1.24,0,0,0,.39-.1,1.22,1.22,0,0,1,.39-.1.71.71,0,0,1,.39.13,7.58,7.58,0,0,1,1.82.39v-.2h.2l.13-.2c0,.09.19.13.59.13.09,0,.13.09.13.26h.85a17.24,17.24,0,0,1,1.83.91l-.07.07a3,3,0,0,1,.59.07l-.07.19a.91.91,0,0,1,.81.49,1,1,0,0,0,.69.55,22.2,22.2,0,0,1,1.5,2.74c-.09.09-.13.15-.13.19s.13.18.13.39a2.93,2.93,0,0,0,.13.78.2.2,0,0,0-.07.13A6.48,6.48,0,0,1,401.39,80.18ZM382.8,100a2.1,2.1,0,0,1-.52.07h-.52a2.66,2.66,0,0,0-.46-.07,14.45,14.45,0,0,1-2-.59,9.89,9.89,0,0,1-4.11-4q0,5.28,4.17,5.28a11.73,11.73,0,0,0,2.28-.26h.78C382.54,100.4,382.66,100.27,382.8,100Zm11.68-20.29a2.4,2.4,0,0,1-.59-.46,2.82,2.82,0,0,1-2.15-1.83h-1l-.2.26c0-.13-.11-.2-.2-.2s-.11.09-.06.13a9.64,9.64,0,0,0-2.68,1.31,3.45,3.45,0,0,1-.85.65,12.38,12.38,0,0,1-2,1.76,6.07,6.07,0,0,0-1.83,2.28h.13v.07l-.33.39.26.13c-.31.26-.41.46-.33.59a.54.54,0,0,0-.19.33.38.38,0,0,1,.07.26s-.07.13-.2.26v.07q-1.24,2-3,5a3.37,3.37,0,0,0,1.37.26q3,0,7.17-3a18.26,18.26,0,0,1,2.41-1.76l-.07-.13a11.68,11.68,0,0,0,2.67-2.87Q394.6,80.83,394.47,79.72ZM390.1,95.51q-1.7.59-6.85,2.61v.07q.91,0,1.11-.33a.75.75,0,0,0,.33.07H385a1,1,0,0,1,.33-.07l.06-.13,1.31-.33.13-.2a5.72,5.72,0,0,0,1.11-.36A12.14,12.14,0,0,0,390.1,95.51Zm10-15.91q0-3.65-4.57-4.18a12.55,12.55,0,0,1,1,2.54,3.5,3.5,0,0,0,.82,1.7,2.91,2.91,0,0,1,.62,2.15,14.19,14.19,0,0,0,0,2.8l-.2.39a.39.39,0,0,1,.26.13,5.23,5.23,0,0,0-.33.59.11.11,0,0,0,.13.13l.13-.13.13.19A15.2,15.2,0,0,0,400.08,79.6Z"/><path class="cls-1" d="M429.89,90.94a14.39,14.39,0,0,0-.78,1.5l-.07.2q0,.2-.46.46l-.07.07c0,.18-.17.41-.52.72l.13.2-.65.39v.13a3.56,3.56,0,0,1-1,.59l.19.06a2.68,2.68,0,0,1-1.24.39v.19q-.92.46-2.8,1.17a6.15,6.15,0,0,1-2,.85q-2.09.65-2.22.72c0,.18-.35.29-.91.33a8.81,8.81,0,0,1-2.15.85,30.39,30.39,0,0,0-4.37,1.83,11.48,11.48,0,0,1-2.15.72,22.33,22.33,0,0,0-3.39,1.56,13.22,13.22,0,0,1-4,1.7,2.42,2.42,0,0,1-1.76-.91,11.43,11.43,0,0,1-1.37-1.57.87.87,0,0,0-.33-.39.77.77,0,0,1-.26-.65,19.14,19.14,0,0,1,1.11-4.24l.91-4.24q.78-3.52,5.68-13.5,5.28-10.76,7.11-10.76.72,0,.59.65a.26.26,0,0,0-.07.2,1.11,1.11,0,0,0,.1.65,1.34,1.34,0,0,1,.1.72,2.23,2.23,0,0,1-.85,1.24h.26c-.22.26-.57.63-1,1.11l.07.07a19.12,19.12,0,0,0,2.55-2.67,1.21,1.21,0,0,1-.07-.39c.09-.35.5-.52,1.24-.52a32.25,32.25,0,0,1,7.37,5.61l.26.46a1,1,0,0,1-.46.13l.19.46-.19-.13-.07.26-.33-.13c0,.35-.18.52-.39.52s-.66-.37-1.47-1.11a3.37,3.37,0,0,0-1.93-1.11q-.72,0-3.2,3l-3.13,3.91a35.86,35.86,0,0,1-2.15,2.94v.19a38.43,38.43,0,0,0-2.48,3.72,2.36,2.36,0,0,1-.65,1.11l-.33.19-.26.65-.46.46.2.2-.13.07-.85,2c-.09-.13-.15-.11-.19.07a.8.8,0,0,1,0,.46l.07.39q5.09-1.24,15.2-4v.19a4.08,4.08,0,0,0-.85.52h-.13a1,1,0,0,1-.59.52l-.07-.07-1,.59.07.13a6.56,6.56,0,0,0-1.37.59,42.79,42.79,0,0,1-5,1.7l-.2.2q-2.35.72-7,2.09a2.27,2.27,0,0,0-.72,1.44l.13.07q4.17-1.83,13.17-4.83Q426.5,90.36,429,90.36,430,90.36,429.89,90.94Z"/><path class="cls-1" d="M447.17,93.88l-.26.33a1.35,1.35,0,0,1-.85.39,1.2,1.2,0,0,1-.68-.36,1.24,1.24,0,0,0-.75-.36,1.54,1.54,0,0,0-.65.2l-.13.46a1.39,1.39,0,0,1,.33.85,1.78,1.78,0,0,0,.26.85,2.5,2.5,0,0,1-.06.59l1,2.54L445,99a.19.19,0,0,0-.07.13,1.38,1.38,0,0,0,.13.72l-.39-.46a3.2,3.2,0,0,1,.26,1.5l.26.72h-.13l-.26-.33q.06.33.78,2.35l-.33.07a1.34,1.34,0,0,0,.2.62l.26.49a11.62,11.62,0,0,0-.26,1.5l-.07.07-.07.33h-.65l-.13-.2-.13.07a2,2,0,0,0-.59-.72,3.62,3.62,0,0,1-.85-1.21,3.25,3.25,0,0,0-.72-1.08l.13-.19a1.14,1.14,0,0,0-.39-.46c-.22-.17-.33-.33-.33-.46a2.59,2.59,0,0,1,.13-.33,1,1,0,0,0-.39-.33v-.26l-.26-.13h.2l.07-.13a.42.42,0,0,1-.39-.26l.13-.13a.49.49,0,0,1-.19.07c-.09,0-.13-.09-.13-.13l.13-.19a.12.12,0,0,0-.13-.13,2.18,2.18,0,0,0-.13-.65l-.13.07-.07-.2.13.13a2.38,2.38,0,0,0-.46-1.17,1.72,1.72,0,0,1-.33-1.3,1.17,1.17,0,0,1-.39-.82c0-.37-.09-.71-.13-1a1.28,1.28,0,0,0-.39-.07,1.41,1.41,0,0,0-.91.39,68.8,68.8,0,0,0-10.18,2.87,2.72,2.72,0,0,0-.72,1.11c-.17,0-.3.12-.39.36a.6.6,0,0,1-.39.43,1.37,1.37,0,0,0-.52.78c-.22,0-.41.15-.59.59l-.33.2a7.73,7.73,0,0,1,.85,2.67,1.35,1.35,0,0,1-.91.59A4.2,4.2,0,0,1,423,106c-.3,0-.5-.09-.59-.26a13,13,0,0,1,.26-3.91l.78-4a3,3,0,0,1-.72-1.89c0-.26.26-.5.65-.72a1.74,1.74,0,0,0,.72-.59,92.46,92.46,0,0,1,7.57-24,1.87,1.87,0,0,1,.46-.07c.91,0,1.26.5,1,1.5a1,1,0,0,1-.13.39q-.92,2-2.74,5.94a1.1,1.1,0,0,1,.07.33.83.83,0,0,1-.23.26.35.35,0,0,0-.16.26.33.33,0,0,0,.07.33l-.19.06.06.13q-.59,1.63-1.3,3.52a1,1,0,0,1,.07.59c-.22,1-.35,1.52-.39,1.43q2.09-4,7.37-12.78l-.13-.13-1.17,1.7L436,71.64l.26-.85a.81.81,0,0,0,.13.65l.13-.13a7.35,7.35,0,0,0-.13-2.28l-.2.46a7.08,7.08,0,0,1-.13-.85l.39-.19.39-.2,3.26-.33c.48.13,1,.29,1.53.46s.84.48.88.91q.06,2.28,0,5.87-.13,4.89-.13,5.87a44.35,44.35,0,0,0,.46,6.85c.09.09.26.11.52.07H444c.13,0,.17.17.13.39a1.43,1.43,0,0,1-.33.72,1.57,1.57,0,0,0-.72.91,3.81,3.81,0,0,0,.19,1.43,2.91,2.91,0,0,1,.13,1.44,6.76,6.76,0,0,0,2.94-.72c.26,0,.52.24.78.72A6.11,6.11,0,0,1,447.17,93.88Zm-9.39-5.15q-.26-2.28-.85-6.85l-.07.33a11.3,11.3,0,0,0-1.76,2.54,24.24,24.24,0,0,1-1.63,2.8,6.5,6.5,0,0,1-1.11,1.83,4.8,4.8,0,0,0-1,2A32.27,32.27,0,0,0,437.78,88.73Zm1,5-.13-.19a.41.41,0,0,1-.23-.07.31.31,0,0,0-.16-.07.26.26,0,0,0-.19.07h.19l-2.22,1,2.55-.52Z"/><path class="cls-1" d="M466.87,93.55a1.11,1.11,0,0,0-.2.91l-.13.07s0,.11,0,.19-.18.35-.52.65-.58.46-.72.46c0,.22,0,.55-.07,1l.07.13.19.13a2.87,2.87,0,0,0-.91,1c-.35.18-.63.33-.85.46a15,15,0,0,1-2,1.11,1,1,0,0,1-.69.42.82.82,0,0,0-.62.36,14.84,14.84,0,0,1-2.8,1.11q-2,.92-4.11,1.76a28.17,28.17,0,0,0-4,2.22l-.07.13-.19-.13a1.44,1.44,0,0,1-.91.26,3.24,3.24,0,0,1-1.47-.43c-.55-.28-.79-.62-.75-1q.65-7.5,4.11-23.74a43.25,43.25,0,0,0,.72-5.22q.32-3.52.65-5.15.26-1.3,1.37-1.3a1.92,1.92,0,0,1,1.14.62,4.15,4.15,0,0,0,1,.75c.13.35.26.46.39.33l-.19.26.39.2.07-.13.13-.2c-.09.65,0,1,.19,1.17q-.26.92-.65,2.8h-.07q-.59,2.09-1,4.24s0,.28-.2.72l.13.26-.07.2v-.26l-.2.33q-.26,1.76-.91,5.28a.41.41,0,0,0-.2.26.79.79,0,0,1,.13.19,22.72,22.72,0,0,0-1.11,4.7l-.13.07v.72a1.63,1.63,0,0,0-.33,1.17,8.69,8.69,0,0,0-.26,1c-.3,0-.47.11-.49.33s-.05.5-.1.85h.2l.2-.52.06.46s.74-.22,2.09-.65a39.78,39.78,0,0,1,11.54-2.35l-.26.19q.07.52-.85.52c-.13,0-.13.09,0,.26a.92.92,0,0,1-.62.39c-.33.09-.51.24-.55.46l-1.24.39-.26.13-.13.19.13.07q2-.39,2.15-.39l.13-.2.07.13a3,3,0,0,0,.72-.33.56.56,0,0,0,.26.07.58.58,0,0,0,.23-.1.57.57,0,0,1,.23-.1.26.26,0,0,1,.26.13,2.09,2.09,0,0,0,.85-.33s.28,0,.72-.07l.19.2-.19.26C466.74,93.75,466.87,93.73,466.87,93.55Zm-13,3.26a3.45,3.45,0,0,0-1.27.36,6.74,6.74,0,0,1-1.14.42,3.05,3.05,0,0,0-1.57.52,2.9,2.9,0,0,0,.07.52,17.49,17.49,0,0,1,2.74-1.43Q452.26,97.21,453.89,96.82Z"/><path class="cls-1" d="M492,67.66q-4.31,6.07-8.67,12.33v.13q1.69-1.76,3.33-3.59a14.79,14.79,0,0,0,2.61-4l.65-.46.72,1.24q0,.13-1.89,3.65l-.39.59v-.26l-.13.46a59.8,59.8,0,0,1-5.35,5.87l-.13-.13-.26.2.2.13q-3.78,4.89-6.07,6.26a2.14,2.14,0,0,1-.59.62,1.35,1.35,0,0,0-.52.62,66.74,66.74,0,0,0-5.28,5.15q-1.17,1.56-3.59,5.09l.13-.52-.13.13-.07-.2h-.2l-.52.52.07-.2a1.76,1.76,0,0,0-.55.78c0,.18-.16.32-.42.42s-.35.23-.26.36l-.59.39s.07,0,.07.13a2.45,2.45,0,0,0-.65.59c-.26.3-.67.74-1.24,1.3H462l.13.07-.13.13v.07c-.22,0-.35.07-.39.33a.87.87,0,0,1-.33.59l-.06-.07-.33.26h-.13l-.19.72-.2-.13-.07.26-.13.07.07.2-.19.07-.07-.39h-.07l-.2.72-.13-.19-.52.46v.33l-.13.07-.07-.26a.69.69,0,0,1-.39.13.26.26,0,0,1-.19-.07q.59-1.31,2.09-3.85s0-.11,0-.19a2,2,0,0,0,.33-.59q1.11-1.5,3.07-4.63h-.07a2.56,2.56,0,0,1,.46-.49,6.4,6.4,0,0,0,1-1.34.7.7,0,0,0-.2-.59l-.07.2c0-.26.15-.63.59-1.11l-.13-.13q2.61-4.24,8.22-12.39a23.44,23.44,0,0,0-2.28-7.7A20.72,20.72,0,0,1,469.15,68a10.76,10.76,0,0,0-.72-2.67q-.46-1.24-.91-2.54l.39-.65a6.87,6.87,0,0,1,2.55,2.09c0-.09.09-.13.13-.13s.24.12.33.36.15.36.2.36l-.07-.59.26.39a2.81,2.81,0,0,1,.72-.13c.13,0,.29.15.49.46a.83.83,0,0,0,.69.46c0,.22.13.33.26.33a1.12,1.12,0,0,0,.29-.1,1,1,0,0,1,.36-.1.54.54,0,0,1,.33.19c0,.18,0,.26.26.26s.3.09.26.26a5.25,5.25,0,0,1,1.24,1.31q.85,2.94,2.15,8.87h.13q6.78-10.44,9.33-13Q491.79,65.18,492,67.66ZM476,79.79q-.72-2.61-1.5-5.22a23,23,0,0,0-2-5,.37.37,0,0,0,.26.46.37.37,0,0,0-.13.26,4,4,0,0,1,.07.85,17.61,17.61,0,0,0,1,3,.71.71,0,0,1-.13.2.44.44,0,0,0,.13.33,11.73,11.73,0,0,1,1.21,2.84,10.87,10.87,0,0,0,1,2.51Z"/><path class="cls-1" d="M518,67.66c-.3.09-.46.2-.46.33a.62.62,0,0,0,.07.46l.13-.07-.19.13-.07-.13a4.68,4.68,0,0,1-1,.72l.13.2h-.33a2.55,2.55,0,0,0-.26.59c0,.17.13.37.52.59a9.07,9.07,0,0,0,.19,1.24,2.23,2.23,0,0,1,.07,1.17q-.2,1.17-2.48,4.3a12.14,12.14,0,0,0-1.76,1.63q-.2.33-3.85,4.24c-.13.22-.35.55-.65,1q-.26.33-2,2v.2q-.06.26-.46.36c-.26.07-.37.21-.33.42a2.2,2.2,0,0,0-.85.52,4.2,4.2,0,0,1-.72.52,44.58,44.58,0,0,1-9,3.91h-.26c-.22,0-.35.15-.39.46l-2,8.35-.13-.13a5.79,5.79,0,0,1-1.5,1.56L490,104a26.19,26.19,0,0,1-1.17,4,1.18,1.18,0,0,1-.72.19h-.39l.07-.78a2,2,0,0,0-.65-.23.56.56,0,0,1-.46-.62,3.88,3.88,0,0,1,.07-.52,4.27,4.27,0,0,0,.07-.52c0-.3-.17-.44-.52-.39l.33-1.56A87.82,87.82,0,0,0,488.2,91q.59-8.87,1.24-12.52v-.13a2.09,2.09,0,0,1,.59-1,1,1,0,0,1,.59.91,18.73,18.73,0,0,1-.26,2.67,23.37,23.37,0,0,0-.39,2.74q-.59,5.41-1.63,16.18v.2a6.68,6.68,0,0,1-.07.78q.85-3.85,2-12.2,1.11-8,2.09-12.26A5.28,5.28,0,0,1,491.2,73a3.61,3.61,0,0,1,.1-.81.89.89,0,0,1,.49-.62,2.24,2.24,0,0,0,.85-.39,6.22,6.22,0,0,1,.06-.85.67.67,0,0,1,.52-.59,1.17,1.17,0,0,1,.78.72,2.68,2.68,0,0,0,1.31-.59,1.43,1.43,0,0,1,.59-1.37,2.29,2.29,0,0,1,.72.13,1.3,1.3,0,0,0,.39.72,31.07,31.07,0,0,0,3.65-1,.38.38,0,0,1,.26-.13.77.77,0,0,1,.33.1.77.77,0,0,0,.33.1l.33-.33h.26a.91.91,0,0,0,.52-.13l.07.13v-.13c.26-.22.48-.29.65-.23a1.67,1.67,0,0,0,1-.16.48.48,0,0,0,.2.07q.13,0,.29-.2c.11-.13.18-.19.23-.19l.26.13q1-.07,3.06-.33v.07a11.46,11.46,0,0,1,1.37-.26s.19.07.46.07a2.72,2.72,0,0,0,.52-.07,2.84,2.84,0,0,1,.46-.06.86.86,0,0,1,.42.13A.78.78,0,0,0,512,67c.13,0,.24-.09.33-.26v.06a1.73,1.73,0,0,1,.85-.26,1.07,1.07,0,0,1,.46.13l.07-.07.07.19.19-.19a6.24,6.24,0,0,1,1.83.19h.91l.13.33.13-.2A1.32,1.32,0,0,1,518,67.66ZM504.7,84.42l-.39.07q-1.18.78-2.45,1.56a6.88,6.88,0,0,1-2.64,1c-.22.35-.41.48-.59.39a2.91,2.91,0,0,1-1.08.39,2.93,2.93,0,0,0-1.08.39.28.28,0,0,0-.2-.07c-.09,0-.2.1-.33.29s-.24.29-.33.29h-.2l-.06-.13-.39.2c-.09.22-.19.55-.33,1a.58.58,0,0,0,0,.39,24.52,24.52,0,0,0,5.35-2A32.16,32.16,0,0,0,504.7,84.42Zm7.5-12.85v-.13a4.88,4.88,0,0,1-1.56.26l.13.19a28.88,28.88,0,0,1-3.52.65l-.13.2a5.69,5.69,0,0,1-1.44.07,21,21,0,0,0-2.94.72l.39.07a16,16,0,0,1-2.28.59.39.39,0,0,0-.26-.07,3.63,3.63,0,0,0-1.7.72,6.44,6.44,0,0,1-1.17.2q-.78,5.35-1.5,8.54,1.37-.72,4.63-2.74a24.82,24.82,0,0,0,4.11-3A22.33,22.33,0,0,0,512.2,71.57Z"/><path class="cls-1" d="M538.68,85.53a3.69,3.69,0,0,1-.46,1,14.62,14.62,0,0,1-1.5,2l-.07-.06a2,2,0,0,1-.65.85,3.08,3.08,0,0,1-.65.78l.13.13q-2.22,2-4.44,4.11A39.9,39.9,0,0,1,526.29,98v.13a3.41,3.41,0,0,0-.59.39l-.07-.13a2,2,0,0,0-.33.59q-2.68,1.82-5.42,3.59a27.09,27.09,0,0,1-5.74,2.87,9.58,9.58,0,0,0-1.08.42,8.14,8.14,0,0,0-.88.82.64.64,0,0,1-.33.13h-.33l-.29-.1c-.07,0-.38-.18-.95-.49-.39-.22-.52-.48-.39-.78a6.6,6.6,0,0,1-.26-3.39.78.78,0,0,1,.46-.59q1.24-.78,3.85-2.22a7.39,7.39,0,0,1,.91-.72l.07.26.07-.26.52-.26v-.07a3,3,0,0,1,.91-.91c.61-.35,1-.58,1.14-.69a6.09,6.09,0,0,1,.75-.42.19.19,0,0,1-.07-.13c.3,0,.41-.13.33-.26a12.26,12.26,0,0,1,1.24-.65,16,16,0,0,1,2.09-1.89l2-1.76a24.93,24.93,0,0,0,3.26-3.39q2.15-2.54,3.07-3.46l.13-.39a5.62,5.62,0,0,0-.91.26,1.62,1.62,0,0,1-.85.13,46.37,46.37,0,0,0-4.5,1.89l-.33-.13-.13.33a19.32,19.32,0,0,1-3.13,1.76,8.19,8.19,0,0,1-2,1,9.49,9.49,0,0,0-3,2.15c-.13,0-.27.1-.42.29a1,1,0,0,1-.42.36,9.21,9.21,0,0,1-.65,1l-.13.39c-.13.57-.09.91.13,1a2.11,2.11,0,0,1-.52.07,4.09,4.09,0,0,1-2-.78,8.76,8.76,0,0,1-.78-3.59q-1.11-1.11-.39-4.44a32.72,32.72,0,0,1,4.37-10.5,3.61,3.61,0,0,1,.65-.91c-.09-.35.11-.67.59-1a4.43,4.43,0,0,0,.65-1q.72-.91,2.15-2.67v-.2a12.25,12.25,0,0,1,2.61-2.8,23.4,23.4,0,0,1,3.33-2.74h.13a1,1,0,0,1,.78.39l.65.78.26.85a13.16,13.16,0,0,0,1.37-.52l-.2-.13a2.51,2.51,0,0,1,1-.33v.2H529a5.26,5.26,0,0,0,1.24.65q1.17,1.69,2.74,4.17a2.5,2.5,0,0,0,.42,1.4,2.3,2.3,0,0,1,.36,1.53l-.26.07-.07.39h-.59l-.2.2a1.71,1.71,0,0,1-1.37-1.37,2.32,2.32,0,0,0-1.11-1.56A2.51,2.51,0,0,0,528.38,72,19.61,19.61,0,0,0,525.12,75a11,11,0,0,0-3.26,3.46,39.84,39.84,0,0,1-2.8,3.85c-.13.61-.3.94-.52,1a.21.21,0,0,0,.19.13s.14-.08.29-.23a.5.5,0,0,1,.49-.16l.52-.13.2-.13-.13-.13h.07l.07.13c.22-.09.54-.2,1-.33,0-.09.07-.17.23-.26a1.69,1.69,0,0,0,.36-.26c0,.09.09.13.13.13a1.56,1.56,0,0,1,.59-.33l.33.26-.07-.19.91-.26.13.07.07-.33.26-.13.33-.2-.07.2a1.45,1.45,0,0,0,.82-.39,1.6,1.6,0,0,1,1-.39.06.06,0,0,0,.07.07c.26,0,.39,0,.39-.07a6.92,6.92,0,0,0,1.43-.72.88.88,0,0,0,.59.13,7.69,7.69,0,0,1,1.89-.65c.09-.22.17-.33.26-.33a.27.27,0,0,1,.16.1.27.27,0,0,0,.16.1c.09,0,.2-.09.33-.26h.13a.86.86,0,0,0,.49-.23.91.91,0,0,1,.43-.23.38.38,0,0,1,.26.13,16.7,16.7,0,0,0,2.74-.85,1.16,1.16,0,0,1,.59-.19l.26.06c.17.39.43,1,.78,1.7l-.13.26a1.05,1.05,0,0,0,.26.78,1,1,0,0,1,.26.78,1.17,1.17,0,0,1,.72.65q-.13.46-.33,1.5l-4.63,5.22q-.59.59-1.43,1.5v-.07a15.81,15.81,0,0,0-3.26,3.78l-.13-.06a2.09,2.09,0,0,1-1.11.85q-.46.52-1.24,1.56c-.17,0-.37.13-.59.39a1.47,1.47,0,0,1-.52.46q-.78.72-1.5,1.43a5.47,5.47,0,0,1-1.76,1.11,12.87,12.87,0,0,0-1.83,1.76,6.4,6.4,0,0,0,1.56-.91h.2q1.18-1,3.46-2.74a2.45,2.45,0,0,1,.78-.72,6.27,6.27,0,0,0,1.17-1,2,2,0,0,0,.52-.39.7.7,0,0,0,.62-.36,1.24,1.24,0,0,1,.52-.49,3.72,3.72,0,0,0,.82-.59c0-.17.13-.29.39-.36s.37-.18.33-.36a15.52,15.52,0,0,0,1.3-1.17.86.86,0,0,0,.62-.46,1.12,1.12,0,0,1,.69-.52l.78-.78a10,10,0,0,0,1.44-1.37,4.87,4.87,0,0,1,1.17-1.44,5.65,5.65,0,0,0,1.5-2.54l.2-.52.52-.07A2,2,0,0,1,538.68,85.53Zm-24.85-2.94v-.26a3.43,3.43,0,0,1-.72.91s.09.07.13.2a.7.7,0,0,1-.13.26l-.13.07-.2.2s.07.07.2.07a1.8,1.8,0,0,0-.39.65v.65a1.59,1.59,0,0,1-.33.59l.2.13ZM514.94,80c-.09,0-.17.24-.26.59,0,.09-.18.15-.39.19a3.77,3.77,0,0,0-.39,1.11.32.32,0,0,0,.07.33,2.89,2.89,0,0,0,.52-1.44h.13Zm1-1.83a5.66,5.66,0,0,1-.46.72A6.87,6.87,0,0,0,515.92,78.16Zm2-3.39a4.2,4.2,0,0,1-1.11,1.17.54.54,0,0,1,.07.2,3.29,3.29,0,0,1-.23.36.7.7,0,0,0-.16.36v.2A16.83,16.83,0,0,0,517.94,74.77Z"/><path class="cls-1" d="M568,68l-.26.39-.07.39a.93.93,0,0,0-.49.36.68.68,0,0,1-.55.29.26.26,0,0,0-.07.19s0,.13.13.26q-.2.13-.2.26a.37.37,0,0,0,.26.46l-.46.19-.06.2c0,.09-.09.2-.26.33l.13.07a6.28,6.28,0,0,1-1.44.52A18.31,18.31,0,0,1,561,73.27q-2.74.72-3.13,1.24a16.19,16.19,0,0,0-3.07,1l-1,.46q-1.24.46-3.72,1.24l.26-.13-.52.2-.07.13-.13.06.06-.13q-.85,0-1.3,2.35l-.2,1.24q2.74-.39,8.28-.85a23.71,23.71,0,0,0,3.85-.07,4.83,4.83,0,0,1-.39.85l-.26.2.06.07a8.08,8.08,0,0,1-1.56,1.37,9.64,9.64,0,0,1-1.17,1.11l-.13.13.06.2-.52.26.33.26a5,5,0,0,0-1.37,1l.07.07q-2,1-5.15,2.41-3.26,2.41-4.56,2l-1.83,7,.72-.07q3.26-1.43,6.19-2.87,1.76-.92,3.46-1.83a18.06,18.06,0,0,1,3.13-1.44c-.09,0,.09.2.52.59a8.36,8.36,0,0,0,.26,3.13,2,2,0,0,1-.33,1.21c-.26.46-.52.88-.78,1.27l-.72.52.26-.07a6.49,6.49,0,0,1-1.31.91,1.08,1.08,0,0,1-.46.33q-1.89,1.11-5.74,3.13-2.28,1-6.85,3a2.3,2.3,0,0,1-1.31-.65,3.07,3.07,0,0,0-.49.39c-.24.22-.4.33-.49.33a4.13,4.13,0,0,1-.91-.39,1.48,1.48,0,0,0-.39,1.24q.07-.2,1.11-.33a4.88,4.88,0,0,0,1.31-.13q5.15-1.37,7.37-2a54.14,54.14,0,0,0,7.24-3l.52-.07-.07.13q0,.26-.65,1a4.59,4.59,0,0,0-1.11.91,15.48,15.48,0,0,1-2.74,1.56,5.18,5.18,0,0,0-1,.78q-8.35,3.26-10.31,3.26c-.91,0-1.46-.26-1.63-.78q-.39-.2-.13-1.17c0-.13-.11-.17-.33-.13l-.85-.59q.65-2.94,2-8.74.46-2.21,1.11-6.59t1.17-6.59c.13-.74.38-1.84.75-3.29s.62-2.55.75-3.29a18.49,18.49,0,0,0,.36-2.41q.16-1.63.29-2.41a1.58,1.58,0,0,1,.72-1,.59.59,0,0,1,.26-.07c.22,0,.38.18.49.52a1.82,1.82,0,0,0,.29.65c0,.52.15,1.28.33,2.28a19.24,19.24,0,0,1,.59-2.15c0-.26,0-.65-.07-1.17a3.72,3.72,0,0,1,.59-1.63.56.56,0,0,0,.26.07c.17,0,.33-.14.46-.42s.28-.43.46-.43a4.56,4.56,0,0,1,.59.52,40.06,40.06,0,0,0,5.28-.78q.19,0,5.48-.52.72-.06,3.13-.52a20.09,20.09,0,0,1,3.13-.33Q568.23,66.87,568,68ZM544.29,80.44q-1,4.18-2.8,12.59Q542.6,88.86,544.29,80.44Z"/><polygon class="cls-2" points="59.31 69.88 68.8 167.85 90.68 157.44 77.35 107.79 62.81 68.34 59.31 69.13 59.31 69.88"/><polyline class="cls-3" points="62.82 106.48 59.31 69.88 59.31 69.13 55.46 68.97 55.37 69.58 45.7 124.86 64.51 117.31"/><polygon class="cls-3" points="66 66.7 96.92 110.62 78.11 110.62 62.81 68.34 66 66.7"/><polygon class="cls-2" points="68.82 64.14 124.36 110.62 95.45 108.53 66 66.7 68.82 64.14"/><polygon class="cls-3" points="70.8 61.05 161.16 102.46 112.24 100.48 68.82 64.14 70.8 61.05"/><polygon class="cls-2" points="52.13 67.93 23.21 130.1 43.8 131.56 45.7 124.86 55.37 69.58 55.46 68.97 52.13 67.93"/><polygon class="cls-2" points="71.91 57.61 169.85 74.95 170.04 76.68 170.34 80.41 170.5 83.67 170.5 85.83 170.5 88.28 170.27 91.77 170.04 94.38 169.69 97.25 168.97 101.59 168.51 103.56 147.48 96.19 70.8 61.05 71.91 57.61"/><path class="cls-4" d="M72.15,53.6"/><path class="cls-5" d="M46.29,63"/><path class="cls-5" d="M46.29,63"/><polygon class="cls-3" points="49.17 65.78 6.25 116.28 7.82 120.06 9.42 123.45 11.12 126.67 13.27 130.33 16.42 134.98 24.03 128.34 52.13 67.93 49.17 65.78"/><polygon class="cls-2" points="46.29 63.05 1.05 95.19 1.48 98.43 2.19 102.46 3.01 106.07 3.81 109.06 4.83 112.35 6.25 116.28 49.17 65.78 46.29 63.05"/><polygon class="cls-3" points="44.63 59.83 1.05 75.8 0.77 78.74 0.55 82.52 0.5 86.46 0.5 88.99 0.7 91.36 1.05 95.19 46.29 63.05 44.63 59.83"/><polygon class="cls-2" points="43.8 56.5 4.45 59.83 3.72 62.25 3.05 64.74 2.32 67.93 1.84 70.39 1.52 72.27 1.05 75.8 44.63 59.83 43.8 56.5"/><polygon class="cls-3" points="44.01 52.55 9.84 46.71 8.91 48.59 7.85 50.88 7.26 52.22 6.42 54.26 5.83 55.82 5.26 57.39 4.45 59.83 43.8 56.5 44.01 52.55"/><polygon class="cls-2" points="44.97 49.37 16.53 35.81 14.56 38.65 13.16 40.84 12.11 42.59 11.17 44.23 9.84 46.71 44.01 52.55 44.97 49.37"/><polygon class="cls-3" points="46.95 46.11 24.23 26.59 22.27 28.7 20.19 31.1 18.05 33.77 16.53 35.81 44.97 49.37 46.95 46.11"/><polygon class="cls-2" points="49.86 43.39 32.6 18.96 29.7 21.38 27.41 23.45 25.5 25.29 24.23 26.59 46.95 46.11 49.86 43.39"/><polygon class="cls-3" points="53.09 41.7 42.45 12.19 38.88 14.41 35.6 16.68 32.6 18.96 49.86 43.39 53.09 41.7"/><polygon class="cls-2" points="56.56 40.84 53.75 6.63 48.41 8.99 44.97 10.77 42.45 12.19 53.09 41.7 56.56 40.84"/><polygon class="cls-3" points="60.57 40.84 67.38 2.44 62.57 3.63 57.97 5.06 53.75 6.63 56.56 40.84 60.57 40.84"/><path class="cls-2" d="M64.23,41,82.67,1.89A.9.9,0,0,0,81.79.6L76.95.93H76.9l-4.19.53h-.05L68,2.32a.9.9,0,0,0-.73.73L60.72,40a.9.9,0,0,0,.66,1l1.81.47A.9.9,0,0,0,64.23,41Z"/><polygon class="cls-3" points="71.3 50.17 143.76 23.61 139.67 20 133.56 15.38 129.74 12.91 126.12 10.82 122.98 9.19 70.46 46.19 69.62 46.94 71.3 50.17"/><polygon class="cls-2" points="72.14 53.6 160.84 46.11 155.07 36.66 152.31 32.95 147.91 27.79 143.76 23.61 71.3 50.17 72.14 53.6"/><polygon class="cls-3" points="73.82 57.95 169.85 74.95 167.97 64.83 165.62 57.05 163.37 51.39 160.84 46.11 72.14 53.6 71.91 57.61 73.82 57.95"/><circle class="cls-3" cx="57.97" cy="55.02" r="14.17"/><path class="cls-1" d="M129.69,101l-.48-.25a.8.8,0,0,0-1,.12,4.51,4.51,0,0,1-1.54.64c-.23.06-.53-.17-.88-.3l-.89.81a8.27,8.27,0,0,1-.72-4.25c.19-1.65.37-3.3.47-5a14.3,14.3,0,0,0-.14-2.59,1.47,1.47,0,0,0-.5-.84,7.7,7.7,0,0,1-1.74-3,1,1,0,0,1,.19-1.21.49.49,0,0,0,.06-.71l-.69-1.1c-.19-.31-.3-.64,0-.9a.69.69,0,0,1,.92.11c.26.23.49.49.73.73l.17-.1c-.15-.55-.29-1.09-.44-1.64-.05-.18-.13-.36-.2-.54s-.16-.64.23-.79.71-.12.89.24c.26.54.45,1.11.67,1.66.09.23.17.47.25.73a1.38,1.38,0,0,0,.74-1.57.71.71,0,0,1,.32-.87.66.66,0,0,1,.91.15,1.08,1.08,0,0,1,.33,1.12c-.08.25-.14.51-.24.75a3.29,3.29,0,0,0,.11,2.46c.07.21.3.36.47.53a1.22,1.22,0,0,1,.41,1.37A8.34,8.34,0,0,0,128,91.5c.17,1,.2,2.1.27,3.16a16.47,16.47,0,0,0,1.5,6.13S129.72,100.87,129.69,101Z"/><path class="cls-6" d="M168.51,103.83S154.6,93.59,144,92.68a10.66,10.66,0,0,0-3.53.32c-4.42,1.12-17.61,4.41-22.41,5.1-1,.14-2,.32-2.93.55C110.39,99.79,97.45,103,92,105.78a41,41,0,0,1-8.91,3.32c-5.59,1.36-13.36,3-17.85,2.71,0,0-10.19-.78-16.61,6.47a25,25,0,0,1-4.31,3.94c-3.34,2.35-8.82,5.51-13.55,5a14.22,14.22,0,0,0-7.24,1c-3.14,1.38-6.83,3.54-7.5,6.29l5.56,7,7.18,7.25,8,6.32L46.51,161l4.8,2.3,7,2.71,7.62,2.18,9.17,1.63,5.62.5,6.76.11,7-.45,7.84-1.19,7.78-1.95,5.63-1.92,9.12-4.1,5.19-3,8.89-6.29,7.67-7,5-5.7,5-6.79,3.77-6.31,2.5-5,2.59-6.35Z"/><circle class="cls-7" cx="85.5" cy="85.5" r="85"/><path class="cls-1" d="M150.19,96.19h-2.9l-.6-.6q0-.61,0-1.23l1.25-.72c-.12-1.42.35-2.9-.77-4.16-.14-.16-.07-.52-.07-.78a16.14,16.14,0,0,0,0-2.45,7.18,7.18,0,0,1-.38-2.5c-.84-.49,0-1.63-.82-2.12.25-1.33-.47-2.37-1.23-3.87a21.22,21.22,0,0,1,0,2.16,9,9,0,0,1-.4,1.47,5.67,5.67,0,0,1-.42,1.26,14,14,0,0,0-1.22,3.8,8.29,8.29,0,0,1-.51,1.83,2.92,2.92,0,0,0-.06,2.64,1.44,1.44,0,0,1-.25,1.81,2.7,2.7,0,0,0-.8,2.47c-1.14.56-2.22,1-3.41.3-.16-.09-.46,0-.69.07l-1.46.28-.62-1.33a1.37,1.37,0,0,1,.18-.34c1.45-1.46,1.55-1.43,2.22-4a5,5,0,0,1,.91-1.65,3.61,3.61,0,0,1-.2-3.06,2.71,2.71,0,0,0-.27-2.78c.58-1.19,1.44-2.3.46-3.63a.48.48,0,0,1,0-.4c.65-1.46-.22-2.92,0-4.48l-1.39-.79.91,1.82h-1.76c-1-.35-1-1.35-1.36-2.07-.06-.11-.15-.31-.11-.35.95-.86-.08-1.7,0-2.66l.88-.4-.48-1c0,.16,0,.06,0,0,.84-.7.2-1.75.64-2.61a5.71,5.71,0,0,0,.61-3,11.13,11.13,0,0,1,.72-4,7.56,7.56,0,0,0,.08-2,3.76,3.76,0,0,1,3.7-4A2.07,2.07,0,0,0,141,53a13.45,13.45,0,0,1-1.62-4.53l.53-1c.83-1.57,1.8-2,3.5-1.42.43.14.89.19,1.59.33l1.34,1.81L146,52.18a2.61,2.61,0,0,0,1.89,1.06,4.12,4.12,0,0,1,2.33,1.66,6.83,6.83,0,0,1,1.35,3.29c.14,2.56,1.26,4.84,1.74,7.3a15.14,15.14,0,0,1,.78,3.35.63.63,0,0,0,0,.2c.23.69.81,1.51.61,2-.31.83,0,1.6-.36,2.78l-2,1.86c-.92-.38-.6-1.73-1.89-1.66,0,1.14-.44,2.29.25,3.42a.71.71,0,0,1,.07.38c-.09,2.35.69,4.64.43,7a3.91,3.91,0,0,0,.38,2.5,5.25,5.25,0,0,1,.45,2.48c.07,1.45-.35,2.93.36,4.35a.82.82,0,0,1-.77,1.14C151,95.35,150.68,95.74,150.19,96.19Z"/><path class="cls-1" d="M83.24,116.46v1.93a.38.38,0,0,1-.09.24,6.43,6.43,0,0,1-5,2.36A2.87,2.87,0,0,0,76,122.22c-.52.67-.94,1.43-1.41,2.18a.37.37,0,0,1-.22.17,1.1,1.1,0,0,1-1.34-.72.37.37,0,0,0-.62,0l-.67.91a.37.37,0,0,1-.47.11c-.44-.22-.93-.34-1.1-.68a.39.39,0,0,0-.41-.19l-1.2.18a.37.37,0,0,1-.37-.17c-.37-.61.13-1.08.3-1.58a.37.37,0,0,0-.08-.37l-.22-.24a.38.38,0,0,1-.09-.33c.25-1.31,3.07-3.53,6.8-4a.37.37,0,0,0,.15-.69,10.58,10.58,0,0,0-5.65-2,.37.37,0,0,0-.36.25l-.63,1.73a.36.36,0,0,1-.21.22l-1.36.53a.37.37,0,0,1-.41-.12c-.36-.44-.72-.85-1-1.29a24.88,24.88,0,0,0-1.83-2.79,2.34,2.34,0,0,0-1.86-.78,3.71,3.71,0,0,1-1-.15.37.37,0,0,0-.43.49l.2.53a.37.37,0,0,1-.09.4l-.48.45a.37.37,0,0,1-.6-.13h0a.37.37,0,0,0-.68,0l-.37.76a.38.38,0,0,1-.53.16c-.57-.29-1.16.33-1.82.16a.34.34,0,0,1-.21-.19l-.09-.2a.37.37,0,0,0-.58-.12h0a.37.37,0,0,1-.49,0l-1-.89a.38.38,0,0,1-.12-.37c.24-1,.37-1.89,1.58-2.28.57-.18.93-.93,1.44-1.36a6.36,6.36,0,0,1,1.39-.94,12.12,12.12,0,0,0,2.87-2.44.38.38,0,0,1,.26-.1h.52a.37.37,0,0,0,.34-.24,5.24,5.24,0,0,1,3.42-3.37c1.22-.38,2-.35,4.41.94a.39.39,0,0,1,.18.21,11,11,0,0,0,.46,1.24,7.84,7.84,0,0,0,.67,1,.38.38,0,0,0,.22.15c1.53.36,3.24.4,4.89.88a4.76,4.76,0,0,1,1.79,1.09c1.12.92,1.63,1,3,.37.58.58-.15-.12.5.53H83.8a.38.38,0,0,1,.37.3c.15.71.07,1.13-.74,1.37-1.05.31-.93,2.11-2,2.45a5.56,5.56,0,0,1-.76.18.37.37,0,0,0-.1.69,9,9,0,0,1,2.55,2.14A.37.37,0,0,1,83.24,116.46Z"/><path class="cls-3" d="M67.62,43.57,101.41,3.29a.83.83,0,0,0-.5-1.35L95.16,1h-.05L89.23.5H83.84A.83.83,0,0,0,83.1,1L64.2,41.1a.83.83,0,0,0,.24,1l2,1.58A.83.83,0,0,0,67.62,43.57Z"/><path class="cls-2" d="M70.46,46.19l51.15-35.43a1.29,1.29,0,0,0-.21-2.23L116,6.14l-.09,0L112,4.72l-.07,0-5.24-1.53-.07,0-3.52-.8a1.29,1.29,0,0,0-1.27.43l-34,40.54a1.29,1.29,0,0,0,0,1.7l.91,1A1.29,1.29,0,0,0,70.46,46.19Z"/><path class="cls-1" d="M127.61,68.55l2.88,0-.33.93.8.37.07.5c-.62.21-.78,1.2-1.72.76.1.94,1.47.94.85,2.07l-.44.31a2,2,0,0,0-2.21-.41,3.12,3.12,0,0,1-.29.74,4.64,4.64,0,0,1-1.57,1.57c-.74.39-1.31,1-2,1.46a8.31,8.31,0,0,0-1.7,1.84,2.64,2.64,0,0,1-1.48.77c-.59.13-1.21.11-1.79.27a5.7,5.7,0,0,1-2.8-.18c-.18,0-.29-.38-.48-.45-1.28-.48-2.1-1.68-3.38-2.14a1.38,1.38,0,0,1-.3-.21,4.5,4.5,0,0,0-.79,2.76,2.32,2.32,0,0,0,.08.64,5.5,5.5,0,0,1-.12,2.94c-.26.68,0,1.45-.23,2.16-.12.34.18.59.46.68.71.21,1,1.12,1.78,1.14.26.42.64.82.49,1.34a9,9,0,0,1-.76,1.89,1.14,1.14,0,0,0,0,1.17,10.76,10.76,0,0,1,.65,1.43c.14.48.63.81.84,1.3a17.29,17.29,0,0,1,.85,2c.11.41.35.89,0,1.35-.08.11,0,.33,0,.49.17,1.32.35,2.65.54,4a1.13,1.13,0,0,0,.21.56,10.11,10.11,0,0,1,1.22,2.74c.28.61.47,1.27.78,1.9a4.2,4.2,0,0,1,.28,2.26,9.85,9.85,0,0,0-.07,2.82c.26,1.7.41,3.42.72,5.12.15.85-.11,1.66,0,2.5a7.77,7.77,0,0,1,.29,2.43,18.5,18.5,0,0,0,.25,3.52,4.38,4.38,0,0,1-.07,1.58,4.68,4.68,0,0,0,0,1.86.92.92,0,0,0,.54.92c.55.23.35.92.86,1.19l-.5.75c.53.92.53,1,0,1.88a6.89,6.89,0,0,0,.95,1.25,6.14,6.14,0,0,1,.93,1,1.84,1.84,0,0,1,.35,1,1.08,1.08,0,0,1-.74,1.22c-.86.15-1.59.9-2.62.44-.46-.2-1.11.11-1.71-.05a5.43,5.43,0,0,1-2.27-1.2,4.1,4.1,0,0,1-1.06-1.33c-.27-.52-.93-.47-1.29-1.12,0-.46,0-1.12.06-1.77,0-.19.19-.36.29-.54.76-1.45.87-2,.27-3.34a7.67,7.67,0,0,1-.64-2.27c-.31-2.74-.77-5.46-1.05-8.2a28.16,28.16,0,0,0-.9-4.2,9.53,9.53,0,0,0-1.48-3.4,9.33,9.33,0,0,1-1.09-2.28,29.67,29.67,0,0,0-2.05-4.72c-.18.72-.78,1.16-.68,1.91a1.26,1.26,0,0,1-.26.66,6.16,6.16,0,0,0-.61,2.31,2,2,0,0,1-.17.69,5.44,5.44,0,0,0-.4,1.5,5.67,5.67,0,0,0-.11,2.44,2.11,2.11,0,0,1-.1,1.09c-.22.72-.34,1.47-.5,2.21a1.31,1.31,0,0,1-.16.57c-.23.26-.17.53-.18.83a7.09,7.09,0,0,1-.25,2.39c-.3.71-.16,1.44-.43,2.12,0,0,0,.08,0,.13,0,.67-.57,1.12-.61,1.83A5.87,5.87,0,0,1,101,127a15.47,15.47,0,0,0-1,3.57,7.14,7.14,0,0,1-.77,3.13.5.5,0,0,0-.08.34c.14.7-.27,1-.76,1.41-.71.59-1.65.95-2.13,1.82a.68.68,0,0,1-.16.2c-.54.44-1.29.43-1.84.88a2,2,0,0,1-2,.16,2.84,2.84,0,0,0-1.6,0,4.73,4.73,0,0,1-1.6-.07.54.54,0,0,1-.49-.71c.08-.33,0-.68.43-1s.66-1,1.28-1.34.74-1,1.37-1.22a1.42,1.42,0,0,0,.65-1A2.9,2.9,0,0,1,93.8,131a7.21,7.21,0,0,1,.33-3.88,12.58,12.58,0,0,0,.25-1.54,11.06,11.06,0,0,0-.14-2.75c0-.09-.06-.19,0-.25a29,29,0,0,0,.75-3.14,8,8,0,0,0,.37-4c-.11-.67.26-1.32,0-2,.4-.43.12-.9.06-1.34a8.74,8.74,0,0,1,.11-2.82,2.47,2.47,0,0,0-.06-.76c-.09-.73-.2-1.45-.29-2.18-.19-1.51-.84-2.93-.87-4.47a.62.62,0,0,0-.22-.42c-.44-.34-.54-.95-.86-1.29-.51-.54-.18-1,0-1.35a9.33,9.33,0,0,1,1-1.7c.33-.49.84-.89.54-1.6,0-.08.17-.25.32-.47l-.73-.28c-.33-.14-.86.11-1-.33s-.75-1.14-.52-1.75a3.11,3.11,0,0,0-.51-2.68,2.94,2.94,0,0,1-.32-2,11.5,11.5,0,0,1,1.17-2.38c-.09-.68-.18-1.58-.34-2.46-.09-.52-.32-1-.45-1.53a4.08,4.08,0,0,0-.44-1.54c-.22-.31-.14-.82-.22-1.39a1.83,1.83,0,0,0-.6,1.37,3.58,3.58,0,0,1-1,2.81,2.7,2.7,0,0,0-.69,1.68,6.09,6.09,0,0,1-1.59,3.38c-.34.31-.62.67-.94,1s-.67.61-1,.87c.06.43.12.77.15,1.12a1.8,1.8,0,0,0,.63,1.15c.66.68,1.39,1.3,2,2A3.33,3.33,0,0,1,89,95.42a1.69,1.69,0,0,1-1.95-.5,1,1,0,0,0-.8-.37c-.47.1-.67-.27-1.06-.42l.46,3.43c-.3.15-.45.47-.8.38-.18,0-.43-.09-.52-.22a2,2,0,0,1-.38-.88,5.49,5.49,0,0,0-.9-2.11,1.8,1.8,0,0,0-.4,2.31c.11.3,0,.68.36.91.1.06.05.39,0,.59a3.25,3.25,0,0,1-.2.57,1.14,1.14,0,0,1-1.37-.3c-.6-.58-1.25-1.12-1.19-2.07a.9.9,0,0,0,0-.26,4.72,4.72,0,0,1,.33-3.25,1.54,1.54,0,0,0-.09-1.64,1.89,1.89,0,0,1-.08-1.9c.47-1,.33-2.19,1.13-3a12.93,12.93,0,0,1,.85-3,21.24,21.24,0,0,1,.94-1.94c.26-.7.71-1.36.92-2.11,0-.08,0-.2.09-.22.64-.15.78-.64.94-1.2a11.15,11.15,0,0,0,.17-1.57,6.71,6.71,0,0,1,.83-3.24c.27-.37.42-.91.78-1.12s.48-.6.79-.78.57-.43.42-.87c0,0,.11-.1.18-.15.87-.6,1.47-1.52,2.41-2,.15-.54.74-.5,1.1-.73a8.58,8.58,0,0,1,1.88-.57c.69-.23,1.36-.51,2-.8.07,0,.08-.2.14-.3.2-.32.4-.64.63-1a1.73,1.73,0,0,0-.58-1.4c-.31-.26-.27-.8-.11-1.29.35-1.06.61-2.14.86-3.23a2.81,2.81,0,0,0,0-1,1.93,1.93,0,0,1,.71-2,7.52,7.52,0,0,1,1.94-1.44,1.29,1.29,0,0,0,.45-.41.59.59,0,0,1,.78-.15c.87.38.87.37,1.4-.29.08-.1.14-.21.22-.32.43.06.83-.27,1.26,0,.18.12.59,0,.69.12.43.59,1.34.62,1.59,1.4,0,.11.21.17.23.27.13.53.87.5,1,1.11.06.43.34.84.4,1.27a5.52,5.52,0,0,1-.05,1.46,11.5,11.5,0,0,0,.23,3.51,3.34,3.34,0,0,1-1.2,3,1.37,1.37,0,0,0,1.49.63,11.37,11.37,0,0,1,2.06.06L111,68a1.74,1.74,0,0,1,2,.88c.11.2.11.54.5.38,1.06,1.22,2.62,1.48,4,2.14.54.27,1.23.48,1.34,1.29a3.92,3.92,0,0,0,2.2-.94c.27-.18.46-.48.74-.63a2.84,2.84,0,0,0,1.55-1.9c.2-.82.49-.89,1.52-.74.61.09.93,0,1.11-.65s.61-.53.86-.84c.08-.1.47,0,.69.09s.28.32.14.61A2.49,2.49,0,0,0,127.61,68.55Z"/><path class="cls-1" d="M61.26,153.32c-.52-.52-.81-.46-1.35,0s-1.07,1.18-1.61,1.63c-1,.8-1.72,2.23-3.43,1.9-.4-.08-.91.41-1.49.7-.56-3.09-1.95-6.16-1.79-9.51s.46-6.5.64-9.75c.08-1.54,0-3.09,0-4.68a7.78,7.78,0,0,1-1.66.5c-.27,0-.61-.3-.84-.55-1-1-1.25-2.48-.51-3.33s.93-1.78,0-2.71a1.24,1.24,0,0,1-.39-.8,4,4,0,0,1,.43-1.79c.37-.55,1-.28,1.54,0a3.71,3.71,0,0,0,.42.15,11.92,11.92,0,0,1-.59-1.35,1.78,1.78,0,0,1,.9-2.1,1.51,1.51,0,0,1,2.07.8c.27.45.43,1,.72,1.38.47.67,1.06.57,1.34-.2a7.89,7.89,0,0,0,.28-1.27c.08-.43.11-.87.21-1.29.27-1.08,1-1.65,1.83-1.45s1,.8.88,1.92-.37,2.23-.42,3.35A3.05,3.05,0,0,0,59,126.4a2.11,2.11,0,0,0,2.51.84,5.29,5.29,0,0,1,1.39-.27,1.27,1.27,0,0,1,1.34,1,1.29,1.29,0,0,1-.77,1.62c-1.87.6-2.86,2.38-4.52,3.26a1.14,1.14,0,0,0-.33.9c.11,1.95.24,3.9.42,5.84a27.68,27.68,0,0,0,.49,3.09c.45,2.12.86,4.26,1.44,6.34S61.68,152,61.26,153.32Z"/></g></g></svg>