<svg id="Layer_1" data-name="Layer 1" xmlns="http://www.w3.org/2000/svg" viewBox="0 0 137.33 137.33"><defs><style>.cls-1,.cls-6{fill:#fff;}.cls-1,.cls-2,.cls-3,.cls-5{stroke:#2e1714;stroke-miterlimit:10;stroke-width:0.75px;}.cls-2{fill:#6a675f;}.cls-3{fill:#6c8e85;}.cls-4{fill:#9f5840;}.cls-5{fill:#3a3835;}</style></defs><title>Artboard 3 copy 6</title><circle class="cls-1" cx="77.67" cy="112.97" r="0.47"/><path class="cls-2" d="M68.67,16.35A50.06,50.06,0,1,1,18.6,66.42,50.06,50.06,0,0,1,68.67,16.35"/><circle class="cls-1" cx="58.4" cy="43" r="0.59"/><circle class="cls-1" cx="28.75" cy="46.29" r="0.83"/><circle class="cls-1" cx="41.24" cy="54.17" r="0.9"/><circle class="cls-1" cx="32.08" cy="66.29" r="0.64"/><circle class="cls-1" cx="53.26" cy="64.52" r="1.42"/><circle class="cls-1" cx="80.02" cy="21.88" r="0.74"/><circle class="cls-1" cx="81.78" cy="43.45" r="1.03"/><circle class="cls-1" cx="92.32" cy="35.95" r="1.67"/><circle class="cls-1" cx="99.11" cy="46.7" r="0.42"/><circle class="cls-1" cx="104.13" cy="55.6" r="0.54"/><circle class="cls-1" cx="107.2" cy="42.49" r="0.96"/><circle class="cls-1" cx="68.4" cy="56.68" r="1.08"/><circle class="cls-1" cx="45.51" cy="26.54" r="0.74"/><circle class="cls-1" cx="24.34" cy="61.48" r="0.74"/><circle class="cls-1" cx="29.93" cy="82.07" r="2.01"/><circle class="cls-1" cx="44.39" cy="76.92" r="0.98"/><circle class="cls-1" cx="63.84" cy="78.05" r="1.13"/><circle class="cls-1" cx="81.15" cy="74.67" r="1.27"/><circle class="cls-1" cx="71.83" cy="65.31" r="0.78"/><circle class="cls-1" cx="98.79" cy="71.04" r="0.78"/><circle class="cls-1" cx="111.04" cy="67.17" r="1.08"/><circle class="cls-1" cx="63.28" cy="33.08" r="0.56"/><circle class="cls-1" cx="70.26" cy="42.32" r="0.78"/><circle class="cls-1" cx="42.03" cy="91.33" r="1.37"/><circle class="cls-1" cx="55.12" cy="83.24" r="0.44"/><circle class="cls-1" cx="57.03" cy="93.39" r="1.18"/><circle class="cls-1" cx="51.59" cy="102.36" r="0.83"/><circle class="cls-1" cx="65.75" cy="106.92" r="0.78"/><circle class="cls-1" cx="68.4" cy="96.53" r="1.08"/><circle class="cls-1" cx="73.5" cy="83.73" r="1.67"/><circle class="cls-1" cx="79.04" cy="91.77" r="0.44"/><circle class="cls-1" cx="80.34" cy="104.49" r="1.3"/><circle class="cls-1" cx="90.6" cy="83.1" r="1.03"/><circle class="cls-1" cx="102.61" cy="84.08" r="0.98"/><circle class="cls-1" cx="88.74" cy="63.93" r="0.83"/><circle class="cls-1" cx="40.65" cy="63.63" r="0.53"/><circle class="cls-1" cx="76.98" cy="50.11" r="0.64"/><circle class="cls-1" cx="26.2" cy="74.03" r="0.64"/><circle class="cls-1" cx="52.77" cy="34.57" r="0.93"/><circle class="cls-1" cx="82.69" cy="32.74" r="0.91"/><circle class="cls-1" cx="110.38" cy="77.49" r="0.42"/><circle class="cls-1" cx="104.6" cy="94.35" r="0.42"/><circle class="cls-1" cx="37.28" cy="99.32" r="0.39"/><circle class="cls-3" cx="69.28" cy="80.06" r="28.52"/><g id="YTUdYY.tif"><path class="cls-4" d="M54.47,75.17l1,.69L55,74.79c.15-.18.39-.34.46-.56.18-.53.57-1,.11-1.67a1.71,1.71,0,0,1,0-1.62c.68-.79.51-1.79,1-2.61.18-.33.33-.68.53-1.09l-.7.14.36-.68-.25,0a21.29,21.29,0,0,0-.29-2.17c0-.15-.48-.29-.74-.3-.79-.05-.76-.42-.42-.94.19-.28.39-.54.63-.86,1,.84,1.74-.1,2.57-.52a1.65,1.65,0,0,1,1-.24c.18,0,.29.54.34.85.12.82.19,1.65.28,2.47,1.2.21,1.59.76,2,2a1.67,1.67,0,0,0,1.3,1c1-.14,1.32.88,2.26.84l.68-.53c.31.74.81,1.39-.35,1.85a3.4,3.4,0,0,0-1.15,1c-.49.55-1,1.14-.41,2a.86.86,0,0,1,0,.53l2.43,1.55h0l.85,2.4.53-.08c.12-.6.23-1.2.34-1.8,0-.06,0-.16,0-.19,1-.9.35-2.08.51-3.12a2.41,2.41,0,0,1,.24-.55,1.72,1.72,0,0,1,.54.28c.46.53.89,1.09,1.36,1.68l.78-.57,2.58,2.59a2.31,2.31,0,0,1-1.83,1,2.57,2.57,0,0,0-1.49.87,14.12,14.12,0,0,0-1.31,1.8l.18.19,1.92-1.31.44.47c-.79.93-1.38,1.69-2,2.39a5.77,5.77,0,0,1-1.13.82c-.51.33-1,.63-1.57.94.16.19.59.48.66.85s-.44.56-.7.86l.25.23c-.6.75-1.82,1-1.68,2.26-1.27-.42-2.39-1.37-3.85-.83a1,1,0,0,1-.57-.06c-1.35-.35-2.07.16-2.56,1.46a3.61,3.61,0,0,0,0,3.29,2.37,2.37,0,0,0,2.6,1.13c.23-.08.37-.39.58-.58s.45-.36.85-.67c-.21.64-.3,1-.45,1.35a12.35,12.35,0,0,1-.62,1.08,7.07,7.07,0,0,0,1.47.45c1.44.14,1.57.31,1,1.69-.06,0-.13,0-.16-.07-.54-.66-1-1.36-2-1.55-.56-.1-1-.71-1.53-1.08-.28-.2-.57-.51-.88-.53-1.65-.12-2.5-1.4-3.57-2.35a.74.74,0,0,1-.28-.48c.15-1.82-1.08-3.22-1.47-4.87a7.21,7.21,0,0,0-.22-.92c-.2-.53-.47-1-.68-1.57a6.69,6.69,0,0,1-.82-2.2C52.91,78.23,52.79,76.44,54.47,75.17ZM67,79.65l.37.23-.19-.79L66,79c-.31-1.48-.89-1.62-2.22-.5H65l-.35,2.6.33,0a3.53,3.53,0,0,1,.21-.93,3.88,3.88,0,0,1,.66-.74l.47.67.23.33Z"/><path class="cls-4" d="M80.52,99.51c.62-.31,1.25-.6,1.84-.94s.8-.27.93.38a5,5,0,0,1,3.87-1C86,99.6,85,101.23,83.79,102.73c-.43.53-1.24.75-1.86,1.14a24.3,24.3,0,0,1-3.76,2.41c-2.13.86-4.4,1.38-6.61,2l-.31-.3c.18-.58.37-1.16.52-1.75s.19-1-.53-1.31c-2.63-1-2.63-1-4.51-3.22l.67-.94-.59-.41a12.11,12.11,0,0,1,1.05-.74c.92-.51.36-1.53.8-2.23s.73-1.3,1.62-1.3l.46,1.13c.31-.37.51-.63.74-.86s.39-.4.57-.39c.73.07,1.45.23,2.17.34s1.78-.06,2.32.37c.95.74,1.82.43,2.77.35,1.21-.11,1.53.35,1.11,1.46a5.93,5.93,0,0,0-.18.76Z"/><path class="cls-4" d="M90.2,61.34l-.52,0,.42,1-.22.1-1.43-2.66-.88.5c.75,1,1.57,1.92,2.29,3a3.92,3.92,0,0,1,.38,1.37c.12.54-.18.8-.67.79-1,0-.73.59-.63,1.17a21,21,0,0,0,.36,2.25c.29,1,.75,1.94,1.09,2.92A2.68,2.68,0,0,1,90.57,73c-.09.55-.44.63-.89.21-1-.89-1.08-1.2-.47-2.29a1.06,1.06,0,0,0-.51-1.6c-1.35-.5-1.35-1.74-1.69-2.75S86.49,64.2,86.2,63a2.56,2.56,0,0,0-.58-1.09c-.7-.77-1.42-1.51-2.19-2.21a3.73,3.73,0,0,0-1.06-.44l.41,1.6a9.32,9.32,0,0,0-1.3-.88,2.67,2.67,0,0,0-.94-.05c.13.32.16.77.39.93,1.1.72,2.25,1.35,3.36,2l-1.37.69c.11.06,0,0-.15-.1-.9-.87-1.82-1.73-2.67-2.65a6,6,0,0,1-.7-1.33c.56-.19.9-.28,1.22-.42s.53-.24.53-.37a.91.91,0,0,0-.31-.69c-.66-.45-1.36-.85-2.07-1.23s-1.65-.85-2.48-1.28c-.08,0-.17-.13-.18-.21-.05-1.19-.81-1.08-1.63-.93-1.69.32-3.39.62-5.24,1l.33-.91-3,.28c-.19,0-.41.13-.55.06-1.15-.58-1.83.48-2.71.78-.63.21-1.12.8-1.75,1-1,.39-1.81.79-2,2-.06.32-.59.54-1,.86l-.65-.71-.84.14c-.35-.8-.15-.93.66-1.23.46-.17.74-.86,1.09-1.33.21-.28.33-.66.59-.86A5.8,5.8,0,0,0,61.59,53c.05-.14.37-.2.58-.26a27.25,27.25,0,0,1,16.53.79,45.72,45.72,0,0,1,5,2.33,9.57,9.57,0,0,1,1.67,1.51c.31.27.61.66,1,.74C88.25,58.48,89,60.16,90.2,61.34Z"/><path class="cls-4" d="M92.14,69.93l.76.61c1.21-1,1.33-1.68.78-3a7.36,7.36,0,0,1-.18-1.86c.29.46.45.69.58.94a26.93,26.93,0,0,1,3.3,11.93,9.41,9.41,0,0,1-.58,2.85c-.39,1.35-.88,2.66-1.31,4-.25.77-.61.92-1.35.49s-1.27-.84-1.23-1.76a2,2,0,0,0-.24-.95c-.91-1.54-.77-3.2-.61-4.88a3,3,0,0,0-.15-1.41,4.72,4.72,0,0,1-.15-3.47A17.74,17.74,0,0,0,92.14,69.93Z"/><path class="cls-4" d="M74.81,64.46l1.82,1.44c-.63.92.11,2.23-1,2.55l.78,2.36c-.54-.18-.93-.19-1.15-.39a16.85,16.85,0,0,1-1.48-1.62c-.1-.12-.09-.34-.13-.52-.1-.47,0-1.09-.32-1.39-.89-1-1.91-1.78-3-2.81l1.13-1.94,1.74.32v-.21c.6.44,1.21.86,1.79,1.32S75,64.32,74.81,64.46Z"/><path class="cls-4" d="M68.29,67.37c1.22-.48,1.58,0,2.31,2.83-.78-.1-.78-.1-.62-.86A2.13,2.13,0,0,0,68.29,67.37Z"/><path class="cls-4" d="M67,79.65l-.53.86-.23-.33-.47-.67a3.88,3.88,0,0,0-.66.74,3.53,3.53,0,0,0-.21.93l-.33,0,.35-2.6H63.77c1.33-1.12,1.91-1,2.22.5l1.24.05.19.79Z"/></g><path class="cls-5" d="M69.27,49.56c-.54-.92-1.08-1.8-1.6-2.71-1.74-3.06-3.5-6.1-5.18-9.19a18.26,18.26,0,0,1-2-5.61,8.92,8.92,0,1,1,17.55-3.19,10.92,10.92,0,0,1-.56,5.39,38.33,38.33,0,0,1-3.33,7C72.6,44,71,46.66,69.4,49.37Zm0-22.57a3.17,3.17,0,1,0,3.15,3.17A3.16,3.16,0,0,0,69.31,27Z"/><circle class="cls-1" cx="54.19" cy="23.11" r="0.49"/><g id="sXR9tX"><path class="cls-1" d="M31.18,45.53a1.51,1.51,0,0,1-.57-1.82,5.68,5.68,0,0,1,1.69-2.64.62.62,0,0,0,.22-.48,3.63,3.63,0,0,1,1-2.28A5.62,5.62,0,0,1,37,36.17a8.28,8.28,0,0,1,.91,0,.91.91,0,0,0,.45-.11,6.12,6.12,0,0,1,2.82-1.16h.27a1.45,1.45,0,0,1,1.54,1c.38,0,.74-.11,1.1-.12A2.06,2.06,0,0,1,46.18,37a2.66,2.66,0,0,1,0,1.8,5.36,5.36,0,0,1-1.65,2.42,4.85,4.85,0,0,1-.5.41c-.24.15-.23.36-.26.61a3.66,3.66,0,0,1-1.18,2.26,13.71,13.71,0,0,1-1.28.95,1.87,1.87,0,0,0-.32.29,4.69,4.69,0,0,1-2.53,1.66,4.79,4.79,0,0,1-1.2.08.51.51,0,0,0-.42.14A6.21,6.21,0,0,1,34.2,49.1a3.67,3.67,0,0,1-1.64.12,1.93,1.93,0,0,1-1.71-2.13A12,12,0,0,1,31.18,45.53Z"/><path class="cls-1" d="M53.93,55.29c1.13-1.45,2.72-1.85,3.46-.85L46.78,63.22a1.13,1.13,0,0,1-.33-.89,2.49,2.49,0,0,1,1.49-2.18l.32-.14a2.22,2.22,0,0,1,.44-1.69.24.24,0,0,0,0-.17A2.35,2.35,0,0,1,50,55.46a2,2,0,0,1,2-.08.28.28,0,0,0,.22,0A2.15,2.15,0,0,1,53.93,55.29Z"/><path class="cls-1" d="M42.29,48.72,44,47.31a91.47,91.47,0,0,0,5.93,7.48l-1.39,1.15A91.13,91.13,0,0,0,42.29,48.72Z"/><path class="cls-1" d="M40,49.43a3,3,0,0,0,.48-.18c.34-.2.68-.41,1-.63a17.3,17.3,0,0,0,3.34-3,4,4,0,0,0,.3-.48l-.08-.1a4.39,4.39,0,0,0-.55.22c-.29.16-.57.36-.85.53-.05,0-.13,0-.2,0s0-.16.07-.19l2.18-1.36a.29.29,0,0,1,.14,0l.28,0a.72.72,0,0,1,0,.28,2.64,2.64,0,0,1-.4.59c-.86.84-1.71,1.69-2.61,2.5A17.65,17.65,0,0,1,39.85,50a4.42,4.42,0,0,1-.68.29.18.18,0,0,1-.23-.27,4.66,4.66,0,0,1,.49-.7c.4-.45.83-.87,1.26-1.29.06-.06.19-.06.28-.1a1,1,0,0,1-.11.25c-.24.29-.5.56-.74.84a2,2,0,0,0-.19.35Z"/><path class="cls-1" d="M42.71,45.22l.68,1.15a.25.25,0,0,1,0,.36c-.21.19-.42.38-.63.57s-.58.47-.88.69a.31.31,0,0,1-.29,0c-.36-.29-.7-.61-1.05-.92A7.59,7.59,0,0,1,42.71,45.22Z"/></g><g id="sXR9tX-2" data-name="sXR9tX"><path class="cls-1" d="M101.27,47.52a1.1,1.1,0,0,1,1.35-.31,4.13,4.13,0,0,1,1.81,1.38.45.45,0,0,0,.34.19,2.64,2.64,0,0,1,1.6.83,4.1,4.1,0,0,1,1.34,2.66,6,6,0,0,1-.06.66.66.66,0,0,0,.05.34,4.46,4.46,0,0,1,.67,2.12,1.63,1.63,0,0,1,0,.19,1.06,1.06,0,0,1-.79,1.06c0,.27,0,.54,0,.8a1.5,1.5,0,0,1-1.06,1.47,1.93,1.93,0,0,1-1.31-.14,3.9,3.9,0,0,1-1.65-1.35,3.54,3.54,0,0,1-.27-.39c-.09-.18-.25-.19-.42-.23a2.66,2.66,0,0,1-1.57-1,10,10,0,0,1-.61-1,1.36,1.36,0,0,0-.19-.25,3.42,3.42,0,0,1-1.06-1.94,3.49,3.49,0,0,1,0-.88.37.37,0,0,0-.07-.31,4.52,4.52,0,0,1-.92-2,2.68,2.68,0,0,1,0-1.2,1.4,1.4,0,0,1,1.65-1.11A8.71,8.71,0,0,1,101.27,47.52Z"/><path class="cls-1" d="M92.8,63.44c1,.91,1.18,2.09.41,2.56l-5.73-8.23a.82.82,0,0,1,.67-.19,1.81,1.81,0,0,1,1.5,1.22c0,.07.05.15.08.24a1.62,1.62,0,0,1,1.2.42.18.18,0,0,0,.12,0,1.71,1.71,0,0,1,1.87,1.1,1.48,1.48,0,0,1-.06,1.47.21.21,0,0,0,0,.16A1.57,1.57,0,0,1,92.8,63.44Z"/><path class="cls-1" d="M98.28,55.39l.92,1.32a66.62,66.62,0,0,0-5.79,3.85l-.75-1.08A66.38,66.38,0,0,0,98.28,55.39Z"/><path class="cls-1" d="M97.9,53.68A2.22,2.22,0,0,0,98,54c.12.26.25.52.4.77a12.6,12.6,0,0,0,1.94,2.6,3,3,0,0,0,.33.25l.08-.05a3.2,3.2,0,0,0-.13-.41c-.1-.22-.23-.43-.33-.65,0,0,0-.1,0-.15s.12,0,.14.06c.29.55.57,1.11.86,1.66a.21.21,0,0,1,0,.1c0,.07,0,.14,0,.2a.52.52,0,0,1-.2,0,1.92,1.92,0,0,1-.4-.32c-.56-.67-1.12-1.35-1.66-2a12.86,12.86,0,0,1-1.5-2.49,3.22,3.22,0,0,1-.17-.51.13.13,0,0,1,.21-.15,3.4,3.4,0,0,1,.48.4c.3.32.58.66.86,1,0,.05,0,.14.05.21a.72.72,0,0,1-.18-.1l-.57-.59a1.45,1.45,0,0,0-.24-.16Z"/><path class="cls-1" d="M100.8,55.91l-.87.42a.18.18,0,0,1-.26-.05c-.12-.17-.25-.33-.37-.49s-.31-.45-.45-.68a.23.23,0,0,1,0-.21c.23-.24.48-.47.73-.71A5.53,5.53,0,0,1,100.8,55.91Z"/></g><path class="cls-1" d="M62.55,79.75A1.93,1.93,0,0,1,63,78a2.82,2.82,0,0,1,1.87-1,.37.37,0,0,0,.3-.24,2.22,2.22,0,0,1,1.36-1.16,2.48,2.48,0,0,1,2.57.52,6.69,6.69,0,0,1,.46.57.53.53,0,0,0,.27.19,3,3,0,0,1,1.86.86l.14.16a1.92,1.92,0,0,1,.4,1.69c.2.2.41.37.59.59a2.73,2.73,0,0,1,.57,2.31,2.61,2.61,0,0,1-.72,1.36,2.58,2.58,0,0,1-1.76.83,2,2,0,0,1-.41,0c-.18,0-.26.14-.37.3a2,2,0,0,1-1.47,1,5.6,5.6,0,0,1-1-.06.76.76,0,0,0-.28,0,2,2,0,0,1-1.91-.29A3.55,3.55,0,0,1,64.8,85c-.09-.11-.15-.17-.26-.15a2.72,2.72,0,0,1-1.86-.46,2.68,2.68,0,0,1-.87-.92,2.71,2.71,0,0,1,0-2.7A9.43,9.43,0,0,1,62.55,79.75Z"/><g id="sXR9tX-3" data-name="sXR9tX"><path class="cls-1" d="M77.31,118.5a.74.74,0,0,1-.25.89,2.76,2.76,0,0,1-1.39.62.3.3,0,0,0-.22.14,1.76,1.76,0,0,1-1,.67,2.73,2.73,0,0,1-2-.06,4,4,0,0,1-.37-.24.44.44,0,0,0-.21-.07,3,3,0,0,1-1.46-.28l-.11-.07a.71.71,0,0,1-.37-.8c-.16-.08-.33-.15-.48-.24a1,1,0,0,1-.53-1.09,1.29,1.29,0,0,1,.5-.72,2.6,2.6,0,0,1,1.32-.54,2.36,2.36,0,0,1,.31,0c.14,0,.19-.09.27-.18a1.78,1.78,0,0,1,1.08-.6,6.67,6.67,0,0,1,.77,0l.21,0a2.28,2.28,0,0,1,1.47,0,2.33,2.33,0,0,1,.51.29.25.25,0,0,0,.21.06,3,3,0,0,1,1.44.08,1.79,1.79,0,0,1,.7.39.94.94,0,0,1,.13,1.32A5.81,5.81,0,0,1,77.31,118.5Z"/><path class="cls-1" d="M70.67,108.46c-.85.29-1.6,0-1.63-.58l6.65-.74a.55.55,0,0,1-.1.45,1.21,1.21,0,0,1-1.19.49l-.17,0a1.08,1.08,0,0,1-.63.57.12.12,0,0,0,0,.06,1.14,1.14,0,0,1-1.24.74,1,1,0,0,1-.84-.5.14.14,0,0,0-.09-.06A1,1,0,0,1,70.67,108.46Z"/><path class="cls-1" d="M73.65,114.24l-1.07.12a44.46,44.46,0,0,0-.42-4.62l.87-.1A44.3,44.3,0,0,0,73.65,114.24Z"/><path class="cls-1" d="M74.77,114.56a1.48,1.48,0,0,0-.25-.05h-.58a8.41,8.41,0,0,0-2.15.31,2,2,0,0,0-.25.11V115a2.13,2.13,0,0,0,.28.06h.49s.06,0,.09,0-.05.06-.08.06l-1.25,0-.07,0-.11-.08s0-.09.09-.1a1.28,1.28,0,0,1,.32-.13c.57-.11,1.15-.23,1.73-.32a8.58,8.58,0,0,1,1.94-.09,2.15,2.15,0,0,1,.35.06s.09,0,.09.08a.13.13,0,0,1-.07.1,2.27,2.27,0,0,1-.39.16c-.28.07-.57.13-.86.19,0,0-.09,0-.14,0a.48.48,0,0,1,.11-.07l.53-.14a1,1,0,0,0,.17-.09Z"/><path class="cls-1" d="M72.54,115.55c0-.22,0-.43,0-.65a.12.12,0,0,1,.12-.14l.41-.06.54,0a.15.15,0,0,1,.12.08c.07.21.12.43.18.65A3.69,3.69,0,0,1,72.54,115.55Z"/></g><path class="cls-1" d="M75.18,54.18a1.25,1.25,0,0,1,1.09-.67,2.36,2.36,0,0,1,1.56.51.29.29,0,0,0,.29,0,1.73,1.73,0,0,1,1.35.15,2.16,2.16,0,0,1,1.24,1.66,4.81,4.81,0,0,1,0,.54.42.42,0,0,0,.06.25,2.52,2.52,0,0,1,.67,1.44,1.25,1.25,0,0,1,0,.15,1.23,1.23,0,0,1-.58,1.08c0,.21.06.41.06.62a1.75,1.75,0,0,1-.78,1.49,1.79,1.79,0,0,1-1.07.3,2.18,2.18,0,0,1-1.42-.53,1.77,1.77,0,0,1-.24-.22c-.09-.11-.21-.07-.36,0a1.63,1.63,0,0,1-1.33-.28,5,5,0,0,1-.55-.58.68.68,0,0,0-.17-.14,1.77,1.77,0,0,1-1-1.18,2.62,2.62,0,0,1,0-.69.23.23,0,0,0-.08-.22A2.37,2.37,0,0,1,73,56.61a2,2,0,0,1-.06-.94,1.71,1.71,0,0,1,1.28-1.39A6.83,6.83,0,0,1,75.18,54.18Z"/><path class="cls-1" d="M83.37,100.9a1.25,1.25,0,0,1-1.13-.6,2.36,2.36,0,0,1-.35-1.6.29.29,0,0,0-.11-.27,1.73,1.73,0,0,1-.56-1.24,2.16,2.16,0,0,1,.8-1.91,4.81,4.81,0,0,1,.47-.26.42.42,0,0,0,.18-.18,2.52,2.52,0,0,1,.91-1.31l.13-.08a1.23,1.23,0,0,1,1.22,0c.17-.13.33-.26.5-.37A1.75,1.75,0,0,1,87.11,93a1.79,1.79,0,0,1,.81.77,2.18,2.18,0,0,1,.26,1.49,1.77,1.77,0,0,1-.07.32c-.05.13,0,.22.14.33a1.63,1.63,0,0,1,.43,1.29,5,5,0,0,1-.22.77.68.68,0,0,0,0,.22,1.77,1.77,0,0,1-.53,1.43,2.62,2.62,0,0,1-.58.38c-.09,0-.14.09-.15.18a2.37,2.37,0,0,1-.63,1.37,2,2,0,0,1-.78.53,1.71,1.71,0,0,1-1.85-.4A6.83,6.83,0,0,1,83.37,100.9Z"/><g id="sXR9tX-4" data-name="sXR9tX"><path class="cls-1" d="M117,93a1.37,1.37,0,0,1,1.21,1.23,5.13,5.13,0,0,1-.27,2.82.56.56,0,0,0,0,.48,3.28,3.28,0,0,1,.17,2.23,5.08,5.08,0,0,1-1.93,3.15,7.47,7.47,0,0,1-.74.37.82.82,0,0,0-.32.28,5.53,5.53,0,0,1-1.8,2.09l-.21.12a1.31,1.31,0,0,1-1.63-.14c-.28.19-.55.39-.83.55a1.86,1.86,0,0,1-2.24-.16,2.4,2.4,0,0,1-.71-1.47,4.84,4.84,0,0,1,.34-2.62,4.38,4.38,0,0,1,.23-.54c.13-.22,0-.39,0-.59a3.3,3.3,0,0,1,0-2.3,12.39,12.39,0,0,1,.64-1.29,1.68,1.68,0,0,0,.14-.37,4.24,4.24,0,0,1,1.35-2.38,4.33,4.33,0,0,1,.94-.56.46.46,0,0,0,.28-.28,5.61,5.61,0,0,1,1.46-2.25,3.32,3.32,0,0,1,1.27-.77,1.74,1.74,0,0,1,2.25,1A10.8,10.8,0,0,1,117,93Z"/><path class="cls-1" d="M94.68,94.48c-.31,1.63-1.43,2.61-2.43,2.11l4.93-11.42a1,1,0,0,1,.63.58,2.25,2.25,0,0,1-.3,2.37c-.06.08-.12.15-.2.25a2,2,0,0,1,.34,1.54.22.22,0,0,0,.06.14,2.13,2.13,0,0,1,.06,2.69,1.84,1.84,0,0,1-1.59.89.26.26,0,0,0-.18.08A1.94,1.94,0,0,1,94.68,94.48Z"/><path class="cls-1" d="M106.75,95,106,96.82a82.61,82.61,0,0,0-7.84-3.58l.64-1.49A82.31,82.31,0,0,0,106.75,95Z"/><path class="cls-1" d="M108.3,93.47a2.75,2.75,0,0,0-.31.35c-.19.3-.38.61-.55.92A15.63,15.63,0,0,0,106,98.48a3.65,3.65,0,0,0,0,.51l.1,0a4,4,0,0,0,.35-.4c.17-.25.31-.52.47-.78,0,0,.1-.07.15-.1s0,.14,0,.18c-.39.67-.79,1.33-1.19,2a.26.26,0,0,1-.09.09l-.23.1c0-.08-.09-.16-.09-.23a2.38,2.38,0,0,1,.08-.63c.34-1,.68-2.06,1.07-3.08A15.94,15.94,0,0,1,108.19,93a4,4,0,0,1,.43-.51.16.16,0,0,1,.3.13,4.21,4.21,0,0,1-.1.77c-.14.52-.31,1-.48,1.56,0,.08-.12.13-.19.19a.89.89,0,0,1,0-.25c.08-.33.18-.65.25-1a1.8,1.8,0,0,0,0-.36Z"/><path class="cls-1" d="M107.85,98l-1-.65a.23.23,0,0,1-.11-.31c.09-.24.18-.48.28-.72s.27-.62.43-.92a.28.28,0,0,1,.24-.12c.41.09.81.2,1.22.31A6.86,6.86,0,0,1,107.85,98Z"/></g><g id="sXR9tX-5" data-name="sXR9tX"><path class="cls-1" d="M27.79,103.83a1.27,1.27,0,0,1-1.61,0,4.78,4.78,0,0,1-1.72-2,.52.52,0,0,0-.34-.29,3.06,3.06,0,0,1-1.61-1.32,4.73,4.73,0,0,1-.88-3.33,7,7,0,0,1,.22-.74.77.77,0,0,0,0-.39,5.16,5.16,0,0,1-.25-2.56,1.89,1.89,0,0,1,.05-.22,1.22,1.22,0,0,1,1.14-1c.06-.31.09-.62.17-.91a1.74,1.74,0,0,1,1.55-1.41,2.24,2.24,0,0,1,1.45.47,4.51,4.51,0,0,1,1.55,1.92,4.09,4.09,0,0,1,.21.5c.06.23.24.28.43.36a3.08,3.08,0,0,1,1.54,1.5,11.55,11.55,0,0,1,.46,1.26,1.57,1.57,0,0,0,.16.33,4,4,0,0,1,.73,2.45,4,4,0,0,1-.23,1,.43.43,0,0,0,0,.37,5.23,5.23,0,0,1,.58,2.43,3.09,3.09,0,0,1-.3,1.36,1.62,1.62,0,0,1-2.13.87A10.07,10.07,0,0,1,27.79,103.83Z"/><path class="cls-1" d="M41.16,87.82c-.9-1.26-.84-2.64.14-3L45.83,95.5a1,1,0,0,1-.8.05,2.1,2.1,0,0,1-1.4-1.73c0-.09,0-.18,0-.3a1.87,1.87,0,0,1-1.26-.76.2.2,0,0,0-.13-.05A2,2,0,0,1,40.35,91a1.71,1.71,0,0,1,.42-1.64.24.24,0,0,0,.06-.17A1.81,1.81,0,0,1,41.16,87.82Z"/><path class="cls-1" d="M33,95.63l-.73-1.71a77,77,0,0,0,7.46-3l.59,1.4A76.74,76.74,0,0,0,33,95.63Z"/><path class="cls-1" d="M33.07,97.65a2.56,2.56,0,0,0,0-.43c-.08-.32-.16-.65-.27-1a14.57,14.57,0,0,0-1.58-3.41,3.41,3.41,0,0,0-.31-.36l-.1,0a3.7,3.7,0,0,0,0,.5c.06.28.15.54.22.82,0,0,0,.11,0,.17s-.13-.06-.14-.1c-.2-.69-.38-1.39-.57-2.09a.25.25,0,0,1,0-.12c0-.08.05-.15.08-.22s.17,0,.22.09A2.22,2.22,0,0,1,31,92c.47.9,1,1.79,1.39,2.7a14.86,14.86,0,0,1,1.11,3.17,3.72,3.72,0,0,1,.07.62.15.15,0,0,1-.28.12,3.93,3.93,0,0,1-.45-.56c-.26-.43-.5-.88-.74-1.33,0-.07,0-.17,0-.25a.83.83,0,0,1,.18.15c.17.26.33.54.5.8a1.68,1.68,0,0,0,.23.24Z"/><path class="cls-1" d="M30.32,94.45l1.09-.27a.21.21,0,0,1,.28.12c.1.22.21.43.3.65s.24.58.34.88a.26.26,0,0,1-.07.24c-.32.22-.66.42-1,.63A6.39,6.39,0,0,1,30.32,94.45Z"/></g><circle class="cls-1" cx="90.02" cy="50.75" r="1.03"/><path class="cls-6" d="M71.83,90.25a.07.07,0,0,1-.08-.07V86.8s0-.06.08-.06h.59s.07,0,.07.06v2.71h1.35a.08.08,0,0,1,.08.07v.6a.07.07,0,0,1-.08.07Z"/><path class="cls-6" d="M76.14,90.2a.16.16,0,0,1-.12.06H74.71a.16.16,0,0,1-.13-.06l-.28-.28a.17.17,0,0,1-.06-.13V87.21a.2.2,0,0,1,.06-.13l.28-.28a.17.17,0,0,1,.13-.06H76a.13.13,0,0,1,.13.06l.29.28a.18.18,0,0,1,.05.13v2.57a.2.2,0,0,1-.05.13Zm-.42-.75a0,0,0,0,0,0,0V87.62a.05.05,0,0,0,0,0l-.08-.08,0,0h-.49l0,0-.09.08a.05.05,0,0,0,0,0v1.79a.07.07,0,0,0,0,0l.07.07h.58Z"/><path class="cls-6" d="M78.85,90.2a.18.18,0,0,1-.14.06h-1.3a.18.18,0,0,1-.13-.06L77,89.92a.16.16,0,0,1-.05-.13V87.21a.18.18,0,0,1,.05-.13l.28-.28a.15.15,0,0,1,.13-.06h1.3a.17.17,0,0,1,.13.06l.28.28a.16.16,0,0,1,.06.13v.54a.08.08,0,0,1-.07.07h-.6a.07.07,0,0,1-.07-.07v-.13a0,0,0,0,0,0,0l-.09-.09,0,0h-.49l0,0-.08.09s0,0,0,0V89.4a0,0,0,0,0,0,0l.07.07h.58l.07-.07a.05.05,0,0,0,0,0v-.15a.07.07,0,0,1,.07-.07h.6a.08.08,0,0,1,.07.07v.57s0,0-.06.09Z"/><path class="cls-6" d="M81.47,90.25a.1.1,0,0,1-.09-.07l-.12-.41h-1l-.12.41a.1.1,0,0,1-.09.07h-.57c-.07,0-.09,0-.08-.07l1-3.37s0-.07.07-.07h.6s.06,0,.07.08l1,3.36s0,.07-.08.07Zm-.71-2.19-.31,1h.61Z"/><path class="cls-6" d="M82.68,90.25a.07.07,0,0,1-.07-.06V87.48H82a.07.07,0,0,1-.08-.07v-.59a.08.08,0,0,1,.08-.08h2a.08.08,0,0,1,.08.08v.59a.07.07,0,0,1-.08.07h-.64v2.71a.07.07,0,0,1-.07.06Z"/><path class="cls-6" d="M84.48,90.25a.07.07,0,0,1-.07-.07V86.81a.07.07,0,0,1,.07-.07h.6a.07.07,0,0,1,.07.07v3.37a.07.07,0,0,1-.07.07Z"/><path class="cls-6" d="M87.54,90.2a.16.16,0,0,1-.12.06H86.12A.16.16,0,0,1,86,90.2l-.28-.28a.17.17,0,0,1-.06-.13V87.21a.2.2,0,0,1,.06-.13L86,86.8a.17.17,0,0,1,.13-.06h1.3a.13.13,0,0,1,.13.06l.29.28a.18.18,0,0,1,.05.13v2.57a.2.2,0,0,1-.05.13Zm-.42-.75a0,0,0,0,0,0,0V87.62a.05.05,0,0,0,0,0L87,87.5l0,0h-.49l0,0-.09.08a.05.05,0,0,0,0,0v1.79a.07.07,0,0,0,0,0l.07.07h.58Z"/><path class="cls-6" d="M89.82,90.25a.11.11,0,0,1-.09-.07l-.61-1.68v1.68a.08.08,0,0,1-.07.07h-.6a.07.07,0,0,1-.07-.07V86.81a.07.07,0,0,1,.07-.07h.73s.06,0,.08.07l.66,1.93,0,.06v-2a.07.07,0,0,1,.07-.07h.6a.07.07,0,0,1,.07.07v3.37a.07.07,0,0,1-.07.07Z"/></svg>