<svg id="Layer_1" data-name="Layer 1" xmlns="http://www.w3.org/2000/svg" viewBox="0 0 137.33 137.33"><defs><style>.cls-1{fill:#f9f8cd;}.cls-14,.cls-2{fill:#c46e4a;}.cls-3{fill:#9f5840;}.cls-4,.cls-5{fill:none;}.cls-13,.cls-14,.cls-4,.cls-5,.cls-6,.cls-7,.cls-8{stroke:#2e1714;}.cls-10,.cls-13,.cls-14,.cls-4,.cls-5,.cls-6,.cls-7,.cls-8,.cls-9{stroke-miterlimit:10;}.cls-13,.cls-5,.cls-6,.cls-7,.cls-8{stroke-width:0.75px;}.cls-6{fill:#3a3835;}.cls-12,.cls-7{fill:#6a675f;}.cls-15,.cls-8{fill:#fff;}.cls-13,.cls-9{fill:#ee8f49;}.cls-9{stroke:#000;}.cls-10{fill:#98b2ac;stroke:#231f20;}.cls-11{fill:#c2d4cf;}</style></defs><title>Artboard 3 copy 8</title><circle class="cls-1" cx="65.79" cy="68.53" r="50.06"/><path class="cls-2" d="M23.48,95.55a50,50,0,0,0,84.61,0Z"/><polygon class="cls-3" points="104.03 100.65 27.39 100.65 23.48 95.55 108.1 95.55 104.03 100.65"/><line class="cls-4" x1="123.59" y1="95.77" x2="119.87" y2="95.77"/><circle class="cls-5" cx="65.62" cy="68.53" r="50.06"/><line class="cls-4" x1="12.38" y1="95.77" x2="118.98" y2="95.77"/><rect class="cls-6" x="14.57" y="91.75" width="101.75" height="4.02" rx="2.01" ry="2.01"/><rect x="60.52" y="93.1" width="9.85" height="1.32" rx="0.66" ry="0.66"/><path class="cls-7" d="M24.63,33.4H107a4.38,4.38,0,0,1,4.38,4.38v54a0,0,0,0,1,0,0H20.24a0,0,0,0,1,0,0v-54A4.38,4.38,0,0,1,24.63,33.4Z"/><path class="cls-8" d="M29,37.26h73.73a4.38,4.38,0,0,1,4.38,4.38V91.75a0,0,0,0,1,0,0H24.63a0,0,0,0,1,0,0V41.64A4.38,4.38,0,0,1,29,37.26Z"/><circle class="cls-9" cx="94.56" cy="58.45" r="17.99"/><circle class="cls-10" cx="94.56" cy="58.45" r="14.98"/><path class="cls-11" d="M89.64,48.1a11.79,11.79,0,1,1,12.22,20.16c-5.57,3.38,3.78-8.46.4-14S84.08,51.47,89.64,48.1Z"/><path class="cls-11" d="M100,57.54A5.82,5.82,0,1,1,89.4,52.75c1.32-2.93,1.36,3.34,4.29,4.66S101.34,54.61,100,57.54Z"/><rect class="cls-12" x="30.04" y="40.46" width="41.32" height="3.01"/><rect class="cls-12" x="30.04" y="45.46" width="41.32" height="3.01"/><rect class="cls-12" x="30.04" y="50.44" width="41.32" height="3.01"/><rect class="cls-12" x="30.04" y="55.44" width="41.32" height="3.01"/><rect class="cls-12" x="30.04" y="60.52" width="41.32" height="3.01"/><rect class="cls-12" x="30.04" y="65.52" width="45.07" height="3.01"/><rect class="cls-12" x="30.04" y="70.51" width="48.31" height="2.92"/><rect class="cls-12" x="30.04" y="75.51" width="56.1" height="3.01"/><rect class="cls-12" x="30.04" y="80.5" width="72.27" height="3.48"/><rect class="cls-12" x="30.04" y="85.5" width="72.27" height="3.01"/><rect class="cls-13" x="112.9" y="68.68" width="4.56" height="27.14" rx="2.28" ry="2.28" transform="translate(-25.57 97.1) rotate(-41.55)"/><rect class="cls-14" x="119.87" y="88.01" width="5.09" height="5.09" rx="2.54" ry="2.54"/><path class="cls-15" d="M31.85,100a.11.11,0,0,1-.09-.07l-.49-1.23H31v1.23A.07.07,0,0,1,31,100h-.6a.08.08,0,0,1-.07-.07V96.57a.07.07,0,0,1,.07-.07H32a.19.19,0,0,1,.13.05l.29.29a.15.15,0,0,1,.05.14v1.27a.15.15,0,0,1-.05.13l-.3.3.51,1.27s0,.07-.05.07Zm-.17-2.13a.06.06,0,0,0,0,0v-.46s0,0,0-.05l-.08-.08a.08.08,0,0,0-.07,0H31V98h.53l0,0Z"/><path class="cls-15" d="M33,100a.07.07,0,0,1-.07-.07V96.57A.07.07,0,0,1,33,96.5h1.83a.07.07,0,0,1,.07.07v.6a.07.07,0,0,1-.07.07H33.66v.64h.89a.07.07,0,0,1,.07.07v.6a.07.07,0,0,1-.07.07h-.89v.65h1.16a.07.07,0,0,1,.07.07v.6a.07.07,0,0,1-.07.07Z"/><path class="cls-15" d="M37.13,100A.21.21,0,0,1,37,100H35.7a.16.16,0,0,1-.13-.06l-.28-.28a.22.22,0,0,1-.06-.14V99a.07.07,0,0,1,.08-.07h.59A.07.07,0,0,1,36,99v.23h.63l0,0,.09-.08a0,0,0,0,0,0,0v-.38a.06.06,0,0,0,0-.05l-.08-.07,0,0h-.9a.16.16,0,0,1-.13-.06l-.28-.28a.18.18,0,0,1-.06-.13V97a.18.18,0,0,1,.06-.13l.28-.28a.15.15,0,0,1,.13-.06H37a.16.16,0,0,1,.13.06l.28.28a.19.19,0,0,1,.06.14v.52a.07.07,0,0,1-.08.07H36.8a.07.07,0,0,1-.07-.07v-.25h-.62l0,0-.08.08a.05.05,0,0,0,0,0v.4a.05.05,0,0,0,0,0l.07.07H37a.14.14,0,0,1,.13.06l.28.28a.15.15,0,0,1,.06.13v1.19a.18.18,0,0,1-.06.13Z"/><path class="cls-15" d="M39.83,100a.16.16,0,0,1-.12.06H38.4a.16.16,0,0,1-.13-.06L38,99.67a.17.17,0,0,1-.06-.13V97a.2.2,0,0,1,.06-.13l.28-.28a.17.17,0,0,1,.13-.06h1.3a.13.13,0,0,1,.13.06l.29.28a.18.18,0,0,1,.05.13v2.57a.2.2,0,0,1-.05.13Zm-.42-.75a0,0,0,0,0,0,0V97.38a.05.05,0,0,0,0,0l-.08-.08,0,0h-.49l0,0-.09.08a.05.05,0,0,0,0,0v1.79a.07.07,0,0,0,0,0l.07.07h.58Z"/><path class="cls-15" d="M42.55,100a.16.16,0,0,1-.13.06h-1.3A.17.17,0,0,1,41,100l-.28-.29a.16.16,0,0,1-.06-.13v-3a.07.07,0,0,1,.07-.07h.6a.07.07,0,0,1,.07.07v2.59s0,0,0,0l.07.07h.58l.07-.07a.05.05,0,0,0,0,0V96.57a.07.07,0,0,1,.07-.07h.59a.07.07,0,0,1,.07.07v3a.19.19,0,0,1-.05.13Z"/><path class="cls-15" d="M44.94,100a.11.11,0,0,1-.09-.07l-.49-1.23h-.23v1.23a.07.07,0,0,1-.07.07h-.6a.08.08,0,0,1-.07-.07V96.57a.07.07,0,0,1,.07-.07h1.6a.19.19,0,0,1,.13.05l.29.29a.15.15,0,0,1,.05.14v1.27a.15.15,0,0,1-.05.13l-.3.3.51,1.27s0,.07-.05.07Zm-.17-2.13a.06.06,0,0,0,0,0v-.46s0,0,0-.05l-.08-.08a.08.08,0,0,0-.07,0h-.5V98h.53l0,0Z"/><path class="cls-15" d="M47.88,100a.18.18,0,0,1-.14.06h-1.3a.18.18,0,0,1-.13-.06L46,99.67a.16.16,0,0,1-.05-.13V97a.18.18,0,0,1,.05-.13l.28-.28a.15.15,0,0,1,.13-.06h1.3a.17.17,0,0,1,.13.06l.28.28a.16.16,0,0,1,.06.13v.54a.08.08,0,0,1-.07.07h-.6a.07.07,0,0,1-.07-.07v-.13a0,0,0,0,0,0,0l-.09-.09,0,0h-.49l0,0-.08.09s0,0,0,0v1.77a0,0,0,0,0,0,0l.07.07h.58l.07-.07a.05.05,0,0,0,0,0V99a.07.07,0,0,1,.07-.07h.6a.08.08,0,0,1,.07.07v.57s0,0-.06.09Z"/><path class="cls-15" d="M48.73,100a.07.07,0,0,1-.07-.07V96.57a.07.07,0,0,1,.07-.07h1.83a.07.07,0,0,1,.07.07v.6a.07.07,0,0,1-.07.07H49.4v.64h.89a.07.07,0,0,1,.07.07v.6a.07.07,0,0,1-.07.07H49.4v.65h1.16a.07.07,0,0,1,.07.07v.6a.07.07,0,0,1-.07.07Z"/><path class="cls-15" d="M52.87,100a.21.21,0,0,1-.13.06h-1.3a.16.16,0,0,1-.13-.06L51,99.67a.22.22,0,0,1-.06-.14V99A.07.07,0,0,1,51,99h.59a.07.07,0,0,1,.07.07v.23h.63l0,0,.09-.08a0,0,0,0,0,0,0v-.38a.06.06,0,0,0,0-.05l-.08-.07,0,0h-.9a.16.16,0,0,1-.13-.06L51,98.29a.18.18,0,0,1-.06-.13V97a.18.18,0,0,1,.06-.13l.28-.28a.15.15,0,0,1,.13-.06h1.3a.16.16,0,0,1,.13.06l.28.28a.19.19,0,0,1,.06.14v.52a.07.07,0,0,1-.08.07h-.59a.07.07,0,0,1-.07-.07v-.25h-.62l0,0-.08.08a.05.05,0,0,0,0,0v.4a.05.05,0,0,0,0,0l.07.07h.94a.14.14,0,0,1,.13.06l.28.28a.15.15,0,0,1,.06.13v1.19a.18.18,0,0,1-.06.13Z"/></svg>