<svg id="Layer_1" data-name="Layer 1" xmlns="http://www.w3.org/2000/svg" viewBox="0 0 137.33 137.33"><defs><style>.cls-1{fill:#ee8f49;}.cls-11,.cls-2{fill:#c46e4a;}.cls-3{fill:#9f5840;}.cls-4,.cls-9{fill:none;}.cls-11,.cls-4,.cls-5,.cls-6,.cls-8,.cls-9{stroke:#2e1714;}.cls-11,.cls-4,.cls-5,.cls-6,.cls-7,.cls-8,.cls-9{stroke-miterlimit:10;}.cls-11,.cls-4,.cls-5,.cls-6,.cls-8{stroke-width:0.75px;}.cls-12,.cls-5{fill:#fff;}.cls-6,.cls-7{fill:#98b2ac;}.cls-7{stroke:#231f20;}.cls-8{fill:#f9f8cd;}.cls-10{fill:#c2d4cf;}.cls-13{fill:#2e1714;}</style></defs><title>Artboard 3</title><circle class="cls-1" cx="68.7" cy="68.53" r="50.06"/><path class="cls-2" d="M26.39,95.55a50,50,0,0,0,84.61,0Z"/><path class="cls-3" d="M71.06,95.55l-.25,0L41.2,99.79a2.82,2.82,0,0,0-1.64,4.74l10.09,10.57s-14.89-5.76-23.25-19.56Z"/><circle class="cls-4" cx="68.7" cy="68.7" r="50.06"/><rect class="cls-5" x="27.58" y="46.79" width="82.58" height="49.15"/><rect class="cls-6" x="38.55" y="59.34" width="15.71" height="33.78"/><rect class="cls-7" x="65.34" y="59.34" width="33.64" height="18.47"/><rect class="cls-5" x="27.98" y="38.52" width="82.58" height="2.42"/><path class="cls-8" d="M45.83,47.49H36.89c0-.06,0-.11,0-.17v.17h-9a4.63,4.63,0,0,0,9,2.15,4.63,4.63,0,1,0,9-2.32Z"/><path class="cls-8" d="M64.13,47.49h-9c0-.06,0-.11,0-.17v.17h-9a4.63,4.63,0,0,0,9,2,4.63,4.63,0,1,0,9-2.2Z"/><path class="cls-8" d="M73.4,47.49h-9a4.64,4.64,0,1,0,9-.17Z"/><path class="cls-8" d="M91.47,47.49H82.71c0-.06,0-.11,0-.17v.17h-9A4.63,4.63,0,0,0,82.59,50a4.63,4.63,0,0,0,8.88-2.64Z"/><path class="cls-8" d="M100.74,47.49h-9a4.64,4.64,0,1,0,9-.17Z"/><path class="cls-8" d="M110,47.32v.17h-9a4.64,4.64,0,1,0,9-.17Z"/><rect class="cls-5" x="63.9" y="77.81" width="36.27" height="2.02"/><rect class="cls-5" x="35.93" y="93.12" width="20.94" height="2.61"/><line class="cls-9" x1="14.86" y1="95.94" x2="121.47" y2="95.94"/><rect class="cls-8" x="27.58" y="46.79" width="82.58" height="2.42"/><rect class="cls-5" x="24.36" y="40.61" width="89.83" height="6.45"/><polygon class="cls-10" points="67.8 77.81 80.59 59.34 84.93 59.34 71.4 77.81 67.8 77.81"/><polygon class="cls-10" points="74.05 77.81 86.91 59.34 88.53 59.34 75.88 77.81 74.05 77.81"/><rect class="cls-4" x="65.34" y="59.34" width="33.64" height="18.47"/><polygon class="cls-10" points="38.55 84.25 54.26 63.86 54.26 67.62 38.55 87.29 38.55 84.25"/><polygon class="cls-10" points="38.55 89.35 54.26 69.84 54.26 72.98 38.55 91.31 38.55 89.35"/><rect class="cls-4" x="38.55" y="59.34" width="15.71" height="33.78"/><line class="cls-9" x1="14.14" y1="95.94" x2="10.42" y2="95.94"/><line class="cls-9" x1="126.07" y1="95.94" x2="122.36" y2="95.94"/><circle class="cls-11" cx="68.92" cy="31.16" r="12.53"/><path class="cls-12" d="M64.26,33a.3.3,0,0,1-.18.08H62.25a.23.23,0,0,1-.18-.08l-.39-.4a.3.3,0,0,1-.08-.2v-.68a.1.1,0,0,1,.11-.1h.83a.1.1,0,0,1,.1.1V32h.89l0,0,.12-.11a.06.06,0,0,0,0,0v-.54a.08.08,0,0,0,0-.07l-.11-.1,0,0H62.25a.23.23,0,0,1-.18-.08l-.39-.4a.25.25,0,0,1-.08-.18V28.8a.25.25,0,0,1,.08-.18l.39-.4a.21.21,0,0,1,.18-.08h1.83a.23.23,0,0,1,.18.08l.39.4a.27.27,0,0,1,.08.19v.73a.1.1,0,0,1-.11.1H63.8a.1.1,0,0,1-.1-.1v-.35h-.87l0,0-.11.11a.07.07,0,0,0,0,.06v.56a.07.07,0,0,0,0,0l.1.1h1.32a.2.2,0,0,1,.18.08l.39.39a.21.21,0,0,1,.08.18v1.67a.25.25,0,0,1-.08.18Z"/><path class="cls-12" d="M67.62,33.07a.1.1,0,0,1-.1-.1V31.12H66.46V33a.1.1,0,0,1-.1.1h-.84a.1.1,0,0,1-.1-.1V28.24a.1.1,0,0,1,.1-.1h.84a.1.1,0,0,1,.1.1v1.84h1.06V28.24a.1.1,0,0,1,.1-.1h.84a.1.1,0,0,1,.1.1V33a.1.1,0,0,1-.1.1Z"/><path class="cls-12" d="M71.92,33a.22.22,0,0,1-.16.08H69.92a.23.23,0,0,1-.18-.08l-.39-.4a.24.24,0,0,1-.08-.18V28.8a.28.28,0,0,1,.08-.18l.39-.4a.24.24,0,0,1,.18-.08h1.82a.19.19,0,0,1,.18.08l.4.4a.25.25,0,0,1,.07.18v3.61a.27.27,0,0,1-.07.18Zm-.59-1.06a.06.06,0,0,0,0,0V29.37a.07.07,0,0,0,0-.06l-.11-.11a.06.06,0,0,0,0,0h-.68l0,0-.12.11a.07.07,0,0,0,0,.06v2.51a.09.09,0,0,0,0,0l.1.1h.82Z"/><path class="cls-12" d="M73.2,33.07a.1.1,0,0,1-.1-.1V28.24a.1.1,0,0,1,.1-.1h2.25a.23.23,0,0,1,.18.07l.4.4a.23.23,0,0,1,.08.18v1.8a.22.22,0,0,1-.08.19l-.4.4a.23.23,0,0,1-.17.07H74.14V33a.11.11,0,0,1-.11.1Zm1.84-3a.06.06,0,0,0,0,0v-.68a.05.05,0,0,0,0,0l-.12-.12-.06,0h-.73v1h.73a.07.07,0,0,0,.06,0Z"/><path class="cls-13" d="M122.07,70.43a.55.55,0,0,0-.39,0l-.9.33,2.46-1.09a.55.55,0,0,0-.19-.64l-1.53-1.12.94,1.71a44.9,44.9,0,0,0,0-4.78l-3.23,6.33a.55.55,0,0,1-.3.27l-2.8,1a.55.55,0,0,1-.73-.51V64.17a.55.55,0,0,1,.24-.45l3-2a.55.55,0,0,0,.2-.25l1.61-4.06L118.83,60a.55.55,0,0,1-.13.14l-2.41,1.82a.55.55,0,0,1-.88-.44V56.81a.55.55,0,0,0,0-.17l-1.64-4.92.82,5.48a.55.55,0,0,1,0,.22l-.79,2.93a.55.55,0,0,0,0,.14v5.75a.55.55,0,0,1-.83.47L107,63.12a.55.55,0,0,0-.44-.06l-7,2L96.14,63l3.33,3.33,6.76-2.16,7.27,4.93a.55.55,0,0,1,.24.45v2.62a.55.55,0,0,1-.28.48l-4.13,2.28A.55.55,0,0,1,109,75l.47-.63-.12,1.7a.55.55,0,0,0,.41,0l3.18-1.69a.55.55,0,0,1,.8.48V96.1h1.67V74.43a.55.55,0,0,1,.3-.49L121,71.81a.55.55,0,0,1,.35-.05l10.43,2.51Z"/><rect class="cls-8" x="94.6" y="58.87" width="12.84" height="7.86" rx="2.78" ry="2.78"/><rect class="cls-8" x="110.98" y="49.66" width="13.47" height="13.65" rx="2.72" ry="2.72"/><rect class="cls-8" x="108.86" y="65.15" width="23.75" height="13.65" rx="2.72" ry="2.72"/><path class="cls-13" d="M15.26,70.15a.55.55,0,0,1,.39,0l.9.33-2.46-1.09a.55.55,0,0,1,.19-.64l1.53-1.12-.94,1.71a44.9,44.9,0,0,1,0-4.78l3.23,6.33a.55.55,0,0,0,.3.27l2.8,1a.55.55,0,0,0,.73-.51V63.89a.55.55,0,0,0-.24-.45l-3-2a.55.55,0,0,1-.2-.25l-1.61-4.06,1.62,2.56a.55.55,0,0,0,.13.14L21,61.66a.55.55,0,0,0,.88-.44V56.53a.55.55,0,0,1,0-.17l1.64-4.92-.82,5.48a.55.55,0,0,0,0,.22l.79,2.93a.55.55,0,0,1,0,.14V66a.55.55,0,0,0,.83.47l5.89-3.58a.55.55,0,0,1,.44-.06l7,2,3.43-2.11-3.33,3.33L31.1,63.89l-7.27,4.93a.55.55,0,0,0-.24.45V71.9a.55.55,0,0,0,.28.48L28,74.66a.55.55,0,0,0,.33.06l-.47-.63.12,1.7a.55.55,0,0,1-.41,0l-3.18-1.69a.55.55,0,0,0-.8.48V95.82H21.92V74.15a.55.55,0,0,0-.3-.49l-5.25-2.13a.55.55,0,0,0-.35-.05L5.59,74Z"/><rect class="cls-8" x="29.9" y="59.18" width="12.84" height="7.86" rx="2.78" ry="2.78" transform="translate(72.64 126.21) rotate(-180)"/><rect class="cls-8" x="12.88" y="49.38" width="13.47" height="13.65" rx="2.72" ry="2.72" transform="translate(39.23 112.4) rotate(-180)"/><rect class="cls-8" x="4.73" y="64.87" width="23.75" height="13.65" rx="2.72" ry="2.72" transform="translate(33.21 143.39) rotate(-180)"/></svg>