<svg id="Layer_1" data-name="Layer 1" xmlns="http://www.w3.org/2000/svg" viewBox="0 0 137.33 137.33"><defs><style>.cls-1{fill:#ee8f49;stroke:#000;}.cls-1,.cls-11,.cls-14,.cls-4,.cls-5,.cls-6,.cls-7,.cls-8,.cls-9{stroke-miterlimit:10;}.cls-1,.cls-11,.cls-4,.cls-5,.cls-6,.cls-7,.cls-8{stroke-width:0.75px;}.cls-11,.cls-2{fill:#c46e4a;}.cls-3{fill:#9f5840;}.cls-4,.cls-9{fill:none;}.cls-11,.cls-14,.cls-4,.cls-5,.cls-7,.cls-8,.cls-9{stroke:#2e1714;}.cls-12,.cls-5{fill:#fff;}.cls-6,.cls-7{fill:#98b2ac;}.cls-6{stroke:#231f20;}.cls-14,.cls-8{fill:#f9f8cd;}.cls-10{fill:#c2d4cf;}.cls-13{fill:#2e1714;}.cls-14{stroke-width:0.25px;}</style></defs><title>Artboard 3 copy 2</title><circle class="cls-1" cx="68.16" cy="68.53" r="50.06"/><path class="cls-2" d="M25.86,95.55a50,50,0,0,0,84.61,0Z"/><path class="cls-3" d="M70.52,95.55l-.25,0-29.6,4.21A2.82,2.82,0,0,0,39,104.54l10.09,10.57s-14.89-5.76-23.25-19.56Z"/><circle class="cls-4" cx="68.16" cy="68.7" r="50.06"/><rect class="cls-5" x="27.04" y="46.79" width="82.58" height="49.15"/><rect class="cls-6" x="38.02" y="59.34" width="15.71" height="33.78"/><rect class="cls-7" x="64.81" y="59.34" width="33.64" height="18.47"/><rect class="cls-5" x="27.45" y="38.52" width="82.58" height="2.42"/><path class="cls-8" d="M45.3,47.49H36.36c0-.06,0-.11,0-.17v.17h-9a4.63,4.63,0,0,0,9,2.15,4.63,4.63,0,1,0,9-2.32Z"/><path class="cls-8" d="M63.6,47.49h-9c0-.06,0-.11,0-.17v.17h-9a4.63,4.63,0,0,0,9,2,4.63,4.63,0,1,0,9-2.2Z"/><path class="cls-8" d="M72.87,47.49h-9a4.64,4.64,0,1,0,9-.17Z"/><path class="cls-8" d="M109.47,47.32v.17h-9a4.64,4.64,0,1,0,9-.17Z"/><rect class="cls-4" x="63.36" y="78.82" width="36.27" height="2.02" transform="translate(4.41 -4.26) rotate(3.08)"/><rect class="cls-9" x="35.4" y="93.12" width="20.94" height="2.61"/><line class="cls-9" x1="14.33" y1="95.94" x2="120.93" y2="95.94"/><rect class="cls-8" x="27.04" y="46.79" width="82.58" height="2.42"/><rect class="cls-5" x="23.82" y="40.61" width="89.83" height="6.45"/><polygon class="cls-10" points="67.26 77.81 80.05 59.34 84.39 59.34 70.86 77.81 67.26 77.81"/><polygon class="cls-10" points="73.51 77.81 86.38 59.34 87.99 59.34 75.35 77.81 73.51 77.81"/><polygon class="cls-9" points="98.44 77.71 64.81 77.81 64.81 59.34 98.44 59.25 98.44 77.71"/><polygon class="cls-10" points="38.02 84.25 53.73 63.86 53.73 67.62 38.02 87.29 38.02 84.25"/><polygon class="cls-10" points="38.02 89.35 53.73 69.84 53.73 72.98 38.02 91.31 38.02 89.35"/><rect class="cls-9" x="38.02" y="59.34" width="15.71" height="33.78"/><line class="cls-9" x1="13.6" y1="95.94" x2="9.89" y2="95.94"/><line class="cls-9" x1="125.54" y1="95.94" x2="121.82" y2="95.94"/><circle class="cls-11" cx="68.38" cy="32.92" r="12.53" transform="translate(-7.05 24.52) rotate(-19.35)"/><path class="cls-12" d="M64.62,36.2a.29.29,0,0,1-.15.13l-1.73.61a.23.23,0,0,1-.2,0l-.5-.24a.31.31,0,0,1-.14-.16l-.23-.65a.1.1,0,0,1,.07-.13l.79-.28a.1.1,0,0,1,.13.06l.11.3.84-.29s0,0,0,0l.08-.15a.07.07,0,0,0,0-.05l-.18-.51a.08.08,0,0,0-.06-.05l-.13-.06h0l-1.2.42a.23.23,0,0,1-.2,0l-.5-.24a.25.25,0,0,1-.13-.15l-.55-1.57a.26.26,0,0,1,0-.2l.24-.5a.21.21,0,0,1,.15-.13l1.73-.61a.23.23,0,0,1,.2,0l.5.24a.28.28,0,0,1,.14.15l.24.69a.1.1,0,0,1-.07.13l-.79.28a.1.1,0,0,1-.13-.06l-.12-.33-.83.29a.07.07,0,0,0,0,0l-.07.14a.08.08,0,0,0,0,.06l.19.53s0,0,0,0l.13.06,1.25-.44a.19.19,0,0,1,.2,0l.5.24a.22.22,0,0,1,.13.15l.55,1.58a.26.26,0,0,1,0,.2Z"/><path class="cls-12" d="M67.81,35.16a.1.1,0,0,1-.13-.06l-.61-1.74-1,.35.61,1.74a.1.1,0,0,1-.06.13l-.79.28a.1.1,0,0,1-.13-.06l-1.57-4.46a.1.1,0,0,1,.06-.13l.79-.28a.1.1,0,0,1,.13.06l.61,1.74,1-.35-.61-1.74a.1.1,0,0,1,.06-.13l.79-.28a.1.1,0,0,1,.13.06l1.57,4.46a.1.1,0,0,1-.06.13Z"/><path class="cls-12" d="M71.85,33.66a.22.22,0,0,1-.13.13L70,34.4a.23.23,0,0,1-.2,0l-.5-.24a.24.24,0,0,1-.13-.15l-1.2-3.41a.28.28,0,0,1,0-.2l.24-.5a.24.24,0,0,1,.15-.13l1.72-.6a.18.18,0,0,1,.2,0l.51.24a.24.24,0,0,1,.13.15L72.1,33a.28.28,0,0,1,0,.2Zm-.9-.8a.06.06,0,0,0,0-.05l-.83-2.37a.07.07,0,0,0,0,0l-.14-.07a.06.06,0,0,0-.05,0l-.65.23s0,0,0,0l-.08.15a.07.07,0,0,0,0,.06l.83,2.37,0,0,.13.06.77-.27Z"/><path class="cls-12" d="M73.08,33.31a.1.1,0,0,1-.13-.06l-1.57-4.46a.1.1,0,0,1,.06-.13l2.12-.74a.24.24,0,0,1,.2,0l.51.25a.23.23,0,0,1,.13.15L75,30a.22.22,0,0,1,0,.21l-.24.51a.24.24,0,0,1-.14.12l-1.24.44.57,1.61a.11.11,0,0,1-.07.13Zm.75-3.42a.07.07,0,0,0,0,0l-.22-.64a.05.05,0,0,0,0,0l-.15-.07h-.06l-.69.24.35,1,.69-.24a.07.07,0,0,0,0,0Z"/><path class="cls-13" d="M90.41,66.44l.33-.21,0,.13.14,0,0,0-.59.41c.16.15.28.13.41,0s.25-.26.36-.4a1.58,1.58,0,0,0,.15-.3l-.06,0-.24.15,0-.3a1.68,1.68,0,0,0,.24-.13c.49-.37,1-.74,1.46-1.1a.28.28,0,0,0,.11-.38c-.12-.37-.22-.75-.33-1.12l.07,0L93,64.44c.16-.16.36-.27.4-.43s-.08-.36-.1-.56l.35.54,1.95-1.36,0,.05-2.67,2,.1.21.5-.29c-.12.22-.46.19-.44.49l-.18,0-.13-.45-2.26,2.41,0,.06.26-.09c-.58.4-.58.4-.61.64a7.56,7.56,0,0,0,.78-.47c.23-.18.43-.41.66-.6l-.11.16.29-.14,0,0-.57.34,0,0,.33-.17-.08.24.24-.11,2.47-1.48a3.07,3.07,0,0,1,1-.51,1.61,1.61,0,0,0,1.21-1,1.9,1.9,0,0,1,.32-.46l-.09.2c-.37.74-.74,1.47-1.1,2.21a.51.51,0,0,1-.39.31c-.8.18-1.6.39-2.4.58l-.19.06,0,.07,3.06-.71a4.63,4.63,0,0,1-1.41.48,13.27,13.27,0,0,0-1.64.34c-.08,0-.14.11-.19.21l.44-.14c-.18.23-.57.13-.6.46-.36,0-.65.19-1,.26l.35.39L93.08,68l-.05.91.35,0v0h-.22c-.13,0-.19,0-.22.17s0,.16.14.21a1,1,0,0,0,.84,0c.53-.23,1.08-.42,1.64-.64l-.07.25,1.58-.42v.3a15.78,15.78,0,0,0-4.12.95l.15-.22c-.26-.14-.32.11-.49.26l.12-.32H91l.09.13H91v0l1.2.33a1.2,1.2,0,0,0-.18.17,1.83,1.83,0,0,0-.13.25h0L92,70l-.3-.09-.23.49c-.21,0-.39-.15-.64,0,.66.32,1.15.86,1.87,1a1.23,1.23,0,0,1-.78-.18c-.33-.23-.68-.42-1-.63l-.17-.08a.12.12,0,0,0,.05.11l1.3.83a.53.53,0,0,0,.25,0l1.63.06.95,0v.05l-.32,0a.31.31,0,0,0,.14.13l2.23,1.11.16.05v.26l-2.36-1.08c-.26-.12-.51-.26-.77-.39a.5.5,0,0,0-.2-.06l-1.49,0c-.15,0-.21,0-.22.19a.31.31,0,0,1-.09.17l-.59.56.06.07L92,72l0,0-.6.63.29.46-.47.25L93,75.87l0,0-.19-.24a30.82,30.82,0,0,1-2.37-3.27c-.08-.13-.16-.21-.32-.09s-.17,0-.3,0l.65,1.51c0-.26-.33-.35-.74-.22a1.21,1.21,0,0,0,.2-.05c.1,0,.22-.08.27-.15S90,73,89.87,73l.14.28,0,0a1.31,1.31,0,0,0-.25-.3.62.62,0,0,0-.39-.07l.19.1-.25,0v.58l-.16-.7h0V74.1H89c0-.21-.07-.42-.11-.63s-.07-.39-.12-.58-.13-.11-.15-.09-.17.14-.17.21c0,.39.07.77.11,1.16l.28,2.65a.35.35,0,0,1,0,.21c-.15-.38-.29-.77-.44-1.15,0-.08-.07-.18-.13-.21s-.18-.21-.16-.37c.06-.65.11-1.3.16-2,0-.17.07-.36-.11-.52l-.08.22,0-.25-.25.52h0l.09-.32c.09-.32.18-.63.27-1a1.81,1.81,0,0,0,0-.32h-.06l-.4.82,0,0,.45-1.05-.05,0-.35.57a.3.3,0,0,1-.05.07.72.72,0,0,0-.21.91c-.28-.07-.31-.05-.4.2a2.14,2.14,0,0,1-.21.47c0-.29.08-.59.14-.88,0-.14.06-.28-.09-.33s-.26-.13-.43,0a2.36,2.36,0,0,0-.41.83c-.12.27-.22.56-.36.82l.33-1-1,1.24c.24-.55.72-1,1-1.5l-.06,0L84.37,75l-.06,0a1.5,1.5,0,0,1,.1-.21c.45-.66.89-1.32,1.36-2a2.65,2.65,0,0,0,.42-1.09,1.15,1.15,0,0,1,.09-.31l.06.16c.07-.11.07-.11-.14-.38l.22.06,0-.46-.67.5,0-.15-.23,0,.66-.46c-.15-.13-.27-.14-.39,0s-.27.28-.39.43a1.33,1.33,0,0,0-.13.29l.06,0,.24-.15,0,.31a1.27,1.27,0,0,0-.22.11c-.48.36-1,.74-1.44,1.09-.2.14-.19.26-.12.47.13.41.23.83.34,1.24l-.05,0-.76-1.31c-.46.18-.09.49-.12.78l-.34-.53L80.75,75l0,0,2.8-2.06-.1-.21-.46.28c.11-.22.44-.19.4-.48l.19,0,.13.45,2.25-2.4,0-.05-.28.08c.28-.19.59-.27.68-.58l0-.06a3.26,3.26,0,0,0-.76.48,1.91,1.91,0,0,1-.88.54l.56-.34,0,0-.33.16.08-.18s-.05,0-.07,0a1.11,1.11,0,0,0-.19.08L82,72.07a1.92,1.92,0,0,1-.75.37c-.3,0-.58.22-.9.29l1.92-1,0-.19h0c.06,0,.14.09.17.07.32-.18.63-.38.95-.57l.12,0,2.1-1.17.16-.11-.13-.28-2.24,1.59s0,0,0,0l-.2-.17-1.83.38a.44.44,0,0,0-.21.17l-1.78,2.27a1.16,1.16,0,0,1-.24.25l.13-.21c.5-.76,1-1.53,1.5-2.29a.55.55,0,0,1,.29-.21l2.48-.61a.31.31,0,0,0,.17-.1c-1,.29-2.08.34-3.07.69A4.82,4.82,0,0,1,82,70.76a17.44,17.44,0,0,0,1.75-.35c.1,0,.17-.13.24-.23l-.52.18c.19-.23.59-.15.64-.47a4.53,4.53,0,0,0,1-.27,4.68,4.68,0,0,0-.31-.37s-.12,0-.17,0l-.73.19c-.14,0-.3,0-.48.07l.05-.87-.67-.08h.45c.28,0,.28,0,.31-.3a1,1,0,0,0-.95-.09c-.47.22-1,.38-1.44.56l-.24.08.06-.23L79,69a.55.55,0,0,1,.47-.31,14,14,0,0,0,3.83-.82l.24-.07-.2.25c.15,0,.26,0,.33-.07s.12-.17.22-.24l-.06.13-.08.17,1.76.07-.09-.17h.11v-.05l-1.14-.32.2-.33h0l-.08.29.3.09.23-.49.58.09,0-.09a6.62,6.62,0,0,0-1.76-.92l0-.07a3.46,3.46,0,0,1,.61.2c.37.2.72.44,1.08.66l.17.1,0,0-.12-.1-1.25-.8a.48.48,0,0,0-.22-.05L81.84,66a.38.38,0,0,1-.23-.07l.28,0,0-.06-3-1.27v-.22l3.36,1.43a1.14,1.14,0,0,0,.39.08c.49,0,1,0,1.48,0,.25,0,.34-.17.24-.31a4,4,0,0,0,.68-.64l0,0-.34.31,0,0,0-.06c.28-.33.28-.33.05-.69l0-.09.23-.12a.56.56,0,0,0,.21-.16h-.23l.15-.11-1.65-2.41,0,0,.28.35a29.89,29.89,0,0,1,2.32,3.2c.08.13.16.21.32.11a.89.89,0,0,1,.3,0L86,63.67c.13.09.13.35.35.27,0,.06-.09.16-.07.2s.06.34.28.4l-.16-.31.06-.07c.11.42.41.34.71.31v-.36h0l.11.51h0V63.38h.07c0,.22.07.44.11.66s.06.37.12.56.14.11.15.1.17-.15.18-.22c0-.33,0-.66,0-1q-.06-1.42-.11-2.84a.84.84,0,0,1,0-.28l.18,1.59h0l.07-.2h0c0,.39,0,.78,0,1.17s0,.92,0,1.38a1.84,1.84,0,0,0,.07.34h.06l.08-.2,0,.23.25-.52h0c-.12.41-.24.81-.35,1.22a2.65,2.65,0,0,0,0,.38h.07l.44-.88h0L88.4,66l.06,0,.11-.18a4.85,4.85,0,0,1,.39-.59.55.55,0,0,0,.16-.58,1.14,1.14,0,0,1,0-.21c.23.08.29.06.37-.17a6.07,6.07,0,0,1,.25-.64c-.06.36-.12.71-.17,1.07,0,.09,0,.25.09.26s.25.14.41,0A3,3,0,0,0,90.56,64a3.82,3.82,0,0,1,.24-.5l-.28.87,1-1.2c-.24.54-.69.94-.94,1.47l.06,0,1.48-2.14.06,0a1.34,1.34,0,0,1-.1.21c-.44.65-.87,1.3-1.33,1.93a2.67,2.67,0,0,0-.45,1.15l-.06.35-.09-.24c-.16.29.21.29.24.46l-.3-.14,0,.49Zm-3.7,3.3c-.16.21.07.21.14.32l.35-.5-.2,0,.39-.27,0-.06-.67.41S86.7,69.72,86.71,69.74Zm.94-2.07a.81.81,0,0,0,0-.26c-.06-.18-.15-.35-.22-.53s-.17-.18-.32-.08l.54.88-.41-.45-.05,0,.46.58.05,0Zm2-1.79.22-.6c-.3,0-.35,0-.36.11s0,.43,0,.66l.11-.09-.12.24c.2,0,.56-.55.56-.94l-.17.25Zm-1.19,5.66c.08-.25,0-.57.28-.72-.36.1-.4.16-.32.51,0,.07,0,.14,0,.21s.06.15.08.23.11.17.23.12V71l-.06,0a.84.84,0,0,0-.14.18A3,3,0,0,0,88.43,71.55Zm3.1-.2c-.25-.19-.41,0-.77.32l.49.67.7-.59-.42-.41.4.26,0-.06-.49-.36,0,0Zm1.55-5,.11.2L95,66.22a.25.25,0,0,0,.15-.07L96,64.86l0,0-1.82.91.06.18c-.07,0-.15-.1-.19-.09-.31.18-.61.37-.92.56a.81.81,0,0,0-.16,0l-2.1,1.18-.17.11.14.29Zm-1.22,2.53v0l-.14,0,1.12.23.07-.28a2.5,2.5,0,0,1-1.24-.25l1.28.13.08-.76a3.05,3.05,0,0,0-1.28.44c-.32-.17-.52.21-.77.15,0,.13,0,.23,0,.32s0,.22-.06.35l1.9.08v-.08L91.24,69v-.09Zm-7.06-.14c-.16,0-.31,0-.45,0l-.72-.07s-.13,0-.14.08c0,.21,0,.42-.07.64A3,3,0,0,0,84.73,69c.09.11.51,0,.73-.14l.1-.66-1.89-.07v.08l1.51.34,0,.12-1.54-.38-.08.31A2.79,2.79,0,0,1,84.81,68.78Zm-.28-3c.15.13.31.26.46.4a.22.22,0,0,0,.32,0c.14-.11.27-.23.4-.35l-.53-.73Zm6.21,5.59-.48-.13-.15.29A1.3,1.3,0,0,0,91.24,71L91,70.88l-.57-.39c-.1-.07-.2-.08-.25,0a.27.27,0,0,0,0,.24C90.38,70.94,90.55,71.12,90.74,71.36Zm-5-5.15,0,0c.12,0,.25.11.35.09A.2.2,0,0,0,86.3,66a1.26,1.26,0,0,0-1.09.51L86,67c.09.07.17.09.26,0s0-.18,0-.26Zm.2-1a1.34,1.34,0,0,0-.94-.87c-.14.13,0,.53.54,1.16l.26-.23,0,0h-.1v-.05Zm4.51,7.07a1.34,1.34,0,0,0,.85.85.17.17,0,0,0,.14,0,.13.13,0,0,0,0-.13l-.61-1-.28.24.12,0v0Zm-2.63-2.35-.11,0L87,71c.08,0,.13,0,.15,0l.42-.67,0,.31-.26.37.36.09Zm1-3.54c-.18.26-.32,1.1-.18,1.22l.72-1.11-.07,0c-.27.15-.29.49-.48.7l.05-.31.26-.39ZM87,71.27c-.22,0-.56.6-.55.93a1.9,1.9,0,0,0,.18-.27l.17-.29,0,0-.21.55c.34.06.37,0,.38-.28S87,71.49,87,71.27Zm.28-4.74-.21-.44c-.12-.27-.18-.29-.5-.2l.42.82Zm1.21,3.21c-.28.32-.09.67-.11,1,.13,0,.29-.08.32-.16C88.81,70.28,88.65,70,88.49,69.73Zm-.51-2c.06-.12.14-.2.14-.29s0-.4,0-.6-.09-.18-.18-.12a.47.47,0,0,0-.2.26A1.15,1.15,0,0,0,88,67.78ZM89.19,71l0,.12.15.31c.14.29.16.3.5.22l-.42-.82Zm-4.31-1.8c.18.4.27.43.59.25l.06,0c.11,0,.18-.13.11-.23a.29.29,0,0,0-.22-.14A4,4,0,0,0,84.88,69.16Zm6.69-.82,0-.07a1.48,1.48,0,0,0-.33-.31c-.06,0-.19.08-.29.12l-.06,0c-.11,0-.16.14-.1.24a.27.27,0,0,0,.21.12A4.41,4.41,0,0,0,91.56,68.34Zm-6.69-.72.69.19c0-.13,0-.28,0-.32a1.31,1.31,0,0,0-.48-.24S85,67.48,84.87,67.62Zm6,2.05c0,.14,0,.29,0,.33a1.07,1.07,0,0,0,.46.23s.13-.22.21-.37ZM87.1,72.49c.05-.07.09-.1.1-.13s.05-.3.1-.44.12-.33.19-.51l-.39-.13Zm2.25-7.44h0l-.35,1,.38.11Zm-3,.77a2,2,0,0,0-.33-.46s-.23.11-.36.17C85.84,65.95,85.84,65.95,86.33,65.83ZM90.82,72c-.23-.42-.24-.43-.68-.28a2.05,2.05,0,0,0,.31.46S90.69,72,90.82,72Zm-3.1-6.37v.89c.21-.07.3-.36.24-.67C87.94,65.68,87.92,65.53,87.72,65.59Zm1.35,2.58a.94.94,0,0,0,.72-.39l-.18.07v0l.24-.16-.25-.23c-.07.21-.33.3-.24.57Zm.84-.09-.46.17,0,.38C90,68.51,90,68.45,89.91,68.08Zm-2.95.8c-.48.11-.54.18-.41.53l.44-.16c0-.13,0-.24,0-.35S87,68.89,87,68.88Zm-.88,1.6c.23.2.43.12.61-.23L86.47,70ZM90.38,67c-.24-.2-.44-.12-.61.23l.22.21Zm-.21,2.6c-.23.25-.23.27.08.42,0,0,0,0,0,0l.25,0c0-.08,0-.19,0-.23A2.24,2.24,0,0,0,90.17,69.63Zm-3.89-1.76c.24-.25.22-.32-.05-.41,0,0,0,0-.06,0a.39.39,0,0,0-.17,0s-.11.05-.12.09a.2.2,0,0,0,.05.16C86,67.71,86.17,67.78,86.28,67.87Zm2.53,2-.07,0c.1.24.2.48.28.73s.18.17.33.07Zm1.83-1.52a.47.47,0,0,0-.24.75l.1-.57.09.39.09,0ZM86,69l-.08-.38-.06,0c0,.19-.11.38.07.55.28-.11.33-.27.18-.73Zm-2.09,1.51,0,.06L85,69.84A1.87,1.87,0,0,0,83.87,70.46ZM92.55,67l-1.09.69A1.43,1.43,0,0,0,92.55,67ZM86.94,65h.27v-.3l-.2,0h-.19l0,.29.23,0Zm2.69,7.79,0-.27h-.23l.11,0a.21.21,0,0,0-.13,0l-.11,0C89.22,72.8,89.22,72.8,89.63,72.82Zm-3.4-7.47.19.29.34-.28v-.07Zm3.44,6.82c.2.1.36,0,.55,0L90,71.87Zm-2.3-5.7c.33-.16,0-.31,0-.48l-.21.09Zm-1.21,1.83c.07-.32-.2-.28-.31-.41l-.12.2Zm4.58,1.14a2.22,2.22,0,0,0-.31-.15s-.1,0-.16,0,0,.1.07.13a2.63,2.63,0,0,0,.27.15Zm-.51,1.68,0-.09L90,70.8l-.09.41Zm-.8.9c-.12.06-.28.1-.21.27s.2.07.35.11Zm-.34-1c-.33.16,0,.3,0,.48l.23-.07Zm-2.91-4.64.23.33c.24-.09.09-.25.1-.41ZM89.87,69c-.09.19-.06.31.14.33s.13-.07.24-.13Zm-3.6-.61.39.2c0-.15,0-.25-.08-.31s-.15-.06-.23-.09Zm1-3.21H86.9l.12.3C87.19,65.4,87.31,65.35,87.22,65.15Zm-.06.85.24-.13c-.1-.25-.13-.26-.37-.14Zm1.9,5.62c.08.26.08.26.36.15l-.12-.28Zm-1.65-2.06-.19.4,0,0,.41-.29ZM89,67.93l.2-.4,0,0-.42.29Zm.51.9-.07,0,.16.34C89.78,68.94,89.77,68.9,89.56,68.84Zm-2.66-.17.07,0-.18-.41C86.68,68.55,86.69,68.59,86.9,68.66Zm.84-2c.38-.09.46-.28.26-.61A.87.87,0,0,1,87.74,66.67Zm2.79,1.5-.3-.21,0,.36Zm-1.32,2.1.07,0-.46-.59-.07.05Zm-3-.7.07-.06-.06-.32-.27.14ZM89.63,72l.34-.2h-.43Zm-3-4.3-.15.28.37.07Zm3.25-1.15-.05,0-.28.53.09,0Zm.18,3-.3-.06,0,0,.18.28Zm-3.4,1.43.05,0,.28-.54-.09,0Zm.12-4.43-.07,0,.22.53L87,67Zm3.09,6.33.07,0-.18-.38C89.68,72.59,89.65,72.77,89.83,72.84ZM89.72,71l.07,0-.22-.53-.08,0Zm-3.16-6.28.2.43C86.81,64.77,86.76,64.67,86.56,64.68Zm.35,1-.09-.2-.35.2ZM85,66.31l0,0-.47-.37-.05.07Z"/><path class="cls-13" d="M93.79,72.92l0,.58c-.38-.16-.52-.58-.79-.88l.61.48.15-.43,2.59,2.38-.05.06C95.35,74.52,94.74,73.57,93.79,72.92Z"/><path class="cls-13" d="M86.64,72.53l.18,0L86.66,74h0Z"/><path class="cls-13" d="M87.79,72.81l-.36.87h0l.17-.51-.16,0,.38-.71.06,0-.29.52,0,0,.17-.21Z"/><path class="cls-13" d="M90.31,74l.54,1.16-.07,0L90.27,74Z"/><path class="cls-13" d="M87.48,74.13l.42-.68.07,0-.41.68Z"/><path class="cls-13" d="M83.27,69.53l-.67.18,0-.06c.2-.15.46-.06.67-.17Z"/><path class="cls-13" d="M82.88,64.39l-.15.43-2.58-2.37.05-.06c.92.59,1.53,1.53,2.47,2.18l0-.58c.43.19.56.69.91,1Z"/><path class="cls-13" d="M89.81,65h-.18l.17-1.48h0Z"/><path class="cls-13" d="M89,63.93l-.14.42h.17l-.39.72-.06,0,.28-.51,0,0-.18.23h0l.33-.81Z"/><path class="cls-13" d="M90.41,66.44l-.33.29,0-.49.3.14Z"/><path class="cls-13" d="M85.55,62.05l.56,1.23-.05,0-.57-1.22Z"/><path class="cls-13" d="M89,63.37l-.47.74-.06,0,.44-.75Z"/><path class="cls-13" d="M93.89,67.89l-.59.1v0l.57-.15Z"/><path class="cls-13" d="M93.08,66.4c.31-.19.61-.38.92-.56,0,0,.11.05.19.09l-.06-.18L96,64.83l0,0-.82,1.29a.25.25,0,0,1-.15.07l-1.83.37-.11-.2Z"/><path class="cls-13" d="M91.86,68.92l-.61,0V69l1.56.34v.08l-1.9-.08c0-.14,0-.25.06-.35s0-.19,0-.32c.26.07.45-.32.77-.15A3.05,3.05,0,0,1,93,68.06l-.08.76-1.28-.13a2.5,2.5,0,0,0,1.24.25l-.07.28L91.73,69l.14,0Z"/><path class="cls-13" d="M84.81,68.78a2.79,2.79,0,0,0-1.27-.22l.08-.31,1.54.38,0-.12-1.51-.34V68.1l1.89.07-.1.66c-.22.16-.64.25-.73.14a3,3,0,0,1-1.31.46c0-.23,0-.44.07-.64,0,0,.09-.09.14-.08l.72.07C84.5,68.79,84.65,68.78,84.81,68.78Z"/><path class="cls-13" d="M91.52,71.34l.42.41-.7.59-.49-.67c.36-.36.52-.51.77-.32Z"/><path class="cls-13" d="M84.53,65.76l.65-.66.53.73c-.14.12-.27.24-.4.35a.22.22,0,0,1-.32,0C84.84,66,84.68,65.89,84.53,65.76Z"/><path class="cls-13" d="M90.74,71.36c-.2-.23-.36-.41-.5-.61a.27.27,0,0,1,0-.24c.05-.1.15-.1.25,0l.57.39.21.17a1.3,1.3,0,0,1-1.13.47l.15-.29Z"/><path class="cls-13" d="M85.77,66.2l.45.54c.07.08.12.16,0,.26s-.17.07-.26,0l-.77-.53A1.26,1.26,0,0,1,86.3,66a.2.2,0,0,1-.15.29c-.11,0-.23-.05-.35-.09Z"/><path class="cls-13" d="M86,65.21l-.26,0v.05h.1l0,0-.26.23c-.5-.62-.68-1-.54-1.16A1.34,1.34,0,0,1,86,65.21Z"/><path class="cls-13" d="M90.49,72.28l.23,0v0l-.12,0,.28-.24.61,1a.13.13,0,0,1,0,.13.17.17,0,0,1-.14,0A1.34,1.34,0,0,1,90.49,72.28Z"/><path class="cls-13" d="M93.08,66.39,90.8,68l-.14-.29.17-.11,2.1-1.18a.79.79,0,0,1,.16,0Z"/><path class="cls-13" d="M83.43,71.08s0,0,0,0l2.24-1.59.13.28-.16.11L83.54,71l-.12,0Z"/><path class="cls-13" d="M87.86,69.93l-.23,1.2L87.27,71l.26-.37,0-.31-.42.67s-.07,0-.15,0l.74-1.13Z"/><path class="cls-13" d="M88.89,66.39l.29.07-.26.39-.05.31c.19-.21.21-.56.48-.7l.07,0-.72,1.11C88.57,67.48,88.71,66.65,88.89,66.39Z"/><path class="cls-13" d="M87,71.27c0,.22,0,.43,0,.65s0,.34-.38.28l.21-.55,0,0-.17.29a1.9,1.9,0,0,1-.18.27C86.43,71.87,86.78,71.29,87,71.27Z"/><path class="cls-13" d="M87.28,66.52,87,66.7l-.42-.82c.31-.09.38-.07.5.2Z"/><path class="cls-13" d="M88.49,69.73c.16.28.32.54.21.85,0,.09-.19.13-.32.16C88.4,70.4,88.21,70.06,88.49,69.73Z"/><path class="cls-13" d="M88,67.78a1.15,1.15,0,0,1-.24-.74.47.47,0,0,1,.2-.26c.09-.06.18,0,.18.12s0,.4,0,.6S88,67.66,88,67.78Z"/><path class="cls-13" d="M89.19,71l.28-.17.42.82c-.34.07-.36.07-.5-.22l-.15-.31Z"/><path class="cls-13" d="M84.88,69.16a4,4,0,0,1,.55-.14.29.29,0,0,1,.22.14c.06.1,0,.19-.11.23l-.06,0C85.14,69.59,85.06,69.56,84.88,69.16Z"/><path class="cls-13" d="M91.56,68.34a4.41,4.41,0,0,1-.54.12.27.27,0,0,1-.21-.12c-.06-.1,0-.19.1-.24l.06,0c.1,0,.23-.15.29-.12a1.48,1.48,0,0,1,.33.31Z"/><path class="cls-13" d="M84.87,67.62c.08-.14.17-.37.2-.37a1.31,1.31,0,0,1,.48.24s0,.19,0,.32Z"/><path class="cls-13" d="M90.89,69.68l.7.2c-.08.14-.17.37-.21.37a1.07,1.07,0,0,1-.46-.23C90.86,70,90.9,69.82,90.89,69.68Z"/><path class="cls-13" d="M87.1,72.49v-1.2l.39.13c-.07.18-.14.34-.19.51s-.06.29-.1.44S87.16,72.42,87.1,72.49Z"/><path class="cls-13" d="M89.36,65.06V66.2L89,66.08l.35-1Z"/><path class="cls-13" d="M86.33,65.83c-.48.12-.48.12-.68-.29.12-.06.31-.21.36-.17A2,2,0,0,1,86.33,65.83Z"/><path class="cls-13" d="M90.82,72c-.13.07-.33.21-.37.18a2.05,2.05,0,0,1-.31-.46C90.58,71.53,90.6,71.54,90.82,72Z"/><path class="cls-13" d="M88.43,71.55a3.2,3.2,0,0,1,.11-.36.84.84,0,0,1,.14-.18l.06,0v.86c-.12.06-.19,0-.23-.12s-.06-.15-.08-.23Z"/><path class="cls-13" d="M87.72,65.59c.2-.06.21.1.24.23.06.31,0,.59-.24.67Z"/><path class="cls-13" d="M89.08,68.17l.28-.17c-.09-.27.17-.36.24-.57l.25.23-.24.16v0l.18-.07A.94.94,0,0,1,89.08,68.17Z"/><path class="cls-13" d="M89.91,68.08c.1.37,0,.43-.44.54l0-.38Z"/><path class="cls-13" d="M87,68.88s0,0,0,0,0,.21,0,.35l-.44.16C86.43,69.05,86.49,69,87,68.88Z"/><path class="cls-13" d="M86.08,70.47l.38-.44.23.22C86.52,70.59,86.31,70.67,86.08,70.47Z"/><path class="cls-13" d="M90.38,67l-.39.44-.22-.21C89.94,66.9,90.14,66.82,90.38,67Z"/><path class="cls-13" d="M90.17,69.63a2.24,2.24,0,0,1,.34.25s0,.15,0,.23l-.25,0s0,0,0,0C89.95,69.9,89.94,69.88,90.17,69.63Z"/><path class="cls-13" d="M86.28,67.87c-.12-.08-.24-.16-.34-.24a.2.2,0,0,1-.05-.16s.07-.08.12-.09a.39.39,0,0,1,.17,0s0,0,.06,0C86.51,67.55,86.52,67.61,86.28,67.87Z"/><path class="cls-13" d="M89.59,66l-.11.09c0-.23,0-.44,0-.66s.06-.15.36-.11l-.22.6Z"/><path class="cls-13" d="M88.82,69.86l.54.82c-.15.1-.26.13-.33-.07s-.19-.48-.28-.73Z"/><path class="cls-13" d="M87.65,67.68l-.54-.88c.16-.11.26-.1.32.08s.16.35.22.53a.81.81,0,0,1,0,.26Z"/><path class="cls-13" d="M90.65,68.34l0,.56-.09,0-.09-.39-.1.57A.47.47,0,0,1,90.65,68.34Z"/><path class="cls-13" d="M86,69l.1-.54c.15.46.1.62-.18.73-.17-.17-.07-.36-.07-.55l.06,0Z"/><path class="cls-13" d="M83.87,70.46A1.87,1.87,0,0,1,85,69.84l-1.08.69Z"/><path class="cls-13" d="M92.55,67a1.43,1.43,0,0,1-1.09.69Z"/><path class="cls-13" d="M89.59,66l0-.07.23-.38.17-.25c0,.39-.36,1-.56.94Z"/><path class="cls-13" d="M87,69.58l.2,0-.35.5c-.07-.11-.31-.11-.14-.32Z"/><path class="cls-13" d="M86.94,65l.14-.09-.23,0,0-.29H87l.2,0V65Z"/><path class="cls-13" d="M89.63,72.82c-.41,0-.41,0-.38-.34l.11,0a.21.21,0,0,1,.13,0l-.11,0h.23Z"/><path class="cls-13" d="M86.23,65.34l.51-.06v.07l-.34.28Z"/><path class="cls-13" d="M89.67,72.16l.37-.3.17.26C90,72.17,89.87,72.26,89.67,72.16Z"/><path class="cls-13" d="M87.37,66.46l-.18-.39L87.4,66C87.4,66.15,87.7,66.3,87.37,66.46Z"/><path class="cls-13" d="M86.16,68.29l-.43-.22.12-.2C86,68,86.23,68,86.16,68.29Z"/><path class="cls-13" d="M90.74,69.43l-.13.18a2.63,2.63,0,0,1-.27-.15s0-.08-.07-.13.11-.06.16,0A2.22,2.22,0,0,1,90.74,69.43Z"/><path class="cls-13" d="M90.23,71.11l-.34.1L90,70.8l.27.22Z"/><path class="cls-13" d="M89.44,72l.14.38c-.15,0-.32,0-.35-.11S89.32,72.07,89.44,72Z"/><path class="cls-13" d="M89.09,71l.18.41-.23.07C89.06,71.34,88.77,71.19,89.09,71Z"/><path class="cls-13" d="M86.19,66.39l.33-.08c0,.16.14.31-.1.41Z"/><path class="cls-13" d="M89.87,69l.38.2c-.11.06-.18.14-.24.13S89.78,69.16,89.87,69Z"/><path class="cls-13" d="M86.27,68.36l.08-.2c.08,0,.19,0,.23.09s0,.17.08.31Z"/><path class="cls-13" d="M87.22,65.15c.09.19,0,.25-.2.3l-.12-.3Z"/><path class="cls-13" d="M87.16,66,87,65.73c.24-.12.27-.11.37.14Z"/><path class="cls-13" d="M89.06,71.62l.24-.12.12.28C89.15,71.88,89.15,71.88,89.06,71.62Z"/><path class="cls-13" d="M87,69.58l-.29.16s0-.08,0-.08l.67-.41,0,.06Z"/><path class="cls-13" d="M87.41,69.56l.26.13-.41.29,0,0Z"/><path class="cls-13" d="M89,67.93l-.26-.13.42-.29,0,0Z"/><path class="cls-13" d="M89.56,68.84c.21.06.23.1.09.38l-.16-.34Z"/><path class="cls-13" d="M86.9,68.66c-.21-.07-.22-.11-.11-.44l.18.41Z"/><path class="cls-13" d="M87.74,66.67a.87.87,0,0,0,.26-.61C88.2,66.39,88.13,66.57,87.74,66.67Z"/><path class="cls-13" d="M88.43,71.55c0-.07,0-.14,0-.21-.08-.35,0-.41.32-.51-.31.16-.21.47-.29.72Z"/><path class="cls-13" d="M90.53,68.17l-.33.16,0-.36Z"/><path class="cls-13" d="M87.64,67.68l.06.15-.05,0-.46-.58.05,0,.41.45Z"/><path class="cls-13" d="M89.21,70.27l-.46-.59.07-.05.46.59Z"/><path class="cls-13" d="M86.22,69.56,86,69.33l.27-.14.06.32Z"/><path class="cls-13" d="M89.63,72l-.08-.2H90Z"/><path class="cls-13" d="M86.59,67.7l.22.34L86.44,68Z"/><path class="cls-13" d="M89.84,66.56l-.24.55-.09,0,.28-.53Z"/><path class="cls-13" d="M90,69.51l-.15.27-.18-.28,0,0Z"/><path class="cls-13" d="M86.62,70.95l.24-.56.09,0-.28.54Z"/><path class="cls-13" d="M86.73,66.52,87,67l-.08,0-.22-.53Z"/><path class="cls-13" d="M89.83,72.84c-.18-.08-.14-.25-.11-.42l.18.38Z"/><path class="cls-13" d="M89.72,71l-.23-.53.08,0,.22.53Z"/><path class="cls-13" d="M91.53,71.35l-.09-.15,0,0,.49.36,0,.06-.4-.26Z"/><path class="cls-13" d="M86.56,64.68c.2,0,.25.09.2.43Z"/><path class="cls-13" d="M86.91,65.7h-.44l.35-.2Z"/><path class="cls-13" d="M85,66.31,84.51,66l.05-.07.47.37Z"/><path class="cls-13" d="M74.82,107.44l-.52-.27a.87.87,0,0,0-1,.13,4.87,4.87,0,0,1-1.66.69c-.25.06-.57-.18-1-.32l-1,.87A8.93,8.93,0,0,1,68.9,104c.2-1.78.4-3.56.5-5.35a15.45,15.45,0,0,0-.15-2.8,1.59,1.59,0,0,0-.54-.91,8.32,8.32,0,0,1-1.88-3.28,1.08,1.08,0,0,1,.21-1.3.53.53,0,0,0,.06-.76c-.25-.4-.5-.79-.74-1.19s-.32-.69.05-1a.75.75,0,0,1,1,.11c.28.25.53.52.79.79l.18-.1c-.16-.59-.31-1.18-.47-1.77-.06-.2-.14-.39-.22-.58-.13-.35-.17-.69.25-.85s.77-.13,1,.26c.28.58.49,1.2.72,1.8.1.25.18.51.27.79a1.49,1.49,0,0,0,.8-1.69.76.76,0,0,1,.35-.94.71.71,0,0,1,1,.16,1.16,1.16,0,0,1,.36,1.21c-.08.27-.15.55-.26.81A3.55,3.55,0,0,0,72.24,90c.08.22.33.39.51.57a1.32,1.32,0,0,1,.44,1.48A9,9,0,0,0,73,97.14c.19,1.12.22,2.27.3,3.41a17.79,17.79,0,0,0,1.62,6.62S74.85,107.27,74.82,107.44Z"/><path class="cls-13" d="M61.76,28.6l-.15.43L59,26.66l.05-.06c.92.59,1.53,1.53,2.47,2.18l0-.58c.43.19.56.69.91,1Z"/><path class="cls-13" d="M61.64,27.43l0,.58c-.38-.16-.52-.58-.79-.88l.61.48.15-.43,2.59,2.38-.05.06C63.19,29,62.58,28.07,61.64,27.43Z"/><path class="cls-13" d="M120.91,70.45a.55.55,0,0,0-.39,0l-.9.33,2.46-6.38a.55.55,0,0,0-.19-.64l-1.53-1.12.94,1.71a.55.55,0,0,1,0,.51l-3.23,6.33a.55.55,0,0,1-.3.27l-2.8,1a.55.55,0,0,1-.73-.51V64.2a.55.55,0,0,1,.24-.45l3-2a.55.55,0,0,0,.2-.25l1.61-4.06L117.67,60a.55.55,0,0,1-.13.14L115.13,62a.55.55,0,0,1-.88-.44V56.84a.55.55,0,0,0,0-.17l-1.64-4.92.82,5.48a.55.55,0,0,1,0,.22l-.79,2.93a.55.55,0,0,0,0,.14v5.75a.55.55,0,0,1-.83.47l-5.89-3.58a.55.55,0,0,0-.44-.06l-7,2L95,63l3.33,3.33,6.76-2.16,7.27,4.93a.55.55,0,0,1,.24.45v2.62a.55.55,0,0,1-.28.48L108.17,75a.55.55,0,0,1-.33.06l-5.41-.63,5.77,1.7a.55.55,0,0,0,.41,0l3.18-1.69a.55.55,0,0,1,.8.48V96.13h1.67V74.45a.55.55,0,0,1,.3-.49l5.25-2.13a.55.55,0,0,1,.35-.05l10.43,2.51Z"/><path class="cls-14" d="M112.45,48.79a3.16,3.16,0,0,0,.47,4.25S115.08,51,112.45,48.79Z"/><path class="cls-14" d="M113.87,49.07a3.16,3.16,0,0,0-.91,4.18S115.67,52,113.87,49.07Z"/><path class="cls-14" d="M111,56.37a2.19,2.19,0,0,0,2.06,2.14A1.88,1.88,0,0,0,111,56.37Z"/><path class="cls-14" d="M120.49,55.66A2.07,2.07,0,0,0,118.93,58,1.77,1.77,0,0,0,120.49,55.66Z"/><path class="cls-14" d="M124.65,61.71A2.61,2.61,0,0,0,122,64,2.23,2.23,0,0,0,124.65,61.71Z"/><path class="cls-14" d="M125.14,62.81a2.61,2.61,0,0,0-3.26,1.36A2.23,2.23,0,0,0,125.14,62.81Z"/><path class="cls-14" d="M118.68,61a2.07,2.07,0,0,0,2.08,1.89A1.77,1.77,0,0,0,118.68,61Z"/><path class="cls-14" d="M132.75,72.58a2.19,2.19,0,0,0-2.42,1.72A1.88,1.88,0,0,0,132.75,72.58Z"/><path class="cls-14" d="M126.77,74.61a1.57,1.57,0,0,0-1-1.87A1.35,1.35,0,0,0,126.77,74.61Z"/><path class="cls-14" d="M117.94,71.43a1.57,1.57,0,0,0-1-1.87A1.35,1.35,0,0,0,117.94,71.43Z"/><path class="cls-14" d="M93.59,61.42a2.19,2.19,0,0,0,2.06,2.14A1.88,1.88,0,0,0,93.59,61.42Z"/><path class="cls-14" d="M109.57,78a1.57,1.57,0,0,0-1-1.87A1.35,1.35,0,0,0,109.57,78Z"/><polygon class="cls-13" points="74.13 36.69 73.51 38.08 73.28 41.39 72.69 43.12 72.73 43.3 72.84 43.84 73.02 44.56 73.02 43.27 73.02 42.53 73.51 41.98 73.51 41.17 73.41 40.62 73.69 38.3 74.13 36.69"/><polygon class="cls-13" points="104.99 88.25 104.38 89.65 104.15 92.96 103.56 94.69 103.59 94.86 103.7 95.4 103.89 96.13 103.89 94.83 103.89 94.1 104.38 93.55 104.38 92.74 104.27 92.19 104.55 89.87 104.99 88.25"/><path class="cls-13" d="M28.26,58.42l0,.58c-.38-.16-.52-.58-.79-.88l.61.48.15-.43,2.59,2.38-.05.06C29.82,60,29.21,59.06,28.26,58.42Z"/><path class="cls-13" d="M16.42,70a.55.55,0,0,1,.39,0l.9.33-2.46-6.38a.55.55,0,0,1,.19-.64L17,62.18,16,63.89a.55.55,0,0,0,0,.51l3.23,6.33a.55.55,0,0,0,.3.27l2.8,1a.55.55,0,0,0,.73-.51V63.75a.55.55,0,0,0-.24-.45l-3-2a.55.55,0,0,1-.2-.25L18,57l1.62,2.56a.55.55,0,0,0,.13.14l2.41,1.82a.55.55,0,0,0,.88-.44V56.39a.55.55,0,0,1,0-.17l1.64-4.92-.82,5.48a.55.55,0,0,0,0,.22l.79,2.93a.55.55,0,0,1,0,.14v5.75a.55.55,0,0,0,.83.47l5.89-3.58a.55.55,0,0,1,.44-.06l7,2,3.43-2.11L39,65.91l-6.76-2.16L25,68.68a.55.55,0,0,0-.24.45v2.62a.55.55,0,0,0,.28.48l4.13,2.28a.55.55,0,0,0,.33.06l5.41-.63-5.77,1.7a.55.55,0,0,1-.41,0l-3.18-1.69a.55.55,0,0,0-.8.48V95.68H23.08V74a.55.55,0,0,0-.3-.49l-5.25-2.13a.55.55,0,0,0-.35-.05L6.75,73.85Z"/><path class="cls-14" d="M24.88,48.35a3.16,3.16,0,0,1-.47,4.25S22.25,50.52,24.88,48.35Z"/><path class="cls-14" d="M23.46,48.62a3.16,3.16,0,0,1,.91,4.18S21.66,51.52,23.46,48.62Z"/><path class="cls-14" d="M26.29,55.92a2.19,2.19,0,0,1-2.06,2.14A1.88,1.88,0,0,1,26.29,55.92Z"/><path class="cls-14" d="M16.84,55.21a2.07,2.07,0,0,1,1.56,2.33A1.77,1.77,0,0,1,16.84,55.21Z"/><path class="cls-14" d="M12.68,61.26a2.61,2.61,0,0,1,2.66,2.33A2.23,2.23,0,0,1,12.68,61.26Z"/><path class="cls-14" d="M12.19,62.36a2.61,2.61,0,0,1,3.26,1.36A2.23,2.23,0,0,1,12.19,62.36Z"/><path class="cls-14" d="M18.65,60.56a2.07,2.07,0,0,1-2.08,1.89A1.77,1.77,0,0,1,18.65,60.56Z"/><path class="cls-14" d="M4.58,72.13A2.19,2.19,0,0,1,7,73.85,1.88,1.88,0,0,1,4.58,72.13Z"/><path class="cls-14" d="M10.56,74.16a1.57,1.57,0,0,1,1-1.87A1.35,1.35,0,0,1,10.56,74.16Z"/><path class="cls-14" d="M19.39,71a1.57,1.57,0,0,1,1-1.87A1.35,1.35,0,0,1,19.39,71Z"/><path class="cls-14" d="M43.75,61a2.19,2.19,0,0,1-2.06,2.14A1.88,1.88,0,0,1,43.75,61Z"/><path class="cls-14" d="M27.77,77.54a1.57,1.57,0,0,1,1-1.87A1.35,1.35,0,0,1,27.77,77.54Z"/><polyline class="cls-13" points="70.16 108.55 68.91 109.8 64.81 112.26 70.64 107.68 71.59 108 72.66 107.64 72.66 108.55 73.51 109.8 73.91 113 74.13 109.62 73.25 108.55 73.83 107.68 75.83 108.55 76.85 109.97 79.27 109.54 76.99 109.54 76.55 108.22 75.16 107.68 73.51 106.6 73.25 107.31"/><path class="cls-13" d="M90.41,66.44l.33-.21,0,.13.14,0,0,0-.59.41c.16.15.28.13.41,0s.25-.26.36-.4a1.58,1.58,0,0,0,.15-.3l-.06,0-.24.15,0-.3a1.68,1.68,0,0,0,.24-.13c.49-.37,1-.74,1.46-1.1a.28.28,0,0,0,.11-.38c-.12-.37-.22-.75-.33-1.12l.07,0L93,64.44c.16-.16.36-.27.4-.43s-.08-.36-.1-.56l.35.54,1.95-1.36,0,.05-2.67,2,.1.21.5-.29c-.12.22-.46.19-.44.49l-.18,0-.13-.45-2.26,2.41,0,.06.26-.09c-.58.4-.58.4-.61.64a7.56,7.56,0,0,0,.78-.47c.23-.18.43-.41.66-.6l-.11.16.29-.14,0,0-.57.34,0,0,.33-.17-.08.24.24-.11,2.47-1.48a3.07,3.07,0,0,1,1-.51,1.61,1.61,0,0,0,1.21-1,1.9,1.9,0,0,1,.32-.46l-.09.2c-.37.74-.74,1.47-1.1,2.21a.51.51,0,0,1-.39.31c-.8.18-1.6.39-2.4.58l-.19.06,0,.07,3.06-.71a4.63,4.63,0,0,1-1.41.48,13.27,13.27,0,0,0-1.64.34c-.08,0-.14.11-.19.21l.44-.14c-.18.23-.57.13-.6.46-.36,0-.65.19-1,.26l.35.39L93.08,68l-.05.91.35,0v0h-.22c-.13,0-.19,0-.22.17s0,.16.14.21a1,1,0,0,0,.84,0c.53-.23,1.08-.42,1.64-.64l-.07.25,1.58-.42v.3a15.78,15.78,0,0,0-4.12.95l.15-.22c-.26-.14-.32.11-.49.26l.12-.32H91l.09.13H91v0l1.2.33a1.2,1.2,0,0,0-.18.17,1.83,1.83,0,0,0-.13.25h0L92,70l-.3-.09-.23.49c-.21,0-.39-.15-.64,0,.66.32,1.15.86,1.87,1a1.23,1.23,0,0,1-.78-.18c-.33-.23-.68-.42-1-.63l-.17-.08a.12.12,0,0,0,.05.11l1.3.83a.53.53,0,0,0,.25,0l1.63.06.95,0v.05l-.32,0a.31.31,0,0,0,.14.13l2.23,1.11.16.05v.26l-2.36-1.08c-.26-.12-.51-.26-.77-.39a.5.5,0,0,0-.2-.06l-1.49,0c-.15,0-.21,0-.22.19a.31.31,0,0,1-.09.17l-.59.56.06.07L92,72l0,0-.6.63.29.46-.47.25L93,75.87l0,0-.19-.24a30.82,30.82,0,0,1-2.37-3.27c-.08-.13-.16-.21-.32-.09s-.17,0-.3,0l.65,1.51c0-.26-.33-.35-.74-.22a1.21,1.21,0,0,0,.2-.05c.1,0,.22-.08.27-.15S90,73,89.87,73l.14.28,0,0a1.31,1.31,0,0,0-.25-.3.62.62,0,0,0-.39-.07l.19.1-.25,0v.58l-.16-.7h0V74.1H89c0-.21-.07-.42-.11-.63s-.07-.39-.12-.58-.13-.11-.15-.09-.17.14-.17.21c0,.39.07.77.11,1.16l.28,2.65a.35.35,0,0,1,0,.21c-.15-.38-.29-.77-.44-1.15,0-.08-.07-.18-.13-.21s-.18-.21-.16-.37c.06-.65.11-1.3.16-2,0-.17.07-.36-.11-.52l-.08.22,0-.25-.25.52h0l.09-.32c.09-.32.18-.63.27-1a1.81,1.81,0,0,0,0-.32h-.06l-.4.82,0,0,.45-1.05-.05,0-.35.57a.3.3,0,0,1-.05.07.72.72,0,0,0-.21.91c-.28-.07-.31-.05-.4.2a2.14,2.14,0,0,1-.21.47c0-.29.08-.59.14-.88,0-.14.06-.28-.09-.33s-.26-.13-.43,0a2.36,2.36,0,0,0-.41.83c-.12.27-.22.56-.36.82l.33-1-1,1.24c.24-.55.72-1,1-1.5l-.06,0L84.37,75l-.06,0a1.5,1.5,0,0,1,.1-.21c.45-.66.89-1.32,1.36-2a2.65,2.65,0,0,0,.42-1.09,1.15,1.15,0,0,1,.09-.31l.06.16c.07-.11.07-.11-.14-.38l.22.06,0-.46-.67.5,0-.15-.23,0,.66-.46c-.15-.13-.27-.14-.39,0s-.27.28-.39.43a1.33,1.33,0,0,0-.13.29l.06,0,.24-.15,0,.31a1.27,1.27,0,0,0-.22.11c-.48.36-1,.74-1.44,1.09-.2.14-.19.26-.12.47.13.41.23.83.34,1.24l-.05,0-.76-1.31c-.46.18-.09.49-.12.78l-.34-.53L80.75,75l0,0,2.8-2.06-.1-.21-.46.28c.11-.22.44-.19.4-.48l.19,0,.13.45,2.25-2.4,0-.05-.28.08c.28-.19.59-.27.68-.58l0-.06a3.26,3.26,0,0,0-.76.48,1.91,1.91,0,0,1-.88.54l.56-.34,0,0-.33.16.08-.18s-.05,0-.07,0a1.11,1.11,0,0,0-.19.08L82,72.07a1.92,1.92,0,0,1-.75.37c-.3,0-.58.22-.9.29l1.92-1,0-.19h0c.06,0,.14.09.17.07.32-.18.63-.38.95-.57l.12,0,2.1-1.17.16-.11-.13-.28-2.24,1.59s0,0,0,0l-.2-.17-1.83.38a.44.44,0,0,0-.21.17l-1.78,2.27a1.16,1.16,0,0,1-.24.25l.13-.21c.5-.76,1-1.53,1.5-2.29a.55.55,0,0,1,.29-.21l2.48-.61a.31.31,0,0,0,.17-.1c-1,.29-2.08.34-3.07.69A4.82,4.82,0,0,1,82,70.76a17.44,17.44,0,0,0,1.75-.35c.1,0,.17-.13.24-.23l-.52.18c.19-.23.59-.15.64-.47a4.53,4.53,0,0,0,1-.27,4.68,4.68,0,0,0-.31-.37s-.12,0-.17,0l-.73.19c-.14,0-.3,0-.48.07l.05-.87-.67-.08h.45c.28,0,.28,0,.31-.3a1,1,0,0,0-.95-.09c-.47.22-1,.38-1.44.56l-.24.08.06-.23L79,69a.55.55,0,0,1,.47-.31,14,14,0,0,0,3.83-.82l.24-.07-.2.25c.15,0,.26,0,.33-.07s.12-.17.22-.24l-.06.13-.08.17,1.76.07-.09-.17h.11v-.05l-1.14-.32.2-.33h0l-.08.29.3.09.23-.49.58.09,0-.09a6.62,6.62,0,0,0-1.76-.92l0-.07a3.46,3.46,0,0,1,.61.2c.37.2.72.44,1.08.66l.17.1,0,0-.12-.1-1.25-.8a.48.48,0,0,0-.22-.05L81.84,66a.38.38,0,0,1-.23-.07l.28,0,0-.06-3-1.27v-.22l3.36,1.43a1.14,1.14,0,0,0,.39.08c.49,0,1,0,1.48,0,.25,0,.34-.17.24-.31a4,4,0,0,0,.68-.64l0,0-.34.31,0,0,0-.06c.28-.33.28-.33.05-.69l0-.09.23-.12a.56.56,0,0,0,.21-.16h-.23l.15-.11-1.65-2.41,0,0,.28.35a29.89,29.89,0,0,1,2.32,3.2c.08.13.16.21.32.11a.89.89,0,0,1,.3,0L86,63.67c.13.09.13.35.35.27,0,.06-.09.16-.07.2s.06.34.28.4l-.16-.31.06-.07c.11.42.41.34.71.31v-.36h0l.11.51h0V63.38h.07c0,.22.07.44.11.66s.06.37.12.56.14.11.15.1.17-.15.18-.22c0-.33,0-.66,0-1q-.06-1.42-.11-2.84a.84.84,0,0,1,0-.28l.18,1.59h0l.07-.2h0c0,.39,0,.78,0,1.17s0,.92,0,1.38a1.84,1.84,0,0,0,.07.34h.06l.08-.2,0,.23.25-.52h0c-.12.41-.24.81-.35,1.22a2.65,2.65,0,0,0,0,.38h.07l.44-.88h0L88.4,66l.06,0,.11-.18a4.85,4.85,0,0,1,.39-.59.55.55,0,0,0,.16-.58,1.14,1.14,0,0,1,0-.21c.23.08.29.06.37-.17a6.07,6.07,0,0,1,.25-.64c-.06.36-.12.71-.17,1.07,0,.09,0,.25.09.26s.25.14.41,0A3,3,0,0,0,90.56,64a3.82,3.82,0,0,1,.24-.5l-.28.87,1-1.2c-.24.54-.69.94-.94,1.47l.06,0,1.48-2.14.06,0a1.34,1.34,0,0,1-.1.21c-.44.65-.87,1.3-1.33,1.93a2.67,2.67,0,0,0-.45,1.15l-.06.35-.09-.24c-.16.29.21.29.24.46l-.3-.14,0,.49Zm-3.7,3.3c-.16.21.07.21.14.32l.35-.5-.2,0,.39-.27,0-.06-.67.41S86.7,69.72,86.71,69.74Zm.94-2.07a.81.81,0,0,0,0-.26c-.06-.18-.15-.35-.22-.53s-.17-.18-.32-.08l.54.88-.41-.45-.05,0,.46.58.05,0Zm2-1.79.22-.6c-.3,0-.35,0-.36.11s0,.43,0,.66l.11-.09-.12.24c.2,0,.56-.55.56-.94l-.17.25Zm-1.19,5.66c.08-.25,0-.57.28-.72-.36.1-.4.16-.32.51,0,.07,0,.14,0,.21s.06.15.08.23.11.17.23.12V71l-.06,0a.84.84,0,0,0-.14.18A3,3,0,0,0,88.43,71.55Zm3.1-.2c-.25-.19-.41,0-.77.32l.49.67.7-.59-.42-.41.4.26,0-.06-.49-.36,0,0Zm1.55-5,.11.2L95,66.22a.25.25,0,0,0,.15-.07L96,64.86l0,0-1.82.91.06.18c-.07,0-.15-.1-.19-.09-.31.18-.61.37-.92.56a.81.81,0,0,0-.16,0l-2.1,1.18-.17.11.14.29Zm-1.22,2.53v0l-.14,0,1.12.23.07-.28a2.5,2.5,0,0,1-1.24-.25l1.28.13.08-.76a3.05,3.05,0,0,0-1.28.44c-.32-.17-.52.21-.77.15,0,.13,0,.23,0,.32s0,.22-.06.35l1.9.08v-.08L91.24,69v-.09Zm-7.06-.14c-.16,0-.31,0-.45,0l-.72-.07s-.13,0-.14.08c0,.21,0,.42-.07.64A3,3,0,0,0,84.73,69c.09.11.51,0,.73-.14l.1-.66-1.89-.07v.08l1.51.34,0,.12-1.54-.38-.08.31A2.79,2.79,0,0,1,84.81,68.78Zm-.28-3c.15.13.31.26.46.4a.22.22,0,0,0,.32,0c.14-.11.27-.23.4-.35l-.53-.73Zm6.21,5.59-.48-.13-.15.29A1.3,1.3,0,0,0,91.24,71L91,70.88l-.57-.39c-.1-.07-.2-.08-.25,0a.27.27,0,0,0,0,.24C90.38,70.94,90.55,71.12,90.74,71.36Zm-5-5.15,0,0c.12,0,.25.11.35.09A.2.2,0,0,0,86.3,66a1.26,1.26,0,0,0-1.09.51L86,67c.09.07.17.09.26,0s0-.18,0-.26Zm.2-1a1.34,1.34,0,0,0-.94-.87c-.14.13,0,.53.54,1.16l.26-.23,0,0h-.1v-.05Zm4.51,7.07a1.34,1.34,0,0,0,.85.85.17.17,0,0,0,.14,0,.13.13,0,0,0,0-.13l-.61-1-.28.24.12,0v0Zm-2.63-2.35-.11,0L87,71c.08,0,.13,0,.15,0l.42-.67,0,.31-.26.37.36.09Zm1-3.54c-.18.26-.32,1.1-.18,1.22l.72-1.11-.07,0c-.27.15-.29.49-.48.7l.05-.31.26-.39ZM87,71.27c-.22,0-.56.6-.55.93a1.9,1.9,0,0,0,.18-.27l.17-.29,0,0-.21.55c.34.06.37,0,.38-.28S87,71.49,87,71.27Zm.28-4.74-.21-.44c-.12-.27-.18-.29-.5-.2l.42.82Zm1.21,3.21c-.28.32-.09.67-.11,1,.13,0,.29-.08.32-.16C88.81,70.28,88.65,70,88.49,69.73Zm-.51-2c.06-.12.14-.2.14-.29s0-.4,0-.6-.09-.18-.18-.12a.47.47,0,0,0-.2.26A1.15,1.15,0,0,0,88,67.78ZM89.19,71l0,.12.15.31c.14.29.16.3.5.22l-.42-.82Zm-4.31-1.8c.18.4.27.43.59.25l.06,0c.11,0,.18-.13.11-.23a.29.29,0,0,0-.22-.14A4,4,0,0,0,84.88,69.16Zm6.69-.82,0-.07a1.48,1.48,0,0,0-.33-.31c-.06,0-.19.08-.29.12l-.06,0c-.11,0-.16.14-.1.24a.27.27,0,0,0,.21.12A4.41,4.41,0,0,0,91.56,68.34Zm-6.69-.72.69.19c0-.13,0-.28,0-.32a1.31,1.31,0,0,0-.48-.24S85,67.48,84.87,67.62Zm6,2.05c0,.14,0,.29,0,.33a1.07,1.07,0,0,0,.46.23s.13-.22.21-.37ZM87.1,72.49c.05-.07.09-.1.1-.13s.05-.3.1-.44.12-.33.19-.51l-.39-.13Zm2.25-7.44h0l-.35,1,.38.11Zm-3,.77a2,2,0,0,0-.33-.46s-.23.11-.36.17C85.84,65.95,85.84,65.95,86.33,65.83ZM90.82,72c-.23-.42-.24-.43-.68-.28a2.05,2.05,0,0,0,.31.46S90.69,72,90.82,72Zm-3.1-6.37v.89c.21-.07.3-.36.24-.67C87.94,65.68,87.92,65.53,87.72,65.59Zm1.35,2.58a.94.94,0,0,0,.72-.39l-.18.07v0l.24-.16-.25-.23c-.07.21-.33.3-.24.57Zm.84-.09-.46.17,0,.38C90,68.51,90,68.45,89.91,68.08Zm-2.95.8c-.48.11-.54.18-.41.53l.44-.16c0-.13,0-.24,0-.35S87,68.89,87,68.88Zm-.88,1.6c.23.2.43.12.61-.23L86.47,70ZM90.38,67c-.24-.2-.44-.12-.61.23l.22.21Zm-.21,2.6c-.23.25-.23.27.08.42,0,0,0,0,0,0l.25,0c0-.08,0-.19,0-.23A2.24,2.24,0,0,0,90.17,69.63Zm-3.89-1.76c.24-.25.22-.32-.05-.41,0,0,0,0-.06,0a.39.39,0,0,0-.17,0s-.11.05-.12.09a.2.2,0,0,0,.05.16C86,67.71,86.17,67.78,86.28,67.87Zm2.53,2-.07,0c.1.24.2.48.28.73s.18.17.33.07Zm1.83-1.52a.47.47,0,0,0-.24.75l.1-.57.09.39.09,0ZM86,69l-.08-.38-.06,0c0,.19-.11.38.07.55.28-.11.33-.27.18-.73Zm-2.09,1.51,0,.06L85,69.84A1.87,1.87,0,0,0,83.87,70.46ZM92.55,67l-1.09.69A1.43,1.43,0,0,0,92.55,67ZM86.94,65h.27v-.3l-.2,0h-.19l0,.29.23,0Zm2.69,7.79,0-.27h-.23l.11,0a.21.21,0,0,0-.13,0l-.11,0C89.22,72.8,89.22,72.8,89.63,72.82Zm-3.4-7.47.19.29.34-.28v-.07Zm3.44,6.82c.2.1.36,0,.55,0L90,71.87Zm-2.3-5.7c.33-.16,0-.31,0-.48l-.21.09Zm-1.21,1.83c.07-.32-.2-.28-.31-.41l-.12.2Zm4.58,1.14a2.22,2.22,0,0,0-.31-.15s-.1,0-.16,0,0,.1.07.13a2.63,2.63,0,0,0,.27.15Zm-.51,1.68,0-.09L90,70.8l-.09.41Zm-.8.9c-.12.06-.28.1-.21.27s.2.07.35.11Zm-.34-1c-.33.16,0,.3,0,.48l.23-.07Zm-2.91-4.64.23.33c.24-.09.09-.25.1-.41ZM89.87,69c-.09.19-.06.31.14.33s.13-.07.24-.13Zm-3.6-.61.39.2c0-.15,0-.25-.08-.31s-.15-.06-.23-.09Zm1-3.21H86.9l.12.3C87.19,65.4,87.31,65.35,87.22,65.15Zm-.06.85.24-.13c-.1-.25-.13-.26-.37-.14Zm1.9,5.62c.08.26.08.26.36.15l-.12-.28Zm-1.65-2.06-.19.4,0,0,.41-.29ZM89,67.93l.2-.4,0,0-.42.29Zm.51.9-.07,0,.16.34C89.78,68.94,89.77,68.9,89.56,68.84Zm-2.66-.17.07,0-.18-.41C86.68,68.55,86.69,68.59,86.9,68.66Zm.84-2c.38-.09.46-.28.26-.61A.87.87,0,0,1,87.74,66.67Zm2.79,1.5-.3-.21,0,.36Zm-1.32,2.1.07,0-.46-.59-.07.05Zm-3-.7.07-.06-.06-.32-.27.14ZM89.63,72l.34-.2h-.43Zm-3-4.3-.15.28.37.07Zm3.25-1.15-.05,0-.28.53.09,0Zm.18,3-.3-.06,0,0,.18.28Zm-3.4,1.43.05,0,.28-.54-.09,0Zm.12-4.43-.07,0,.22.53L87,67Zm3.09,6.33.07,0-.18-.38C89.68,72.59,89.65,72.77,89.83,72.84ZM89.72,71l.07,0-.22-.53-.08,0Zm-3.16-6.28.2.43C86.81,64.77,86.76,64.67,86.56,64.68Zm.35,1-.09-.2-.35.2ZM85,66.31l0,0-.47-.37-.05.07Z"/><path class="cls-13" d="M93.79,72.92l0,.58c-.38-.16-.52-.58-.79-.88l.61.48.15-.43,2.59,2.38-.05.06C95.35,74.52,94.74,73.57,93.79,72.92Z"/><path class="cls-13" d="M82.88,64.39l-.15.43-2.58-2.37.05-.06c.92.59,1.53,1.53,2.47,2.18l0-.58c.43.19.56.69.91,1Z"/></svg>