<svg id="Layer_1" data-name="Layer 1" xmlns="http://www.w3.org/2000/svg" viewBox="0 0 137.33 137.33"><defs><style>.cls-1{fill:#faf8cd;}.cls-1,.cls-2,.cls-5,.cls-6,.cls-7{stroke:#2e1714;stroke-miterlimit:10;}.cls-1,.cls-2,.cls-6,.cls-7{stroke-width:0.75px;}.cls-2{fill:#ee8f48;}.cls-3{fill:#c46e4a;}.cls-4{fill:#9f5840;}.cls-5,.cls-6{fill:none;}.cls-7{fill:#fff;}</style></defs><title>Artboard 3 copy 5</title><circle class="cls-1" cx="68.67" cy="68.79" r="50.06"/><polygon class="cls-2" points="53.14 59.23 58.72 114.29 74.4 113.61 63.74 81.5 55.2 58.33 53.14 58.79 53.14 59.23"/><polyline class="cls-1" points="45.15 91.52 50.83 59.06 50.88 58.7 53.14 58.79 53.14 59.23 55.2 80.73 58.62 114.11 42.67 104.86 45.15 91.52"/><polygon class="cls-1" points="57.07 57.37 90.51 104.86 74.4 113.61 55.2 58.33 57.07 57.37"/><polygon class="cls-2" points="58.73 55.86 109.62 96.93 90.51 104.86 57.07 57.37 58.73 55.86"/><polygon class="cls-2" points="48.93 58.09 29.8 97.15 42.67 104.86 45.15 91.52 50.83 59.06 50.88 58.7 48.93 58.09"/><polygon class="cls-2" points="60.54 52.02 118.06 62.21 118.18 63.23 118.35 65.41 118.44 67.33 118.44 68.6 118.44 70.04 118.31 72.09 118.17 73.62 117.97 75.31 117.55 77.86 117.28 79.01 104.93 74.69 59.89 54.05 60.54 52.02"/><polygon class="cls-1" points="47.19 56.83 21.98 86.48 22.91 88.7 23.84 90.69 24.84 92.58 26.11 94.73 29.11 99.18 32.42 93.57 48.93 58.09 47.19 56.83"/><polygon class="cls-2" points="45.5 55.22 18.93 74.1 19.18 76 19.6 78.37 20.08 80.49 20.55 82.24 21.15 84.18 21.98 86.48 47.19 56.83 45.5 55.22"/><polygon class="cls-1" points="44.52 53.33 18.93 62.71 18.76 64.43 18.64 66.66 18.61 68.97 18.61 70.45 18.72 71.85 18.93 74.1 45.5 55.22 44.52 53.33"/><polygon class="cls-2" points="44.03 51.37 20.92 53.33 20.5 54.75 20.11 56.21 19.67 58.09 19.39 59.53 19.21 60.63 18.93 62.71 44.52 53.33 44.03 51.37"/><polygon class="cls-1" points="44.16 49.05 24.09 45.63 23.55 46.73 22.92 48.07 22.58 48.86 22.08 50.06 21.73 50.98 21.4 51.9 20.92 53.33 44.03 51.37 44.16 49.05"/><polygon class="cls-2" points="44.72 47.19 28.02 39.22 26.86 40.89 26.04 42.18 25.42 43.2 24.87 44.17 24.09 45.63 44.16 49.05 44.72 47.19"/><polygon class="cls-1" points="45.88 45.27 32.54 33.81 31.39 35.05 30.17 36.46 28.91 38.03 28.02 39.22 44.72 47.19 45.88 45.27"/><polygon class="cls-2" points="47.59 43.68 37.46 29.33 35.75 30.75 34.41 31.96 33.29 33.05 32.54 33.81 45.88 45.27 47.59 43.68"/><polygon class="cls-1" points="49.49 42.68 43.24 25.35 41.15 26.66 39.22 27.99 37.46 29.33 47.59 43.68 49.49 42.68"/><polygon class="cls-2" points="51.53 42.18 49.88 22.08 46.74 23.48 44.72 24.52 43.24 25.35 49.49 42.68 51.53 42.18"/><polygon class="cls-1" points="53.88 42.18 57.88 19.62 55.06 20.32 52.36 21.16 49.88 22.08 51.53 42.18 53.88 42.18"/><path class="cls-2" d="M56,42.29l10.82-23a.53.53,0,0,0-.52-.76l-2.84.19h0L61,19h0l-2.74.5a.53.53,0,0,0-.43.43L54,41.69a.53.53,0,0,0,.39.61l1.06.27A.53.53,0,0,0,56,42.29Z"/><polygon class="cls-1" points="60.18 47.66 102.74 32.06 100.34 29.93 96.75 27.23 94.51 25.77 92.38 24.55 90.53 23.59 59.69 45.32 59.2 45.76 60.18 47.66"/><polygon class="cls-2" points="60.68 49.67 112.77 45.27 109.39 39.72 107.77 37.55 105.18 34.52 102.74 32.06 60.18 47.66 60.68 49.67"/><polygon class="cls-1" points="61.67 52.22 118.06 62.21 116.96 56.27 115.58 51.7 114.26 48.37 112.77 45.27 60.68 49.67 60.54 52.02 61.67 52.22"/><circle class="cls-1" cx="52.36" cy="50.5" r="8.32"/><path class="cls-1" d="M58,43.78,77.87,20.13a.49.49,0,0,0-.3-.79l-3.37-.53h0l-3.45-.31H67.55a.49.49,0,0,0-.44.28L56,42.33a.49.49,0,0,0,.14.59l1.2.93A.49.49,0,0,0,58,43.78Z"/><path class="cls-2" d="M59.69,45.32l30-20.81a.76.76,0,0,0-.13-1.31l-3.18-1.4-.05,0L84.1,21h0L81,20.05h0l-2.07-.47a.76.76,0,0,0-.75.25l-20,23.81a.76.76,0,0,0,0,1l.53.58A.76.76,0,0,0,59.69,45.32Z"/><path class="cls-3" d="M26.41,95.17a50,50,0,0,0,84.61,0Z"/><polygon class="cls-4" points="106.95 100.28 30.32 100.28 26.41 95.17 111.02 95.17 106.95 100.28"/><line class="cls-5" x1="14.58" y1="95.4" x2="10.86" y2="95.4"/><line class="cls-5" x1="15.3" y1="95.4" x2="121.9" y2="95.4"/><line class="cls-5" x1="126.47" y1="95.4" x2="122.76" y2="95.4"/><circle class="cls-6" cx="68.67" cy="68.79" r="50.06"/><path class="cls-7" d="M51.33,48.34a.39.39,0,0,1-.4-.35V32.43H47.26a.42.42,0,0,1-.43-.4V28.62a.44.44,0,0,1,.43-.43H58.81a.44.44,0,0,1,.43.43V32a.42.42,0,0,1-.43.4H55.14V48a.38.38,0,0,1-.4.35Z"/><path class="cls-7" d="M71.33,48a.9.9,0,0,1-.66.32H63.13a.93.93,0,0,1-.75-.32L60.76,46.4a1,1,0,0,1-.32-.75V30.87a1.16,1.16,0,0,1,.32-.75l1.62-1.62a1,1,0,0,1,.75-.32h7.45a.76.76,0,0,1,.75.32L73,30.12a1,1,0,0,1,.29.75V45.65a1.13,1.13,0,0,1-.29.75Zm-2.4-4.33a.24.24,0,0,0,.09-.2V33.21a.29.29,0,0,0-.09-.23l-.46-.46a.24.24,0,0,0-.2-.09h-2.8c-.09,0-.12,0-.2.09l-.49.46a.29.29,0,0,0-.09.23V43.49a.38.38,0,0,0,.09.2l.4.4h3.35Z"/><path class="cls-7" d="M76,48.34a.41.41,0,0,1-.4-.4V28.59a.4.4,0,0,1,.4-.4h9.18a1,1,0,0,1,.75.29l1.62,1.65a.93.93,0,0,1,.32.75v7.36a.92.92,0,0,1-.32.78l-1.62,1.65a1,1,0,0,1-.69.29h-5.4v7a.44.44,0,0,1-.43.4Zm7.54-12.19a.25.25,0,0,0,.09-.17V33.21a.21.21,0,0,0-.09-.2l-.49-.49a.33.33,0,0,0-.23-.09h-3V36.7h3a.29.29,0,0,0,.23-.09Z"/><path class="cls-7" d="M50.65,91.92a.8.8,0,0,1-.82-.82V59.57H46.54c-.41,0-.76-.41-.47-1.12l2.76-6.75c.24-.53.47-.76.82-.76h7.93a.94.94,0,0,1,.88.82V91.09a.85.85,0,0,1-.88.82Z"/><path class="cls-7" d="M83.89,91.33a1.82,1.82,0,0,1-1.53.59H67a1.93,1.93,0,0,1-1.35-.59L62.34,88a2.09,2.09,0,0,1-.65-1.64v-30a2.09,2.09,0,0,1,.65-1.53l3.29-3.29a2.4,2.4,0,0,1,1.53-.65h15.2a1.84,1.84,0,0,1,1.53.65l3.29,3.29a2.24,2.24,0,0,1,.65,1.53V86.51A2,2,0,0,1,87.18,88ZM79,82.46a.58.58,0,0,0,.18-.47V61.15a.49.49,0,0,0-.18-.41l-1-1a.78.78,0,0,0-.41-.18H71.91a.44.44,0,0,0-.41.18l-.94,1c-.18.24-.23.24-.23.53V81.88a.84.84,0,0,0,.23.59l.76.82H78.2Z"/></svg>